<svg width="216" height="177" viewBox="0 0 216 177" fill="none" xmlns="http://www.w3.org/2000/svg"><path d="M116.632 11.4062C112.79 4.83653 110.868 1.55172 108 1.55172C105.132 1.55172 103.211 4.83653 99.3684 11.4062L91.8024 24.3415C87.8935 31.0244 85.9391 34.3659 87.3801 36.8781C88.8211 39.3904 92.6921 39.3904 100.434 39.3904L115.566 39.3904C123.308 39.3904 127.179 39.3904 128.62 36.8781C130.061 34.3659 128.107 31.0244 124.198 24.3415L116.632 11.4062Z" fill="white" stroke="#3C5D87" stroke-width="1.66667"/><path d="M108 2.34668L106.387 39.3897L106.878 41.126C107.332 42.7352 107.559 43.5398 108 43.5398C108.442 43.5398 108.669 42.7352 109.123 41.126L109.613 39.3897L108 2.34668Z" fill="white"/><path d="M108 2.34668L106.387 39.3897L106.878 41.126C107.332 42.7352 107.559 43.5398 108 43.5398C108.442 43.5398 108.669 42.7352 109.123 41.126L109.613 39.3897L108 2.34668Z" fill="#3C5D87" fill-opacity="0.2"/><path d="M108 2.34668L106.387 39.3897L106.878 41.126C107.332 42.7352 107.559 43.5398 108 43.5398C108.442 43.5398 108.669 42.7352 109.123 41.126L109.613 39.3897L108 2.34668Z" stroke="#3C5D87" stroke-width="1.41667"/><path d="M142.088 73.3688C139.526 68.989 138.245 66.7991 136.333 66.7991C134.421 66.7991 133.141 68.989 130.579 73.3688L126.368 80.5676C123.762 85.0229 122.459 87.2505 123.42 88.9253C124.381 90.6002 126.961 90.6002 132.123 90.6002L140.544 90.6002C145.705 90.6002 148.286 90.6002 149.247 88.9253C150.208 87.2505 148.905 85.0229 146.299 80.5676L142.088 73.3688Z" fill="white" stroke="#3C5D87" stroke-width="1.5"/><path d="M136.333 67.1865L134.667 90.6001L135.538 93.3904C135.864 94.4347 136.027 94.9568 136.333 94.9568C136.64 94.9568 136.803 94.4347 137.129 93.3904L138 90.6001L136.333 67.1865Z" fill="white"/><path d="M136.333 67.1865L134.667 90.6001L135.538 93.3904C135.864 94.4347 136.027 94.9568 136.333 94.9568C136.64 94.9568 136.803 94.4347 137.129 93.3904L138 90.6001L136.333 67.1865Z" fill="#3C5D87" fill-opacity="0.2"/><path d="M136.333 67.1865L134.667 90.6001L135.538 93.3904C135.864 94.4347 136.027 94.9568 136.333 94.9568C136.64 94.9568 136.803 94.4347 137.129 93.3904L138 90.6001L136.333 67.1865Z" stroke="#3C5D87" stroke-width="1.33333"/><path d="M83.1494 89.7119C81.228 86.4271 80.2674 84.7846 78.8334 84.7846C77.3994 84.7846 76.4388 86.4271 74.5175 89.7119L69.9012 97.6043C67.9467 100.946 66.9695 102.616 67.69 103.873C68.4105 105.129 70.346 105.129 74.2171 105.129L83.4497 105.129C87.3208 105.129 89.2563 105.129 89.9768 103.873C90.6973 102.616 89.7201 100.946 87.7657 97.6043L83.1494 89.7119Z" fill="white" stroke="#3C5D87" stroke-width="1.41667"/><path d="M78.833 85.1025L77.583 105.129L78.1948 107.156C78.4552 108.019 78.5854 108.451 78.833 108.451C79.0806 108.451 79.2108 108.019 79.4712 107.156L80.083 105.129L78.833 85.1025Z" fill="white"/><path d="M78.833 85.1025L77.583 105.129L78.1948 107.156C78.4552 108.019 78.5854 108.451 78.833 108.451C79.0806 108.451 79.2108 108.019 79.4712 107.156L80.083 105.129L78.833 85.1025Z" fill="#3C5D87" fill-opacity="0.2"/><path d="M78.833 85.1025L77.583 105.129L78.1948 107.156C78.4552 108.019 78.5854 108.451 78.833 108.451C79.0806 108.451 79.2108 108.019 79.4712 107.156L80.083 105.129L78.833 85.1025Z" stroke="#3C5D87" stroke-width="1.25"/><path opacity="0.5" d="M107.925 50.1021V155.935" stroke="#FF9600" stroke-width="1.66667" stroke-linecap="round" stroke-linejoin="round" stroke-dasharray="3.33 5"/><path opacity="0.5" d="M136.259 100.103V152.603" stroke="#FF9600" stroke-width="1.66667" stroke-linecap="round" stroke-linejoin="round" stroke-dasharray="3.33 5"/><path opacity="0.5" d="M78.7585 113.437V147.603" stroke="#FF9600" stroke-width="1.66667" stroke-linecap="round" stroke-linejoin="round" stroke-dasharray="3.33 5"/><path fill-rule="evenodd" clip-rule="evenodd" d="M94.1276 175.849C94.1282 175.849 94.1288 175.849 94.1294 175.849H98.3693C98.3695 175.849 98.3696 175.849 98.3698 175.849H107.397C107.397 175.849 107.397 175.849 107.397 175.849H108.275C108.277 175.849 108.278 175.849 108.28 175.849H134.539V175.853H142.633L142.632 175.853H148.075C149.483 175.853 150.053 174.04 148.899 173.233L147.69 172.388C149.639 171.017 150.747 169.134 150.453 167.252C149.96 164.096 145.709 162.138 140.958 162.88C140.696 162.921 140.438 162.969 140.184 163.024C138.815 158.91 133.903 156.145 128.344 156.643C122.443 157.171 117.911 161.188 117.754 165.826C114.763 164.852 111.696 165.607 110.231 167.664C109.901 166.06 109.028 164.695 107.662 163.904C105.265 162.517 102.088 163.33 99.8384 165.676C99.6277 163.02 98.6072 160.232 96.7621 157.749C92.3885 151.862 85.0376 149.918 80.3435 153.406C77.9404 155.191 76.6994 158.054 76.6473 161.213C73.0691 158.457 68.8518 157.878 66.544 160.065C64.0562 162.422 64.6564 167.168 67.7843 171.075L65.3098 172.804C63.9676 173.741 64.6309 175.849 66.2681 175.849H72.595L72.5947 175.849H74.8479C74.8488 175.849 74.8498 175.849 74.8507 175.849H78.5642C78.565 175.849 78.5658 175.849 78.5665 175.849H87.122C87.1227 175.849 87.1234 175.849 87.1241 175.849H94.1276Z" fill="white"/><path d="M94.1294 175.849L93.8762 175.187C93.957 175.156 94.0429 175.14 94.1294 175.14V175.849ZM94.1276 175.849L94.3809 176.511C94.3001 176.542 94.2142 176.558 94.1276 176.558V175.849ZM98.3693 175.849V175.14C98.5959 175.14 98.8089 175.249 98.9422 175.432L98.3693 175.849ZM98.3698 175.849V176.558C98.1432 176.558 97.9302 176.449 97.7969 176.266L98.3698 175.849ZM107.397 175.849L107.876 176.371C107.745 176.491 107.574 176.558 107.397 176.558V175.849ZM107.397 175.849L106.918 175.328C107.048 175.208 107.219 175.141 107.397 175.141V175.849ZM108.275 175.849V175.141C108.29 175.141 108.305 175.141 108.321 175.142L108.275 175.849ZM108.28 175.849V176.558C108.265 176.558 108.251 176.557 108.236 176.556L108.28 175.849ZM134.539 175.849V175.141C134.931 175.141 135.248 175.458 135.248 175.849H134.539ZM134.539 175.853V176.561C134.148 176.561 133.831 176.244 133.831 175.853H134.539ZM142.633 175.853V175.144C142.904 175.144 143.152 175.3 143.27 175.544C143.389 175.789 143.356 176.079 143.188 176.292L142.633 175.853ZM142.632 175.853V176.561C142.361 176.561 142.113 176.406 141.995 176.161C141.876 175.917 141.908 175.626 142.077 175.413L142.632 175.853ZM148.899 173.233L148.493 173.814H148.493L148.899 173.233ZM147.69 172.388L147.284 172.969C147.095 172.837 146.982 172.621 146.981 172.39C146.981 172.159 147.093 171.942 147.282 171.809L147.69 172.388ZM150.453 167.252L149.753 167.362L149.753 167.362L150.453 167.252ZM140.958 162.88L140.849 162.18H140.849L140.958 162.88ZM140.184 163.024L140.335 163.717C139.981 163.794 139.626 163.592 139.512 163.248L140.184 163.024ZM128.344 156.643L128.407 157.348L128.344 156.643ZM117.754 165.826L118.462 165.85C118.455 166.073 118.343 166.279 118.161 166.407C117.978 166.534 117.747 166.569 117.535 166.5L117.754 165.826ZM110.231 167.664L110.808 168.075C110.644 168.305 110.36 168.416 110.085 168.357C109.809 168.299 109.594 168.083 109.537 167.807L110.231 167.664ZM107.662 163.904L107.308 164.518L107.662 163.904ZM99.8384 165.676L100.35 166.166C100.157 166.367 99.8633 166.437 99.6005 166.343C99.3377 166.249 99.1544 166.01 99.1323 165.732L99.8384 165.676ZM96.7621 157.749L96.1935 158.171L96.7621 157.749ZM80.3435 153.406L80.7659 153.974L80.3435 153.406ZM76.6473 161.213L77.3556 161.225C77.3511 161.493 77.196 161.735 76.9547 161.852C76.7134 161.968 76.4272 161.938 76.215 161.775L76.6473 161.213ZM66.544 160.065L67.0311 160.579V160.579L66.544 160.065ZM67.7843 171.075L68.3372 170.633C68.4597 170.786 68.5133 170.982 68.4854 171.176C68.4574 171.37 68.3504 171.544 68.1898 171.656L67.7843 171.075ZM65.3098 172.804L65.7154 173.384L65.3098 172.804ZM72.595 175.849L73.1503 175.409C73.3189 175.622 73.3509 175.913 73.2326 176.158C73.1143 176.402 72.8666 176.557 72.595 176.557V175.849ZM72.5947 175.849L72.0393 176.288C71.8707 176.075 71.8387 175.785 71.957 175.54C72.0753 175.296 72.323 175.14 72.5947 175.14V175.849ZM74.8479 175.849V175.14C74.9044 175.14 74.9608 175.147 75.0157 175.161L74.8479 175.849ZM74.8507 175.849V176.558C74.7941 176.558 74.7378 176.551 74.6828 176.538L74.8507 175.849ZM78.5642 175.849L78.7693 176.527C78.7028 176.548 78.6337 176.558 78.5642 176.558V175.849ZM78.5665 175.849L78.3614 175.171C78.4279 175.151 78.4971 175.14 78.5665 175.14V175.849ZM87.122 175.849V175.14C87.1975 175.14 87.2726 175.153 87.3443 175.176L87.122 175.849ZM87.1241 175.849V176.558C87.0485 176.558 86.9735 176.546 86.9017 176.522L87.1241 175.849ZM94.3827 176.51L94.3827 176.51C94.3827 176.51 94.3827 176.51 94.3827 176.51H94.3827L94.3827 176.51C94.3827 176.51 94.3827 176.51 94.3827 176.51C94.3827 176.51 94.3827 176.51 94.3827 176.51C94.3827 176.51 94.3827 176.51 94.3827 176.51C94.3827 176.51 94.3827 176.51 94.3827 176.51C94.3827 176.51 94.3827 176.51 94.3827 176.51C94.3827 176.51 94.3827 176.51 94.3827 176.51C94.3827 176.51 94.3827 176.51 94.3827 176.51C94.3827 176.51 94.3827 176.51 94.3827 176.51C94.3827 176.51 94.3827 176.51 94.3827 176.51C94.3827 176.51 94.3827 176.51 94.3827 176.51H94.3827C94.3827 176.51 94.3827 176.51 94.3827 176.51L94.3827 176.51C94.3827 176.51 94.3827 176.51 94.3827 176.51C94.3827 176.51 94.3827 176.51 94.3827 176.51C94.3827 176.51 94.3827 176.51 94.3827 176.51C94.3827 176.51 94.3827 176.51 94.3827 176.51C94.3827 176.51 94.3827 176.51 94.3827 176.51C94.3827 176.51 94.3827 176.51 94.3827 176.51C94.3827 176.51 94.3827 176.51 94.3827 176.51C94.3826 176.51 94.3826 176.51 94.3826 176.51L94.3826 176.51C94.3826 176.51 94.3826 176.51 94.3826 176.51H94.3826C94.3826 176.51 94.3826 176.51 94.3826 176.51C94.3826 176.51 94.3826 176.51 94.3826 176.51C94.3826 176.51 94.3826 176.51 94.3826 176.51C94.3826 176.51 94.3826 176.51 94.3826 176.51C94.3826 176.51 94.3826 176.51 94.3826 176.51C94.3826 176.51 94.3826 176.51 94.3826 176.51C94.3826 176.51 94.3826 176.51 94.3826 176.51C94.3826 176.51 94.3826 176.51 94.3826 176.51C94.3826 176.51 94.3826 176.51 94.3826 176.51C94.3826 176.51 94.3826 176.51 94.3826 176.51C94.3826 176.51 94.3826 176.51 94.3826 176.51L94.3826 176.51C94.3826 176.51 94.3826 176.51 94.3826 176.51H94.3826C94.3826 176.51 94.3826 176.51 94.3826 176.51C94.3826 176.51 94.3826 176.51 94.3826 176.51C94.3826 176.51 94.3826 176.51 94.3826 176.51C94.3826 176.51 94.3826 176.51 94.3826 176.51C94.3826 176.51 94.3826 176.51 94.3826 176.51C94.3826 176.51 94.3826 176.51 94.3826 176.51C94.3826 176.51 94.3826 176.51 94.3826 176.51C94.3826 176.51 94.3826 176.51 94.3826 176.51C94.3826 176.51 94.3826 176.51 94.3826 176.51C94.3826 176.51 94.3826 176.51 94.3826 176.51C94.3826 176.51 94.3825 176.51 94.3825 176.51L94.3825 176.51C94.3825 176.51 94.3825 176.51 94.3825 176.51H94.3825C94.3825 176.51 94.3825 176.51 94.3825 176.51C94.3825 176.51 94.3825 176.51 94.3825 176.51C94.3825 176.51 94.3825 176.51 94.3825 176.51C94.3825 176.51 94.3825 176.51 94.3825 176.51V176.51C94.3825 176.51 94.3825 176.51 94.3825 176.51C94.3825 176.51 94.3825 176.51 94.3825 176.51C94.3825 176.51 94.3825 176.51 94.3825 176.51C94.3825 176.51 94.3825 176.51 94.3825 176.51H94.3825C94.3825 176.51 94.3825 176.51 94.3825 176.51C94.3825 176.51 94.3825 176.51 94.3825 176.51H94.3825C94.3825 176.51 94.3825 176.51 94.3825 176.51C94.3825 176.51 94.3825 176.51 94.3825 176.51C94.3825 176.51 94.3825 176.51 94.3825 176.51C94.3825 176.51 94.3825 176.51 94.3825 176.51C94.3825 176.51 94.3825 176.51 94.3825 176.51C94.3825 176.51 94.3825 176.51 94.3825 176.51C94.3825 176.51 94.3825 176.51 94.3825 176.51C94.3825 176.51 94.3825 176.51 94.3825 176.51C94.3825 176.51 94.3825 176.51 94.3825 176.51C94.3825 176.51 94.3825 176.51 94.3825 176.51H94.3825L94.3825 176.51C94.3825 176.51 94.3824 176.51 94.3824 176.51H94.3824C94.3824 176.51 94.3824 176.51 94.3824 176.51C94.3824 176.51 94.3824 176.51 94.3824 176.51C94.3824 176.51 94.3824 176.51 94.3824 176.51C94.3824 176.51 94.3824 176.51 94.3824 176.51V176.51C94.3824 176.51 94.3824 176.51 94.3824 176.51C94.3824 176.51 94.3824 176.51 94.3824 176.51C94.3824 176.51 94.3824 176.51 94.3824 176.51C94.3824 176.51 94.3824 176.51 94.3824 176.51H94.3824C94.3824 176.51 94.3824 176.51 94.3824 176.51L94.3824 176.51C94.3824 176.51 94.3824 176.51 94.3824 176.51H94.3824C94.3824 176.51 94.3824 176.51 94.3824 176.51C94.3824 176.51 94.3824 176.51 94.3824 176.51C94.3824 176.51 94.3824 176.51 94.3824 176.51C94.3824 176.51 94.3824 176.51 94.3824 176.51V176.51C94.3824 176.51 94.3824 176.51 94.3824 176.51C94.3824 176.51 94.3824 176.51 94.3824 176.51C94.3824 176.51 94.3824 176.51 94.3824 176.51C94.3824 176.51 94.3824 176.51 94.3824 176.51H94.3824C94.3824 176.51 94.3824 176.51 94.3824 176.51L94.3824 176.51H94.3823C94.3823 176.51 94.3823 176.51 94.3823 176.51C94.3823 176.51 94.3823 176.51 94.3823 176.51C94.3823 176.51 94.3823 176.51 94.3823 176.51C94.3823 176.51 94.3823 176.51 94.3823 176.51C94.3823 176.51 94.3823 176.51 94.3823 176.51C94.3823 176.51 94.3823 176.51 94.3823 176.51C94.3823 176.51 94.3823 176.51 94.3823 176.51C94.3823 176.51 94.3823 176.51 94.3823 176.51C94.3823 176.51 94.3823 176.51 94.3823 176.51C94.3823 176.51 94.3823 176.51 94.3823 176.51H94.3823C94.3823 176.51 94.3823 176.51 94.3823 176.51C94.3823 176.51 94.3823 176.51 94.3823 176.51H94.3823C94.3823 176.51 94.3823 176.51 94.3823 176.51C94.3823 176.51 94.3823 176.51 94.3823 176.51C94.3823 176.51 94.3823 176.51 94.3823 176.51C94.3823 176.51 94.3823 176.51 94.3823 176.51V176.51C94.3823 176.51 94.3823 176.51 94.3823 176.51C94.3823 176.51 94.3823 176.51 94.3823 176.51C94.3823 176.51 94.3823 176.51 94.3823 176.51C94.3823 176.51 94.3823 176.51 94.3823 176.51C94.3823 176.51 94.3823 176.51 94.3823 176.51H94.3823L94.3823 176.51C94.3823 176.51 94.3823 176.51 94.3823 176.51C94.3823 176.51 94.3823 176.51 94.3822 176.51C94.3822 176.51 94.3822 176.51 94.3822 176.51C94.3822 176.51 94.3822 176.51 94.3822 176.51C94.3822 176.51 94.3822 176.51 94.3822 176.51C94.3822 176.51 94.3822 176.51 94.3822 176.51C94.3822 176.51 94.3822 176.51 94.3822 176.51C94.3822 176.51 94.3822 176.51 94.3822 176.51C94.3822 176.51 94.3822 176.51 94.3822 176.51C94.3822 176.51 94.3822 176.51 94.3822 176.51C94.3822 176.51 94.3822 176.51 94.3822 176.51H94.3822C94.3822 176.51 94.3822 176.51 94.3822 176.51L94.3822 176.51C94.3822 176.51 94.3822 176.51 94.3822 176.51C94.3822 176.51 94.3822 176.51 94.3822 176.51C94.3822 176.51 94.3822 176.51 94.3822 176.51C94.3822 176.51 94.3822 176.51 94.3822 176.51C94.3822 176.51 94.3822 176.51 94.3822 176.51C94.3822 176.51 94.3822 176.51 94.3822 176.51C94.3822 176.51 94.3822 176.51 94.3822 176.51C94.3822 176.51 94.3822 176.51 94.3822 176.511C94.3822 176.511 94.3822 176.511 94.3822 176.511C94.3822 176.511 94.3822 176.511 94.3822 176.511C94.3822 176.511 94.3822 176.511 94.3822 176.511H94.3822C94.3822 176.511 94.3822 176.511 94.3822 176.511L94.3822 176.511C94.3822 176.511 94.3822 176.511 94.3822 176.511C94.3822 176.511 94.3822 176.511 94.3821 176.511C94.3821 176.511 94.3821 176.511 94.3821 176.511C94.3821 176.511 94.3821 176.511 94.3821 176.511C94.3821 176.511 94.3821 176.511 94.3821 176.511C94.3821 176.511 94.3821 176.511 94.3821 176.511C94.3821 176.511 94.3821 176.511 94.3821 176.511C94.3821 176.511 94.3821 176.511 94.3821 176.511L94.3821 176.511C94.3821 176.511 94.3821 176.511 94.3821 176.511H94.3821C94.3821 176.511 94.3821 176.511 94.3821 176.511C94.3821 176.511 94.3821 176.511 94.3821 176.511C94.3821 176.511 94.3821 176.511 94.3821 176.511C94.3821 176.511 94.3821 176.511 94.3821 176.511C94.3821 176.511 94.3821 176.511 94.3821 176.511C94.3821 176.511 94.3821 176.511 94.3821 176.511C94.3821 176.511 94.3821 176.511 94.3821 176.511C94.3821 176.511 94.3821 176.511 94.3821 176.511C94.3821 176.511 94.3821 176.511 94.3821 176.511C94.3821 176.511 94.3821 176.511 94.3821 176.511L94.3821 176.511C94.3821 176.511 94.3821 176.511 94.3821 176.511H94.3821L94.3821 176.511C94.3821 176.511 94.3821 176.511 94.3821 176.511C94.3821 176.511 94.3821 176.511 94.3821 176.511C94.3821 176.511 94.3821 176.511 94.382 176.511C94.382 176.511 94.382 176.511 94.382 176.511C94.382 176.511 94.382 176.511 94.382 176.511C94.382 176.511 94.382 176.511 94.382 176.511C94.382 176.511 94.382 176.511 94.382 176.511C94.382 176.511 94.382 176.511 94.382 176.511C94.382 176.511 94.382 176.511 94.382 176.511C94.382 176.511 94.382 176.511 94.382 176.511H94.382C94.382 176.511 94.382 176.511 94.382 176.511C94.382 176.511 94.382 176.511 94.382 176.511C94.382 176.511 94.382 176.511 94.382 176.511C94.382 176.511 94.382 176.511 94.382 176.511C94.382 176.511 94.382 176.511 94.382 176.511C94.382 176.511 94.382 176.511 94.382 176.511C94.382 176.511 94.382 176.511 94.382 176.511C94.382 176.511 94.382 176.511 94.382 176.511C94.382 176.511 94.382 176.511 94.382 176.511C94.382 176.511 94.382 176.511 94.382 176.511L94.382 176.511C94.382 176.511 94.382 176.511 94.382 176.511H94.382C94.382 176.511 94.382 176.511 94.382 176.511C94.382 176.511 94.382 176.511 94.382 176.511C94.382 176.511 94.382 176.511 94.382 176.511C94.382 176.511 94.382 176.511 94.382 176.511C94.382 176.511 94.382 176.511 94.382 176.511C94.382 176.511 94.382 176.511 94.382 176.511C94.3819 176.511 94.3819 176.511 94.3819 176.511C94.3819 176.511 94.3819 176.511 94.3819 176.511C94.3819 176.511 94.3819 176.511 94.3819 176.511C94.3819 176.511 94.3819 176.511 94.3819 176.511C94.3819 176.511 94.3819 176.511 94.3819 176.511L94.3819 176.511C94.3819 176.511 94.3819 176.511 94.3819 176.511H94.3819C94.3819 176.511 94.3819 176.511 94.3819 176.511C94.3819 176.511 94.3819 176.511 94.3819 176.511C94.3819 176.511 94.3819 176.511 94.3819 176.511C94.3819 176.511 94.3819 176.511 94.3819 176.511V176.511C94.3819 176.511 94.3819 176.511 94.3819 176.511C94.3819 176.511 94.3819 176.511 94.3819 176.511C94.3819 176.511 94.3819 176.511 94.3819 176.511C94.3819 176.511 94.3819 176.511 94.3819 176.511C94.3819 176.511 94.3819 176.511 94.3819 176.511C94.3819 176.511 94.3819 176.511 94.3819 176.511L94.3819 176.511C94.3819 176.511 94.3819 176.511 94.3819 176.511H94.3819C94.3819 176.511 94.3819 176.511 94.3819 176.511C94.3819 176.511 94.3819 176.511 94.3819 176.511C94.3819 176.511 94.3819 176.511 94.3819 176.511C94.3819 176.511 94.3819 176.511 94.3819 176.511V176.511C94.3819 176.511 94.3819 176.511 94.3819 176.511C94.3818 176.511 94.3818 176.511 94.3818 176.511C94.3818 176.511 94.3818 176.511 94.3818 176.511C94.3818 176.511 94.3818 176.511 94.3818 176.511H94.3818C94.3818 176.511 94.3818 176.511 94.3818 176.511C94.3818 176.511 94.3818 176.511 94.3818 176.511H94.3818C94.3818 176.511 94.3818 176.511 94.3818 176.511C94.3818 176.511 94.3818 176.511 94.3818 176.511C94.3818 176.511 94.3818 176.511 94.3818 176.511C94.3818 176.511 94.3818 176.511 94.3818 176.511C94.3818 176.511 94.3818 176.511 94.3818 176.511C94.3818 176.511 94.3818 176.511 94.3818 176.511C94.3818 176.511 94.3818 176.511 94.3818 176.511C94.3818 176.511 94.3818 176.511 94.3818 176.511C94.3818 176.511 94.3818 176.511 94.3818 176.511C94.3818 176.511 94.3818 176.511 94.3818 176.511H94.3818L94.3818 176.511C94.3818 176.511 94.3818 176.511 94.3818 176.511H94.3818C94.3818 176.511 94.3818 176.511 94.3818 176.511C94.3818 176.511 94.3818 176.511 94.3818 176.511C94.3818 176.511 94.3818 176.511 94.3818 176.511C94.3818 176.511 94.3818 176.511 94.3818 176.511V176.511C94.3818 176.511 94.3818 176.511 94.3818 176.511C94.3818 176.511 94.3818 176.511 94.3818 176.511C94.3817 176.511 94.3817 176.511 94.3817 176.511C94.3817 176.511 94.3817 176.511 94.3817 176.511H94.3817C94.3817 176.511 94.3817 176.511 94.3817 176.511L94.3817 176.511C94.3817 176.511 94.3817 176.511 94.3817 176.511C94.3817 176.511 94.3817 176.511 94.3817 176.511C94.3817 176.511 94.3817 176.511 94.3817 176.511C94.3817 176.511 94.3817 176.511 94.3817 176.511C94.3817 176.511 94.3817 176.511 94.3817 176.511C94.3817 176.511 94.3817 176.511 94.3817 176.511C94.3817 176.511 94.3817 176.511 94.3817 176.511C94.3817 176.511 94.3817 176.511 94.3817 176.511C94.3817 176.511 94.3817 176.511 94.3817 176.511C94.3817 176.511 94.3817 176.511 94.3817 176.511C94.3817 176.511 94.3817 176.511 94.3817 176.511H94.3817C94.3817 176.511 94.3817 176.511 94.3817 176.511L94.3817 176.511H94.3817C94.3817 176.511 94.3817 176.511 94.3817 176.511C94.3817 176.511 94.3817 176.511 94.3817 176.511C94.3817 176.511 94.3817 176.511 94.3817 176.511C94.3817 176.511 94.3817 176.511 94.3817 176.511C94.3817 176.511 94.3817 176.511 94.3817 176.511C94.3817 176.511 94.3817 176.511 94.3817 176.511C94.3817 176.511 94.3817 176.511 94.3817 176.511C94.3817 176.511 94.3817 176.511 94.3817 176.511C94.3816 176.511 94.3816 176.511 94.3816 176.511C94.3816 176.511 94.3816 176.511 94.3816 176.511H94.3816C94.3816 176.511 94.3816 176.511 94.3816 176.511C94.3816 176.511 94.3816 176.511 94.3816 176.511C94.3816 176.511 94.3816 176.511 94.3816 176.511C94.3816 176.511 94.3816 176.511 94.3816 176.511C94.3816 176.511 94.3816 176.511 94.3816 176.511C94.3816 176.511 94.3816 176.511 94.3816 176.511C94.3816 176.511 94.3816 176.511 94.3816 176.511C94.3816 176.511 94.3816 176.511 94.3816 176.511C94.3816 176.511 94.3816 176.511 94.3816 176.511C94.3816 176.511 94.3816 176.511 94.3816 176.511L94.3816 176.511C94.3816 176.511 94.3816 176.511 94.3816 176.511H94.3816L94.3816 176.511C94.3816 176.511 94.3816 176.511 94.3816 176.511C94.3816 176.511 94.3816 176.511 94.3816 176.511C94.3816 176.511 94.3816 176.511 94.3816 176.511C94.3816 176.511 94.3816 176.511 94.3816 176.511C94.3816 176.511 94.3816 176.511 94.3816 176.511C94.3816 176.511 94.3816 176.511 94.3816 176.511C94.3816 176.511 94.3816 176.511 94.3816 176.511C94.3816 176.511 94.3816 176.511 94.3816 176.511C94.3816 176.511 94.3816 176.511 94.3816 176.511C94.3816 176.511 94.3816 176.511 94.3816 176.511C94.3816 176.511 94.3815 176.511 94.3815 176.511H94.3815C94.3815 176.511 94.3815 176.511 94.3815 176.511L94.3815 176.511C94.3815 176.511 94.3815 176.511 94.3815 176.511C94.3815 176.511 94.3815 176.511 94.3815 176.511C94.3815 176.511 94.3815 176.511 94.3815 176.511C94.3815 176.511 94.3815 176.511 94.3815 176.511C94.3815 176.511 94.3815 176.511 94.3815 176.511C94.3815 176.511 94.3815 176.511 94.3815 176.511C94.3815 176.511 94.3815 176.511 94.3815 176.511C94.3815 176.511 94.3815 176.511 94.3815 176.511L94.3815 176.511C94.3815 176.511 94.3815 176.511 94.3815 176.511H94.3815C94.3815 176.511 94.3815 176.511 94.3815 176.511L94.3815 176.511C94.3815 176.511 94.3815 176.511 94.3815 176.511C94.3815 176.511 94.3815 176.511 94.3815 176.511C94.3815 176.511 94.3815 176.511 94.3815 176.511C94.3815 176.511 94.3815 176.511 94.3815 176.511C94.3815 176.511 94.3815 176.511 94.3815 176.511C94.3815 176.511 94.3815 176.511 94.3815 176.511C94.3815 176.511 94.3815 176.511 94.3815 176.511C94.3815 176.511 94.3815 176.511 94.3815 176.511L94.3815 176.511C94.3815 176.511 94.3815 176.511 94.3815 176.511H94.3814C94.3814 176.511 94.3814 176.511 94.3814 176.511C94.3814 176.511 94.3814 176.511 94.3814 176.511C94.3814 176.511 94.3814 176.511 94.3814 176.511C94.3814 176.511 94.3814 176.511 94.3814 176.511C94.3814 176.511 94.3814 176.511 94.3814 176.511C94.3814 176.511 94.3814 176.511 94.3814 176.511C94.3814 176.511 94.3814 176.511 94.3814 176.511C94.3814 176.511 94.3814 176.511 94.3814 176.511C94.3814 176.511 94.3814 176.511 94.3814 176.511C94.3814 176.511 94.3814 176.511 94.3814 176.511C94.3814 176.511 94.3814 176.511 94.3814 176.511L94.3814 176.511C94.3814 176.511 94.3814 176.511 94.3814 176.511H94.3814L94.3814 176.511C94.3814 176.511 94.3814 176.511 94.3814 176.511C94.3814 176.511 94.3814 176.511 94.3814 176.511C94.3814 176.511 94.3814 176.511 94.3814 176.511C94.3814 176.511 94.3814 176.511 94.3814 176.511C94.3814 176.511 94.3814 176.511 94.3814 176.511C94.3814 176.511 94.3814 176.511 94.3814 176.511C94.3814 176.511 94.3814 176.511 94.3814 176.511C94.3814 176.511 94.3814 176.511 94.3814 176.511C94.3814 176.511 94.3814 176.511 94.3814 176.511C94.3814 176.511 94.3814 176.511 94.3814 176.511H94.3814C94.3814 176.511 94.3813 176.511 94.3813 176.511C94.3813 176.511 94.3813 176.511 94.3813 176.511C94.3813 176.511 94.3813 176.511 94.3813 176.511C94.3813 176.511 94.3813 176.511 94.3813 176.511C94.3813 176.511 94.3813 176.511 94.3813 176.511C94.3813 176.511 94.3813 176.511 94.3813 176.511C94.3813 176.511 94.3813 176.511 94.3813 176.511C94.3813 176.511 94.3813 176.511 94.3813 176.511C94.3813 176.511 94.3813 176.511 94.3813 176.511C94.3813 176.511 94.3813 176.511 94.3813 176.511H94.3813L94.3813 176.511C94.3813 176.511 94.3813 176.511 94.3813 176.511H94.3813C94.3813 176.511 94.3813 176.511 94.3813 176.511C94.3813 176.511 94.3813 176.511 94.3813 176.511C94.3813 176.511 94.3813 176.511 94.3813 176.511C94.3813 176.511 94.3813 176.511 94.3813 176.511C94.3813 176.511 94.3813 176.511 94.3813 176.511C94.3813 176.511 94.3813 176.511 94.3813 176.511C94.3813 176.511 94.3813 176.511 94.3813 176.511C94.3813 176.511 94.3813 176.511 94.3813 176.511C94.3813 176.511 94.3813 176.511 94.3813 176.511C94.3813 176.511 94.3813 176.511 94.3813 176.511C94.3813 176.511 94.3813 176.511 94.3813 176.511L94.3813 176.511C94.3813 176.511 94.3813 176.511 94.3813 176.511H94.3813C94.3813 176.511 94.3813 176.511 94.3812 176.511C94.3812 176.511 94.3812 176.511 94.3812 176.511C94.3812 176.511 94.3812 176.511 94.3812 176.511C94.3812 176.511 94.3812 176.511 94.3812 176.511V176.511C94.3812 176.511 94.3812 176.511 94.3812 176.511C94.3812 176.511 94.3812 176.511 94.3812 176.511C94.3812 176.511 94.3812 176.511 94.3812 176.511C94.3812 176.511 94.3812 176.511 94.3812 176.511H94.3812C94.3812 176.511 94.3812 176.511 94.3812 176.511L94.3812 176.511C94.3812 176.511 94.3812 176.511 94.3812 176.511C94.3812 176.511 94.3812 176.511 94.3812 176.511C94.3812 176.511 94.3812 176.511 94.3812 176.511C94.3812 176.511 94.3812 176.511 94.3812 176.511C94.3812 176.511 94.3812 176.511 94.3812 176.511C94.3812 176.511 94.3812 176.511 94.3812 176.511V176.511C94.3812 176.511 94.3812 176.511 94.3812 176.511C94.3812 176.511 94.3812 176.511 94.3812 176.511C94.3812 176.511 94.3812 176.511 94.3812 176.511C94.3812 176.511 94.3812 176.511 94.3812 176.511H94.3812C94.3812 176.511 94.3812 176.511 94.3812 176.511C94.3812 176.511 94.3812 176.511 94.3812 176.511H94.3812C94.3812 176.511 94.3812 176.511 94.3812 176.511C94.3812 176.511 94.3812 176.511 94.3811 176.511C94.3811 176.511 94.3811 176.511 94.3811 176.511C94.3811 176.511 94.3811 176.511 94.3811 176.511V176.511C94.3811 176.511 94.3811 176.511 94.3811 176.511C94.3811 176.511 94.3811 176.511 94.3811 176.511C94.3811 176.511 94.3811 176.511 94.3811 176.511C94.3811 176.511 94.3811 176.511 94.3811 176.511C94.3811 176.511 94.3811 176.511 94.3811 176.511H94.3811L94.3811 176.511C94.3811 176.511 94.3811 176.511 94.3811 176.511C94.3811 176.511 94.3811 176.511 94.3811 176.511C94.3811 176.511 94.3811 176.511 94.3811 176.511C94.3811 176.511 94.3811 176.511 94.3811 176.511C94.3811 176.511 94.3811 176.511 94.3811 176.511C94.3811 176.511 94.3811 176.511 94.3811 176.511V176.511C94.3811 176.511 94.3811 176.511 94.3811 176.511C94.3811 176.511 94.3811 176.511 94.3811 176.511C94.3811 176.511 94.3811 176.511 94.3811 176.511C94.3811 176.511 94.3811 176.511 94.3811 176.511H94.3811C94.3811 176.511 94.3811 176.511 94.3811 176.511L94.3811 176.511C94.3811 176.511 94.3811 176.511 94.3811 176.511C94.3811 176.511 94.3811 176.511 94.3811 176.511C94.3811 176.511 94.3811 176.511 94.3811 176.511C94.3811 176.511 94.3811 176.511 94.3811 176.511C94.3811 176.511 94.3811 176.511 94.381 176.511C94.381 176.511 94.381 176.511 94.381 176.511C94.381 176.511 94.381 176.511 94.381 176.511C94.381 176.511 94.381 176.511 94.381 176.511C94.381 176.511 94.381 176.511 94.381 176.511C94.381 176.511 94.381 176.511 94.381 176.511C94.381 176.511 94.381 176.511 94.381 176.511H94.381C94.381 176.511 94.381 176.511 94.381 176.511L94.381 176.511C94.381 176.511 94.381 176.511 94.381 176.511C94.381 176.511 94.381 176.511 94.381 176.511C94.381 176.511 94.381 176.511 94.381 176.511C94.381 176.511 94.381 176.511 94.381 176.511C94.381 176.511 94.381 176.511 94.381 176.511C94.381 176.511 94.381 176.511 94.381 176.511C94.381 176.511 94.381 176.511 94.381 176.511C94.381 176.511 94.381 176.511 94.381 176.511C94.381 176.511 94.381 176.511 94.381 176.511C94.381 176.511 94.381 176.511 94.381 176.511H94.381C94.381 176.511 94.381 176.511 94.381 176.511C94.381 176.511 94.381 176.511 94.381 176.511C94.381 176.511 94.381 176.511 94.381 176.511C94.381 176.511 94.381 176.511 94.381 176.511C94.381 176.511 94.381 176.511 94.381 176.511C94.381 176.511 94.381 176.511 94.381 176.511C94.3809 176.511 94.3809 176.511 94.3809 176.511C94.3809 176.511 94.3809 176.511 94.3809 176.511C94.3809 176.511 94.3809 176.511 94.3809 176.511C94.3809 176.511 94.3809 176.511 94.3809 176.511L93.8743 175.188C93.8743 175.188 93.8743 175.188 93.8743 175.188C93.8744 175.188 93.8744 175.188 93.8744 175.188C93.8744 175.188 93.8744 175.188 93.8744 175.188C93.8744 175.188 93.8744 175.188 93.8744 175.188C93.8744 175.188 93.8744 175.188 93.8744 175.188L93.8744 175.188H93.8744C93.8744 175.188 93.8744 175.188 93.8744 175.188L93.8744 175.188C93.8744 175.188 93.8744 175.188 93.8744 175.188C93.8744 175.188 93.8744 175.188 93.8744 175.188C93.8744 175.188 93.8744 175.188 93.8744 175.188C93.8744 175.188 93.8744 175.188 93.8744 175.188C93.8744 175.188 93.8744 175.188 93.8744 175.188C93.8744 175.188 93.8744 175.188 93.8744 175.188C93.8744 175.188 93.8744 175.188 93.8744 175.188C93.8744 175.188 93.8744 175.188 93.8744 175.188L93.8744 175.188C93.8744 175.188 93.8744 175.188 93.8744 175.188H93.8744C93.8744 175.188 93.8744 175.188 93.8744 175.188C93.8744 175.188 93.8744 175.188 93.8744 175.188C93.8744 175.188 93.8744 175.188 93.8744 175.188C93.8744 175.188 93.8744 175.188 93.8744 175.188C93.8744 175.188 93.8744 175.188 93.8744 175.188C93.8744 175.188 93.8744 175.188 93.8744 175.188C93.8744 175.188 93.8744 175.188 93.8744 175.188C93.8744 175.188 93.8744 175.188 93.8744 175.188C93.8745 175.188 93.8745 175.188 93.8745 175.188C93.8745 175.188 93.8745 175.188 93.8745 175.188C93.8745 175.188 93.8745 175.188 93.8745 175.188L93.8745 175.188C93.8745 175.188 93.8745 175.188 93.8745 175.188H93.8745C93.8745 175.188 93.8745 175.188 93.8745 175.188C93.8745 175.188 93.8745 175.188 93.8745 175.188C93.8745 175.188 93.8745 175.188 93.8745 175.188C93.8745 175.188 93.8745 175.188 93.8745 175.188C93.8745 175.188 93.8745 175.188 93.8745 175.188C93.8745 175.188 93.8745 175.188 93.8745 175.188C93.8745 175.188 93.8745 175.188 93.8745 175.188C93.8745 175.188 93.8745 175.188 93.8745 175.188C93.8745 175.188 93.8745 175.188 93.8745 175.188C93.8745 175.188 93.8745 175.188 93.8745 175.188C93.8745 175.188 93.8745 175.188 93.8745 175.188L93.8745 175.188C93.8745 175.188 93.8745 175.188 93.8745 175.188H93.8745C93.8745 175.188 93.8745 175.188 93.8745 175.188C93.8745 175.188 93.8745 175.188 93.8745 175.188C93.8745 175.188 93.8745 175.188 93.8745 175.188C93.8745 175.188 93.8745 175.188 93.8745 175.188V175.188C93.8745 175.188 93.8745 175.188 93.8745 175.188C93.8745 175.188 93.8745 175.188 93.8745 175.188C93.8745 175.188 93.8745 175.188 93.8745 175.188C93.8745 175.188 93.8745 175.188 93.8745 175.188C93.8746 175.188 93.8746 175.188 93.8746 175.188C93.8746 175.188 93.8746 175.188 93.8746 175.188L93.8746 175.188H93.8746C93.8746 175.188 93.8746 175.188 93.8746 175.188C93.8746 175.188 93.8746 175.188 93.8746 175.188C93.8746 175.188 93.8746 175.188 93.8746 175.188C93.8746 175.188 93.8746 175.188 93.8746 175.188C93.8746 175.188 93.8746 175.188 93.8746 175.188C93.8746 175.188 93.8746 175.188 93.8746 175.188C93.8746 175.188 93.8746 175.188 93.8746 175.188C93.8746 175.188 93.8746 175.188 93.8746 175.188C93.8746 175.188 93.8746 175.188 93.8746 175.188C93.8746 175.188 93.8746 175.188 93.8746 175.188H93.8746L93.8746 175.188C93.8746 175.188 93.8746 175.188 93.8746 175.188H93.8746C93.8746 175.188 93.8746 175.188 93.8746 175.188C93.8746 175.188 93.8746 175.188 93.8746 175.188C93.8746 175.188 93.8746 175.188 93.8746 175.188C93.8746 175.188 93.8746 175.188 93.8746 175.188V175.188C93.8746 175.188 93.8746 175.188 93.8746 175.188C93.8746 175.188 93.8746 175.188 93.8746 175.188C93.8746 175.188 93.8746 175.188 93.8746 175.188C93.8746 175.188 93.8746 175.188 93.8746 175.188C93.8746 175.188 93.8746 175.188 93.8746 175.188C93.8746 175.188 93.8747 175.188 93.8747 175.188L93.8747 175.188C93.8747 175.188 93.8747 175.188 93.8747 175.188H93.8747C93.8747 175.188 93.8747 175.188 93.8747 175.188C93.8747 175.188 93.8747 175.188 93.8747 175.188C93.8747 175.188 93.8747 175.188 93.8747 175.188C93.8747 175.188 93.8747 175.188 93.8747 175.188V175.188C93.8747 175.188 93.8747 175.188 93.8747 175.188C93.8747 175.188 93.8747 175.188 93.8747 175.188C93.8747 175.188 93.8747 175.188 93.8747 175.188C93.8747 175.188 93.8747 175.188 93.8747 175.188H93.8747C93.8747 175.188 93.8747 175.188 93.8747 175.188L93.8747 175.188C93.8747 175.188 93.8747 175.188 93.8747 175.188C93.8747 175.188 93.8747 175.188 93.8747 175.188C93.8747 175.188 93.8747 175.188 93.8747 175.188C93.8747 175.188 93.8747 175.188 93.8747 175.188C93.8747 175.188 93.8747 175.188 93.8747 175.188C93.8747 175.188 93.8747 175.188 93.8747 175.188C93.8747 175.188 93.8747 175.188 93.8747 175.188C93.8747 175.188 93.8747 175.188 93.8747 175.188C93.8747 175.188 93.8747 175.188 93.8747 175.188C93.8747 175.188 93.8747 175.188 93.8747 175.188C93.8747 175.188 93.8747 175.188 93.8747 175.188H93.8747C93.8747 175.188 93.8748 175.188 93.8748 175.188C93.8748 175.188 93.8748 175.188 93.8748 175.188H93.8748C93.8748 175.188 93.8748 175.188 93.8748 175.188C93.8748 175.188 93.8748 175.188 93.8748 175.188C93.8748 175.188 93.8748 175.188 93.8748 175.188C93.8748 175.188 93.8748 175.188 93.8748 175.188C93.8748 175.188 93.8748 175.188 93.8748 175.188C93.8748 175.188 93.8748 175.188 93.8748 175.188C93.8748 175.188 93.8748 175.188 93.8748 175.188C93.8748 175.188 93.8748 175.188 93.8748 175.188C93.8748 175.188 93.8748 175.188 93.8748 175.188C93.8748 175.188 93.8748 175.188 93.8748 175.188H93.8748L93.8748 175.188C93.8748 175.188 93.8748 175.188 93.8748 175.188C93.8748 175.188 93.8748 175.188 93.8748 175.188C93.8748 175.188 93.8748 175.188 93.8748 175.188C93.8748 175.188 93.8748 175.188 93.8748 175.188C93.8748 175.188 93.8748 175.188 93.8748 175.188C93.8748 175.188 93.8748 175.188 93.8748 175.188C93.8748 175.188 93.8748 175.188 93.8748 175.188C93.8748 175.188 93.8748 175.188 93.8748 175.188C93.8748 175.188 93.8748 175.188 93.8748 175.188C93.8748 175.188 93.8748 175.188 93.8748 175.188L93.8748 175.188H93.8748C93.8748 175.188 93.8748 175.188 93.8748 175.188L93.8749 175.188C93.8749 175.188 93.8749 175.188 93.8749 175.188C93.8749 175.188 93.8749 175.188 93.8749 175.188C93.8749 175.188 93.8749 175.188 93.8749 175.188C93.8749 175.188 93.8749 175.188 93.8749 175.188C93.8749 175.188 93.8749 175.188 93.8749 175.188C93.8749 175.188 93.8749 175.188 93.8749 175.188C93.8749 175.188 93.8749 175.188 93.8749 175.188C93.8749 175.188 93.8749 175.188 93.8749 175.188C93.8749 175.188 93.8749 175.188 93.8749 175.188C93.8749 175.188 93.8749 175.188 93.8749 175.188C93.8749 175.188 93.8749 175.188 93.8749 175.188H93.8749C93.8749 175.188 93.8749 175.188 93.8749 175.188L93.8749 175.188C93.8749 175.188 93.8749 175.188 93.8749 175.188C93.8749 175.188 93.8749 175.188 93.8749 175.188C93.8749 175.188 93.8749 175.188 93.8749 175.188C93.8749 175.188 93.8749 175.188 93.8749 175.188C93.8749 175.188 93.8749 175.188 93.8749 175.188C93.8749 175.188 93.8749 175.188 93.8749 175.188C93.8749 175.188 93.8749 175.188 93.8749 175.188C93.8749 175.188 93.8749 175.188 93.8749 175.188L93.8749 175.188C93.8749 175.188 93.8749 175.188 93.8749 175.188H93.8749C93.8749 175.188 93.8749 175.188 93.8749 175.188C93.8749 175.188 93.875 175.188 93.875 175.188C93.875 175.188 93.875 175.188 93.875 175.188C93.875 175.188 93.875 175.188 93.875 175.188C93.875 175.188 93.875 175.188 93.875 175.188C93.875 175.188 93.875 175.188 93.875 175.188C93.875 175.188 93.875 175.188 93.875 175.188C93.875 175.188 93.875 175.188 93.875 175.188C93.875 175.188 93.875 175.188 93.875 175.188C93.875 175.188 93.875 175.188 93.875 175.188L93.875 175.188C93.875 175.188 93.875 175.188 93.875 175.188H93.875L93.875 175.188C93.875 175.188 93.875 175.188 93.875 175.188C93.875 175.188 93.875 175.188 93.875 175.188C93.875 175.188 93.875 175.188 93.875 175.188C93.875 175.188 93.875 175.188 93.875 175.188C93.875 175.188 93.875 175.188 93.875 175.188C93.875 175.188 93.875 175.188 93.875 175.188C93.875 175.188 93.875 175.188 93.875 175.188C93.875 175.188 93.875 175.188 93.875 175.188C93.875 175.188 93.875 175.188 93.875 175.188L93.875 175.188H93.875C93.875 175.188 93.875 175.188 93.875 175.188C93.875 175.188 93.875 175.188 93.875 175.188C93.875 175.188 93.875 175.188 93.875 175.188C93.875 175.188 93.875 175.188 93.8751 175.188C93.8751 175.188 93.8751 175.188 93.8751 175.188C93.8751 175.188 93.8751 175.188 93.8751 175.188C93.8751 175.188 93.8751 175.188 93.8751 175.188C93.8751 175.188 93.8751 175.188 93.8751 175.188C93.8751 175.188 93.8751 175.188 93.8751 175.188C93.8751 175.188 93.8751 175.188 93.8751 175.188L93.8751 175.188C93.8751 175.188 93.8751 175.188 93.8751 175.188H93.8751C93.8751 175.188 93.8751 175.188 93.8751 175.188C93.8751 175.188 93.8751 175.188 93.8751 175.188C93.8751 175.188 93.8751 175.188 93.8751 175.188C93.8751 175.188 93.8751 175.188 93.8751 175.188C93.8751 175.188 93.8751 175.188 93.8751 175.188C93.8751 175.188 93.8751 175.188 93.8751 175.188C93.8751 175.188 93.8751 175.188 93.8751 175.188C93.8751 175.188 93.8751 175.188 93.8751 175.188C93.8751 175.188 93.8751 175.188 93.8751 175.188C93.8751 175.188 93.8751 175.188 93.8751 175.188C93.8751 175.188 93.8751 175.188 93.8751 175.188L93.8751 175.188C93.8751 175.188 93.8751 175.188 93.8751 175.188H93.8751C93.8751 175.188 93.8751 175.188 93.8751 175.188C93.8751 175.188 93.8751 175.188 93.8751 175.188C93.8751 175.188 93.8751 175.188 93.8751 175.188C93.8751 175.188 93.8751 175.188 93.8752 175.188C93.8752 175.188 93.8752 175.188 93.8752 175.188C93.8752 175.188 93.8752 175.188 93.8752 175.188C93.8752 175.188 93.8752 175.188 93.8752 175.188C93.8752 175.188 93.8752 175.188 93.8752 175.188C93.8752 175.188 93.8752 175.188 93.8752 175.188C93.8752 175.188 93.8752 175.188 93.8752 175.188C93.8752 175.188 93.8752 175.188 93.8752 175.188L93.8752 175.188C93.8752 175.188 93.8752 175.188 93.8752 175.188H93.8752C93.8752 175.188 93.8752 175.188 93.8752 175.188C93.8752 175.188 93.8752 175.188 93.8752 175.188C93.8752 175.188 93.8752 175.188 93.8752 175.188C93.8752 175.188 93.8752 175.188 93.8752 175.188V175.188C93.8752 175.188 93.8752 175.188 93.8752 175.188C93.8752 175.188 93.8752 175.188 93.8752 175.188C93.8752 175.188 93.8752 175.188 93.8752 175.188C93.8752 175.188 93.8752 175.188 93.8752 175.188H93.8752C93.8752 175.188 93.8752 175.188 93.8752 175.188L93.8752 175.188H93.8752C93.8752 175.188 93.8752 175.188 93.8752 175.188C93.8752 175.188 93.8752 175.188 93.8752 175.188C93.8752 175.188 93.8752 175.188 93.8752 175.188C93.8752 175.188 93.8752 175.188 93.8752 175.188C93.8752 175.188 93.8752 175.188 93.8753 175.188C93.8753 175.188 93.8753 175.188 93.8753 175.188C93.8753 175.188 93.8753 175.188 93.8753 175.188C93.8753 175.188 93.8753 175.188 93.8753 175.188C93.8753 175.188 93.8753 175.188 93.8753 175.188C93.8753 175.188 93.8753 175.188 93.8753 175.188H93.8753L93.8753 175.188C93.8753 175.188 93.8753 175.188 93.8753 175.188H93.8753C93.8753 175.188 93.8753 175.188 93.8753 175.188C93.8753 175.188 93.8753 175.188 93.8753 175.188C93.8753 175.188 93.8753 175.188 93.8753 175.188C93.8753 175.188 93.8753 175.188 93.8753 175.188V175.188C93.8753 175.188 93.8753 175.188 93.8753 175.188C93.8753 175.188 93.8753 175.188 93.8753 175.188C93.8753 175.188 93.8753 175.188 93.8753 175.188C93.8753 175.188 93.8753 175.188 93.8753 175.188H93.8753C93.8753 175.188 93.8753 175.188 93.8753 175.188L93.8753 175.188C93.8753 175.188 93.8753 175.188 93.8753 175.188C93.8753 175.188 93.8753 175.188 93.8753 175.188C93.8753 175.188 93.8753 175.188 93.8753 175.188C93.8753 175.188 93.8753 175.188 93.8753 175.188C93.8753 175.188 93.8753 175.188 93.8753 175.188C93.8753 175.188 93.8753 175.188 93.8753 175.188C93.8753 175.188 93.8753 175.188 93.8753 175.188C93.8754 175.188 93.8754 175.188 93.8754 175.188C93.8754 175.188 93.8754 175.188 93.8754 175.188C93.8754 175.188 93.8754 175.188 93.8754 175.188C93.8754 175.188 93.8754 175.188 93.8754 175.188H93.8754C93.8754 175.188 93.8754 175.188 93.8754 175.188L93.8754 175.188C93.8754 175.188 93.8754 175.188 93.8754 175.188C93.8754 175.188 93.8754 175.188 93.8754 175.188C93.8754 175.188 93.8754 175.188 93.8754 175.188C93.8754 175.188 93.8754 175.188 93.8754 175.188C93.8754 175.188 93.8754 175.188 93.8754 175.188C93.8754 175.188 93.8754 175.188 93.8754 175.188C93.8754 175.188 93.8754 175.188 93.8754 175.188C93.8754 175.188 93.8754 175.188 93.8754 175.188C93.8754 175.188 93.8754 175.188 93.8754 175.188C93.8754 175.188 93.8754 175.188 93.8754 175.188C93.8754 175.188 93.8754 175.188 93.8754 175.188H93.8754C93.8754 175.188 93.8754 175.188 93.8754 175.188C93.8754 175.188 93.8754 175.188 93.8754 175.188C93.8754 175.188 93.8754 175.188 93.8754 175.188C93.8754 175.188 93.8754 175.188 93.8754 175.188C93.8754 175.188 93.8754 175.188 93.8754 175.188C93.8754 175.188 93.8754 175.188 93.8754 175.188C93.8754 175.188 93.8754 175.188 93.8754 175.188C93.8754 175.188 93.8754 175.188 93.8754 175.188C93.8755 175.188 93.8755 175.188 93.8755 175.188C93.8755 175.188 93.8755 175.188 93.8755 175.188C93.8755 175.188 93.8755 175.188 93.8755 175.188C93.8755 175.188 93.8755 175.188 93.8755 175.188H93.8755L93.8755 175.188C93.8755 175.188 93.8755 175.188 93.8755 175.188C93.8755 175.188 93.8755 175.188 93.8755 175.188C93.8755 175.188 93.8755 175.188 93.8755 175.188C93.8755 175.188 93.8755 175.188 93.8755 175.188C93.8755 175.188 93.8755 175.188 93.8755 175.188C93.8755 175.188 93.8755 175.188 93.8755 175.188C93.8755 175.188 93.8755 175.188 93.8755 175.188C93.8755 175.188 93.8755 175.188 93.8755 175.188C93.8755 175.188 93.8755 175.188 93.8755 175.188C93.8755 175.188 93.8755 175.188 93.8755 175.188L93.8755 175.188H93.8755C93.8755 175.188 93.8755 175.188 93.8755 175.188L93.8755 175.188C93.8755 175.188 93.8755 175.188 93.8755 175.188C93.8755 175.188 93.8755 175.188 93.8755 175.188C93.8755 175.188 93.8755 175.188 93.8755 175.188C93.8755 175.188 93.8755 175.188 93.8755 175.188C93.8755 175.188 93.8755 175.188 93.8755 175.188C93.8755 175.188 93.8755 175.188 93.8755 175.188C93.8755 175.188 93.8755 175.188 93.8755 175.188C93.8755 175.188 93.8755 175.188 93.8755 175.188C93.8756 175.188 93.8756 175.188 93.8756 175.188C93.8756 175.188 93.8756 175.188 93.8756 175.188H93.8756C93.8756 175.188 93.8756 175.188 93.8756 175.188L93.8756 175.188C93.8756 175.188 93.8756 175.188 93.8756 175.188C93.8756 175.188 93.8756 175.188 93.8756 175.188C93.8756 175.188 93.8756 175.188 93.8756 175.188C93.8756 175.188 93.8756 175.188 93.8756 175.188C93.8756 175.188 93.8756 175.188 93.8756 175.188C93.8756 175.188 93.8756 175.188 93.8756 175.188C93.8756 175.188 93.8756 175.188 93.8756 175.188C93.8756 175.188 93.8756 175.188 93.8756 175.188L93.8756 175.188C93.8756 175.188 93.8756 175.188 93.8756 175.188H93.8756C93.8756 175.187 93.8756 175.187 93.8756 175.187C93.8756 175.187 93.8756 175.187 93.8756 175.187C93.8756 175.187 93.8756 175.187 93.8756 175.187C93.8756 175.187 93.8756 175.187 93.8756 175.187C93.8756 175.187 93.8756 175.187 93.8756 175.187C93.8756 175.187 93.8756 175.187 93.8756 175.187C93.8756 175.187 93.8756 175.187 93.8756 175.187C93.8756 175.187 93.8756 175.187 93.8756 175.187C93.8756 175.187 93.8756 175.187 93.8756 175.187C93.8756 175.187 93.8756 175.187 93.8756 175.187C93.8756 175.187 93.8756 175.187 93.8756 175.187L93.8757 175.187C93.8757 175.187 93.8757 175.187 93.8757 175.187H93.8757L93.8757 175.187C93.8757 175.187 93.8757 175.187 93.8757 175.187C93.8757 175.187 93.8757 175.187 93.8757 175.187C93.8757 175.187 93.8757 175.187 93.8757 175.187C93.8757 175.187 93.8757 175.187 93.8757 175.187C93.8757 175.187 93.8757 175.187 93.8757 175.187C93.8757 175.187 93.8757 175.187 93.8757 175.187C93.8757 175.187 93.8757 175.187 93.8757 175.187C93.8757 175.187 93.8757 175.187 93.8757 175.187C93.8757 175.187 93.8757 175.187 93.8757 175.187L93.8757 175.187H93.8757C93.8757 175.187 93.8757 175.187 93.8757 175.187C93.8757 175.187 93.8757 175.187 93.8757 175.187C93.8757 175.187 93.8757 175.187 93.8757 175.187C93.8757 175.187 93.8757 175.187 93.8757 175.187C93.8757 175.187 93.8757 175.187 93.8757 175.187C93.8757 175.187 93.8757 175.187 93.8757 175.187C93.8757 175.187 93.8757 175.187 93.8757 175.187C93.8757 175.187 93.8757 175.187 93.8757 175.187C93.8757 175.187 93.8757 175.187 93.8757 175.187C93.8757 175.187 93.8757 175.187 93.8757 175.187H93.8757L93.8757 175.187C93.8757 175.187 93.8758 175.187 93.8758 175.187H93.8758C93.8758 175.187 93.8758 175.187 93.8758 175.187C93.8758 175.187 93.8758 175.187 93.8758 175.187C93.8758 175.187 93.8758 175.187 93.8758 175.187C93.8758 175.187 93.8758 175.187 93.8758 175.187C93.8758 175.187 93.8758 175.187 93.8758 175.187C93.8758 175.187 93.8758 175.187 93.8758 175.187C93.8758 175.187 93.8758 175.187 93.8758 175.187C93.8758 175.187 93.8758 175.187 93.8758 175.187C93.8758 175.187 93.8758 175.187 93.8758 175.187C93.8758 175.187 93.8758 175.187 93.8758 175.187C93.8758 175.187 93.8758 175.187 93.8758 175.187L93.8758 175.187C93.8758 175.187 93.8758 175.187 93.8758 175.187H93.8758C93.8758 175.187 93.8758 175.187 93.8758 175.187C93.8758 175.187 93.8758 175.187 93.8758 175.187C93.8758 175.187 93.8758 175.187 93.8758 175.187C93.8758 175.187 93.8758 175.187 93.8758 175.187V175.187C93.8758 175.187 93.8758 175.187 93.8758 175.187C93.8758 175.187 93.8758 175.187 93.8758 175.187C93.8758 175.187 93.8758 175.187 93.8758 175.187C93.8758 175.187 93.8758 175.187 93.8758 175.187H93.8758C93.8758 175.187 93.8758 175.187 93.8758 175.187L93.8758 175.187C93.8758 175.187 93.8759 175.187 93.8759 175.187H93.8759C93.8759 175.187 93.8759 175.187 93.8759 175.187C93.8759 175.187 93.8759 175.187 93.8759 175.187C93.8759 175.187 93.8759 175.187 93.8759 175.187C93.8759 175.187 93.8759 175.187 93.8759 175.187V175.187C93.8759 175.187 93.8759 175.187 93.8759 175.187C93.8759 175.187 93.8759 175.187 93.8759 175.187C93.8759 175.187 93.8759 175.187 93.8759 175.187C93.8759 175.187 93.8759 175.187 93.8759 175.187H93.8759C93.8759 175.187 93.8759 175.187 93.8759 175.187L93.8759 175.187H93.8759C93.8759 175.187 93.8759 175.187 93.8759 175.187C93.8759 175.187 93.8759 175.187 93.8759 175.187C93.8759 175.187 93.8759 175.187 93.8759 175.187C93.8759 175.187 93.8759 175.187 93.8759 175.187C93.8759 175.187 93.8759 175.187 93.8759 175.187C93.8759 175.187 93.8759 175.187 93.8759 175.187C93.8759 175.187 93.8759 175.187 93.8759 175.187C93.8759 175.187 93.8759 175.187 93.8759 175.187C93.8759 175.187 93.8759 175.187 93.8759 175.187C93.8759 175.187 93.8759 175.187 93.8759 175.187H93.8759L93.8759 175.187C93.8759 175.187 93.8759 175.187 93.8759 175.187C93.8759 175.187 93.8759 175.187 93.8759 175.187C93.8759 175.187 93.8759 175.187 93.876 175.187C93.876 175.187 93.876 175.187 93.876 175.187C93.876 175.187 93.876 175.187 93.876 175.187C93.876 175.187 93.876 175.187 93.876 175.187V175.187C93.876 175.187 93.876 175.187 93.876 175.187C93.876 175.187 93.876 175.187 93.876 175.187C93.876 175.187 93.876 175.187 93.876 175.187C93.876 175.187 93.876 175.187 93.876 175.187H93.876C93.876 175.187 93.876 175.187 93.876 175.187L93.876 175.187C93.876 175.187 93.876 175.187 93.876 175.187C93.876 175.187 93.876 175.187 93.876 175.187C93.876 175.187 93.876 175.187 93.876 175.187C93.876 175.187 93.876 175.187 93.876 175.187C93.876 175.187 93.876 175.187 93.876 175.187C93.876 175.187 93.876 175.187 93.876 175.187C93.876 175.187 93.876 175.187 93.876 175.187C93.876 175.187 93.876 175.187 93.876 175.187C93.876 175.187 93.876 175.187 93.876 175.187C93.876 175.187 93.876 175.187 93.876 175.187C93.876 175.187 93.876 175.187 93.876 175.187H93.876C93.876 175.187 93.876 175.187 93.876 175.187L93.876 175.187C93.876 175.187 93.876 175.187 93.876 175.187C93.876 175.187 93.876 175.187 93.876 175.187C93.876 175.187 93.876 175.187 93.8761 175.187C93.8761 175.187 93.8761 175.187 93.8761 175.187C93.8761 175.187 93.8761 175.187 93.8761 175.187C93.8761 175.187 93.8761 175.187 93.8761 175.187C93.8761 175.187 93.8761 175.187 93.8761 175.187C93.8761 175.187 93.8761 175.187 93.8761 175.187C93.8761 175.187 93.8761 175.187 93.8761 175.187C93.8761 175.187 93.8761 175.187 93.8761 175.187C93.8761 175.187 93.8761 175.187 93.8761 175.187H93.8761C93.8761 175.187 93.8761 175.187 93.8761 175.187C93.8761 175.187 93.8761 175.187 93.8761 175.187C93.8761 175.187 93.8761 175.187 93.8761 175.187C93.8761 175.187 93.8761 175.187 93.8761 175.187C93.8761 175.187 93.8761 175.187 93.8761 175.187C93.8761 175.187 93.8761 175.187 93.8761 175.187C93.8761 175.187 93.8761 175.187 93.8761 175.187C93.8761 175.187 93.8761 175.187 93.8761 175.187C93.8761 175.187 93.8761 175.187 93.8761 175.187C93.8761 175.187 93.8761 175.187 93.8761 175.187L93.8761 175.187C93.8761 175.187 93.8761 175.187 93.8761 175.187H93.8761L93.8761 175.187C93.8761 175.187 93.8761 175.187 93.8761 175.187C93.8761 175.187 93.8761 175.187 93.8761 175.187C93.8761 175.187 93.8761 175.187 93.8761 175.187C93.8761 175.187 93.8761 175.187 93.8762 175.187C93.8762 175.187 93.8762 175.187 93.8762 175.187L94.3827 176.51ZM98.3693 176.557H94.1294V175.14H98.3693V176.557ZM97.7969 176.266L97.7964 176.265L98.9422 175.432L98.9427 175.433L97.7969 176.266ZM98.3698 175.141H107.397V176.558H98.3698V175.141ZM107.876 176.371L107.876 176.371L106.917 175.328L106.918 175.328L107.876 176.371ZM108.275 176.557H107.397V175.141H108.275V176.557ZM108.236 176.556C108.234 176.556 108.231 176.556 108.229 176.556L108.321 175.142C108.322 175.142 108.323 175.142 108.324 175.143L108.236 176.556ZM108.28 175.141H134.539V176.558H108.28V175.141ZM135.248 175.849V175.853H133.831V175.849H135.248ZM142.633 176.561H134.539V175.144H142.633V176.561ZM142.077 175.413L142.077 175.413L143.188 176.292L143.187 176.293L142.077 175.413ZM148.075 176.561H142.632V175.145H148.075V176.561ZM149.304 172.652C151.027 173.856 150.176 176.561 148.075 176.561V175.145C148.79 175.145 149.08 174.223 148.493 173.814L149.304 172.652ZM148.095 171.808L149.304 172.652L148.493 173.814L147.284 172.969L148.095 171.808ZM151.153 167.143C151.505 169.395 150.166 171.512 148.097 172.968L147.282 171.809C149.112 170.522 149.989 168.874 149.753 167.362L151.153 167.143ZM140.849 162.18C143.343 161.791 145.737 162.104 147.599 162.961C149.455 163.815 150.858 165.257 151.153 167.143L149.753 167.362C149.555 166.091 148.587 164.975 147.006 164.248C145.431 163.522 143.324 163.227 141.067 163.58L140.849 162.18ZM140.033 162.332C140.301 162.274 140.573 162.223 140.849 162.18L141.067 163.58C140.819 163.619 140.575 163.664 140.335 163.717L140.033 162.332ZM128.281 155.937C134.066 155.419 139.354 158.288 140.856 162.801L139.512 163.248C138.276 159.533 133.74 156.871 128.407 157.348L128.281 155.937ZM117.047 165.802C117.219 160.694 122.149 156.486 128.281 155.937L128.407 157.348C122.736 157.856 118.603 161.683 118.462 165.85L117.047 165.802ZM109.654 167.254C111.349 164.874 114.78 164.112 117.974 165.153L117.535 166.5C114.746 165.591 112.043 166.341 110.808 168.075L109.654 167.254ZM108.017 163.291C109.586 164.199 110.561 165.754 110.925 167.522L109.537 167.807C109.241 166.365 108.47 165.19 107.308 164.518L108.017 163.291ZM99.3272 165.186C101.723 162.687 105.249 161.69 108.017 163.291L107.308 164.518C105.28 163.345 102.452 163.974 100.35 166.166L99.3272 165.186ZM97.3307 157.326C99.2515 159.911 100.323 162.826 100.545 165.62L99.1323 165.732C98.9326 163.215 97.9629 160.552 96.1935 158.171L97.3307 157.326ZM79.921 152.837C85.0425 149.032 92.8179 151.253 97.3307 157.326L96.1935 158.171C91.959 152.472 85.0328 150.804 80.7659 153.974L79.921 152.837ZM75.9391 161.202C75.9941 157.867 77.3084 154.778 79.921 152.837L80.7659 153.974C78.5724 155.604 77.4048 158.241 77.3556 161.225L75.9391 161.202ZM66.0568 159.551C67.4027 158.276 69.2646 157.848 71.2041 158.082C73.1422 158.316 75.2083 159.211 77.0796 160.652L76.215 161.775C74.5082 160.46 72.6765 159.687 71.0345 159.489C69.3938 159.291 67.9931 159.668 67.0311 160.579L66.0568 159.551ZM67.2313 171.518C65.5982 169.478 64.6026 167.193 64.3547 165.071C64.107 162.951 64.6051 160.926 66.0568 159.551L67.0311 160.579C65.9951 161.561 65.5493 163.088 65.7618 164.907C65.9741 166.724 66.8425 168.765 68.3372 170.633L67.2313 171.518ZM64.9042 172.223L67.3787 170.495L68.1898 171.656L65.7154 173.384L64.9042 172.223ZM66.2681 176.557C63.938 176.557 62.9939 173.557 64.9042 172.223L65.7154 173.384C64.9413 173.925 65.3238 175.141 66.2681 175.141V176.557ZM72.595 176.557H66.2681V175.141H72.595V176.557ZM73.15 175.409L73.1503 175.409L72.0396 176.289L72.0393 176.288L73.15 175.409ZM74.8479 176.557H72.5947V175.14H74.8479V176.557ZM74.6828 176.538C74.682 176.537 74.6812 176.537 74.6808 176.537C74.6802 176.537 74.6801 176.537 74.68 176.537L75.0157 175.161C75.0166 175.161 75.0174 175.161 75.0178 175.161C75.0183 175.161 75.0185 175.161 75.0186 175.161L74.6828 176.538ZM74.8507 175.141H78.5642V176.558H74.8507V175.141ZM78.7716 176.527C78.7707 176.527 78.7699 176.527 78.7695 176.527C78.7691 176.528 78.7692 176.528 78.7693 176.527L78.3591 175.171C78.3601 175.171 78.3609 175.171 78.3612 175.171C78.3617 175.171 78.3616 175.171 78.3614 175.171L78.7716 176.527ZM87.122 176.557H78.5665V175.14H87.122V176.557ZM86.9017 176.522C86.9017 176.522 86.9017 176.522 86.9016 176.522C86.9015 176.522 86.9014 176.522 86.9012 176.522C86.9009 176.522 86.9003 176.522 86.8996 176.521L87.3443 175.176C87.3443 175.176 87.3443 175.176 87.3444 175.176C87.3445 175.176 87.3446 175.176 87.3448 175.176C87.3451 175.177 87.3457 175.177 87.3464 175.177L86.9017 176.522ZM87.1241 175.141H94.1276V176.558H87.1241V175.141Z" fill="#3C5D87"/><path opacity="0.1" fill-rule="evenodd" clip-rule="evenodd" d="M117.531 175.104H146.219C146.209 172.768 143.374 170.447 139.55 169.764C136.084 169.145 132.913 170.07 131.742 171.878C131.117 171.397 130.298 171.092 129.393 171.062C128.52 171.032 127.71 171.262 127.065 171.671C126.18 170.394 124.57 169.511 122.704 169.447C119.812 169.349 117.4 171.257 117.317 173.709C117.301 174.193 117.376 174.662 117.531 175.104ZM102.485 175.104H110.74C110.84 174.753 110.9 174.383 110.913 174C110.996 171.549 109.139 169.496 106.766 169.416C104.393 169.335 102.401 171.257 102.318 173.709C102.302 174.194 102.361 174.663 102.485 175.104ZM90.8187 175.104H99.0733C99.1735 174.753 99.233 174.383 99.246 174C99.3291 171.549 97.4725 169.496 95.0992 169.416C94.7047 169.402 94.3207 169.444 93.9544 169.535C93.7287 166.764 91.5268 164.546 88.7683 164.453C85.8981 164.355 83.4733 166.593 83.2095 169.51C82.9644 169.473 82.7129 169.449 82.4565 169.441C80.2932 169.367 78.4134 170.36 77.6548 171.816C76.8841 171.399 75.9584 171.141 74.9565 171.107C72.1807 171.013 69.8717 172.674 69.799 174.817C69.7958 174.913 69.7971 175.009 69.8028 175.104H90.7789C90.7906 175.099 90.8023 175.093 90.814 175.088C90.8156 175.093 90.8171 175.099 90.8187 175.104Z" fill="#3C5D87"/><path d="M24.6667 175.938L191.333 175.937" stroke="#3C5D87" stroke-width="1.66667" stroke-linecap="round"/><path d="M18 175.938L20.5 175.937" stroke="#3C5D87" stroke-width="1.66667" stroke-linecap="round"/><path d="M195.5 175.938L198 175.937" stroke="#3C5D87" stroke-width="1.66667" stroke-linecap="round"/></svg>