<svg width="42" height="43" viewBox="0 0 42 43" fill="none" xmlns="http://www.w3.org/2000/svg"><path d="M36 21.6128L33 21.6128" stroke="#FFD9AB" stroke-width="2" stroke-linecap="round" stroke-linejoin="round"/><path d="M21 6.61279V9.61279" stroke="#FFD9AB" stroke-width="2" stroke-linecap="round" stroke-linejoin="round"/><path d="M21 33.6128V36.6128" stroke="#FFD9AB" stroke-width="2" stroke-linecap="round" stroke-linejoin="round"/><path d="M29.25 7.32373L27.75 9.92181" stroke="#FFD9AB" stroke-width="2" stroke-linecap="round" stroke-linejoin="round"/><path d="M14.25 33.3042L12.75 35.9023" stroke="#FFD9AB" stroke-width="2" stroke-linecap="round" stroke-linejoin="round"/><path d="M12.749 7.32373L14.249 9.92181" stroke="#FFD9AB" stroke-width="2" stroke-linecap="round" stroke-linejoin="round"/><path d="M27.749 33.3042L29.249 35.9023" stroke="#FFD9AB" stroke-width="2" stroke-linecap="round" stroke-linejoin="round"/><path d="M35.2891 13.3628L32.691 14.8628" stroke="#FFD9AB" stroke-width="2" stroke-linecap="round" stroke-linejoin="round"/><path d="M9.30859 28.3628L6.71052 29.8628" stroke="#FFD9AB" stroke-width="2" stroke-linecap="round" stroke-linejoin="round"/><path d="M6.70996 13.3628L9.30804 14.8628" stroke="#FFD9AB" stroke-width="2" stroke-linecap="round" stroke-linejoin="round"/><path d="M32.6904 28.3628L35.2885 29.8628" stroke="#FFD9AB" stroke-width="2" stroke-linecap="round" stroke-linejoin="round"/><path d="M9 21.6128L6 21.6128" stroke="#FFD9AB" stroke-width="2" stroke-linecap="round" stroke-linejoin="round"/><path opacity="0.5" fill-rule="evenodd" clip-rule="evenodd" d="M31.6092 41.1707L21 41.6128L10.5 41.1128L5.49998 38.6128L1.99998 34.1128L0.99998 21.6128L1.99998 10.6128L21 21.6128L32.1805 2.16846C33.0623 2.36235 33.8372 2.62391 34.5459 2.97673L36.7221 4.42754C36.8482 4.5335 36.972 4.64202 37.0935 4.75301L40 9.11278L41 21.1126C41 21.1128 41 21.113 41 21.1132L40.5047 32.5042C40.4941 32.5578 40.4832 32.611 40.4721 32.6639L37.5357 38.0474C37.494 38.0895 37.452 38.1314 37.4097 38.173L33.8074 40.5745C33.1448 40.8317 32.4212 41.0252 31.6092 41.1707Z" fill="#FFD9AB"/><path d="M2 12.7432L21 23.7432L32 4.61279" stroke="#3C5D87" stroke-width="2" stroke-linecap="round" stroke-linejoin="round"/><path d="M1 21.6128C1 14.1359 1 10.3974 2.60769 7.61279C3.66091 5.78856 5.17577 4.27371 7 3.22049C9.78461 1.61279 13.5231 1.61279 21 1.61279V1.61279C28.4769 1.61279 32.2154 1.61279 35 3.22049C36.8242 4.27371 38.3391 5.78856 39.3923 7.61279C41 10.3974 41 14.1359 41 21.6128V21.6128C41 29.0897 41 32.8282 39.3923 35.6128C38.3391 37.437 36.8242 38.9519 35 40.0051C32.2154 41.6128 28.4769 41.6128 21 41.6128V41.6128C13.5231 41.6128 9.78461 41.6128 7 40.0051C5.17577 38.9519 3.66091 37.437 2.60769 35.6128C1 32.8282 1 29.0897 1 21.6128V21.6128Z" stroke="#3C5D87" stroke-width="2"/></svg>