<svg width="42" height="43" viewBox="0 0 42 43" fill="none" xmlns="http://www.w3.org/2000/svg"><path d="M36 21.5029L33 21.5029" stroke="#FFD9AB" stroke-width="2" stroke-linecap="round" stroke-linejoin="round"/><path d="M21 6.50293V9.50293" stroke="#FFD9AB" stroke-width="2" stroke-linecap="round" stroke-linejoin="round"/><path d="M21 33.5029V36.5029" stroke="#FFD9AB" stroke-width="2" stroke-linecap="round" stroke-linejoin="round"/><path d="M29.25 7.21387L27.75 9.81194" stroke="#FFD9AB" stroke-width="2" stroke-linecap="round" stroke-linejoin="round"/><path d="M14.25 33.1943L12.75 35.7924" stroke="#FFD9AB" stroke-width="2" stroke-linecap="round" stroke-linejoin="round"/><path d="M12.749 7.21387L14.249 9.81194" stroke="#FFD9AB" stroke-width="2" stroke-linecap="round" stroke-linejoin="round"/><path d="M27.749 33.1943L29.249 35.7924" stroke="#FFD9AB" stroke-width="2" stroke-linecap="round" stroke-linejoin="round"/><path d="M35.2891 13.2529L32.691 14.7529" stroke="#FFD9AB" stroke-width="2" stroke-linecap="round" stroke-linejoin="round"/><path d="M9.30859 28.2529L6.71052 29.7529" stroke="#FFD9AB" stroke-width="2" stroke-linecap="round" stroke-linejoin="round"/><path d="M6.70996 13.2529L9.30804 14.7529" stroke="#FFD9AB" stroke-width="2" stroke-linecap="round" stroke-linejoin="round"/><path d="M32.6904 28.2529L35.2885 29.7529" stroke="#FFD9AB" stroke-width="2" stroke-linecap="round" stroke-linejoin="round"/><path d="M9 21.5029L6 21.5029" stroke="#FFD9AB" stroke-width="2" stroke-linecap="round" stroke-linejoin="round"/><path fill-rule="evenodd" clip-rule="evenodd" d="M32.1805 2.05861L21 21.5029V1.50293C26.2472 1.50293 29.6532 1.50293 32.1805 2.05861Z" fill="#FFD9AB" fill-opacity="0.5"/><path d="M21 21.5029H20C20 21.9559 20.3044 22.3522 20.742 22.4691C21.1796 22.5859 21.6411 22.3941 21.8669 22.0014L21 21.5029ZM32.1805 2.05861L33.0474 2.55708C33.2062 2.28092 33.2239 1.94562 33.0951 1.65426C32.9663 1.36291 32.7064 1.15035 32.3952 1.08194L32.1805 2.05861ZM21 1.50293V0.50293C20.4477 0.50293 20 0.950645 20 1.50293L21 1.50293ZM21.8669 22.0014L33.0474 2.55708L31.3136 1.56014L20.1331 21.0045L21.8669 22.0014ZM20 1.50293V21.5029H22V1.50293H20ZM21 2.50293C26.2994 2.50293 29.5712 2.50877 31.9657 3.03528L32.3952 1.08194C29.7353 0.497086 26.1951 0.50293 21 0.50293V2.50293Z" fill="#3C5D87"/><path d="M1 21.5029C1 14.026 1 10.2875 2.60769 7.50293C3.66091 5.6787 5.17577 4.16384 7 3.11062C9.78461 1.50293 13.5231 1.50293 21 1.50293V1.50293C28.4769 1.50293 32.2154 1.50293 35 3.11062C36.8242 4.16384 38.3391 5.6787 39.3923 7.50293C41 10.2875 41 14.026 41 21.5029V21.5029C41 28.9799 41 32.7183 39.3923 35.5029C38.3391 37.3272 36.8242 38.842 35 39.8952C32.2154 41.5029 28.4769 41.5029 21 41.5029V41.5029C13.5231 41.5029 9.78461 41.5029 7 39.8952C5.17577 38.842 3.66091 37.3272 2.60769 35.5029C1 32.7183 1 28.9799 1 21.5029V21.5029Z" stroke="#3C5D87" stroke-width="2"/></svg>