<svg width="42" height="43" viewBox="0 0 42 43" fill="none" xmlns="http://www.w3.org/2000/svg"><path d="M36 21.5029L33 21.5029" stroke="#FFD9AB" stroke-width="2" stroke-linecap="round" stroke-linejoin="round"/><path d="M21 6.50293V9.50293" stroke="#FFD9AB" stroke-width="2" stroke-linecap="round" stroke-linejoin="round"/><path d="M21 33.5029V36.5029" stroke="#FFD9AB" stroke-width="2" stroke-linecap="round" stroke-linejoin="round"/><path d="M29.25 7.21387L27.75 9.81194" stroke="#FFD9AB" stroke-width="2" stroke-linecap="round" stroke-linejoin="round"/><path d="M14.25 33.1946L12.75 35.7927" stroke="#FFD9AB" stroke-width="2" stroke-linecap="round" stroke-linejoin="round"/><path d="M12.749 7.21387L14.249 9.81194" stroke="#FFD9AB" stroke-width="2" stroke-linecap="round" stroke-linejoin="round"/><path d="M27.749 33.1946L29.249 35.7927" stroke="#FFD9AB" stroke-width="2" stroke-linecap="round" stroke-linejoin="round"/><path d="M35.2891 13.2529L32.691 14.7529" stroke="#FFD9AB" stroke-width="2" stroke-linecap="round" stroke-linejoin="round"/><path d="M9.30832 28.2529L6.71024 29.7529" stroke="#FFD9AB" stroke-width="2" stroke-linecap="round" stroke-linejoin="round"/><path d="M6.70998 13.2529L9.30805 14.7529" stroke="#FFD9AB" stroke-width="2" stroke-linecap="round" stroke-linejoin="round"/><path d="M32.6907 28.2529L35.2888 29.7529" stroke="#FFD9AB" stroke-width="2" stroke-linecap="round" stroke-linejoin="round"/><path d="M9.00002 21.5029L6.00002 21.5029" stroke="#FFD9AB" stroke-width="2" stroke-linecap="round" stroke-linejoin="round"/><path opacity="0.5" fill-rule="evenodd" clip-rule="evenodd" d="M1.6627 9.87344C1.60214 10.1084 1.54711 10.3511 1.49711 10.6023L21 21.5029V1.50293C14.0061 1.50293 10.2832 1.50293 7.55232 2.81876L5.07365 4.49333C4.70568 4.81706 4.35789 5.16302 4.03225 5.52925L1.6627 9.87344Z" fill="#FFD9AB"/><path d="M21 1.50293V21.5029L2 10.8834" stroke="#3C5D87" stroke-width="2" stroke-linecap="round" stroke-linejoin="round"/><path d="M1.00002 21.5029C1.00002 14.026 1.00002 10.2875 2.60772 7.50293C3.66094 5.6787 5.17579 4.16384 7.00002 3.11062C9.78463 1.50293 13.5231 1.50293 21 1.50293V1.50293C28.477 1.50293 32.2154 1.50293 35 3.11062C36.8243 4.16384 38.3391 5.6787 39.3923 7.50293C41 10.2875 41 14.026 41 21.5029V21.5029C41 28.9799 41 32.7183 39.3923 35.5029C38.3391 37.3272 36.8243 38.842 35 39.8952C32.2154 41.5029 28.477 41.5029 21 41.5029V41.5029C13.5231 41.5029 9.78463 41.5029 7.00002 39.8952C5.17579 38.842 3.66094 37.3272 2.60772 35.5029C1.00002 32.7183 1.00002 28.9799 1.00002 21.5029V21.5029Z" stroke="#3C5D87" stroke-width="2"/></svg>