<svg width="151" height="36" viewBox="0 0 151 36" fill="none" xmlns="http://www.w3.org/2000/svg"><path fill-rule="evenodd" clip-rule="evenodd" d="M123.222 3.47618C123.647 3.47619 124.063 3.60244 124.416 3.83891C124.769 4.07538 125.044 4.4114 125.206 4.80435C125.367 5.19729 125.409 5.62944 125.325 6.04597C125.24 6.4625 125.034 6.84464 124.733 7.14388C124.431 7.44312 124.047 7.64599 123.63 7.72675C123.213 7.8075 122.781 7.7625 122.389 7.59745C121.998 7.43241 121.664 7.15475 121.431 6.79972C121.197 6.44469 121.074 6.02829 121.078 5.60335C121.085 5.03829 121.313 4.4986 121.715 4.10067C122.116 3.70274 122.657 3.47845 123.222 3.47618ZM143.691 26.1337C143.594 27.0693 143.161 27.6871 141.378 28.1726C139.975 28.6227 140.151 29.3553 141.564 29.4083C144.356 28.9244 147.209 28.8976 150.01 29.3288C151.361 29.3288 151.131 28.4462 150.293 28.0578C148.289 27.2899 147.971 27.2723 147.565 25.304L147.415 5.4533C147.415 4.31469 147.857 2.9819 146.621 3.282C144.335 4.16464 144.141 4.26173 142.058 4.96785C140.963 5.43565 141.378 5.96524 142.173 6.2212C142.573 6.35013 142.918 6.61212 143.149 6.9637C143.38 7.31529 143.484 7.73535 143.444 8.15419L143.691 26.1337ZM131.908 25.9836C131.819 26.9192 131.378 27.5371 129.604 28.0225C128.201 28.4727 128.368 29.2053 129.789 29.2582C132.582 28.777 135.435 28.7531 138.236 29.1876C139.578 29.1876 139.357 28.305 138.519 27.9078C136.515 27.1399 136.188 27.1222 135.791 25.1627L135.659 5.34738C135.659 4.19995 136.1 2.87598 134.864 3.17608C132.578 4.05872 132.384 4.14699 130.301 4.8531C129.198 5.32091 129.622 5.85049 130.416 6.11529C130.815 6.24269 131.158 6.50339 131.388 6.85369C131.618 7.20399 131.72 7.62263 131.678 8.03945L131.908 25.9836ZM121.175 18.1722C121.078 17.166 120.945 16.4069 119.771 16.0362C118.942 15.9656 118.545 15.2153 119.771 14.7652C121.467 14.3775 123.037 13.5668 124.335 12.4085C124.899 12.1084 125.57 12.3468 125.217 13.3618C125.122 14.0344 125.072 14.7126 125.067 15.3919V25.7276C125.164 27.4135 126.488 27.6871 127.336 28.0225C128.183 28.3579 128.271 29.3553 127.265 29.373C123.549 28.8699 122.737 28.8169 119.162 29.523C117.962 29.523 117.706 28.6404 119.162 28.1196C120.619 27.5988 121.131 27.3517 121.21 26.0983V18.2516L121.175 18.1722ZM88.3232 16.2745C89.1617 7.44808 94.8812 3.75863 102.922 3.10547C111.404 3.16725 112.631 3.72332 112.507 8.40133C112.56 10.0872 111.422 10.4755 110.627 8.56904C110.275 7.73642 109.753 6.98625 109.095 6.36626C108.437 5.74627 107.658 5.27003 106.806 4.96785C99.4709 3.37909 94.078 8.0218 93.7602 15.9215C93.2924 27.0693 105.861 30.3262 108.474 26.169C109.021 25.0833 109.021 22.1971 108.942 19.8227C108.491 18.2428 106.973 18.3929 105.499 18.3399C103.91 18.4547 103.337 16.6717 105.499 16.6894C109.217 16.7987 112.939 16.7073 116.647 16.4157C118.165 16.4687 118.28 17.8368 116.426 18.0398C115.623 18.1899 113.946 18.1722 113.717 19.4785C113.522 26.2572 115.12 26.9192 109.948 28.7728C103.354 30.3086 96.2581 29.5936 92.2421 25.7541C90.9639 24.5347 89.955 23.0614 89.2801 21.4288C88.6052 19.7962 88.2792 18.0405 88.3232 16.2745ZM71.3061 20.829C72.0386 13.4854 78.1994 11.7642 81.3592 11.7466C85.1104 11.8613 86.302 13.0793 86.3373 14.3151C86.3783 14.5553 86.3576 14.8019 86.2772 15.032C86.1968 15.262 86.0592 15.4678 85.8775 15.6301C85.6958 15.7925 85.4758 15.906 85.2382 15.96C85.0006 16.0141 84.7531 16.0069 84.5191 15.9391C82.4537 15.4184 82.8509 13.2912 80.1059 13.097C77.0079 13.5471 75.1279 16.9895 75.6927 21.1114C76.2576 25.2334 80.256 28.305 85.181 25.7894C86.3726 25.5335 86.4697 26.5044 85.4988 27.1752C76.4518 32.6829 70.9618 24.8362 71.3767 20.829H71.3061ZM43.3619 8.47195C43.1678 5.94758 42.3734 6.70666 40.4228 5.94758C38.8517 5.64748 38.7193 4.52653 40.2727 4.46474C42.4454 4.71401 44.6416 4.67543 46.8042 4.35C47.2563 4.38937 47.6845 4.56996 48.0282 4.86618C48.372 5.1624 48.6138 5.55925 48.7195 6.00054C50.6701 10.0784 53.5034 16.2039 55.454 20.2906C55.7982 21.0143 55.9836 21.1732 56.4249 20.2288L62.1797 5.68279C62.824 4.44709 63.5213 4.14699 65.5337 4.33234C67.5429 4.41754 69.5556 4.34375 71.5532 4.11168C72.9919 4.16464 72.9301 5.2856 71.4738 5.68279C69.2407 5.68279 68.0668 6.45069 67.7226 8.09241L68.0492 24.8009C68.411 27.2899 69.7173 27.3694 72.0651 27.9607C73.1243 28.4374 72.8948 29.1611 71.9857 29.4083C68.1811 28.8704 64.3209 28.8525 60.5115 29.3553C59.1081 29.4789 59.0198 28.2873 60.5115 27.9607C62.2767 27.5724 62.771 27.2546 63.1594 26.319L62.8063 10.2108C62.7445 9.57525 62.3474 9.57525 62.1002 10.3255L55.251 27.3076C54.6067 28.7551 54.3684 28.7551 53.6181 27.6253L45.4979 10.2284C45.2508 9.62821 44.9507 9.82239 44.9154 10.2284L44.986 25.5864C45.2155 27.3517 46.46 27.4753 49.002 28.2343C49.7169 28.4638 49.761 29.0552 49.1697 29.4347C45.7287 28.9885 42.2411 29.045 38.8164 29.6024C38.0926 29.6024 37.7572 28.5521 38.8693 28.4021C41.3142 27.7136 41.9762 27.6783 42.3381 26.2837L43.3619 8.50725V8.47195Z" fill="#3C5D87"/><path fill-rule="evenodd" clip-rule="evenodd" d="M1.1895 16.5458C-0.0903189 12.0531 0.659918 7.89584 0.659918 2.8736C5.20547 0.640508 9.7069 0.4375 14.579 0.4375C18.798 0.4375 24.7734 0.975913 28.3746 2.86477C28.7453 7.60457 28.9571 11.7707 27.7302 17.1548C25.8792 24.6867 21.2349 31.2336 14.7379 35.4696C5.8498 29.6972 2.93711 22.7154 1.1895 16.5458Z" fill="white"/><path fill-rule="evenodd" clip-rule="evenodd" d="M1.1004 3.15467C1.0942 4.32025 1.05018 5.43844 1.00351 6.51971C0.997827 6.65135 0.992109 6.78239 0.986414 6.91288C0.941517 7.94169 0.898118 8.93619 0.885972 9.91756C0.858646 12.1255 0.990433 14.2403 1.61384 16.4287L1.61402 16.4293C3.32949 22.4855 6.16006 29.2839 14.7371 34.9455C21.0135 30.7674 25.4987 24.3854 27.3007 17.0569C28.4902 11.8345 28.3111 7.77495 27.9537 3.14934C26.2415 2.3 23.9946 1.73583 21.6429 1.38308C19.1979 1.01631 16.6718 0.882644 14.5789 0.882644C9.8025 0.882644 5.46432 1.0813 1.1004 3.15467ZM0.465243 2.48132C5.10931 0.199831 9.70086 0 14.5789 0C16.7051 0 19.2762 0.13554 21.7739 0.510196C24.2648 0.883837 26.7151 1.49989 28.5795 2.47777L28.7954 2.59105L28.8145 2.83418C29.186 7.58418 29.4027 11.805 28.1604 17.2567L28.1588 17.2639L28.1587 17.2639C26.281 24.9046 21.5696 31.546 14.9788 35.8432L14.7383 36L14.4974 35.8436C5.48672 29.9915 2.5287 22.8969 0.764908 16.6702C0.108562 14.3661 -0.0244299 12.1559 0.00340765 9.90663C0.0157357 8.91052 0.0597827 7.90148 0.104614 6.87448C0.110317 6.74383 0.116034 6.61289 0.121699 6.48164C0.172013 5.31598 0.218515 4.12269 0.218515 2.87742V2.60252L0.465243 2.48132Z" fill="#3C5D87"/><path fill-rule="evenodd" clip-rule="evenodd" d="M5.44451 9.96297L0.775391 15.1441C1.63533 19.3091 3.31207 23.2624 5.70874 26.7757C8.1054 30.2889 11.1745 33.2924 14.7386 35.6126C24.5888 28.8957 27.6251 19.5573 28.2164 14.9676L23.565 9.94531L18.8429 14.6851L14.4915 9.98944L10.1578 14.6233L5.44451 9.96297Z" fill="#3C5D87"/><path fill-rule="evenodd" clip-rule="evenodd" d="M5.41752 6.83884C6.22566 6.80508 7.03319 6.91874 7.80062 7.17424C8.19419 6.49113 8.53073 5.7767 8.80682 5.03824C8.51555 4.93233 8.24194 5.31186 8.1272 5.33834C7.91536 5.02059 7.71236 5.02059 7.60644 5.03824C7.50053 5.0559 7.52701 5.14416 7.60644 5.17064C8.70973 6.05329 7.07686 7.00654 6.79442 6.05329C5.39104 6.16803 5.75292 5.04707 6.11479 4.90585C6.47667 4.76463 6.11479 4.79993 6.11479 4.77345C6.11479 4.74697 5.85001 4.77345 5.82353 4.77345C5.82353 4.22621 5.77939 3.80254 5.44399 3.61719C5.08212 3.91729 5.02916 4.30565 5.02916 4.85289C5.02916 4.79993 4.8438 4.79993 4.75554 4.79993C4.66728 4.79993 4.49075 4.86172 4.75554 4.93233C5.02033 5.00294 5.4793 6.18568 4.07591 6.07094C3.79347 6.99771 2.1606 6.07094 3.26389 5.18829C3.3345 5.18829 3.43159 5.10886 3.26389 5.0559C3.09619 5.00294 2.95497 5.0559 2.74314 5.36482C2.6284 5.36482 2.35478 4.94998 2.05469 5.0559C2.31952 5.78896 2.64732 6.49772 3.03441 7.17424C3.8025 6.92157 4.60952 6.80798 5.41752 6.83884ZM5.41752 8.01276C6.02676 8.00464 6.63462 8.07284 7.22691 8.21576C7.35048 7.96862 7.56231 7.54495 7.67705 7.37725C6.94815 7.14047 6.18346 7.03293 5.41752 7.0595C4.65157 7.03293 3.88688 7.14047 3.15798 7.37725C3.26389 7.55378 3.48455 7.96862 3.59929 8.2599C4.19413 8.11354 4.80497 8.04238 5.41752 8.04806V8.01276ZM6.69733 6.30925L7.02391 6.78588L6.27367 6.71527L6.69733 6.30925ZM6.24719 7.29781C6.19411 7.29607 6.14173 7.31033 6.09686 7.33875C6.05198 7.36716 6.01669 7.40841 5.99557 7.45713C5.97444 7.50586 5.96846 7.55982 5.97839 7.61199C5.98832 7.66417 6.01372 7.71215 6.05127 7.7497C6.08883 7.78726 6.13681 7.81265 6.18898 7.82259C6.24115 7.83252 6.29511 7.82653 6.34383 7.80541C6.39256 7.78428 6.43381 7.74899 6.46222 7.70412C6.49063 7.65924 6.50489 7.60686 6.50315 7.55378C6.50095 7.48659 6.47327 7.42276 6.42574 7.37523C6.37821 7.32769 6.31438 7.30002 6.24719 7.29781ZM7.04156 7.46552C6.99309 7.46725 6.94621 7.4832 6.90674 7.51139C6.86728 7.53958 6.83698 7.57875 6.81962 7.62404C6.80226 7.66932 6.79861 7.71871 6.80912 7.76606C6.81963 7.8134 6.84384 7.85661 6.87872 7.89029C6.91361 7.92398 6.95764 7.94665 7.00533 7.9555C7.05301 7.96434 7.10224 7.95896 7.14689 7.94002C7.19153 7.92108 7.22962 7.88943 7.25641 7.849C7.28319 7.80857 7.29749 7.76115 7.29752 7.71266C7.30003 7.67799 7.2952 7.64319 7.28334 7.61052C7.27149 7.57785 7.25287 7.54804 7.22872 7.52305C7.20456 7.49807 7.17541 7.47845 7.14316 7.4655C7.11091 7.45254 7.07629 7.44653 7.04156 7.44786V7.46552ZM5.41752 8.68357C4.42014 8.68357 3.65225 8.58647 3.65225 8.47173C3.65225 8.35699 4.39366 8.22459 5.41752 8.22459C6.44137 8.22459 7.18278 8.34816 7.18278 8.4629C7.18278 8.57765 6.44137 8.68357 5.41752 8.68357ZM5.41752 7.25368C5.48624 7.25364 5.55229 7.28033 5.6017 7.32809C5.65111 7.37586 5.68001 7.44096 5.68231 7.50965C5.68937 7.54785 5.68794 7.58714 5.67812 7.62473C5.6683 7.66232 5.65032 7.69729 5.62547 7.72715C5.60062 7.75702 5.56951 7.78105 5.53433 7.79754C5.49915 7.81404 5.46078 7.82258 5.42193 7.82258C5.38308 7.82258 5.3447 7.81404 5.30953 7.79754C5.27435 7.78105 5.24323 7.75702 5.21838 7.72715C5.19353 7.69729 5.17556 7.66232 5.16574 7.62473C5.15592 7.58714 5.15449 7.54785 5.16155 7.50965C5.16376 7.44246 5.19143 7.37863 5.23897 7.3311C5.2865 7.28356 5.35033 7.25589 5.41752 7.25368ZM4.61432 7.29781C4.6674 7.29607 4.71978 7.31033 4.76465 7.33875C4.80953 7.36716 4.84482 7.40841 4.86594 7.45713C4.88707 7.50586 4.89305 7.55982 4.88312 7.61199C4.87319 7.66417 4.84779 7.71215 4.81024 7.7497C4.77268 7.78726 4.7247 7.81265 4.67253 7.82259C4.62036 7.83252 4.5664 7.82653 4.51768 7.80541C4.46895 7.78428 4.4277 7.74899 4.39929 7.70412C4.37088 7.65924 4.35662 7.60686 4.35836 7.55378C4.36056 7.48659 4.38824 7.42276 4.43577 7.37523C4.4833 7.32769 4.54714 7.30002 4.61432 7.29781ZM3.81995 7.46552C3.8855 7.46552 3.94836 7.49155 3.9947 7.5379C4.04105 7.58425 4.06709 7.64711 4.06709 7.71266C4.06709 7.7782 4.04105 7.84106 3.9947 7.88741C3.94836 7.93376 3.8855 7.9598 3.81995 7.9598C3.75441 7.9598 3.69155 7.93376 3.6452 7.88741C3.59885 7.84106 3.57281 7.7782 3.57281 7.71266C3.57281 7.64711 3.59885 7.58425 3.6452 7.5379C3.69155 7.49155 3.75441 7.46552 3.81995 7.46552ZM5.41752 5.78849L5.95592 6.67114H4.88794L5.40869 5.78849H5.41752ZM4.14653 6.30925L3.81113 6.78588L4.56136 6.71527L4.14653 6.30925Z" fill="#3C5D87"/><path fill-rule="evenodd" clip-rule="evenodd" d="M23.5647 6.83884C24.3729 6.80369 25.1807 6.91738 25.9478 7.17424C26.3481 6.49336 26.6877 5.77861 26.9628 5.03824C26.6628 4.93233 26.398 5.31186 26.2744 5.33834C26.0626 5.02059 25.8596 5.02059 25.7625 5.03824C25.6654 5.0559 25.683 5.14416 25.7625 5.17064C26.8569 6.05329 25.2329 7.00654 24.9504 6.05329C23.5382 6.16803 23.9089 5.04707 24.2708 4.90585C24.6327 4.76463 24.2708 4.79993 24.2708 4.77345C24.2708 4.74697 24.006 4.77345 23.9884 4.77345C23.9884 4.22621 23.9442 3.80254 23.6088 3.61719C23.2734 3.80254 23.2117 4.23504 23.2381 4.78228C23.2381 4.70284 23.044 4.72049 22.9557 4.78228C22.8674 4.84406 22.6821 4.84406 22.9557 4.91467C23.2293 4.98529 23.6883 6.16803 22.2761 6.05329C21.9936 6.98006 20.3608 6.05329 21.4641 5.17064C21.5347 5.17064 21.6318 5.0912 21.4641 5.03824C21.2964 4.98529 21.164 5.03824 20.9521 5.34717C20.8286 5.34717 20.5549 4.93233 20.2637 5.03824C20.5362 5.77819 20.8729 6.4929 21.2699 7.17424C22.0103 6.93314 22.7863 6.81972 23.5647 6.83884ZM23.5647 8.01276C24.1769 8.00409 24.7877 8.07229 25.3829 8.21576C25.5065 7.96862 25.7183 7.54495 25.8331 7.37725C25.1011 7.14051 24.3335 7.03298 23.5647 7.0595C22.7988 7.03347 22.0342 7.14099 21.3052 7.37725C21.4199 7.55378 21.6318 7.96862 21.7553 8.2599C22.3329 8.11762 22.9257 8.04648 23.5206 8.04806L23.5647 8.01276ZM24.8445 6.30925L25.1799 6.78588L24.4473 6.71527L24.8622 6.30925H24.8445ZM24.4032 7.29781C24.365 7.29075 24.3257 7.29218 24.2881 7.302C24.2505 7.31182 24.2156 7.3298 24.1857 7.35465C24.1558 7.3795 24.1318 7.41061 24.1153 7.44579C24.0988 7.48097 24.0903 7.51934 24.0903 7.55819C24.0903 7.59705 24.0988 7.63542 24.1153 7.6706C24.1318 7.70578 24.1558 7.73689 24.1857 7.76174C24.2156 7.78659 24.2505 7.80456 24.2881 7.81439C24.3257 7.82421 24.365 7.82564 24.4032 7.81857C24.4641 7.80732 24.519 7.77512 24.5586 7.72756C24.5982 7.67999 24.6199 7.62007 24.6199 7.55819C24.6199 7.49632 24.5982 7.4364 24.5586 7.38883C24.519 7.34127 24.4641 7.30906 24.4032 7.29781ZM25.1976 7.46552C25.132 7.46552 25.0692 7.49155 25.0228 7.5379C24.9765 7.58425 24.9504 7.64711 24.9504 7.71266C24.9504 7.7782 24.9765 7.84106 25.0228 7.88741C25.0692 7.93376 25.132 7.9598 25.1976 7.9598C25.2631 7.9598 25.326 7.93376 25.3723 7.88741C25.4187 7.84106 25.4447 7.7782 25.4447 7.71266C25.4447 7.64711 25.4187 7.58425 25.3723 7.5379C25.326 7.49155 25.2631 7.46552 25.1976 7.46552ZM23.5647 8.68357C22.5762 8.68357 21.7995 8.58647 21.7995 8.47173C21.7995 8.35699 22.532 8.22459 23.5647 8.22459C24.5974 8.22459 25.33 8.34816 25.33 8.4629C25.33 8.57765 24.5886 8.68357 23.5647 8.68357ZM23.5647 7.25368C23.6326 7.25368 23.6977 7.28065 23.7457 7.32865C23.7937 7.37666 23.8207 7.44176 23.8207 7.50965C23.8207 7.57837 23.794 7.64442 23.7463 7.69383C23.6985 7.74325 23.6334 7.77215 23.5647 7.77444C23.4967 7.77008 23.4329 7.74052 23.3855 7.69156C23.3382 7.64259 23.3108 7.57772 23.3088 7.50965C23.311 7.44246 23.3386 7.37863 23.3862 7.3311C23.4337 7.28356 23.4975 7.25589 23.5647 7.25368ZM22.7615 7.29781C22.8224 7.30906 22.8773 7.34127 22.9169 7.38883C22.9565 7.4364 22.9782 7.49632 22.9782 7.55819C22.9782 7.62007 22.9565 7.67999 22.9169 7.72756C22.8773 7.77512 22.8224 7.80732 22.7615 7.81857C22.7007 7.80732 22.6457 7.77512 22.6061 7.72756C22.5665 7.67999 22.5449 7.62007 22.5449 7.55819C22.5449 7.49632 22.5665 7.4364 22.6061 7.38883C22.6457 7.34127 22.7007 7.30906 22.7615 7.29781ZM21.9583 7.46552C22.0072 7.46552 22.055 7.48001 22.0956 7.50717C22.1363 7.53432 22.1679 7.57292 22.1867 7.61808C22.2054 7.66324 22.2102 7.71293 22.2007 7.76087C22.1912 7.80881 22.1676 7.85285 22.1331 7.88741C22.0985 7.92197 22.0545 7.94551 22.0065 7.95505C21.9586 7.96458 21.9089 7.95969 21.8638 7.94098C21.8186 7.92228 21.78 7.8906 21.7528 7.84996C21.7257 7.80932 21.7112 7.76154 21.7112 7.71266C21.7112 7.64711 21.7372 7.58425 21.7836 7.5379C21.8299 7.49155 21.8928 7.46552 21.9583 7.46552ZM23.5647 5.78849L24.1031 6.67114H23.0351L23.5559 5.78849H23.5647ZM22.3114 6.30925L21.976 6.78588L22.6821 6.71527L22.2672 6.30925H22.3114Z" fill="#3C5D87"/><path fill-rule="evenodd" clip-rule="evenodd" d="M4.8691 18.6935C4.93088 18.5434 5.08975 18.1021 5.15154 17.9609C5.1246 17.884 5.0777 17.8157 5.01566 17.763C4.95362 17.7103 4.87866 17.675 4.79848 17.6608C4.8691 17.5196 5.11623 17.3342 5.0721 17.2018C5.02797 17.0694 4.9044 17.0871 4.64844 16.9458C4.68825 16.8728 4.74239 16.8087 4.80761 16.7571C4.87282 16.7055 4.94777 16.6676 5.02797 16.6457C5.16919 16.6457 5.16919 16.4162 5.41633 16.2838C5.6676 16.1591 5.94971 16.11 6.22835 16.1426C6.42791 16.1451 6.62416 16.1939 6.80164 16.2852C6.97911 16.3765 7.13296 16.5078 7.25106 16.6686C7.36915 16.8295 7.44827 17.0156 7.48216 17.2123C7.51606 17.409 7.50381 17.6109 7.44638 17.802C8.11718 19.1348 10.4473 17.3607 11.2682 17.3607C11.1181 17.6608 10.8886 17.9609 10.7474 18.2433C10.9681 18.3934 11.2682 18.2433 11.4977 18.2433C11.3088 18.7915 10.9382 19.2587 10.4473 19.5673C10.8269 20.75 12.2126 20.2911 13.4395 20.1498C13.2894 20.5558 12.7687 20.5912 12.5568 20.8913C13.0303 21.3756 13.4316 21.9255 13.7484 22.5241C13.0756 22.1684 12.3726 21.8731 11.6477 21.6415C10.6729 21.3414 9.63038 21.3414 8.65559 21.6415C8.82395 21.8969 9.05897 22.1014 9.33521 22.2329C8.95568 22.9743 8.20544 22.533 7.7553 22.3829C7.57271 22.5118 7.36081 22.5931 7.13885 22.6193C6.91689 22.6455 6.6919 22.6158 6.48431 22.533C6.4926 22.4614 6.51671 22.3926 6.55487 22.3316C6.59304 22.2705 6.64431 22.2187 6.70497 22.1799C6.85502 21.9681 6.25483 21.9328 6.10478 21.6415C6.10478 21.3679 6.39605 21.6415 6.56375 21.3414C6.18422 20.6 4.61313 20.4588 4.84262 18.6935H4.8691ZM5.9106 16.5839C5.9504 16.5839 5.98856 16.5998 6.0167 16.6279C6.04484 16.656 6.06065 16.6942 6.06065 16.734C6.06065 16.7738 6.04484 16.812 6.0167 16.8401C5.98856 16.8682 5.9504 16.884 5.9106 16.884C5.87081 16.884 5.83264 16.8682 5.8045 16.8401C5.77636 16.812 5.76055 16.7738 5.76055 16.734C5.76055 16.6942 5.77636 16.656 5.8045 16.6279C5.83264 16.5998 5.87081 16.5839 5.9106 16.5839Z" fill="white"/><path fill-rule="evenodd" clip-rule="evenodd" d="M15.4531 18.9278C15.5237 18.7866 15.6826 18.3452 15.7443 18.1952C15.7159 18.1193 15.6685 18.0519 15.6067 17.9993C15.545 17.9468 15.4708 17.9109 15.3913 17.8951C15.4531 17.7539 15.709 17.5685 15.6561 17.4361C15.6031 17.3037 15.4972 17.3214 15.2324 17.189C15.2761 17.1096 15.3366 17.0407 15.4099 16.9873C15.4831 16.9339 15.5671 16.8973 15.6561 16.88C15.7973 16.88 15.7973 16.6506 16.0356 16.527C16.2881 16.396 16.574 16.3437 16.8565 16.3769C17.0564 16.3808 17.2527 16.4309 17.4301 16.5232C17.6075 16.6155 17.7611 16.7476 17.8791 16.9091C17.997 17.0706 18.076 17.2571 18.1099 17.4542C18.1438 17.6513 18.1317 17.8535 18.0745 18.0451C18.7453 19.3691 21.0666 17.6038 21.8963 17.6038C21.7374 17.8951 21.5168 18.1952 21.3667 18.4865C21.5962 18.6365 21.8963 18.4865 22.1258 18.4865C21.9366 19.037 21.5622 19.505 21.0666 19.8104C21.4462 20.9932 22.8319 20.543 24.0676 20.4018C23.9175 20.8078 23.3968 20.8431 23.1849 21.1432C23.6577 21.6248 24.059 22.1718 24.3765 22.7673C23.7037 22.4116 23.0008 22.1162 22.2758 21.8846C21.2964 21.5953 20.2543 21.5953 19.2749 21.8846C19.446 22.141 19.6841 22.3455 19.9633 22.476C19.575 23.2174 18.8336 22.7761 18.3834 22.6261C18.2002 22.7572 17.9867 22.8398 17.7628 22.866C17.539 22.8923 17.3122 22.8613 17.1036 22.7761C17.1129 22.7038 17.1383 22.6345 17.1781 22.5734C17.2178 22.5123 17.2708 22.4609 17.3331 22.423C17.4831 22.22 16.8829 22.1759 16.7241 21.8846C16.7241 21.6198 17.0153 21.8846 17.183 21.5934C16.8035 20.8519 15.2412 20.7107 15.4178 18.9454L15.4531 18.9278ZM16.5034 16.8006C16.5432 16.8006 16.5814 16.8164 16.6095 16.8446C16.6377 16.8727 16.6535 16.9109 16.6535 16.9507C16.6548 16.9707 16.6518 16.9908 16.6447 17.0096C16.6376 17.0284 16.6266 17.0454 16.6124 17.0596C16.5982 17.0738 16.5811 17.0848 16.5623 17.0919C16.5435 17.099 16.5235 17.102 16.5034 17.1007C16.4837 17.1007 16.4642 17.0968 16.446 17.0893C16.4278 17.0817 16.4112 17.0707 16.3973 17.0568C16.3834 17.0428 16.3723 17.0263 16.3648 17.0081C16.3572 16.9899 16.3534 16.9704 16.3534 16.9507C16.3555 16.9115 16.372 16.8746 16.3997 16.8469C16.4274 16.8192 16.4643 16.8027 16.5034 16.8006Z" fill="white"/><path fill-rule="evenodd" clip-rule="evenodd" d="M10.3867 26.3185C10.4485 26.1772 10.6073 25.7359 10.6779 25.5859C10.6466 25.5102 10.5973 25.4433 10.5342 25.391C10.4711 25.3387 10.3963 25.3025 10.3161 25.2858C10.3867 25.1445 10.6338 24.9592 10.5897 24.8268C10.5455 24.6944 10.422 24.7121 10.166 24.5797C10.2083 24.5009 10.2673 24.4324 10.339 24.379C10.4107 24.3256 10.4933 24.2886 10.5809 24.2707C10.7221 24.2707 10.7221 24.0412 10.9692 23.9088C11.2205 23.7841 11.5026 23.735 11.7812 23.7676C11.9789 23.7755 12.1721 23.8284 12.3462 23.9224C12.5203 24.0164 12.6705 24.149 12.7855 24.3099C12.9005 24.4709 12.9771 24.656 13.0096 24.8512C13.0421 25.0463 13.0295 25.2463 12.9728 25.4358C13.6436 26.7598 15.9737 24.9945 16.7946 24.9945C16.6445 25.2858 16.4151 25.5859 16.2738 25.8771C16.4945 26.0272 16.7946 25.8771 17.0241 25.8771C16.8378 26.4267 16.4665 26.8947 15.9737 27.2011C16.3533 28.3839 17.739 27.9249 18.9659 27.7925C18.8158 28.1985 18.2951 28.2338 18.0832 28.5339C18.5585 29.0134 18.96 29.5607 19.2748 30.158C18.6048 29.7964 17.9013 29.5008 17.1741 29.2753C16.1993 28.9752 15.1568 28.9752 14.182 29.2753C14.3506 29.5284 14.5857 29.73 14.8616 29.8579C14.4821 30.5993 13.7318 30.158 13.2817 30.0167C13.0987 30.145 12.8864 30.2251 12.6643 30.2498C12.4422 30.2744 12.2174 30.2429 12.0107 30.158C12.019 30.0864 12.0431 30.0176 12.0813 29.9566C12.1194 29.8955 12.1707 29.8437 12.2314 29.8049C12.3902 29.6019 11.7812 29.5578 11.6312 29.2753C11.6312 29.0017 11.9225 29.2753 12.0902 28.9752C11.7106 28.2338 10.1395 28.0926 10.369 26.3273L10.3867 26.3185ZM11.437 24.2178C11.4745 24.2178 11.5104 24.2327 11.5369 24.2591C11.5633 24.2856 11.5782 24.3215 11.5782 24.359C11.5782 24.3965 11.5633 24.4324 11.5369 24.4589C11.5104 24.4853 11.4745 24.5002 11.437 24.5002C11.3996 24.5002 11.3636 24.4853 11.3371 24.4589C11.3107 24.4324 11.2958 24.3965 11.2958 24.359C11.2958 24.3215 11.3107 24.2856 11.3371 24.2591C11.3636 24.2327 11.3996 24.2178 11.437 24.2178Z" fill="white"/><path fill-rule="evenodd" clip-rule="evenodd" d="M14.5695 8.17607C14.3576 8.37025 14.2782 8.44087 14.3223 8.62622H14.8607C14.8607 8.42321 14.8078 8.33495 14.5695 8.17607ZM17.6499 2.36827C17.2461 2.52158 16.8002 2.52158 16.3965 2.36827C16.1365 2.22801 15.8512 2.14095 15.5572 2.11215C15.2632 2.08336 14.9665 2.11342 14.6842 2.20057V7.87597C15.1634 7.70346 15.6878 7.70346 16.167 7.87597C16.649 8.01527 17.1569 8.03946 17.6499 7.94659V2.36827ZM17.8352 2.36827L18.3383 2.83608V8.45852L17.8352 7.99954V2.36827ZM18.2677 8.60857L17.7381 8.15842C17.1966 8.24316 16.6433 8.21309 16.1141 8.07016C15.4521 7.93776 15.1785 7.85832 14.7372 8.07016C14.8469 8.11951 14.9405 8.19857 15.0076 8.29841C15.0747 8.39824 15.1125 8.51485 15.1167 8.63505L18.2677 8.60857ZM10.986 8.60857L11.5067 8.14959C12.0483 8.2346 12.6016 8.20452 13.1308 8.06133C13.8016 7.93776 14.0752 7.84949 14.5077 8.06133C14.3984 8.10779 14.3051 8.18518 14.2392 8.28397C14.1734 8.38277 14.1378 8.49866 14.137 8.61739L10.986 8.60857ZM11.3302 2.43006L10.8359 2.89786V8.5203L11.3302 8.06133V2.41241V2.43006ZM11.5244 2.43006C11.9307 2.58561 12.3802 2.58561 12.7866 2.43006C13.0465 2.2898 13.3318 2.20273 13.6258 2.17394C13.9198 2.14515 14.2166 2.1752 14.4989 2.26236V7.93776C14.0166 7.76534 13.4895 7.76534 13.0072 7.93776C12.5282 8.07665 12.0233 8.10083 11.5332 8.00837V2.36827L11.5244 2.43006Z" fill="#3C5D87"/><path fill-rule="evenodd" clip-rule="evenodd" d="M14.9678 3.40423C14.9611 3.35627 14.9652 3.30743 14.9798 3.26125C14.9944 3.21506 15.019 3.1727 15.052 3.13722C15.0849 3.10173 15.1253 3.07402 15.1703 3.05609C15.2153 3.03815 15.2637 3.03044 15.312 3.03352C15.3505 3.02861 15.3896 3.03169 15.4269 3.04256C15.4641 3.05343 15.4987 3.07187 15.5285 3.09671C15.5584 3.12156 15.5827 3.15229 15.6001 3.18697C15.6176 3.22166 15.6276 3.25956 15.6297 3.29831H15.4797C15.4786 3.27894 15.4736 3.25998 15.4649 3.24264C15.4562 3.2253 15.444 3.20994 15.4291 3.19751C15.4142 3.18509 15.3969 3.17587 15.3783 3.17044C15.3596 3.165 15.3401 3.16346 15.3208 3.16592C15.2061 3.16592 15.1178 3.27183 15.1178 3.43071C15.1178 3.58958 15.1884 3.66902 15.3032 3.66902C15.4179 3.66902 15.4709 3.66902 15.4797 3.5278H15.6209C15.6199 3.56764 15.6107 3.60684 15.5939 3.64297C15.5771 3.67911 15.553 3.71141 15.5233 3.73789C15.4935 3.76436 15.4586 3.78444 15.4207 3.79689C15.3829 3.80934 15.3429 3.81388 15.3032 3.81025C15.109 3.81025 14.9501 3.66902 14.9589 3.3954L14.9678 3.40423ZM15.7004 3.53663C15.6909 3.48385 15.6935 3.4296 15.7081 3.378C15.7227 3.3264 15.7488 3.27881 15.7846 3.23882C15.8203 3.19884 15.8647 3.16752 15.9143 3.14724C15.964 3.12696 16.0176 3.11825 16.0711 3.12178C16.1218 3.11987 16.1724 3.12922 16.2191 3.14915C16.2658 3.16908 16.3076 3.19911 16.3413 3.23708C16.3751 3.27504 16.4 3.32001 16.4143 3.36874C16.4286 3.41748 16.432 3.46879 16.4241 3.51897C16.4241 3.61495 16.386 3.707 16.3181 3.77486C16.2503 3.84273 16.1582 3.88086 16.0622 3.88086C15.9663 3.88086 15.8742 3.84273 15.8064 3.77486C15.7385 3.707 15.7004 3.61495 15.7004 3.51897V3.53663ZM15.8504 3.47484C15.8504 3.61606 15.9034 3.74846 16.0711 3.74846C16.2388 3.74846 16.2652 3.64254 16.2652 3.51015C16.2652 3.37775 16.2652 3.26301 16.0711 3.26301C15.8769 3.26301 15.8769 3.26301 15.8504 3.47484ZM16.583 3.95147V3.21005H16.733L17.042 3.71315V3.21005H17.192V3.91616H17.042L16.7419 3.41306V3.91616L16.583 3.95147ZM15.6209 5.35487V4.61345H16.1505V4.74585H15.7798V4.92238H16.1064V5.04595H15.7798V5.35487H15.6209ZM16.327 5.44314V4.69289H16.5036V5.44314H16.327ZM15.7621 6.90833H15.4003V6.16691H15.7533C16.1505 6.16691 16.0711 6.87302 15.7533 6.90833H15.7621ZM15.5503 6.78476H15.7004C15.9034 6.78476 15.921 6.2993 15.7004 6.2993H15.5591V6.78476H15.5503ZM16.1682 6.67884C16.1607 6.62923 16.1637 6.57862 16.1768 6.53021C16.19 6.48181 16.2131 6.43667 16.2446 6.39766C16.2762 6.35865 16.3155 6.32662 16.36 6.30361C16.4046 6.2806 16.4535 6.26711 16.5036 6.264C16.5546 6.26231 16.6054 6.27173 16.6525 6.2916C16.6996 6.31147 16.7417 6.34132 16.7762 6.37908C16.8106 6.41684 16.8364 6.46162 16.8518 6.51033C16.8672 6.55903 16.8718 6.6105 16.8654 6.66119C16.8654 6.75716 16.8273 6.84921 16.7594 6.91708C16.6916 6.98494 16.5995 7.02307 16.5036 7.02307C16.4076 7.02307 16.3155 6.98494 16.2477 6.91708C16.1798 6.84921 16.1417 6.75716 16.1417 6.66119L16.1682 6.67884ZM16.3182 6.62588C16.3182 6.75828 16.3712 6.8995 16.53 6.8995C16.6889 6.8995 16.733 6.79358 16.733 6.65236C16.733 6.51114 16.733 6.40522 16.53 6.40522C16.327 6.40522 16.3359 6.40522 16.3182 6.62588ZM12.3287 3.91616V3.13061H12.4876V3.91616H12.3287ZM12.6641 3.8279V3.03352H12.8142L13.1231 3.53663V3.03352H13.2731V3.77494H13.1231L12.823 3.27183V3.77494L12.6641 3.8279ZM12.0904 5.44314H11.7285V4.69289H12.0904C12.4876 4.74585 12.3993 5.399 12.0904 5.44314ZM11.8786 5.31074H12.0904C12.2934 5.31074 12.3111 4.83411 12.0904 4.83411H11.9492V5.31074H11.8786ZM12.4434 4.95768C12.4372 4.90543 12.4421 4.85244 12.4579 4.80223C12.4737 4.75203 12.5 4.70577 12.5351 4.66653C12.5702 4.62728 12.6132 4.59595 12.6613 4.57463C12.7094 4.5533 12.7615 4.54247 12.8142 4.54284C12.8649 4.54093 12.9155 4.55027 12.9622 4.57021C13.0089 4.59014 13.0506 4.62017 13.0844 4.65813C13.1181 4.6961 13.1431 4.74106 13.1574 4.7898C13.1717 4.83854 13.1751 4.88984 13.1672 4.94003C13.1672 5.03601 13.1291 5.12805 13.0612 5.19592C12.9933 5.26379 12.9013 5.30191 12.8053 5.30191C12.7094 5.30191 12.6173 5.26379 12.5494 5.19592C12.4816 5.12805 12.4434 5.03601 12.4434 4.94003V4.95768ZM12.6023 4.90472C12.6023 5.03712 12.6465 5.16952 12.8142 5.16952C12.9819 5.16952 13.0172 5.07243 13.0172 4.9312C13.0172 4.78998 13.0172 4.68406 12.8142 4.68406C12.6111 4.68406 12.62 4.68406 12.6023 4.90472ZM13.3084 5.26661V4.52519H13.5379L13.6791 5.08125L13.8557 4.52519H14.0763V5.26661H13.9174V4.67524L13.7939 5.26661H13.6262L13.5026 4.67524V5.26661H13.3084ZM12.0904 7.04955V6.30813H12.2493V7.04955H12.0904ZM12.4258 6.96128V6.21986H12.5758L12.8848 6.71414V6.21986H13.0436V6.96128H12.8848L12.5847 6.45818V6.96128H12.4258ZM13.1937 6.5641C13.186 6.51233 13.1897 6.45952 13.2044 6.4093C13.2191 6.35908 13.2446 6.31266 13.279 6.27322C13.3134 6.23379 13.3559 6.20229 13.4037 6.18088C13.4514 6.15948 13.5032 6.14869 13.5556 6.14925C13.6068 6.14565 13.6581 6.15385 13.7057 6.17322C13.7532 6.1926 13.7957 6.22263 13.8298 6.261C13.8639 6.29937 13.8887 6.34506 13.9024 6.39455C13.9161 6.44404 13.9182 6.496 13.9086 6.54644C13.9168 6.59809 13.9136 6.65089 13.8994 6.70121C13.8852 6.75153 13.8602 6.79817 13.8262 6.83791C13.7923 6.87766 13.7501 6.90958 13.7026 6.93146C13.6551 6.95334 13.6034 6.96467 13.5512 6.96467C13.4989 6.96467 13.4472 6.95334 13.3997 6.93146C13.3522 6.90958 13.31 6.87766 13.2761 6.83791C13.2421 6.79817 13.2171 6.75153 13.2029 6.70121C13.1887 6.65089 13.1855 6.59809 13.1937 6.54644V6.5641ZM13.3437 6.51114C13.3437 6.64353 13.3967 6.77593 13.5556 6.77593C13.7144 6.77593 13.7586 6.67884 13.7586 6.53762C13.7586 6.39639 13.7586 6.29048 13.5556 6.29048C13.3526 6.29048 13.3614 6.29048 13.3437 6.51114Z" fill="white"/></svg>