<svg width="153" height="40" viewBox="0 0 153 40" fill="none" xmlns="http://www.w3.org/2000/svg"><path d="M0.117188 16.8298V0.8018H3.26016V16.8298H0.117188ZM7.87196 6.73165H7.91631C8.67418 5.70131 10.1223 5.10609 11.4382 5.10609C12.8407 5.10609 14.0438 5.6785 14.7138 6.73165C15.6512 5.81664 17.0989 5.12932 18.4153 5.10609C20.9309 5.08285 22.2485 6.66406 22.2933 9.29589V16.8065H19.3273V9.84634C19.3273 8.51859 18.8816 7.1448 17.4124 7.1448C15.9858 7.1448 15.0949 8.01377 15.0949 10.0052V16.8293H12.1293V9.84634C12.1293 8.244 11.4386 7.1448 10.1679 7.1448C8.76289 7.1448 7.89519 8.12825 7.89519 10.0749V16.8298H4.92965V5.3811H7.87196V6.73165ZM29.7481 6.93865C31.4404 6.93865 32.2878 8.90809 32.2878 10.8767C32.2878 12.8917 31.6204 15.2726 29.6379 15.2726C28.0322 15.2726 26.8954 13.6471 26.8954 11.2429C26.8949 8.60942 27.8759 6.93865 29.7481 6.93865ZM26.8949 5.3811H23.9319V22.5552H26.8949V15.4099C27.7208 16.4192 28.8775 17.1039 30.2365 17.1039C33.4246 17.1039 35.4304 13.8769 35.4304 10.8539C35.4304 8.33483 34.0051 5.10651 30.506 5.10651C29.1685 5.10651 27.7204 5.79383 26.9393 6.96062H26.8949V5.3811ZM39.678 9.73101C39.6557 8.19965 40.4123 6.80093 42.1071 6.80093C43.5772 6.80093 44.1796 7.99138 44.0676 9.73101H39.678ZM46.8566 11.3794C47.0767 7.96857 45.6281 5.10609 42.1519 5.10609C38.9645 5.10609 36.4688 7.35011 36.4688 10.8767C36.4688 14.6554 38.9861 17.1035 42.3525 17.1035C43.6224 17.1035 45.2049 16.7373 46.7206 15.8222L45.8732 14.2199C45.139 14.7454 43.9781 15.1366 42.8873 15.1366C41.0375 15.1366 39.5674 13.5326 39.635 11.379L46.8566 11.3794ZM51.228 7.39574H51.2724L51.8731 6.50311C52.2297 6.0211 52.8764 5.10609 53.7897 5.10609C54.4589 5.10609 55.1711 5.47319 55.7963 6.13601L54.6823 8.244C54.1923 7.99138 53.8797 7.85367 53.2782 7.85367C52.2533 7.85367 51.2492 8.70109 51.2492 11.1737V16.8298H48.2845V5.3811H51.2276L51.228 7.39574ZM59.7094 5.3811V16.8302H56.7464V5.3811H59.7094ZM56.457 1.94789C56.457 1.07597 57.1701 0.184608 58.173 0.184608C59.1978 0.184608 60.0005 1.05442 60.0005 1.94789C60.0005 2.93134 59.3081 3.86959 58.2157 3.86959C57.1701 3.86959 56.457 2.93134 56.457 1.94789ZM67.7599 10.1898C67.9825 13.5546 66.4465 15.0669 65.265 15.0669C64.5519 15.0669 63.9258 14.3804 63.9258 13.3721C63.9258 12.0675 64.6625 11.1982 66.1107 10.7385L67.7599 10.1898ZM67.7164 15.1582C67.7164 15.7762 67.7823 16.4403 68.0045 16.8298H71.1479C70.7905 16.028 70.6794 14.952 70.6794 14.0361V9.36602C70.6794 5.7934 68.1621 5.10609 66.1111 5.10609C64.5738 5.10609 63.2153 5.49558 61.8313 6.66406L62.7894 8.10629C63.571 7.41897 64.4627 6.93865 65.7343 6.93865C66.6924 6.93865 67.6049 7.60273 67.7607 8.65547L65.1302 9.45642C62.5444 10.2113 61.0072 11.4482 61.0072 13.6247C61.0072 15.7293 62.4553 17.1031 64.1936 17.1031C65.2193 17.1031 66.2243 16.3942 67.0485 15.7293L67.7164 15.1582ZM72.5297 16.8298V0H75.4923V16.8302L72.5297 16.8298ZM95.0539 3.70949C94.2939 3.29676 93.0249 2.81686 91.8201 2.81686C88.6116 2.81686 86.2954 5.12974 86.2954 8.77079C86.2954 12.5719 88.8583 14.8156 91.9101 14.8156C93.1149 14.8156 94.228 14.4717 95.0539 14.0138L95.9233 16.0064C94.9647 16.5788 93.2931 17.1048 91.7774 17.1048C86.36 17.1048 82.9505 13.4413 82.9505 8.72601C82.9505 4.35202 86.3393 0.528056 91.8201 0.528056C93.4482 0.528056 94.9647 1.1237 96.0331 1.76497L95.0539 3.70949Z" fill="#3C5D87"/><path d="M101.803 15.4099C99.6851 15.4099 99.1068 12.9834 99.1068 10.9683C99.1068 9.06819 99.7743 6.80093 101.803 6.80093C103.876 6.80093 104.522 9.06819 104.522 10.9683C104.522 12.9834 103.966 15.4099 101.803 15.4099ZM101.803 17.1039C105.304 17.1039 107.663 14.5181 107.663 10.9688C107.663 7.25929 104.812 5.10651 101.803 5.10651C98.8162 5.10651 95.9647 7.25929 95.9647 10.9688C95.9647 14.5181 98.327 17.1039 101.803 17.1039ZM108.942 16.8298V0H111.908V16.8302L108.942 16.8298ZM113.775 16.8298V0H116.739V16.8302L113.775 16.8298ZM121.182 9.73101C121.157 8.19965 121.915 6.80093 123.608 6.80093C125.081 6.80093 125.681 7.99138 125.571 9.73101H121.182ZM128.357 11.3794C128.58 7.96857 127.132 5.10609 123.654 5.10609C120.468 5.10609 117.969 7.35011 117.969 10.8767C117.969 14.6554 120.488 17.1035 123.856 17.1035C125.125 17.1035 126.707 16.7373 128.224 15.8222L127.377 14.2199C126.643 14.7454 125.482 15.1366 124.39 15.1366C122.541 15.1366 121.069 13.5326 121.136 11.379L128.357 11.3794ZM145.387 9.73101C145.366 8.19965 146.122 6.80093 147.817 6.80093C149.287 6.80093 149.891 7.99138 149.779 9.73101H145.387ZM152.565 11.3794C152.786 7.96857 151.34 5.10609 147.862 5.10609C144.674 5.10609 142.179 7.35011 142.179 10.8767C142.179 14.6554 144.696 17.1035 148.063 17.1035C149.334 17.1035 150.916 16.7373 152.431 15.8222L151.585 14.2199C150.849 14.7454 149.69 15.1366 148.598 15.1366C146.747 15.1366 145.279 13.5326 145.344 11.379L152.565 11.3794ZM135.285 6.93865C137.07 6.93865 137.982 8.7936 137.982 10.785C137.982 13.0747 137.134 15.2726 135.15 15.2726C133.434 15.2726 132.59 13.1199 132.59 10.8986C132.589 8.6787 133.369 6.93865 135.285 6.93865ZM140.947 5.3811H137.982V6.77812H137.938C137.314 5.74778 135.975 5.10651 134.616 5.10651C131.585 5.10651 129.446 7.9918 129.446 10.9688C129.446 14.6322 131.386 17.1039 134.349 17.1039C136.045 17.1039 137.202 16.1429 137.938 15.1805H137.982V16.692C137.982 19.348 136.467 20.5849 134.504 20.5849C132.99 20.5849 131.718 20.2871 130.628 19.6002L130.047 21.4771C131.363 22.1635 133.058 22.5552 134.728 22.5552C138.049 22.5552 140.947 20.8827 140.947 15.7998V5.3811ZM0.117188 23.7004H3.28297V37.5739H9.9453V39.7267H0.117188V23.7004ZM27.3373 29.629C28.3946 28.5298 29.8698 28.0026 31.3483 28.0026C34.0925 28.0026 35.4067 29.4689 35.4067 32.3533V39.7263H32.4281V32.6972C32.4281 31.0957 31.7007 30.0426 30.0819 30.0426C28.5556 30.0426 27.3605 31.0256 27.3605 32.9029V39.7263H24.3814V28.2789H27.3377L27.3373 29.629ZM43.1205 29.8368C44.9979 29.8368 45.9589 31.6918 45.9589 33.6819C45.9589 35.9733 45.0693 38.1695 42.9794 38.1695C41.1743 38.1695 40.283 36.0176 40.283 33.7964C40.283 31.5756 41.1046 29.8368 43.1205 29.8368ZM45.9589 39.7267H48.9384V22.899H45.9589V29.6079H45.9116C45.2082 28.5986 43.8488 28.003 42.3242 28.003C39.1796 28.003 36.9753 30.8887 36.9753 33.8653C36.9753 37.5279 39.0152 40 42.0889 40C43.9185 40 45.1381 39.0394 45.9116 38.0766H45.9585L45.9589 39.7267ZM56.6792 38.3056C54.4525 38.3056 53.84 35.8799 53.84 33.8648C53.84 31.9651 54.5429 29.6983 56.6792 29.6983C58.862 29.6983 59.5404 31.9651 59.5404 33.8648C59.5404 35.8799 58.9558 38.3056 56.6792 38.3056ZM56.6792 40C60.3617 40 62.8473 37.4125 62.8473 33.8653C62.8473 30.1579 59.8463 28.003 56.6792 28.003C53.5358 28.003 50.5331 30.1579 50.5331 33.8653C50.5331 37.4125 53.02 40 56.6792 40ZM67.4224 29.629C68.4785 28.5298 69.9557 28.0026 71.4326 28.0026C74.1772 28.0026 75.4914 29.4689 75.4914 32.3533V39.7263H72.5128V32.6972C72.5128 31.0957 71.7853 30.0426 70.1657 30.0426C68.6424 30.0426 67.4452 31.0256 67.4452 32.9029V39.7263H64.4661V28.2789H67.4219L67.4224 29.629ZM16.543 38.3056C14.3125 38.3056 13.7042 35.8799 13.7042 33.8648C13.7042 31.9651 14.4071 29.6983 16.543 29.6983C18.7245 29.6983 19.4046 31.9651 19.4046 33.8648C19.4051 35.8799 18.817 38.3056 16.543 38.3056ZM16.543 40C20.225 40 22.7115 37.4125 22.7115 33.8653C22.7115 30.1579 19.7088 28.003 16.543 28.003C13.3992 28.003 10.3969 30.1579 10.3969 33.8653C10.3973 37.4125 12.8825 40 16.543 40Z" fill="#3C5D87"/></svg>