<svg width="178" height="65" viewBox="0 0 178 65" fill="none" xmlns="http://www.w3.org/2000/svg"><path d="M5.37707 8.46828L5.23496 8.41144C5.0076 8.29775 4.86549 8.18407 4.78023 8.04197L4.72339 7.75776L4.80865 7.35986V7.4167C4.92233 7.18934 5.09286 7.07565 5.34865 7.07565H5.49075L5.51917 6.93355C5.57602 6.70618 5.71812 6.62092 5.77496 6.5925L6.28654 6.50723L6.05917 6.27987L5.8318 5.85355L5.86023 5.68302L6.14443 5.42724L6.2297 5.37039L6.17286 4.91566C6.17286 4.63145 6.28654 4.4325 6.54233 4.31882C6.74128 4.23356 6.9118 4.2904 7.08233 4.46092L7.22443 4.57461L7.33812 4.4325L7.65075 4.23356C7.82127 4.23356 8.04864 4.2904 8.16232 4.8304L8.21917 4.94408L8.44653 4.88724L8.6739 5.00092L8.75916 4.88724L8.70232 4.63145L8.84443 4.2904C9.01495 4.11987 9.18548 4.03461 9.41285 4.06303H9.64021L9.55495 3.83566L9.49811 3.55145V3.43777L9.72548 3.09672L9.83916 3.01145L9.78232 2.89777C9.69706 2.72724 9.61179 2.5283 9.61179 2.32935C9.61179 2.1304 9.69706 1.95988 9.86758 1.84619C10.0097 1.73251 10.2655 1.64725 10.5781 1.76093L10.7202 1.81777L10.7486 1.73251L10.976 1.50514L11.0897 1.4483L11.0613 1.3062L10.976 0.85146C10.976 0.709356 11.0328 0.481988 11.2602 0.396725C11.5444 0.25462 11.857 0.368304 12.1697 0.766198L12.2549 0.85146L12.3686 0.823039H12.7381C12.937 0.879881 13.0792 1.13567 13.136 1.50514V1.59041L13.2497 1.64725L13.3349 1.70409L13.477 1.84619L13.5623 1.87462L13.676 1.73251L13.8465 1.56198L14.1591 1.4483L14.3013 1.47672L14.3297 1.33462C14.4718 0.879881 14.6423 0.567251 15.0118 0.624093L15.4381 0.85146L15.4949 0.908302H15.5518L15.8076 0.993565L15.9212 1.07883L16.0065 0.965144C16.2623 0.680935 16.4897 0.567251 16.7739 0.624093C16.9728 0.680935 17.2002 0.82304 17.2002 1.24935V1.4483L17.3139 1.50514C17.4276 1.56198 17.5697 1.61883 17.6833 1.81777L17.7402 2.07356C17.7402 2.18725 17.6265 2.35777 17.4276 2.55672L17.3707 2.61356L17.3991 2.69882L17.4844 3.12514L17.6833 2.95461L18.1665 2.75567C18.3655 2.75567 18.536 2.84093 18.6781 2.98303L18.877 3.40935L18.8202 3.69356L19.076 3.72198L19.2465 3.69356L19.4739 3.83566L19.5876 3.8925L19.6728 3.80724C19.9002 3.60829 20.156 3.40935 20.4118 3.49461C20.5823 3.55145 20.6675 3.63672 20.7244 3.72198L20.7812 3.80724L20.8949 3.77882C21.2644 3.66514 21.5486 3.72198 21.7475 3.97777L21.8612 4.2904V4.40408C21.8328 4.51777 21.7191 4.65987 21.5486 4.80197L21.4633 4.85882L21.577 5.34197L21.7475 5.28513C21.9749 5.19987 22.1739 5.19987 22.3444 5.25671L22.6286 5.54092L22.6854 5.85355L22.6002 6.10934L22.5149 6.25144L22.6002 6.33671L22.6854 6.39355L22.7139 6.62092L22.7423 6.79144L22.9128 6.76302C23.2823 6.67776 23.5096 6.76302 23.6233 7.04723L23.7086 7.4167C23.7086 7.61565 23.5665 7.84302 23.3107 8.01354L23.2254 8.07039L23.2823 8.21249L23.3391 8.43986L23.2823 8.63881C23.1118 8.97986 22.6286 8.89459 22.2023 8.80933L22.0602 8.78091L22.0033 8.95144L21.6907 9.23565L21.5486 9.29249L21.6054 9.46301L21.6339 9.5767L21.6054 9.66196V9.97459L21.8897 9.80407C22.3444 9.54828 22.6286 9.51986 22.856 9.74722L23.0265 10.1451V10.2588L23.1402 10.2872C23.5949 10.4009 23.8223 10.6283 23.8223 10.9409V11.083L23.5949 11.4809L23.0833 11.5662L22.9412 11.5377L22.9128 11.6798L22.657 12.0209L22.117 11.9641L22.0318 11.9356L21.9465 12.0209L21.8044 12.1346L21.7475 12.2483L21.7191 12.3904C21.6339 12.5609 21.4918 12.6462 21.236 12.6462H21.1223L21.0939 12.7598L20.9233 12.9588L20.7244 13.0156L20.6391 13.0441L20.5823 13.2714L20.6391 13.3567L20.8097 13.6693L20.696 13.9535C20.6391 14.0388 20.4686 14.2093 20.0423 14.1241L19.957 14.0956L19.9002 14.1525C19.8149 14.2377 19.7297 14.323 19.5307 14.323C19.3318 14.323 19.1897 14.2093 19.0476 14.0956L18.9623 14.0104L18.8202 14.0956L18.4507 14.1809C18.1381 14.1525 17.996 13.8398 17.8539 13.5272L17.8255 13.4704H17.7402L17.3991 13.2714C17.3707 13.243 17.257 13.0725 17.1718 12.6462L17.1149 12.4472L16.9444 12.5325C16.5749 12.7314 16.2623 13.0441 16.0349 13.3851C15.6939 13.9251 15.6086 14.5788 15.6086 15.0619C15.6086 15.7156 15.7507 16.284 15.836 16.4262L15.8644 16.483C16.0349 16.7956 16.2623 17.1935 17.2286 17.5914L17.3423 17.6483C18.1949 18.0177 18.5076 18.1598 18.6781 18.444L18.7065 18.5009L19.1044 18.6146L19.1612 18.5861C19.3318 18.5009 19.5023 18.4725 19.6728 18.4725C20.0991 18.4725 20.4402 18.6146 20.696 18.9556C20.8665 19.183 20.9518 19.6946 20.7528 20.064C20.5539 20.4335 20.1844 20.6325 19.7012 20.6325C19.5307 20.6325 19.3033 20.5756 19.1044 20.4904L19.0476 20.4619L18.9623 20.4904C18.8486 20.5472 18.6781 20.604 18.4223 20.604L17.9676 20.5188L17.9107 20.4904L17.8539 20.5188L17.3707 20.6325L16.916 20.4904H16.8307L16.7739 20.5188C16.6602 20.5756 16.5181 20.6325 16.2339 20.6325L15.7791 20.5188L15.6939 20.4904L15.637 20.5188L15.1539 20.6325L14.6991 20.4904H14.6139L14.557 20.5188C14.4434 20.5756 14.3013 20.6325 14.017 20.6325L13.5623 20.5188L13.477 20.4904L13.4202 20.5188L12.937 20.6325L12.4823 20.4904H12.397L12.3402 20.5188C12.2549 20.5756 12.0844 20.6325 11.8002 20.6325L11.3455 20.5188L11.2886 20.4904L11.2318 20.5188L10.7486 20.6325L10.2939 20.4904L10.2371 20.4619L10.1802 20.4904C10.0097 20.5756 9.81074 20.604 9.61179 20.604C9.44127 20.604 9.27074 20.5472 9.10022 20.4904H8.98653L8.92969 20.5188C8.75916 20.604 8.58864 20.6609 8.38969 20.6609C7.96338 20.6609 7.5939 20.4904 7.36654 20.1777C7.19601 19.9219 7.13917 19.4388 7.33812 19.0409C7.4518 18.8419 7.73601 18.5009 8.36127 18.5009C8.5318 18.5009 8.73074 18.5577 8.95811 18.643L9.01495 18.6714L9.07179 18.643C9.18548 18.5861 9.32758 18.5293 9.61179 18.5293H9.72548L9.78232 18.5009C10.2086 18.1598 11.0044 17.7619 11.4592 17.563L11.6865 17.4493C12.2265 17.1651 12.596 16.5967 12.7381 15.8009V15.744L12.2834 15.0051C11.9139 14.4083 11.7434 14.1241 11.6865 13.9819C11.6297 13.8114 11.2034 13.1862 10.7202 12.8451L10.5781 12.6746L10.5213 12.8735C10.3223 13.4135 10.1518 13.6125 10.0381 13.6977L9.78232 13.7546L9.64021 13.5841L9.55495 13.8114C9.44127 14.0956 9.27074 14.3798 8.84443 14.4651C8.6739 14.4935 8.44653 14.4935 8.33285 14.2662L8.24759 14.1241L8.10548 14.1809C7.70759 14.3798 7.30969 14.5219 7.11075 14.2377L6.99706 13.8683C6.99706 13.6693 7.08233 13.4704 7.28127 13.2714L7.08233 13.0441C6.68443 13.3283 6.3718 13.3851 6.11601 13.1577L5.94549 12.8451L5.91707 12.7314H5.77496C5.40549 12.7314 5.17812 12.5893 5.06444 12.3051L5.03602 12.1062L5.09286 11.9072L5.40549 11.6798L5.03602 11.623L4.66654 11.4525L4.49602 11.1399L4.55286 10.8841L4.41076 10.8272C4.0697 10.6851 3.9276 10.4862 3.9276 10.2304L3.95602 10.0599L4.18339 9.7188L4.63812 9.66196L4.80865 9.69038V9.51986C4.80865 9.34933 4.89391 9.15038 5.1497 9.09354L5.43391 9.06512L5.51917 9.0367L5.43391 8.95144L5.32023 8.66723L5.37707 8.46828ZM5.0076 8.80933C4.75181 8.89459 4.58128 9.06512 4.52444 9.32091C4.35391 9.32091 4.15497 9.32091 3.98444 9.46301C3.78549 9.5767 3.67181 9.77564 3.61497 10.0314L3.58655 10.202C3.58655 10.4862 3.70023 10.7988 4.15497 11.0262L4.12655 11.1399C4.12655 11.282 4.18339 11.5093 4.38233 11.7083L4.72339 11.9072L4.66654 12.163L4.72339 12.4472C4.80865 12.7314 5.06444 13.0441 5.60444 13.0725L5.8318 13.442C6.00233 13.6125 6.28654 13.7262 6.68443 13.6125L6.59917 13.9251C6.59917 14.1241 6.65601 14.2946 6.7697 14.4651C7.11075 14.9767 7.70759 14.7209 8.07706 14.5504C8.24759 14.7493 8.50338 14.863 8.81601 14.8062C9.32758 14.6925 9.55495 14.3798 9.69706 14.0956L10.0665 14.0388L10.1234 14.0104C10.3223 13.8967 10.4928 13.6125 10.6634 13.243C11.0328 13.5556 11.3171 14.0104 11.3739 14.1241C11.4307 14.2662 11.6013 14.5504 11.9992 15.1756L12.3686 15.8009C12.2549 16.4546 11.9423 16.9377 11.516 17.1651L11.2886 17.2788C10.6918 17.563 10.0381 17.904 9.64021 18.2167H9.61179C9.29916 18.2167 9.12864 18.2735 8.98653 18.3588C8.81601 18.3019 8.58864 18.2167 8.33285 18.2167C7.50864 18.2167 7.16759 18.6714 7.02548 18.9272C6.7697 19.4388 6.85496 20.064 7.08233 20.3767C7.36654 20.7746 7.82127 21.0019 8.36127 21.0019C8.56022 21.0019 8.75916 20.9451 8.95811 20.8598C9.12864 20.9167 9.32758 21.0019 9.52653 21.0019C9.7539 21.0019 9.95284 20.9451 10.1518 20.8598C10.3223 20.9451 10.5213 21.0019 10.7202 21.0019C10.9192 21.0019 11.0897 20.9451 11.2602 20.8598C11.4023 20.9167 11.6013 20.9735 11.8002 20.9735C12.0844 20.9735 12.2834 20.9167 12.397 20.8598C12.5676 20.9451 12.7381 21.0019 12.937 21.0019C13.136 21.0019 13.3065 20.9451 13.477 20.8598C13.6192 20.9167 13.7897 20.9735 14.017 20.9735C14.3013 20.9735 14.4718 20.9167 14.6139 20.8598C14.7844 20.9451 14.9549 21.0019 15.1539 21.0019C15.3528 21.0019 15.5234 20.9451 15.6939 20.8598C15.836 20.9167 16.0349 20.9735 16.2339 20.9735C16.5181 20.9735 16.6886 20.9167 16.8307 20.8598C17.0012 20.9451 17.1718 21.0019 17.3707 21.0019C17.5697 21.0019 17.7402 20.9451 17.9107 20.8598C18.0528 20.9167 18.2518 20.9735 18.4507 20.9735C18.7633 20.9735 18.9339 20.9167 19.076 20.8314C19.2465 20.9167 19.4739 20.9735 19.7297 20.9735C20.3549 20.9735 20.8097 20.7177 21.0654 20.2346C21.3212 19.723 21.2075 19.0977 20.9802 18.7851C20.6675 18.3872 20.2697 18.1598 19.7297 18.1598C19.5307 18.1598 19.3318 18.2167 19.1612 18.3019L18.9623 18.2451C18.7065 17.8756 18.3655 17.7051 17.5128 17.364L17.3991 17.3072C16.5181 16.9377 16.3476 16.6251 16.177 16.3409L16.1486 16.284C16.0918 16.1988 15.9781 15.6872 15.9781 15.0619C15.9781 14.6356 16.0349 14.0104 16.3476 13.5556C16.5181 13.2998 16.7455 13.1009 16.9728 12.9304C17.0581 13.1862 17.1433 13.3851 17.2286 13.4704L17.257 13.4988L17.3139 13.5272L17.6833 13.7262L17.6549 13.6409C17.8255 14.0388 18.0528 14.4367 18.5076 14.4935L18.9623 14.4083C19.1328 14.5504 19.3318 14.6641 19.616 14.6641C19.8718 14.6641 20.0139 14.5504 20.1275 14.4367C20.6391 14.5219 20.9233 14.323 21.0654 14.0956L21.2075 13.6693V13.6409L21.0654 13.243L21.1223 13.2146L21.4065 12.9304C21.8044 12.902 22.0033 12.6746 22.0886 12.4756L22.117 12.362L22.1454 12.3335C22.3444 12.3904 22.6002 12.4756 22.856 12.362C23.0265 12.2767 23.1402 12.1346 23.2254 11.9356C23.4244 11.9356 23.6233 11.9356 23.8223 11.7935C24.0212 11.6514 24.1633 11.4241 24.1917 11.1683V11.0262C24.1917 10.7704 24.0496 10.3156 23.3675 10.0883C23.3391 9.88933 23.2823 9.7188 23.1118 9.5767C22.7707 9.23565 22.3728 9.29249 22.0602 9.40617L22.2875 9.15038C22.6854 9.23565 23.3391 9.32091 23.6233 8.75249L23.7086 8.46828L23.6518 8.21249C24.0212 7.92828 24.1065 7.61565 24.1065 7.38828L23.936 6.93355C23.7654 6.53565 23.4528 6.36513 22.9981 6.42197L22.8844 6.16618L22.856 6.13776L22.9412 5.85355L22.856 5.48408C22.7707 5.22829 22.6002 5.05776 22.3728 4.9725C22.2023 4.88724 21.9749 4.91566 21.7475 4.94408C21.9465 4.77355 22.0602 4.60303 22.0886 4.40408L22.117 4.26198C22.117 4.06303 22.0602 3.8925 21.9181 3.72198C21.6623 3.40935 21.2928 3.32408 20.8381 3.40935C20.7528 3.29566 20.6391 3.2104 20.4118 3.15356C20.0139 3.0683 19.7012 3.29566 19.5023 3.46619L19.3033 3.32408H19.2465L19.1328 3.35251C19.1328 3.12514 19.0476 2.92619 18.877 2.75567C18.6497 2.5283 18.3939 2.41461 18.1097 2.41461L17.8255 2.47146L18.0244 1.9883L17.9391 1.64725C17.797 1.39146 17.6549 1.27777 17.5128 1.22093C17.5128 0.510409 17.0581 0.311462 16.8307 0.25462C16.4612 0.169357 16.1486 0.311462 15.836 0.624093L15.6086 0.567251C15.4381 0.396725 15.2391 0.283041 15.0402 0.25462C14.4434 0.169357 14.1876 0.737777 14.0739 1.07883L13.6476 1.16409L13.4486 1.36304L13.3634 1.3062C13.2781 0.709356 12.9655 0.510409 12.7665 0.453567H12.3118C11.8286 -0.0580106 11.3739 -0.0580106 11.0897 0.0840942C10.8055 0.226199 10.6349 0.510409 10.6349 0.85146L10.7202 1.27778L10.5213 1.47672C10.2086 1.39146 9.92442 1.4483 9.64021 1.61883C9.38443 1.78935 9.24232 2.04514 9.24232 2.35777C9.24232 2.58514 9.32758 2.78409 9.41285 2.95461L9.12864 3.43777V3.55145L9.18548 3.77882C8.95811 3.80724 8.73074 3.8925 8.56022 4.09145L8.36127 4.51777C8.21917 4.11987 7.96338 3.92093 7.62233 3.8925C7.42338 3.8925 7.28127 3.97777 7.13917 4.11987C6.82654 3.8925 6.57075 3.92093 6.3718 4.00619C6.17286 4.09145 5.8318 4.31882 5.8318 4.91566L5.86023 5.19987L5.54759 5.54092V5.56934L5.51917 5.59776H5.54759L5.49075 5.85355L5.66128 6.30829C5.54759 6.33671 5.34865 6.47881 5.23496 6.76302C4.92233 6.79144 4.66654 6.96197 4.52444 7.24618L4.41076 7.70091V7.72933L4.49602 8.12723C4.58128 8.32618 4.75181 8.46828 4.97918 8.58196L5.03602 8.69565L5.0076 8.80933Z" fill="#3C5D87"/><path d="M12.2856 19.9502C12.4277 20.1492 12.6834 20.2913 12.9392 20.2913C13.2234 20.2913 13.3371 20.1776 13.3371 20.1776L13.5645 20.1492C13.5645 20.1492 13.735 20.2913 14.0192 20.2913L14.3319 20.2344L14.2182 20.1207L13.5645 19.1828C13.4224 18.9839 13.1666 18.8418 12.9108 18.8418C12.6266 18.8418 12.5129 18.9555 12.5129 18.9555L12.2856 18.9839C12.2856 18.9839 12.115 18.8418 11.8308 18.8418L11.5182 18.8986L11.6035 19.0123L12.2856 19.9502Z" fill="#3C5D87"/><path d="M7.67994 19.9503C7.59468 19.8082 7.53784 19.4672 7.67994 19.183C7.79362 18.9556 8.04941 18.8135 8.39046 18.8135C8.67467 18.8135 9.04415 18.9556 9.18625 19.1545L9.83993 20.0924L9.95362 20.1777L9.58415 20.2345C9.27151 20.2345 9.07257 20.0924 9.07257 20.0924L8.87362 20.1208C8.87362 20.1208 8.75994 20.2629 8.41889 20.2629C8.04941 20.2914 7.82204 20.1777 7.67994 19.9503Z" fill="#3C5D87"/><path d="M11.2323 5.96675C11.3744 5.88148 11.5449 5.7678 11.7439 5.62569C11.9997 5.48359 12.2555 5.39833 12.4544 5.31306C12.1986 4.80149 11.8576 4.80149 11.687 4.77306L11.5165 4.74464L11.4597 4.71622L11.2323 4.60254V4.82991V5.00043L11.1755 5.11412C11.1186 5.2278 10.9765 5.51201 11.2323 5.96675Z" fill="#3C5D87"/><path d="M14.5583 4.71684L14.5299 4.68848L14.5583 4.71684Z" fill="#3C5D87"/><path d="M8.1917 7.90002L8.13486 8.04212L7.87907 8.15581H7.73697L7.45276 8.35475L7.70855 8.72423L7.87907 8.89475L7.90749 9.00844C8.07802 8.98001 8.27697 8.98001 8.50433 9.06528L8.64644 9.00844C8.90223 8.95159 9.1296 9.0937 9.30012 9.20738C9.35696 9.0937 9.44223 8.92317 9.64117 8.98001C9.89696 9.03686 10.0675 9.2358 10.1812 9.46317L10.3233 9.32107V9.26422L10.3801 9.00844L10.4938 8.89475L10.2664 8.61054C9.98223 8.72423 9.47065 8.83791 9.1296 8.6958C8.93065 8.61054 8.78854 8.44002 8.76012 8.21265C8.56118 8.09896 8.41907 7.92844 8.33381 7.72949L8.1917 7.90002Z" fill="#3C5D87"/><path d="M7.39595 9.576L7.16858 9.66127L7.197 9.88863L7.22542 9.94548L7.28226 10.116L7.42437 10.4571C7.53805 10.656 7.76542 10.8265 7.8791 10.8834L8.44752 9.94548L8.24858 9.51916L8.30542 9.29179C7.96437 9.20653 7.76542 9.37706 7.65174 9.46232L7.53805 9.51916L7.39595 9.576Z" fill="#3C5D87"/><path d="M16.774 8.41193C17.0014 8.21298 17.2572 7.95719 17.4846 7.92877C17.3709 7.75825 17.314 7.5593 17.314 7.36035C17.2288 7.5593 16.973 7.72982 16.774 7.81509L16.8877 7.95719V8.04246L16.774 8.35509V8.41193Z" fill="#3C5D87"/><path d="M19.2184 9.12211L19.1901 9.09375L19.2184 9.12211Z" fill="#3C5D87"/><path d="M17.9399 8.97948C17.9683 9.06474 17.4851 9.29211 17.1157 9.4058L16.6041 9.63316L16.2346 10.0026C16.4051 10.1163 16.9451 10.23 17.0588 10.2016L17.0872 10.1163L17.2293 9.86053L17.5136 9.88895C17.7125 9.94579 18.0251 10.0311 18.2241 9.88895L18.1957 9.83211L18.1104 9.60474L18.082 9.51948L18.1672 9.49106L18.4514 9.46264L18.7641 9.49106H18.8493L18.9914 9.37738L18.963 9.26369L18.9062 9.06474L19.1051 8.83738C19.3325 8.72369 19.4178 8.63843 19.3325 8.43948H18.8778H18.5651L18.4514 8.26896L18.3378 8.15527L18.0536 8.29738L17.7409 8.38264L17.5988 8.26896L17.5704 8.21212C17.542 8.18369 17.3999 8.24054 17.0304 8.58159L16.7462 8.78053L16.5472 8.66685C16.3767 8.69527 16.1778 9.12159 16.0641 9.46264C16.263 9.37738 16.7178 9.20685 17.002 9.12159C17.3999 9.0079 17.9115 8.89422 17.9399 8.97948Z" fill="#3C5D87"/><path d="M8.67457 6.79187L8.56088 6.82029H8.41878H8.36194L8.39036 6.87714L8.41878 7.07608V7.1045C8.41878 7.41713 8.53246 7.81503 8.90194 8.01397L9.07246 7.90029C9.35667 7.61608 9.61246 7.04766 9.64088 6.87714C9.21457 6.67819 8.87352 6.73503 8.67457 6.79187Z" fill="#3C5D87"/><path d="M22.0041 6.5921L21.8904 6.67736C22.0041 6.7342 22.1746 6.87631 22.1746 7.1321V7.18894C22.1462 7.61525 21.4925 7.64367 21.0662 7.64367L21.1515 7.92788L21.123 8.06999C20.9241 8.55315 20.0715 8.52472 19.6736 8.52472V8.60999L19.6451 8.78051L19.9009 8.8942L19.9294 8.95104C20.3557 8.92262 20.6683 8.95104 20.9241 9.0363L21.2083 8.97946C21.4641 9.00788 21.6346 9.00788 21.663 8.8942V8.80893L21.7767 8.52472C21.8904 8.43946 22.0325 8.46788 22.2599 8.52472C22.5157 8.58157 22.8851 8.66683 22.9704 8.4963L22.9136 8.26894L22.8283 7.92788L22.9988 7.78578C23.3114 7.61525 23.4536 7.47315 23.3399 7.18894C23.283 7.04683 23.1409 7.04683 22.8851 7.1321C22.7146 7.18894 22.5157 7.24578 22.4304 7.04683V6.79105L22.402 6.5921C22.3736 6.56368 22.3167 6.53526 22.1178 6.50684L22.0041 6.5921Z" fill="#3C5D87"/><path d="M17.2008 6.9332L17.3429 7.0753L17.4566 6.70583C17.684 6.33636 18.0819 6.22268 18.224 6.2511C18.4797 6.10899 18.764 6.05215 19.0482 6.08057C19.105 5.96689 19.2471 5.7111 19.4745 5.56899L19.3324 5.3132C19.1903 5.19952 19.0197 5.28478 18.7924 5.42689L18.4229 5.54057L18.2808 5.39847L18.0819 5.11426L17.8829 5.22794L17.9682 5.45531L17.9398 5.59741C17.8829 5.79636 17.7124 5.91004 17.5703 5.99531L17.6271 6.22268C17.5987 6.47846 17.4566 6.70583 17.2008 6.9332Z" fill="#3C5D87"/><path d="M16.0081 5.34162C16.0649 4.94372 15.9228 4.65951 15.866 4.54583L15.8375 4.46056L15.7523 4.29004L15.5249 4.3753L15.4112 4.43214C15.2407 4.48899 14.8712 4.65951 14.7291 5.02898C15.2123 5.05741 15.8944 5.25635 16.0081 5.34162Z" fill="#3C5D87"/><path d="M19.5885 6.36507L19.4748 6.39349L19.2759 6.42191L19.219 6.39349C19.1053 6.36507 18.7359 6.25138 18.338 6.50717C18.3096 7.13243 18.7075 7.38822 19.1622 7.55875C19.4748 7.30296 19.5032 7.01875 19.5032 6.8198V6.6777V6.59243L19.5317 6.45033L19.5885 6.36507Z" fill="#3C5D87"/><path d="M16.3202 10.5724L16.4623 10.4303L16.0928 10.2598C16.0076 10.4303 15.8939 10.6292 15.8371 10.8282C15.7234 11.1408 15.6949 11.5387 15.6949 11.8798V12.0219L16.0644 11.5671C15.9507 11.3682 15.8939 11.0271 16.0928 10.7713L16.3202 10.5724Z" fill="#3C5D87"/><path d="M18.6222 10.088L18.7928 9.9175V9.88907V9.80381L18.5086 9.77539L18.5654 9.86065L18.4517 10.0596C18.1107 10.3438 17.6844 10.2301 17.457 10.1733H17.4286L17.258 10.4575C17.1728 10.4859 17.0023 10.4859 16.8033 10.4575C16.7749 10.6849 16.6328 10.7701 16.4907 10.827L16.3201 10.9407L16.2633 11.3385L16.6896 10.9975C16.6896 10.9975 16.9454 10.8554 17.1444 10.7417L17.6559 10.6564L17.258 11.0259L16.9454 11.2533L16.6896 11.7933C16.8033 11.7649 16.9738 11.7364 17.1728 11.7649L17.3717 11.708L17.798 11.5943L17.8549 11.5375L17.798 11.4522L17.6844 11.2249L17.7412 11.1112L18.0538 10.9975C18.3949 10.9691 18.5654 10.9122 18.5938 10.7417V10.7133L18.5086 10.5428L18.4233 10.3438L18.4517 10.2585L18.6222 10.088Z" fill="#3C5D87"/><path d="M21.1802 5.62676L21.0665 5.45624C20.8676 5.42781 20.697 5.59834 20.5265 5.79729L20.1571 6.02465L19.9581 5.91097L19.6739 5.82571L19.3897 6.10992L19.7876 6.13834L19.816 6.59307L19.7876 6.67834V7.04781C20.0718 6.84886 20.6118 6.47939 20.6686 6.53623C20.7539 6.59307 20.2992 7.10465 19.8444 7.36044L19.6171 7.50254L19.3328 7.81518L19.276 8.09938L19.4749 8.18465H19.5886C19.8444 8.18465 20.6402 8.24149 20.7823 7.92886L20.6686 7.64465L20.6118 7.41728C20.6402 7.3036 20.7539 7.3036 20.9244 7.3036C21.6918 7.3036 21.8055 7.18991 21.8055 7.13307L21.6065 6.87728L21.4644 6.7636V6.64992L21.8055 6.33729L21.9192 6.25202L21.976 6.19518C22.1749 6.05308 22.2886 5.91097 22.2034 5.6836L22.1181 5.56992L21.5213 5.71202L21.3223 5.76887L21.1802 5.62676Z" fill="#3C5D87"/><path d="M21.0083 9.40667C20.8662 9.20773 20.4684 9.12246 19.9284 9.20773C19.8999 9.37825 19.8431 9.63404 19.8999 9.97509C19.9284 10.2309 20.042 10.4014 20.1273 10.5435L20.1557 10.6004C20.8378 10.4583 20.9799 10.0888 21.0083 9.91825L21.0652 9.80457L21.2073 9.69088L21.2926 9.60562L21.1505 9.52036L21.0083 9.40667Z" fill="#3C5D87"/><path d="M15.4392 9.74763L15.5245 9.71921L15.7234 9.63395C15.7518 9.52027 15.8087 9.2929 15.9223 9.03711C15.695 9.15079 15.496 9.23606 15.4108 9.26448C15.4108 9.37816 15.4392 9.52027 15.4392 9.74763Z" fill="#3C5D87"/><path d="M16.604 8.01396L16.5472 7.98554L16.3766 7.90027L16.2914 7.84343L16.3482 7.78659L16.5756 7.58764L17.0872 7.16133L17.0019 7.10449L16.8314 6.96238L16.9451 6.76343C17.1724 6.59291 17.3998 6.36554 17.2861 6.08133H17.1724L16.9451 6.02449L16.8314 5.71186L16.7461 5.39923C16.7461 5.39923 16.6608 5.37081 16.3482 5.65502L16.2914 5.71186L16.0924 5.68344L16.0072 5.65502C15.8082 5.65502 15.7514 6.10975 15.723 6.25186L15.6661 6.4508H15.4103L15.3535 6.42238L15.1545 6.59291L15.1261 6.70659C15.1261 6.90554 15.2398 7.16133 15.2966 7.30343L15.3535 7.50238L15.2682 7.64448L15.1545 7.6729L15.0409 7.70133L14.984 7.92869C14.984 8.12764 15.0977 8.44027 15.2114 8.63922L15.2966 8.38343C15.3819 8.0708 15.8935 7.16133 16.0356 7.21817C16.1777 7.27501 15.6377 8.18448 15.5524 8.46869L15.4387 8.92343C15.7798 8.78132 16.6608 8.32659 16.604 8.01396Z" fill="#3C5D87"/><path d="M11.6867 9.00839C11.6867 8.83787 11.8288 8.66734 11.914 8.58208L11.8004 8.21261L11.9993 7.78629H11.6583H11.4025L11.3456 7.70103L11.0046 7.18945H10.9477C10.6919 7.30314 10.6919 7.55893 10.6919 7.84314L10.6351 8.12734L10.493 8.21261L10.4362 8.26945L10.6635 8.69576L10.8056 8.95155L10.5783 9.17892V9.37787L10.6067 9.43471C10.7488 9.57681 10.8909 9.86102 10.9477 10.1452L11.0046 10.1168L11.2319 10.1452L11.3172 10.2021L11.2319 9.77576C11.1467 9.12208 11.2035 8.89471 11.2888 8.86629C11.374 8.83787 11.4025 9.09366 11.5162 9.77576C11.573 10.1452 11.6867 10.4579 11.6867 10.5431L11.8856 10.6568C11.9993 10.5715 12.2835 10.3442 12.3119 10.1452V10.0315L12.2835 9.80418L12.3972 9.49155C12.113 9.49155 11.6867 9.40629 11.6867 9.00839Z" fill="#3C5D87"/><path d="M13.3927 14.0102L13.4212 13.6975C13.4212 13.4702 13.3927 13.1291 13.3075 12.5891C13.1085 11.3954 12.4548 11.2249 12.1706 11.1396H12.1422C12.2275 11.3386 12.2559 11.5944 12.2559 11.9354V12.0775C12.2559 13.0154 13.0801 13.7828 13.3927 14.0102Z" fill="#3C5D87"/><path d="M10.1246 10.7415C10.3235 10.8836 10.5225 11.0257 10.6646 11.1394L10.693 11.1678H10.7214C10.9488 11.3383 11.233 11.4236 11.2614 11.3951V11.3099C11.233 10.6846 11.0909 10.4573 11.0341 10.4288L10.9488 10.5425L10.7783 10.6278L10.6646 10.4857C10.693 10.0594 10.4656 9.68989 10.3804 9.63304L10.2383 9.88883L10.0678 9.9741L9.92565 9.83199C9.92565 9.66147 9.84038 9.40568 9.55617 9.29199L9.49933 9.40568L9.21512 9.5762L9.15828 9.51936L8.67512 9.32041L8.56144 9.40568C8.47618 9.5762 8.53302 9.68989 8.73197 9.83199L8.87407 10.0594L8.67512 10.2867L8.56144 10.372C8.56144 10.5141 8.6467 10.5709 8.93091 10.5994L9.15828 10.6846L9.0446 11.0257L8.95933 11.1109C9.0446 11.3099 9.24354 11.3667 9.44249 11.3951H9.47091H9.66986L9.98249 11.5372L9.89722 11.793L9.81196 11.8783C9.92565 12.0488 10.3235 12.0488 10.892 11.8499L10.5509 11.3951H10.4941C10.3235 11.2815 10.1246 11.1678 9.92565 10.9973L9.52775 10.4857L10.1246 10.7415Z" fill="#3C5D87"/><path d="M13.6207 10.6562C13.6207 10.912 13.6776 11.2815 13.9049 11.6794L14.3881 12.5036C14.4734 12.2194 14.587 11.7931 14.587 11.5941V11.3952C14.587 11.1962 14.5586 10.9689 14.5018 10.7131L14.4165 10.7415C14.1607 10.7699 14.0186 10.7984 13.6207 10.6562Z" fill="#3C5D87"/><path d="M14.9845 7.35944C14.9277 7.18892 14.814 6.96155 14.814 6.70576L14.8708 6.42155L14.6719 6.13734L14.5582 6.25103L14.274 6.39313L14.0466 6.19418C13.8477 5.9384 13.6487 5.68261 13.3929 5.73945C13.194 5.79629 13.1656 6.02366 13.194 6.39313L13.0519 6.7626L12.8529 6.90471C12.8245 7.10366 12.9666 7.21734 13.0803 7.33102L13.1371 7.38786C13.4213 7.44471 13.6771 7.8426 13.8192 8.09839C13.9613 8.01313 14.1887 7.8426 14.3877 8.01313C14.5866 8.18365 14.7003 8.63839 14.7287 8.89418L14.9277 8.86576C14.814 8.63839 14.6434 8.26891 14.6434 7.95628L14.7855 7.52997L14.9845 7.35944Z" fill="#3C5D87"/><path d="M14.728 10.0313C14.8702 9.46286 14.927 9.17865 14.927 9.12181L14.7849 9.15023L14.5007 9.12181L14.4438 8.9797L14.188 8.24076L13.9607 8.35444L13.6765 8.43971L13.5628 8.32602C13.4491 8.04181 13.1365 7.64392 12.9944 7.67234L12.8523 7.89971L12.7386 8.04181L12.5965 7.98497C12.5681 7.95655 12.4259 7.81445 12.1986 7.98497C11.9712 8.1555 12.1986 8.49655 12.227 8.49655L12.2554 8.61023L12.1986 8.72392L11.9996 9.00813C11.9996 9.15023 12.1702 9.20707 12.4544 9.26391L12.767 9.46286L12.6533 9.69023C12.5965 9.74707 12.5112 9.83233 12.5965 10.0597L12.7102 10.2018L13.2502 10.0881L13.5344 10.0313H13.6196L13.648 10.1165L13.6196 10.3439L13.7333 10.4292C14.0459 10.5429 14.1312 10.5429 14.4154 10.486H14.4438L14.387 10.2586L14.3586 10.2018C14.2733 10.0313 14.1312 9.80391 13.9323 9.63339C13.648 9.3776 13.2217 9.09339 13.2786 9.00813C13.307 8.92286 13.7902 9.17865 14.1312 9.46286C14.3302 9.60497 14.4723 9.77549 14.5007 9.83233L14.728 10.0313Z" fill="#3C5D87"/><path d="M14.5871 18.6715L14.644 18.6431L14.5018 18.2736L14.3029 18.2168C14.104 18.2168 13.9618 18.3873 13.8766 18.5578H14.0471C14.3029 18.5578 14.4734 18.6147 14.5871 18.6715Z" fill="#3C5D87"/><path d="M18.0254 19.1828C17.8833 18.9839 17.6275 18.8418 17.3718 18.8418C17.0875 18.8418 16.9739 18.9555 16.9739 18.9555L16.7749 18.9839C16.7749 18.9839 16.6044 18.8418 16.3202 18.8418L15.9791 18.8986L16.0644 18.9839L16.7181 19.9218C16.8602 20.1207 17.116 20.2628 17.3718 20.2628C17.656 20.2628 17.7696 20.1492 17.7696 20.1492L17.9686 20.1207C17.9686 20.1207 18.1391 20.2628 18.4233 20.2628L18.7644 20.206L18.6791 20.1207L18.0254 19.1828Z" fill="#3C5D87"/><path d="M11.7448 18.5576H11.83C12.0858 18.5576 12.2563 18.6429 12.37 18.6997L12.6258 18.586V18.4155C12.4269 18.3587 12.029 18.3587 11.7448 18.5576Z" fill="#3C5D87"/><path d="M8.44704 13.2143L8.9302 12.7312C9.21441 12.5322 9.41335 12.3617 9.78283 12.248L9.55546 12.0491L9.52704 11.9354L9.6123 11.708H9.41335L9.21441 11.7648L9.29967 11.9354L9.35651 12.1627L9.27125 12.248L9.0723 12.2196C8.9302 12.1343 8.58915 11.9638 8.33336 12.0775L8.30494 12.1059L8.3902 12.1912L8.50388 12.3901L8.44704 12.5038L8.16283 12.5606C7.99231 12.5322 7.82178 12.5322 7.67967 12.7027V13.0154L7.73652 13.328L7.59441 13.4701C7.33862 13.7259 7.22494 13.8964 7.33862 14.0954L7.87862 13.8964L8.21967 13.7543C8.44704 13.7543 8.50388 13.9533 8.5323 14.0385L8.70283 14.1238C9.01546 14.0669 9.10072 13.8396 9.18599 13.5838L9.44177 13.1575L9.64072 13.1006L9.83967 13.2996V13.328C9.95335 13.2143 10.1239 12.8733 10.2376 12.447L10.266 12.3901L9.7544 12.5322C9.38493 12.7312 8.44704 13.2996 8.44704 13.2143Z" fill="#3C5D87"/><path d="M8.02159 12.2203L7.99317 12.1067V12.0782L8.13527 11.8793L7.87948 11.7088L7.70896 11.1972L7.36791 10.9414H7.33949H6.85633V11.1688L6.74265 11.5951L6.31633 11.453C6.14581 11.3393 6.0037 11.254 5.89002 11.3109L5.91844 11.4814V11.8225L5.66265 11.9646L5.40686 12.1067V12.2488C5.4637 12.4193 5.60581 12.4477 5.8616 12.4193L6.14581 12.4761L6.23107 12.7319L6.31633 12.9593L6.99843 12.7035L7.19738 12.5898L7.31107 12.6467L7.33949 12.6751L7.42475 12.533C7.6237 12.2772 7.85106 12.2203 8.02159 12.2203Z" fill="#3C5D87"/><path d="M22.8574 10.599L22.7153 10.5706L22.6585 10.2864L22.6016 10.0022L21.8911 10.2011L21.6069 10.2864L21.4932 10.0874L21.3795 9.94531L21.3227 9.97373L21.2943 10.0306C21.2659 10.1443 21.1806 10.3716 20.9532 10.5706C21.3795 10.599 22.0048 10.7411 22.0048 10.8548C22.0048 10.9969 20.9532 10.8264 20.669 10.8264H20.5269L20.2711 10.8832L20.3564 11.0537L20.5553 11.0253C20.7543 10.9685 21.0101 10.94 21.1806 11.0537L21.3795 11.4232L21.3227 11.6506V11.679L21.6069 11.8779L21.6353 11.7643L21.6922 11.6221L22.0332 11.6506L22.4595 11.7643L22.5448 11.5085L22.6585 11.2527H22.9143H23.3406L23.4258 11.0822C23.4827 10.7979 23.3122 10.6843 22.8574 10.599Z" fill="#3C5D87"/><path d="M6.487 11.2261L6.51542 11.2545V11.1692V11.0555L6.65753 10.6861L6.45858 10.6576C6.20279 10.6292 5.35016 10.6292 5.35016 10.5155C5.35016 10.3734 6.28806 10.345 6.60069 10.3734L7.027 10.4871L6.94174 10.2313L6.8849 10.0608V9.97555H6.85647C6.65753 9.69134 6.40174 9.46397 6.28806 9.49239L6.17437 9.66292L6.03227 9.86186L5.74806 9.71976L5.20806 9.43555C5.15122 9.43555 5.1228 9.46397 5.15122 9.69134L5.06595 10.0324H4.75332H4.35543L4.29859 10.1745C4.27017 10.4019 4.44069 10.4871 4.78174 10.5724L5.00911 10.6861L4.95227 10.9987L4.89543 11.2261C5.06595 11.3966 5.23648 11.3113 5.43543 11.1692L5.66279 11.0555L5.8049 11.084C6.03227 10.9134 6.31648 11.084 6.487 11.2261Z" fill="#3C5D87"/><path d="M17.116 12.0486C16.7465 12.0202 16.5476 12.1339 16.5192 12.1339H16.3486L16.2918 12.0202V11.9918L16.4339 11.5939C16.0928 11.9633 15.6949 12.4181 15.5244 12.6739L15.3255 12.7307L15.2402 12.5886V12.5318C15.297 12.3896 15.297 12.1623 15.3255 11.8781C15.3539 11.5086 15.3539 11.1107 15.496 10.7412C15.6381 10.3718 15.7802 10.0875 15.9792 9.83176L15.6665 9.97386C15.3823 10.116 15.297 10.1728 15.1834 10.0591L15.1265 9.7465V9.63281C15.0981 9.80334 15.0413 10.0023 14.9844 10.2581L14.7855 10.3718L14.7002 10.3149C14.8423 10.6844 14.8992 11.1107 14.8992 11.4233V11.6223C14.8992 11.6223 14.7002 12.9581 14.4728 13.0149L14.3023 12.9581L14.0749 12.5886L13.6486 11.8781C13.2792 11.2528 13.2792 10.6844 13.2792 10.4286V10.4002C13.0802 10.4854 12.796 10.5991 12.5686 10.4854L12.5118 10.457L12.1707 10.8265L12.256 10.8549C12.5686 10.9402 13.3644 11.1675 13.6202 12.5602C13.6771 12.9296 13.7339 13.356 13.7339 13.7254C13.7339 14.0096 13.7055 14.237 13.5918 14.3223L13.4213 14.3507C13.336 14.3223 11.915 13.356 11.9434 12.0202C11.9718 11.0823 11.6307 10.8549 11.5455 10.8265L11.6023 11.2812C11.6023 11.5086 11.5171 11.5939 11.4318 11.6507H11.1476L11.2329 11.8781V11.9349L11.0623 12.1339L10.6076 12.276C11.3465 12.5318 12.0002 13.5549 12.0855 13.8107C12.1423 13.9244 12.4265 14.3791 12.6539 14.777C13.1655 15.6012 13.1655 15.6296 13.1655 15.7149C13.0234 16.6528 12.5971 17.3917 11.915 17.7328L11.6876 17.8465C11.2329 18.0738 10.5792 18.3865 10.1813 18.6707L10.2381 18.6991C10.3234 18.6423 10.4939 18.557 10.7781 18.557C10.9771 18.557 11.1476 18.6138 11.3181 18.6991L11.3465 18.6423C11.6592 18.0454 12.4265 18.0454 12.7392 18.1023L12.8528 17.7896L13.0518 17.4486C13.2507 17.1075 13.5349 16.397 13.6202 16.397C13.7055 16.397 13.6771 16.9938 13.336 17.5907L13.0518 17.9317L12.9665 18.2728V18.3012V18.5286C13.1371 18.5286 13.336 18.5854 13.4781 18.6707H13.5065V18.6423C13.6771 18.1591 13.9613 17.9033 14.3023 17.9033L14.7286 18.0738L14.9276 18.5286H15.1265C15.3255 18.5286 15.5244 18.5854 15.6949 18.6991C15.7802 18.6423 15.9792 18.557 16.2918 18.557C16.4907 18.557 16.6613 18.6138 16.7749 18.6707V18.6138C16.6613 18.3296 16.4339 18.2159 16.1213 18.1023C15.7234 17.9317 15.2118 17.7328 14.9276 16.9654C14.7855 16.5959 14.7286 16.1128 14.7002 15.6865C14.6718 15.3738 14.7286 14.436 14.8139 14.436C14.8992 14.436 14.9844 15.3738 15.0128 15.6581C15.0413 16.0844 15.0981 16.5391 15.2118 16.8517C15.4676 17.477 15.8655 17.6475 16.2349 17.8181C16.5476 17.9317 16.8318 18.0738 17.0023 18.4149L17.0876 18.5854L17.3718 18.557C17.5707 18.557 17.7413 18.6138 17.9118 18.7275C17.997 18.6707 18.1391 18.6138 18.3381 18.5854C18.196 18.4149 17.9402 18.3012 17.2013 18.017L17.0876 17.9317C16.0076 17.477 15.7518 17.0223 15.5528 16.6812L15.5244 16.6528C15.3255 16.3117 14.9276 14.4644 15.7234 13.2139C16.2065 12.4749 16.8318 12.1623 17.116 12.0486Z" fill="#3C5D87"/><path d="M21.209 11.9356L21.0101 11.7651L21.0385 11.5093L20.9817 11.282L20.6122 11.3104L20.2712 11.3388L20.0722 11.1683L20.0154 11.1967C19.7312 11.3104 19.1627 11.3388 18.708 11.083L18.0827 11.282H18.0543L18.1396 11.4809C18.5375 11.3956 18.8785 11.4241 18.9922 11.5377L19.1059 11.7651L19.0775 11.8504L19.2764 11.8788C19.6459 11.9072 19.8733 11.9641 19.9869 12.0777L20.0438 12.2767L19.9869 12.5325L20.0722 12.5609L20.328 12.6462L20.4417 12.6746H20.7259L20.7543 12.5893L20.8396 12.362L21.1238 12.3335L21.3796 12.2483C21.4648 12.0777 21.408 12.0209 21.209 11.9356Z" fill="#3C5D87"/><path d="M20.2987 13.4701L20.1281 13.2712V13.2143L20.2418 12.987L20.2987 12.9301L19.986 12.8164L19.6734 12.6743V12.5891L19.7302 12.4185L19.7871 12.3049L19.2755 12.2196C18.9629 12.1912 18.8208 12.1627 18.7924 12.0206L18.8208 11.8785L18.8492 11.8217C18.7923 11.7933 18.4229 11.7364 17.826 11.9638C18.025 12.0491 18.2239 12.1912 18.4229 12.3333C18.6218 12.4754 18.906 12.8164 18.8208 12.9017L18.2524 12.5891C18.0534 12.447 17.7124 12.3049 17.485 12.2196C17.5418 12.5606 17.6271 12.987 17.7408 13.1006L17.9966 13.0154C18.0818 13.0438 18.1387 13.1291 18.1955 13.328L18.565 13.8964L18.7639 13.8112L18.9629 13.6691L19.1618 13.8112L19.5313 14.067L19.7302 13.9533L19.9292 13.8396L20.0713 13.868C20.2702 13.9248 20.3839 13.9533 20.4408 13.8396L20.4692 13.7543L20.2987 13.4701Z" fill="#3C5D87"/><path d="M15.5808 1.64729L15.9503 1.76097L16.0924 2.24413C16.0924 2.55676 15.9218 2.78413 15.8082 2.95465L16.1208 3.18202L16.1492 3.32412L15.9787 3.80728L16.3197 3.77886L16.3482 3.75044C16.4334 3.49465 16.5755 3.09676 16.9166 2.98307H17.1155L17.0871 2.86939L17.0303 2.84097L16.8882 2.72728L16.945 2.55676C17.1439 2.44307 17.4566 2.15886 17.3713 2.01676L17.0587 1.78939L16.8882 1.73255L16.8313 1.44834C16.8597 1.16413 16.8597 0.993605 16.6892 0.965184C16.4903 0.908342 16.3482 1.07887 16.2061 1.27781L15.8934 1.47676L15.6945 1.36308L15.5524 1.24939L15.5808 1.47676V1.64729Z" fill="#3C5D87"/><path d="M14.1031 3.18188C14.3589 3.35241 14.4157 3.55135 14.4157 3.77872C14.4157 4.03451 14.302 4.26188 14.2452 4.40398H14.3873H14.501C14.5294 4.2903 14.6431 3.86398 14.7283 3.46609C14.8136 3.0682 14.8704 2.6703 14.9273 2.6703C15.041 2.6703 15.041 2.98293 14.9841 3.38083C14.9273 3.77872 14.8136 4.26188 14.7852 4.46082C14.9841 4.2903 15.2115 4.17661 15.3536 4.11977L15.5241 4.03451C15.7231 3.72188 15.8652 3.38083 15.8368 3.29556L15.6378 3.23872L15.4104 3.12504L15.4957 2.86925C15.7231 2.58504 15.922 2.27241 15.6947 1.90294L15.5525 1.95978H15.3252L15.2968 1.76083C15.3536 1.61873 15.382 1.27768 15.2683 1.07873L15.0125 0.908203L14.7283 1.39136L14.5578 1.73241H14.2736H14.0747C13.9326 1.81767 14.1031 2.18715 14.2452 2.41451C14.3589 2.61346 14.4157 2.72715 14.3589 2.84083L14.2168 2.92609L13.8757 3.03978L13.8473 3.12504L14.1031 3.18188Z" fill="#3C5D87"/><path d="M17.1432 3.40921L17.0579 3.2671H16.9727C16.7737 3.35237 16.6601 3.665 16.6032 3.83552L16.3758 4.09131L16.2906 4.06289L16.0348 4.11973L16.1485 4.3471L16.1769 4.40394C16.2622 4.60289 16.319 4.77342 16.3474 5.00078L16.6316 4.65973C16.9158 4.37552 17.2569 4.14815 17.3137 4.23342C17.3706 4.29026 17.0864 4.54605 16.859 4.83026L16.6601 5.08605L16.9443 5.11447C17.1432 5.22815 17.1716 5.48394 17.1716 5.65447V5.73973H17.2285L17.3706 5.76815L17.6548 5.48394L17.5979 5.31341L17.5127 5.14289L17.6264 5.0292L17.9674 4.85868L18.0243 4.83026C18.2232 4.71657 18.3085 4.60289 18.3085 4.51763L18.1948 4.29026L18.0527 4.06289L18.2232 3.8071L18.5074 3.43763L18.4222 3.2671L18.1664 3.125L17.6832 3.46605L17.399 3.665L17.1432 3.40921Z" fill="#3C5D87"/><path d="M18.5366 5.22856L18.6503 5.17172C18.8208 5.05804 19.0766 4.91593 19.3608 5.0012L19.6734 4.80225C19.9576 4.68857 20.2987 4.54646 20.3555 4.6033C20.4124 4.66015 20.0997 4.85909 19.8439 5.0012L19.6166 5.1433L19.7871 5.48435L20.1566 5.65488L20.2134 5.6833L20.2987 5.59804C20.4692 5.39909 20.725 5.08646 21.1229 5.1433L21.0376 4.85909V4.74541L21.1229 4.66015L21.4924 4.29067L21.4639 4.17699C21.3218 4.00646 21.0945 4.06331 20.8955 4.14857L20.6397 4.17699L20.4692 4.00646L20.2703 3.83594L19.8155 4.12015L19.5029 4.29067L19.2755 4.14857L19.1618 4.03488L18.8208 4.37594L18.6787 4.48962H18.5934L18.3092 4.91593L18.5366 5.22856Z" fill="#3C5D87"/><path d="M6.79874 8.78086L6.68506 9.32085L6.88401 9.5198C7.02611 9.29243 7.2819 9.29243 7.39558 9.29243L7.56611 9.17875V9.12191V9.03665L7.53769 9.00822C7.424 8.92296 7.13979 8.75244 7.13979 8.4398L7.16821 8.2977C7.22506 8.09875 7.33874 7.98507 7.48085 7.92823L7.39558 7.64402L7.36716 7.47349L7.16821 7.53033L6.71348 7.55875L6.62822 7.41665L6.40085 7.13244L5.88927 6.96191L5.83243 7.2177L5.74717 7.47349H5.5198C5.29243 7.41665 5.17875 7.41665 5.09348 7.58718L5.06506 7.89981C5.17875 8.09875 5.57664 8.21244 5.69032 8.24086L5.80401 8.35454L5.74717 8.52507L5.57664 8.75244L5.60506 8.8377C5.6619 8.89454 5.74717 8.86612 5.97453 8.78086C6.25874 8.63875 6.57137 8.49665 6.79874 8.78086Z" fill="#3C5D87"/><path d="M12.7959 3.06834C12.6538 3.09676 12.6538 3.38097 12.6822 3.66518L12.6538 4.00623L12.398 4.06307L12.2559 4.11991C12.2275 4.20517 12.3411 4.3757 12.5685 4.65991L12.7106 4.9157L12.6254 5.0578L12.7675 5.31359L12.938 5.39886L13.0517 5.62622L13.279 5.48412L13.1938 5.08622C13.1369 4.71675 13.1369 4.29044 13.1938 4.29044C13.3075 4.26202 13.3927 4.71675 13.478 5.08622L13.5917 5.48412L13.9896 5.71149L14.1317 5.28517L14.4443 5.11465L14.5864 4.77359L14.4159 4.74517C14.2453 4.74517 13.9896 4.74517 13.9611 4.51781L14.018 4.29044C14.1885 3.92096 14.2453 3.66518 13.9611 3.46623L13.8475 3.55149L13.5917 3.66518L13.3927 3.49465C13.2506 3.32412 13.0232 3.01149 12.7959 3.06834Z" fill="#3C5D87"/><path d="M10.7775 4.29056L10.607 4.57477L10.4933 4.71688C10.4933 4.7453 10.5501 4.80214 10.9196 4.85898C10.8912 4.68846 10.8627 4.43267 11.0901 4.3474L11.488 4.40425L11.3175 4.06319L11.0333 3.46635C11.1185 3.35267 11.488 3.77898 11.6301 3.97793C11.7722 4.23372 11.8575 4.43267 11.8859 4.54635L12.1701 4.63161L11.9427 4.14846L11.9712 4.00635C12.0848 3.77898 12.2554 3.75056 12.3975 3.77898V3.72214L12.3691 3.43793L12.3975 3.23899L12.1133 3.26741L11.9143 3.32425L11.8006 3.04004C11.8006 2.84109 11.7722 2.30109 11.5164 2.24425L11.3459 2.47162L11.0901 2.69899L10.8343 2.52846C10.5217 2.18741 10.3227 2.04531 10.0385 2.24425C9.83959 2.38636 9.98169 2.72741 10.1522 3.04004L10.2091 3.26741L10.0385 3.40951L9.81117 3.60846C9.78275 3.86425 10.067 3.97793 10.408 4.06319C10.607 4.06319 10.7775 4.12004 10.7775 4.29056Z" fill="#3C5D87"/><path d="M6.82794 7.16033L6.62899 6.90454H6.60057L6.88478 6.73401L7.0553 6.62033L6.85636 6.39296C6.2311 6.10875 6.14583 5.93822 6.17425 5.85296L6.3732 5.71086L6.54373 5.59717L6.57215 5.28454C6.51531 4.94349 6.48689 4.74454 6.65741 4.65928L6.94162 4.85823L7.16899 5.05717L7.51004 4.80138L7.62372 4.63086L7.82267 5.19928C7.85109 5.39823 7.87951 5.54033 7.9932 5.56875L8.33425 5.42665L8.44793 5.34138L8.59004 5.82454C8.59004 6.02349 8.61846 6.13717 8.70372 6.22243C8.76056 6.27928 8.90267 6.33612 9.10161 6.19401L9.67003 6.39296L9.81214 6.42138L9.7553 6.62033C9.2153 6.42138 8.81741 6.53506 8.61846 6.56348L8.5332 6.59191H8.41951L8.10688 6.70559L8.07846 6.73401C7.93636 6.62033 7.73741 6.4498 7.56688 6.25085C7.31109 5.93822 7.19741 5.56875 7.11215 5.62559C6.94162 5.68244 7.16899 6.19401 7.28267 6.36454C7.48162 6.62033 7.85109 6.96138 8.05004 7.10348V7.1319L8.10688 7.5298C7.90793 7.61506 7.85109 7.78559 7.82267 7.89927V7.92769H7.76583H7.73741L7.65215 7.64348L7.48162 7.27401L7.02688 7.30243L6.85636 7.35927L6.82794 7.16033Z" fill="#3C5D87"/><path d="M9.41315 5.34175L9.32789 5.62596L9.27105 5.79649C9.27105 5.99544 9.38473 6.02386 9.69736 6.05228L10.0953 6.25122V6.50701H10.1521C10.3795 6.56386 10.5784 6.73438 10.6921 7.01859L10.8058 6.96175H11.1184C11.3458 7.04701 11.4879 7.33122 11.5731 7.50175C11.7153 7.44491 12.0279 7.35964 12.2552 7.67227L12.5963 7.70069L12.7384 7.50175C12.6531 7.41648 12.5395 7.27438 12.5395 7.07543C12.2268 7.21754 11.8574 7.21754 11.4595 7.04701C11.1753 6.93333 10.9763 6.70596 10.9195 6.50701L10.9763 6.2228C10.6921 5.73965 10.7489 5.3986 10.8342 5.19965C10.5216 5.14281 10.2089 5.05754 10.1805 4.80176H10.1237L9.86789 4.68807C9.58368 4.48913 9.29947 4.34702 9.0721 4.60281C8.95842 4.71649 9.01526 4.8586 9.24263 5.08597L9.41315 5.34175Z" fill="#3C5D87"/><path d="M11.5727 1.90333C12.0275 1.96017 12.0843 2.55701 12.0843 2.89806L12.4822 2.92648L12.7096 2.78438L13.1075 2.84122C13.1643 2.50017 13.1927 2.01701 13.1359 1.93175L12.9938 2.04543L12.8233 2.07385L12.738 1.90333C12.7664 1.61912 12.738 1.16438 12.5959 1.13596L12.4254 1.1928L12.198 1.30649L12.0275 1.16438C11.9138 0.993858 11.6012 0.652806 11.4022 0.738069C11.2317 0.823332 11.3738 1.1928 11.4591 1.39175L11.4875 1.7328L11.2601 1.81807L11.0612 1.93175L11.1464 2.15912C11.2317 2.01701 11.3738 1.87491 11.5727 1.90333Z" fill="#3C5D87"/><path d="M14.5583 4.71684L14.5299 4.68848L14.5583 4.71684Z" fill="#3C5D87"/><path d="M19.2184 9.12211L19.1901 9.09375L19.2184 9.12211Z" fill="#3C5D87"/><path d="M16.5183 50.4748C16.5467 50.5885 16.1772 50.6453 15.9498 50.6453C15.6372 50.6453 15.3246 50.5885 15.353 50.4464C15.3814 50.3043 15.6656 50.3327 15.9498 50.3611C16.1488 50.3611 16.4898 50.3611 16.5183 50.4748Z" fill="#3C5D87"/><path d="M7.90691 38.5948H7.7648L7.65112 38.538C7.65112 38.538 7.28165 38.1116 6.77007 38.1116C6.4006 38.1116 6.08797 38.2538 5.80376 38.3674C5.54797 38.4811 5.29218 38.5948 5.00797 38.5948H4.2406L4.0985 38.4527V34.1611L3.75745 34.3885V38.7369H7.16796L7.28165 38.7937C7.28165 38.7937 7.50901 39.0495 7.85007 39.078H7.99217C8.33322 39.0495 8.56059 38.7937 8.56059 38.7937L8.67427 38.7369H12.0848V34.3885L11.7437 34.1611V38.4527L11.6016 38.5948H10.8343C10.5785 38.5948 10.3227 38.4811 10.0385 38.3674C9.72585 38.2253 9.41322 38.1116 9.07217 38.1116C8.56059 38.1116 8.19112 38.538 8.19112 38.538L8.07743 38.5948H7.90691Z" fill="#3C5D87"/><path d="M12.3693 38.878L12.2272 39.0201H8.73138C8.64611 39.1054 8.39033 39.3043 8.04927 39.3327H7.82191C7.45243 39.3043 7.19664 39.1054 7.11138 39.0201H3.58718L3.44508 38.878V34.4443H3.13245V39.3896H7.08296L7.19665 39.4464C7.19665 39.4464 7.36717 39.6454 7.70822 39.7022H8.16296C8.47559 39.6454 8.64611 39.4464 8.64611 39.4464L8.7598 39.3896H12.7103V34.4443H12.3977V38.878H12.3693Z" fill="#3C5D87"/><path d="M7.16858 34.2463L7.11173 34.3031C7.02647 34.2747 6.74226 34.2463 6.45805 34.3315L5.9749 34.5305L5.71911 34.6442C5.37806 34.7863 5.12227 34.8147 5.037 34.8147L4.98016 34.7579L5.037 34.701C5.09385 34.701 5.34964 34.6726 5.66227 34.5305L5.91805 34.4168L6.40121 34.2179C6.77068 34.1326 7.11173 34.1894 7.11173 34.1894L7.16858 34.2463ZM7.16858 35.1273L7.11173 35.1842C7.02647 35.1558 6.74226 35.1273 6.45805 35.2126L5.9749 35.4115L5.71911 35.5252C5.37806 35.6673 5.12227 35.6958 5.037 35.6958L4.98016 35.6389L5.037 35.5536C5.09385 35.5536 5.34964 35.5252 5.66227 35.3831L5.91805 35.2694L6.40121 35.0705C6.77068 34.9852 7.11173 35.0421 7.11173 35.0421L7.16858 35.1273ZM7.16858 36.0368L7.11173 36.0936C7.02647 36.0652 6.74226 36.0368 6.45805 36.1221L5.9749 36.321L5.74753 36.4063C5.40648 36.5484 5.15069 36.5768 5.06543 36.5768L5.00858 36.52L5.06543 36.4631C5.12227 36.4631 5.37806 36.4347 5.69069 36.2926L5.94648 36.1789L6.42963 35.98C6.7991 35.8947 7.14016 35.9515 7.14016 35.9515L7.16858 36.0368ZM7.16858 36.9463L7.11173 37.0031C7.02647 36.9747 6.74226 36.9463 6.45805 37.0315L5.9749 37.2305L5.71911 37.3442C5.37806 37.4863 5.12227 37.5147 5.037 37.5147L4.98016 37.4579L5.037 37.401C5.09385 37.401 5.34964 37.3726 5.66227 37.2305L5.91805 37.1168L6.40121 36.9179C6.77068 36.8326 7.11173 36.8894 7.11173 36.8894L7.16858 36.9463ZM6.68542 33.3652C6.14542 33.3652 5.86121 33.5642 5.63384 33.7631C5.4349 33.9052 5.26437 34.0473 5.00858 34.0473H4.41174V38.3105H5.037C5.23595 38.3105 5.46332 38.2252 5.71911 38.1115C6.03174 37.9694 6.40121 37.8273 6.7991 37.8273C7.25384 37.8273 7.62331 38.0831 7.79384 38.2536C7.79384 37.8557 7.79384 33.9621 7.79384 33.9621C7.76542 33.8768 7.59489 33.3652 6.68542 33.3652Z" fill="#3C5D87"/><path d="M8.04901 38.5948H7.90691H7.7648L7.65112 38.538C7.65112 38.538 7.28165 38.1116 6.77007 38.1116C6.42902 38.1116 6.11639 38.2538 5.80376 38.3674C5.51955 38.4811 5.26376 38.5948 5.00797 38.5948H4.2406L4.0985 38.4527V34.1611L3.75745 34.3885V38.7369H7.16796L7.28165 38.7937C7.28165 38.7937 7.50901 39.0495 7.85007 39.078H7.99217C8.33322 39.0495 8.56059 38.7937 8.56059 38.7937L8.67427 38.7369H12.0848V34.3885L11.7437 34.1611V38.4527L11.6016 38.5948H10.8343C10.5785 38.5948 10.3227 38.4811 10.0385 38.3674C9.72585 38.2253 9.41322 38.1116 9.07217 38.1116C8.56059 38.1116 8.19112 38.538 8.19112 38.538L8.04901 38.5948Z" fill="#3C5D87"/><path d="M12.6819 34.4443H12.3693V38.878L12.2272 39.0201H8.73138C8.64611 39.1054 8.39033 39.3043 8.04927 39.3327H7.82191C7.45243 39.3043 7.19664 39.1054 7.11138 39.0201H3.58718L3.44508 38.878V34.4443H3.13245V39.3896H7.08296L7.19665 39.4464C7.19665 39.4464 7.36717 39.6454 7.70822 39.7022H8.16296C8.47559 39.6454 8.64611 39.4464 8.64611 39.4464L8.7598 39.3896H12.7103V34.4443H12.6819Z" fill="#3C5D87"/><path d="M10.7484 34.7864C10.6631 34.7864 10.4073 34.758 10.0662 34.6159L9.81046 34.5022L9.3273 34.3032C9.04309 34.2464 8.75889 34.2748 8.67362 34.2748L8.58836 34.218L8.6452 34.1327C8.6452 34.1327 9.01467 34.0474 9.35573 34.1611L9.8673 34.3601L10.1231 34.4738C10.4357 34.6159 10.6915 34.6443 10.7484 34.6443L10.8052 34.7011L10.7484 34.7864ZM10.7484 35.6959C10.6631 35.6959 10.4073 35.6674 10.0662 35.5253L9.81046 35.4116L9.35573 35.2127C9.07152 35.1274 8.78731 35.1843 8.70204 35.1843L8.61678 35.1274L8.67362 35.0422C8.67362 35.0422 9.04309 34.9569 9.38415 35.0706L9.8673 35.2695L10.1231 35.3832C10.4357 35.5253 10.6915 35.5538 10.7484 35.5538L10.8052 35.6106L10.7484 35.6959ZM10.7484 36.6053C10.6631 36.6053 10.4073 36.5769 10.0662 36.4348L9.81046 36.3211L9.3273 36.1222C9.04309 36.0653 8.75889 36.0937 8.67362 36.0937L8.58836 36.0369L8.6452 35.9516C8.6452 35.9516 9.01467 35.8948 9.35573 35.9801L9.83888 36.179L10.0947 36.2927C10.4073 36.4348 10.6631 36.4632 10.7199 36.4632L10.7768 36.5201L10.7484 36.6053ZM10.7484 37.4864C10.6631 37.4864 10.4073 37.458 10.0662 37.3158L9.81046 37.2022L9.3273 37.0032C9.04309 36.9464 8.75889 36.9748 8.67362 36.9748L8.58836 36.918L8.6452 36.8327C8.6452 36.8327 9.01467 36.7759 9.35573 36.8611L9.83888 37.0601L10.0947 37.1737C10.4073 37.3158 10.6631 37.3443 10.7199 37.3443L10.7768 37.4011L10.7484 37.4864ZM10.8336 34.019C10.5778 34.019 10.4073 33.8769 10.2084 33.7348C9.95257 33.5643 9.66836 33.3369 9.15678 33.3369C8.24731 33.3369 8.07678 33.8769 8.07678 33.8485V38.1969C8.24731 38.0264 8.61678 37.7706 9.07152 37.7706C9.49783 37.7706 9.83888 37.9127 10.1515 38.0548C10.4073 38.1685 10.6347 38.2537 10.8336 38.2537H11.4305V33.9906H10.8336V34.019Z" fill="#3C5D87"/><path d="M20.157 38.5948H20.2991L20.4128 38.538C20.4128 38.538 20.7823 38.1116 21.2938 38.1116C21.6633 38.1116 21.976 38.2538 22.2602 38.3674C22.5444 38.4811 22.8002 38.5948 23.0559 38.5948H23.8233L23.9654 38.4527V34.1611L24.3065 34.3885V38.7369H20.896L20.7823 38.7937C20.7823 38.7937 20.5549 39.0211 20.2139 39.078H20.0717C19.7307 39.0495 19.5033 38.7937 19.5033 38.7937L19.3896 38.7369H15.9791V34.3885L16.3202 34.1611V38.4527L16.4623 38.5948H17.2296C17.4854 38.5948 17.7412 38.4811 18.0254 38.3674C18.3381 38.2253 18.6223 38.1116 18.9917 38.1116C19.5033 38.1116 19.8728 38.538 19.8728 38.538L19.9865 38.5948H20.157Z" fill="#3C5D87"/><path d="M24.6193 38.878L24.4772 39.0201H20.953C20.8677 39.1054 20.6119 39.3043 20.2709 39.3327H20.0435C19.674 39.3043 19.4182 39.1054 19.333 39.0201H15.8372L15.6951 38.878V34.4443H15.3824V39.3896H19.333L19.4466 39.4464C19.4466 39.4464 19.6172 39.6454 19.9582 39.7022H20.413C20.7256 39.6454 20.8961 39.4464 20.8961 39.4464L21.0098 39.3896H24.9603V34.4443H24.6477V38.878H24.6193Z" fill="#3C5D87"/><path d="M20.299 38.5948H20.1569H20.0148L19.9011 38.538C19.9011 38.538 19.5316 38.1116 19.0201 38.1116C18.6506 38.1116 18.3664 38.2538 18.0538 38.3674C17.7695 38.4811 17.5138 38.5948 17.258 38.5948H16.4906L16.3485 38.4527V34.1611L16.0074 34.3885V38.7369H19.418L19.5316 38.7937C19.5316 38.7937 19.759 39.0495 20.1001 39.078H20.2422C20.5832 39.0495 20.8106 38.7937 20.8106 38.7937L20.9243 38.7369H24.3348V34.3885L23.9937 34.1611V38.4527L23.8516 38.5948H23.0843C22.8285 38.5948 22.5727 38.4811 22.2885 38.3674C21.9758 38.2253 21.6632 38.1116 21.3222 38.1116C20.8106 38.1116 20.4411 38.538 20.4411 38.538L20.299 38.5948Z" fill="#3C5D87"/><path d="M24.9319 34.4443H24.6193V38.878L24.4772 39.0201H20.953C20.8677 39.1054 20.6119 39.3043 20.2709 39.3327H20.0435C19.674 39.3043 19.4182 39.1054 19.333 39.0201H15.8372L15.6951 38.878V34.4443H15.3824V39.3896H19.333L19.4466 39.4464C19.4466 39.4464 19.6172 39.6454 19.9582 39.7022H20.413C20.7256 39.6454 20.8961 39.4464 20.8961 39.4464L21.0098 39.3896H24.9603V34.4443H24.9319Z" fill="#3C5D87"/><path d="M19.3324 36.0936C19.2472 36.0652 18.963 36.0368 18.6788 36.1221L18.1956 36.321L17.9682 36.4063C17.6272 36.5484 17.3714 36.5768 17.2861 36.5768L17.2293 36.52L17.2861 36.4631C17.343 36.4631 17.5988 36.4347 17.9114 36.2926L18.1672 36.1789L18.6788 35.98C19.0482 35.8947 19.3893 35.9515 19.3893 35.9515L19.4461 36.0368L19.3324 36.0936ZM19.3324 37.0031C19.2472 36.9747 18.963 36.9463 18.6788 37.0315L18.1956 37.2305L17.9398 37.3442C17.5988 37.4863 17.343 37.5147 17.2577 37.5147L17.2009 37.4579L17.2577 37.401C17.3145 37.401 17.5703 37.3726 17.883 37.2305L18.1388 37.1168L18.6219 36.9179C18.9914 36.8326 19.3324 36.8894 19.3324 36.8894L19.3609 36.9747L19.3324 37.0031ZM17.2861 35.5536C17.343 35.5536 17.5988 35.5252 17.9114 35.3831L18.1672 35.2694L18.6503 35.0705C19.0198 34.9852 19.3609 35.0421 19.3609 35.0421L19.4177 35.1273L19.3324 35.1842C19.2472 35.1558 18.963 35.1273 18.6788 35.2126L18.1956 35.4115L17.9398 35.5252C17.5988 35.6673 17.343 35.6958 17.2577 35.6958L17.2009 35.6389L17.2861 35.5536ZM17.2861 34.6442C17.343 34.6442 17.5988 34.6158 17.9114 34.4737L18.1672 34.36L18.6788 34.161C19.0482 34.0758 19.3893 34.1326 19.3893 34.1326L19.4461 34.2179L19.3609 34.2747C19.2756 34.2463 18.9914 34.2179 18.7072 34.3031L18.224 34.5021L17.9682 34.6158C17.6272 34.7579 17.3714 34.7863 17.2861 34.7863L17.2293 34.7294L17.2861 34.6442ZM18.9061 33.3652C18.3661 33.3652 18.0819 33.5642 17.8545 33.7631C17.6556 33.9052 17.4851 34.0473 17.2293 34.0473H16.6324V38.3105H17.2577C17.4567 38.3105 17.684 38.2252 17.9398 38.1115C18.2524 37.9694 18.6219 37.8273 19.0198 37.8273C19.4745 37.8273 19.844 38.0831 20.0145 38.2536C20.0145 37.8557 20.0145 33.9621 20.0145 33.9621C19.9861 33.8768 19.844 33.3652 18.9061 33.3652Z" fill="#3C5D87"/><path d="M20.8953 36.861L20.8385 36.9463L20.9237 37.0031C21.009 36.9747 21.2932 36.9463 21.5774 37.0315L22.0606 37.2305L22.3164 37.3442C22.6574 37.4863 22.9132 37.5147 22.9985 37.5147L23.0553 37.4579L22.9985 37.401C22.9416 37.401 22.6858 37.3726 22.3732 37.2305L22.1174 37.1168L21.6342 36.9179C21.3216 36.8042 21.009 36.8326 20.8953 36.861ZM20.8953 35.9515L20.8385 36.0368L20.9237 36.0936C21.009 36.0652 21.2932 36.0368 21.5774 36.1221L22.0606 36.321L22.3164 36.4347C22.6574 36.5768 22.9132 36.6052 22.9985 36.6052L23.0553 36.5484L22.9985 36.4915C22.9416 36.4915 22.6858 36.4631 22.3732 36.321L22.1174 36.2073L21.6342 36.0084C21.3216 35.8947 21.009 35.9231 20.8953 35.9515ZM20.8953 34.1326L20.8385 34.2179L20.9237 34.2747C21.009 34.2463 21.2932 34.2179 21.5774 34.3031L22.0321 34.5021L22.2879 34.6158C22.629 34.7579 22.8848 34.7863 22.97 34.7863L23.0269 34.7294L22.97 34.6442C22.9132 34.6442 22.6574 34.6158 22.3448 34.4737L22.089 34.36L21.6058 34.161C21.2648 34.0473 20.8953 34.1326 20.8953 34.1326ZM20.8953 35.0705L20.8385 35.1558L20.9237 35.2126C21.009 35.1842 21.2932 35.1558 21.5774 35.241L22.0606 35.44L22.3164 35.5536C22.6574 35.6958 22.9132 35.7242 22.9985 35.7242L23.0553 35.6673L22.9985 35.6105C22.9416 35.6105 22.6858 35.5821 22.3732 35.44L22.1174 35.3263L21.6342 35.1273C21.2648 34.9852 20.8953 35.0705 20.8953 35.0705ZM21.2932 37.7989C20.8385 37.7989 20.469 38.0547 20.2985 38.2252V33.8768C20.2985 33.9052 20.469 33.3652 21.3785 33.3652C21.9185 33.3652 22.2027 33.5642 22.43 33.7631C22.629 33.9052 22.7995 34.0473 23.0553 34.0473H23.6521V38.3105H23.0269C22.8279 38.3105 22.6006 38.2252 22.3448 38.1115C22.0606 37.941 21.7195 37.7989 21.2932 37.7989Z" fill="#3C5D87"/><path d="M10.9485 46.9226L10.7496 46.7236L10.4938 46.9226L10.238 46.9794C9.9538 47.0363 9.58432 47.0931 9.44222 47.3773L9.38538 47.7184L9.47064 48.0594L9.58432 48.0026C9.49906 47.6899 9.66959 47.3773 9.72643 47.4057L9.75485 47.7468L9.78327 47.8889L9.89695 47.7752C9.92537 47.5194 10.1243 47.3773 10.2664 47.3773L10.437 47.4342L11.1475 47.5194C11.1191 47.3489 11.0054 47.0363 10.9485 46.9226Z" fill="#3C5D87"/><path d="M15.3533 48.4288L15.268 48.3719C15.0691 48.3719 14.188 48.2298 14.0459 48.2014C14.0459 48.2014 13.9322 48.173 13.6196 48.2867C13.3638 48.4003 13.1933 48.5709 13.108 48.7698L13.2501 48.8551C13.3354 48.7414 13.4491 48.5993 13.648 48.514L14.188 48.4572C14.2449 48.4856 13.9607 48.5709 13.7333 48.7414L13.5059 48.9972H13.5343L13.8754 48.9403L14.188 48.8835C14.3301 48.8551 15.9217 48.8835 16.348 48.8835L16.4049 48.7414C16.1775 48.6846 15.7512 48.5993 15.3533 48.4288Z" fill="#3C5D87"/><path d="M18.8503 43.4541C16.5766 40.6972 13.3934 42.033 13.2513 42.0898C12.6261 42.232 12.0861 42.4877 11.745 42.6867L11.3756 42.8572L10.2103 42.9993C9.86925 43.0846 9.38609 43.3404 8.78925 43.653L8.33451 43.8804C7.62399 44.2783 7.51031 44.5909 7.51031 44.5909L7.42504 44.6762L7.25452 44.8467V44.8751V44.9035L7.39662 44.8183L7.59557 44.8751L7.53873 45.0741L7.3682 45.1593C7.48188 45.3583 7.65241 45.3867 7.65241 45.4151L7.70925 45.3867C7.85136 45.3298 8.24925 45.2162 8.41978 45.6993V45.9551L8.22083 46.154H8.67556H8.76083L8.93135 46.1256C9.32925 46.0404 9.78398 45.9835 10.0682 46.0404C10.4661 46.1256 11.0345 46.4951 11.1766 46.7225L11.4892 47.7456C11.4608 47.8309 11.4324 48.1435 11.0913 48.314C10.8924 48.4277 10.665 48.4277 10.4945 48.3993H10.2956L10.0398 48.7404H10.2103L10.5229 48.5414L10.4945 48.7404H10.8356H10.9777C11.1766 48.7404 11.5461 48.7688 11.6598 48.6551L11.8303 48.513L12.3419 48.0867L12.8819 47.6604L13.1092 47.4898C13.2229 47.4046 13.2229 46.7225 13.1377 46.0119L13.2798 45.8414L13.4503 45.9835C13.4787 46.2677 13.5356 46.8361 13.4787 47.2625L13.5071 47.2909C13.9334 47.5751 14.3882 47.7456 14.7577 47.8309C14.6155 47.6604 14.5019 47.4614 14.4166 47.2056C14.3598 47.0351 14.3313 46.8646 14.3313 46.694C14.3313 46.154 14.644 45.7562 14.9282 45.4151C15.1271 45.1309 15.3261 44.9035 15.3261 44.6762V44.6193V44.6477L15.4682 44.5056L15.6387 44.6193C15.6955 45.0172 15.4398 45.3298 15.184 45.6709C14.8429 46.0972 14.5019 46.5235 14.7292 47.1772C14.8713 47.6035 15.0987 47.8877 15.3829 48.0583L15.4113 48.0867L15.4966 48.1435C15.9798 48.3993 16.605 48.4277 16.605 48.4277L16.7187 48.4846L16.7471 48.5982C16.7471 48.6267 16.7187 48.854 16.5766 49.053L16.5198 49.1382L16.4061 49.2804L15.8661 49.6782C15.4398 49.9625 14.7861 50.3888 14.0755 50.9856C13.2229 51.6961 12.7113 52.6909 12.8534 53.1172C12.8819 53.2024 12.9387 53.2877 13.1092 53.3161C14.5587 53.4582 15.4113 52.5488 16.1503 51.753L16.3492 51.554C16.8608 51.014 17.2303 50.3604 17.4861 49.934C17.6566 49.6214 17.7419 49.5077 17.8271 49.4509C18.424 49.0246 19.3618 47.774 19.5608 46.2677C19.7313 45.1593 19.4755 44.2214 18.8503 43.4541ZM9.52819 43.6814L9.75556 43.5962H9.89767L9.98293 43.6814L10.0966 43.8235C10.1819 43.852 10.3808 43.4825 10.0682 43.312L9.72714 43.2835C9.47135 43.3972 9.41451 43.6246 9.52819 43.6814ZM8.5903 45.3583L8.50504 44.8751C8.5903 44.6762 9.24398 44.4204 9.24398 44.3067C9.24398 44.193 8.39136 44.4772 8.24925 44.733C8.07872 45.0456 8.4482 45.4151 8.5903 45.3583ZM18.6229 45.4435V45.5856L18.6797 45.6425L18.7934 45.6709L18.8219 45.5572L18.7366 45.4435H18.6229V45.4435ZM18.9355 45.0172V45.1877L19.0492 45.3298L19.1913 45.3583L19.2197 45.2162L19.0776 45.0172H18.9355ZM17.5145 45.2162L17.5429 45.3583L17.6566 45.4435H17.7703V45.3014L17.6282 45.1877L17.5145 45.2162ZM17.7134 44.7614L17.7419 44.9035L17.9408 45.0456H18.0829V44.9035L17.8555 44.7046L17.7134 44.7614ZM17.884 44.2214L17.9408 44.4204C17.9408 44.4204 18.0545 44.4488 18.2534 44.6193H18.424V44.4772C18.1397 44.2214 18.0829 44.193 18.0829 44.193L17.884 44.2214ZM17.9976 43.5109L18.0545 43.7098C18.0545 43.7098 18.225 43.7951 18.5092 44.0225H18.6797V43.8519C18.3671 43.5393 18.225 43.4541 18.1966 43.4541L17.9976 43.5109ZM16.5482 44.3351L16.6334 44.4488L16.8892 44.5056L17.0029 44.4772L16.9745 44.3635L16.6619 44.2498L16.5482 44.3351ZM16.5766 43.7667L16.6619 43.9088L17.0598 44.0509L17.2019 44.0225L17.1734 43.8804C16.8608 43.7098 16.7755 43.7098 16.7187 43.7098L16.5766 43.7667ZM16.4913 43.113L16.605 43.2835C16.605 43.2835 16.9461 43.3688 17.2019 43.4825L17.344 43.4256L17.2871 43.2835C16.9461 43.113 16.6619 43.0277 16.6619 43.0277L16.4913 43.113ZM16.3208 42.4025L16.4345 42.573C16.4345 42.573 16.8892 42.7151 17.2019 42.8572L17.3724 42.8004L17.3155 42.6298C16.9461 42.4309 16.5198 42.2888 16.4913 42.2888L16.3208 42.4025ZM13.1092 45.0172L13.024 44.9319L12.6545 44.8467L12.5408 44.9888L12.6545 45.1309L13.0524 45.1025L13.1092 45.0172ZM13.2229 44.2783L13.1092 44.193L12.5977 44.1646L12.484 44.3351L12.6261 44.4772L13.1377 44.3635L13.2229 44.2783ZM13.2229 43.4825L13.1092 43.4256L12.4556 43.5393L12.3419 43.7383L12.5408 43.8804L13.1661 43.6246L13.2229 43.4825ZM13.0808 42.7435L12.9671 42.7151L12.1429 42.9993L12.0861 43.2267L12.285 43.3404L13.0808 42.9141V42.7435ZM8.39136 44.0509L8.30609 44.0793L8.22083 44.2783L8.41978 44.3635L8.50504 44.3351L8.5903 44.1362L8.39136 44.0509ZM14.4734 52.5488L13.9903 52.4635C13.7345 52.4635 13.5071 52.4351 13.4787 52.5488C13.4503 52.6624 13.7345 52.6909 13.9903 52.6909L14.4734 52.5488ZM15.2408 51.8382C15.2124 51.7246 14.8429 51.7246 14.6155 51.7246C14.2745 51.7246 13.9619 51.6677 13.9334 51.8098C13.905 51.9519 14.2745 51.9803 14.6155 51.9803C14.8429 52.0088 15.2408 51.9519 15.2408 51.8382ZM15.9229 51.1561C15.9513 51.2698 15.4966 51.3267 15.2408 51.3267C14.8713 51.3267 14.5019 51.2698 14.5303 51.1277C14.5587 50.9856 14.8998 51.014 15.2692 51.0425C15.4682 51.0425 15.8945 51.014 15.9229 51.1561Z" fill="#3C5D87"/><path d="M22.6578 49.2238C22.9136 49.2522 23.2263 49.2238 23.482 49.1101C23.7378 48.9964 23.9084 48.8259 24.0789 48.627C24.2778 48.9112 24.7326 49.5933 24.9031 49.8491C24.6189 50.2185 24.2494 50.6164 23.8515 50.9575L22.6578 49.2238Z" fill="#3C5D87"/><path d="M4.07014 48.6553C4.21224 48.8542 4.41119 49.0247 4.63856 49.1384C4.92277 49.2521 5.20698 49.2805 5.46276 49.2521L4.24066 50.9858C3.84277 50.6447 3.4733 50.2468 3.18909 49.8774C3.38803 49.6216 3.87119 48.9395 4.07014 48.6553Z" fill="#3C5D87"/><path d="M8.04954 59.0004L8.27691 58.7731L8.50427 58.6025C8.78848 58.3467 9.18638 58.0341 9.44217 57.7783C10.0674 58.0625 10.579 58.3467 10.9201 58.7162C11.1758 59.0004 11.2043 59.3699 11.0337 59.5973L10.8632 59.7678L10.4653 60.1941H10.238C9.01585 60.1941 8.19164 59.7678 8.02112 59.3699L8.04954 59.0004Z" fill="#3C5D87"/><path d="M19.6171 58.5753L19.8445 58.7458L20.0719 58.9732L20.1287 59.3427C19.9582 59.7405 19.134 60.1669 17.9119 60.1669H17.6845L17.2866 59.7121L17.0877 59.5416C16.9456 59.3995 16.9172 58.9448 17.2014 58.6605C17.5424 58.2911 18.054 57.9784 18.6793 57.7227C18.935 58.0353 19.3329 58.3479 19.6171 58.5753Z" fill="#3C5D87"/><path d="M3.47295 51.5551L3.58664 51.6403L3.6719 51.4698L3.21716 51.0151L3.1319 51.1856L3.30243 51.3561L2.53506 52.2088L2.76243 50.7593L2.93295 50.9298L3.01822 50.7593C2.84769 50.5603 2.67716 50.333 2.53506 50.134L2.42138 50.2761L2.50664 50.4182L2.19401 52.3793L2.33611 52.6067C2.67716 52.3793 3.35927 51.6688 3.47295 51.5551ZM7.99189 54.2266C7.79294 54.1414 7.59399 54.0277 7.39505 53.9424L7.30978 54.113L7.50873 54.2266C7.28136 54.6814 6.96873 55.7045 6.514 55.3919C6.17294 55.1645 6.31505 54.9088 6.48557 54.5393C6.59926 54.3403 6.71294 54.0845 6.82663 53.8572L7.02557 53.9709L7.11084 53.8003C6.88347 53.6866 6.68452 53.573 6.45715 53.4593L6.37189 53.6298L6.514 53.7151L6.31505 54.1698C6.08768 54.6245 5.86031 54.994 6.08768 55.3351L6.31505 55.534L6.71294 55.6761C7.25294 55.733 7.50873 54.994 7.79294 54.3688L7.93504 54.4256L7.99189 54.2266ZM9.6403 55.0224C9.18557 54.7666 8.70241 54.5677 8.21925 54.3403L7.99189 54.7951L8.19083 54.9088L8.38978 54.653L8.73083 54.7666C8.53188 55.2214 8.30452 55.6761 8.10557 56.1309L7.90662 56.0456L7.82136 56.2161C8.07715 56.3298 8.30452 56.4435 8.56031 56.5287L8.64557 56.3582L8.44662 56.2445C8.64557 55.7898 8.87294 55.3066 9.07188 54.8803L9.35609 55.0793L9.24241 55.3635L9.44136 55.4487L9.6403 55.0224ZM4.09821 53.3456L4.354 52.8909L4.2119 52.7772L4.12663 52.8909L3.84242 52.6919C3.92769 52.5214 4.04137 52.3224 4.12663 52.1235L4.46769 52.4361L4.41084 52.7203L4.55295 52.834L4.78032 52.3793C4.46769 52.1235 4.15506 51.8961 3.84242 51.6403L3.75716 51.8109L3.89927 51.9246C3.6719 52.3793 3.47295 52.7488 3.24558 53.2319L3.10348 53.1182L3.01822 53.2888C3.33085 53.573 3.61506 53.8288 3.95611 54.0845L4.24032 53.6866V53.6582L4.09821 53.5161L3.87085 53.7719L3.50137 53.4593L3.78558 52.8909L4.04137 53.1182L3.98453 53.2888L4.09821 53.3456ZM5.74663 53.2319L5.83189 53.0614C5.63295 52.9193 5.40558 52.8056 5.20663 52.6351L5.12137 52.8056L5.26347 52.9193C5.0361 53.374 4.83716 53.8003 4.63821 54.2551L4.49611 54.1698L4.41084 54.3403C4.7519 54.5677 5.09295 54.7951 5.46242 54.994L5.77505 54.5961V54.5677L5.63295 54.4256L5.37716 54.6814L4.97926 54.4256C4.97926 54.3119 5.46242 53.4024 5.60452 53.0898L5.74663 53.2319ZM8.50346 56.9835L8.36136 56.9266C5.54768 55.8182 3.21716 54.3403 2.13717 52.9477C0.915065 51.4414 1.11401 50.2193 1.48348 49.4519L1.85296 48.6277L2.22243 47.8604C2.19401 48.2582 2.25085 48.713 2.47822 49.253C3.04664 50.6172 4.97926 52.0951 6.48557 52.9477C7.11084 53.3172 7.76452 53.6014 8.36136 53.8856C10.0666 54.653 11.4024 55.2782 11.4024 56.7845V58.5751V58.774L11.2035 58.433C10.6066 57.8077 9.6403 57.4098 8.50346 56.9835Z" fill="#3C5D87"/><path d="M24.8468 51.9246C24.591 51.6972 24.3068 51.6403 23.9089 51.8961L23.7384 52.0667C23.5678 52.2372 23.4826 52.4645 23.4826 52.7203L23.511 53.033L23.6815 53.4309C23.9373 53.8003 24.2215 53.8856 24.6478 53.7151C25.3015 53.4309 25.3584 52.4077 24.8468 51.9246ZM24.7047 53.4309C24.3352 53.7435 23.9089 53.2603 23.7952 52.7772C23.7384 52.5498 23.7384 52.3224 23.8805 52.1519L23.9942 52.0382L24.2499 51.953C24.7047 52.0098 25.1594 53.0614 24.7047 53.4309ZM22.9994 52.8056L23.1415 52.7203L23.0563 52.5498C22.8573 52.6635 22.6868 52.8056 22.4878 52.9193L22.5731 53.0898L22.7436 52.9761C22.8005 53.2319 22.8857 53.9993 22.8857 54.1982L22.9142 54.4256L22.6868 54.1982L22.2321 53.6866L22.0331 53.4593L22.2321 53.3172L22.1752 53.1466C21.9478 53.2888 21.7205 53.4024 21.4931 53.5445L21.5499 53.7151L21.6921 53.6298L21.9763 53.9424C22.2036 54.1698 22.4026 54.3972 22.6299 54.6245L22.9142 54.9088L23.1415 54.7666C23.1131 54.3119 23.0847 53.8856 23.0563 53.4309C23.0563 53.2319 23.0278 53.0045 22.9994 52.8056ZM21.6352 54.994L21.6636 55.2782L21.1521 55.5624L20.9247 55.0224L21.351 54.8235L21.4363 54.9656L21.6068 54.8803L21.3794 54.3688L21.2089 54.454L21.2373 54.6245L20.811 54.8803C20.6973 54.653 20.6121 54.454 20.5268 54.2266L21.0384 53.9993L21.2089 54.2266L21.3794 54.113L21.1805 53.6866C20.8394 53.8572 20.4131 54.0845 20.0721 54.2551C20.0152 54.8803 19.9584 55.534 19.9015 56.1593L19.7594 56.2445L19.8163 56.4151C20.0152 56.3298 20.2142 56.2445 20.4131 56.1593L20.3278 55.9887L20.1289 56.074C20.1289 55.8751 20.1573 55.6193 20.1573 55.3919L20.6405 55.1645L20.8963 55.733L20.7257 55.8182L20.811 55.9887C21.1805 55.8182 21.6352 55.5909 22.0047 55.3919L21.8626 54.9372L21.6352 54.994ZM20.1573 55.193C20.1573 54.9088 20.1857 54.653 20.2142 54.3972H20.2426C20.3563 54.6245 20.4415 54.8235 20.5552 55.0509L20.1573 55.193ZM25.9552 52.9477C24.8752 54.3119 22.5447 55.7898 19.731 56.8982L19.5889 56.9551C18.4805 57.4098 17.5142 57.7793 16.9173 58.433L16.7184 58.774V58.5751V56.7845C16.7184 55.2782 18.0542 54.653 19.7594 53.8856C20.3847 53.6014 21.01 53.3172 21.6352 52.9477C23.1131 52.0951 25.0457 50.6456 25.6426 49.253C25.8699 48.713 25.9268 48.2298 25.8984 47.8604L26.2678 48.6277L26.6373 49.4235C26.9784 50.2193 27.1773 51.4414 25.9552 52.9477Z" fill="#3C5D87"/><path d="M15.9787 60.9898L15.7513 61.0466C15.524 61.1319 15.3535 61.274 15.2398 61.4729L15.1261 61.7571V62.155C15.2114 62.5814 15.4387 62.8371 15.8935 62.894C16.6324 63.0077 17.1156 62.1835 16.8313 61.5014C16.7177 61.1603 16.4619 60.9898 15.9787 60.9898ZM16.064 62.695C15.5808 62.7803 15.3819 62.155 15.4956 61.7003C15.5524 61.4729 15.6377 61.274 15.8082 61.2171L15.9503 61.1887L16.2345 61.2456C16.6608 61.5014 16.6608 62.6098 16.064 62.695ZM10.3514 60.9898H10.0956C9.89663 61.5298 9.66926 62.0982 9.47032 62.6382L9.29979 62.6666V62.8371H9.95347V62.6666H9.75452L9.83979 62.3256C10.0387 62.3256 10.2661 62.3256 10.465 62.3256L10.5787 62.6666H10.3798V62.8371H11.0903V62.6666H10.9198L10.3514 60.9898ZM9.92505 62.155C10.0103 61.8993 10.0956 61.6435 10.1808 61.3877H10.2093L10.465 62.1266H9.92505V62.155ZM12.7387 62.5245L12.3977 62.0414V62.0129C12.7103 61.9277 12.9377 61.4445 12.625 61.1887C12.3693 60.9898 11.8577 61.0466 11.4314 61.0466V61.2171H11.6019V62.6666H11.4314V62.8371H12.1419V62.6666H11.9429V62.0982H12.1703L12.5966 62.8371H13.0514V62.6666H12.8808L12.7387 62.5245ZM11.9145 61.9277C11.9145 61.6719 11.9145 61.4445 11.9145 61.1887L12.1987 61.2171C12.3977 61.3024 12.5114 61.5866 12.3408 61.7856C12.284 61.9277 12.1135 61.9277 11.9145 61.9277ZM14.3019 61.8708C14.6145 61.7287 14.785 61.3024 14.4156 61.1035C14.1598 60.9614 13.6482 61.0182 13.2787 61.0182V61.1887H13.4777V62.6666L13.2787 62.695V62.8656C13.705 62.8656 14.2166 62.9224 14.4724 62.7519C14.6714 62.6382 14.8419 62.354 14.6714 62.0982L14.3019 61.8708ZM13.7903 61.1887C13.9892 61.1887 14.1598 61.1887 14.245 61.3024L14.3019 61.5014C14.2735 61.7287 14.0745 61.814 13.7903 61.7856C13.7903 61.615 13.7903 61.4161 13.7903 61.1887ZM14.3871 62.4392L14.0461 62.695L13.8187 62.6666L13.7903 62.5245L13.8187 62.0414C14.1314 61.9845 14.4724 62.0982 14.3871 62.4392ZM18.6219 62.5245L18.2808 62.0414V62.0129C18.5934 61.9277 18.8208 61.4445 18.4798 61.1887C18.224 60.9898 17.7124 61.0466 17.2861 61.0466V61.2171H17.4566V62.6666H17.2861V62.8371H17.9966V62.6666H17.7977V62.0982H18.025L18.4513 62.8371H18.9061V62.6666H18.7355L18.6219 62.5245ZM17.7977 61.9277C17.7977 61.6719 17.7977 61.4445 17.7977 61.1887L18.0819 61.2171C18.2808 61.3024 18.3945 61.5866 18.224 61.7856C18.1671 61.9277 17.9966 61.9277 17.7977 61.9277ZM20.3271 59.7393V59.7961V62.3256C20.3271 63.0929 19.0198 63.3771 17.9113 63.3771H10.2377C9.12926 63.3771 7.8219 63.0929 7.8219 62.3256V59.7961V59.7393C8.24821 60.2224 9.18611 60.5635 10.2377 60.535H17.9113C18.9629 60.535 19.9008 60.2224 20.3271 59.7393Z" fill="#3C5D87"/><path d="M13.193 25.6911C12.9088 25.35 12.4256 25.2932 12.1983 25.2932C11.6867 25.2932 11.2604 25.5206 11.1183 25.6911L11.0046 25.7479C10.5214 25.7195 10.1804 25.8616 9.98144 26.1174C9.75407 26.4016 9.78249 26.7995 9.83933 26.9985V27.0269L9.98144 27.2542C9.92459 26.7142 10.2656 26.3448 10.6351 26.1458H10.7772C10.8625 26.2595 10.1235 26.7711 10.3225 27.3964C10.4362 27.7942 10.6635 27.9363 10.8341 27.9648L10.8625 27.9363L10.7488 27.6806V27.5953V27.5669C10.6351 27.4532 10.5214 27.3111 10.5214 27.1121V27.0553C10.5499 26.9132 10.6067 26.7142 10.8909 26.6006L11.0046 26.5721L10.9762 26.5153V26.3732C10.9762 26.0321 11.232 25.7479 11.3741 25.6342L11.6299 25.5774C11.8288 25.6342 12.2551 25.8332 12.3404 26.2311V26.2879H12.4541C12.6814 26.2879 12.7951 26.3732 12.8804 26.4585L13.0793 26.3448L12.7098 25.9753C12.5109 25.8048 12.2551 25.7195 12.2551 25.6911L12.4541 25.6342L12.7667 25.7195C12.9372 25.8048 13.1077 25.9185 13.2214 26.0606V25.6911H13.193ZM14.3014 28.8174L14.0172 29.1016L13.7614 28.8174L14.0172 28.5332L14.3014 28.8174ZM12.312 25.009L11.8572 24.8669C11.4877 24.7248 11.1183 24.5827 10.7488 24.5827C9.95301 24.5827 9.35617 25.0658 9.35617 25.7195C9.35617 25.9469 9.41302 26.1742 9.49828 26.4016L9.69723 25.9469C9.95301 25.6058 10.3509 25.4353 10.9193 25.4637C11.1751 25.2079 11.6583 25.009 12.1698 25.009H12.312ZM18.1383 26.1458C17.9393 25.89 17.5983 25.7479 17.1151 25.7764L17.0014 25.7195C16.8593 25.5206 16.433 25.3216 15.9214 25.3216C15.6656 25.3216 15.2109 25.35 14.9267 25.7195V26.1174C15.0404 26.0037 15.1825 25.89 15.3814 25.7764L15.6941 25.6911L15.893 25.7479C15.893 25.7764 15.6656 25.8616 15.4383 26.0321L15.0688 26.4016L15.2677 26.5153C15.353 26.43 15.4951 26.3448 15.6941 26.3448H15.8077V26.2879C15.893 25.8616 16.3193 25.6627 16.5183 25.6342L16.774 25.6911C16.9446 25.8048 17.1719 26.089 17.1719 26.43V26.5721L17.1151 26.6006L17.2004 26.629C17.4846 26.7711 17.5698 26.9416 17.5698 27.0837V27.1406C17.5698 27.3395 17.4562 27.4816 17.3709 27.5953V27.6237V27.709L17.2572 27.9648H17.314C17.4846 27.9079 17.6835 27.7658 17.7972 27.3964C17.9961 26.7427 17.2572 26.2311 17.3425 26.1458H17.4846C17.854 26.3164 18.1951 26.7142 18.1383 27.2542L18.2804 27.0269V26.9985C18.3372 26.8279 18.3656 26.43 18.1383 26.1458ZM14.8983 25.1227V25.2932L15.1825 25.1227H14.8983ZM18.593 26.4016C18.6783 26.1742 18.7351 25.9469 18.7351 25.7195C18.7351 25.0658 18.1383 24.5827 17.3425 24.5827C16.973 24.5827 16.6035 24.7248 16.234 24.8669L15.7793 25.009H15.9214C16.433 25.009 16.9162 25.2079 17.1719 25.4637C17.7404 25.4637 18.1383 25.6342 18.394 25.9469L18.593 26.4016ZM13.193 25.1227H12.9088L13.193 25.2932V25.1227ZM14.0172 31.3753C15.9214 31.3753 16.8877 31.0058 16.8877 30.8353C16.8877 30.6648 15.9214 30.2953 14.0172 30.2953C12.113 30.2953 11.1467 30.6648 11.1467 30.8353C11.1467 30.9774 12.113 31.3753 14.0172 31.3753ZM19.0477 25.7195C19.0477 26.5721 18.3656 27.4816 18.0814 27.8795V27.9079C17.9393 28.1637 17.5983 28.3911 17.1719 28.249C16.9446 28.1637 16.7172 28.1353 16.5751 27.8795C16.5183 27.7374 16.4614 27.5669 16.6035 27.3679L16.8025 27.2827L16.8309 27.4532L16.9162 27.7374L17.1151 27.709V27.4532C17.2288 27.3679 17.513 27.0837 17.1151 26.8848C16.8025 26.7427 16.5467 27.169 16.5183 27.2258L16.4614 27.1974C16.5183 26.8848 16.774 26.7995 16.8309 26.4585C16.8877 26.2027 16.6888 26.0037 16.6035 25.9185L16.4614 25.89C16.3477 25.9469 16.1204 26.0606 16.0635 26.2879C16.0067 26.629 16.2056 26.7995 16.1488 27.1121H16.0919C16.0919 27.0553 16.0351 26.5721 15.6941 26.5721C15.2677 26.6006 15.4098 26.97 15.4951 27.0837L15.3814 27.3111L15.5519 27.4248L15.7509 27.1974L15.8362 27.0553L15.9783 27.1974C16.0351 27.4248 15.9214 27.5669 15.8077 27.6806C15.5804 27.8795 15.2393 27.8511 15.0688 27.8227C14.4435 27.7658 14.4151 27.3679 14.4151 27.3679L14.8414 27.5385H14.8698L14.9551 27.4532V26.8564L14.8698 26.7711H14.8414L14.4151 26.9416L14.5288 26.6006V26.5721L14.4435 26.4869H14.1025H13.733L13.6477 26.5721V26.6006L13.7614 26.9416L13.3351 26.7711H13.3067L13.2214 26.8564V27.4532L13.3067 27.5385H13.3351L13.7614 27.3679C13.7614 27.3679 13.733 27.7374 13.1077 27.8227C12.852 27.8795 12.5109 27.9079 12.2835 27.7374C12.1699 27.6521 12.0562 27.51 12.113 27.2542L12.2551 27.1121L12.3404 27.2542L12.5393 27.4816L12.7098 27.3679L12.5962 27.1406C12.653 27.0269 12.8235 26.629 12.3972 26.629C12.0562 26.6006 11.9993 27.0837 11.9993 27.169H11.9425C11.8856 26.8564 12.0846 26.6858 11.9993 26.3448C11.9425 26.1174 11.7151 25.9753 11.6014 25.9469L11.4593 25.9753C11.3741 26.0606 11.1751 26.2595 11.232 26.5153C11.2888 26.8564 11.5446 26.9416 11.6299 27.2542L11.573 27.2827C11.5446 27.2258 11.2888 26.7995 10.9762 26.9416C10.5783 27.1406 10.8625 27.4248 10.9762 27.51L10.9477 27.7658L11.1467 27.7942L11.232 27.51L11.2604 27.3395L11.4593 27.4248C11.6014 27.6237 11.5446 27.7942 11.4877 27.9363C11.3456 28.1921 11.1183 28.249 10.8909 28.3058C10.4646 28.4479 10.1235 28.2206 9.98144 27.9648V27.9363C9.69723 27.5385 9.01512 26.629 9.01512 25.7764C9.01512 24.9521 9.75407 24.3269 10.7204 24.3269C11.1467 24.3269 11.5446 24.469 11.9425 24.6111C12.3688 24.7532 12.7667 24.8953 13.193 24.8669V24.0143L13.3351 23.8721L13.4772 24.0143V26.2595H14.5572V24.0143L14.6993 23.8721L14.8414 24.0143V24.8669C15.2677 24.9237 15.6656 24.7816 16.0919 24.6111C16.4898 24.469 16.8877 24.3269 17.314 24.3269C18.3088 24.27 19.0477 24.8953 19.0477 25.7195ZM14.0172 29.9827C15.1256 29.9827 17.2004 30.1532 17.2004 30.8353C17.2004 31.489 15.1256 31.6879 14.0172 31.6879C12.9088 31.6879 10.8341 31.5174 10.8341 30.8353C10.8341 30.1532 12.9088 29.9827 14.0172 29.9827ZM14.6425 23.2469L14.5004 23.389H14.2162V23.7016L14.0741 23.8437L13.932 23.7016V23.389H13.6477L13.5056 23.2469L13.6477 23.1048H13.932V22.8206L14.0741 22.6785L14.2162 22.8206V23.1048H14.5004L14.6425 23.2469ZM14.0456 28.3911C12.8235 28.3911 11.6867 28.5616 10.8909 28.8742C10.5214 29.0163 10.2941 29.1584 10.1235 29.2721H9.98144L9.86775 29.0732C9.83933 28.8742 9.75407 28.4195 9.44144 27.8511L9.5267 27.7942C9.69723 28.0216 10.0951 28.6753 10.1235 28.8742V28.9027H10.152C10.3225 28.8174 10.5214 28.7037 10.7772 28.6185C11.6014 28.3058 12.7951 28.1353 14.0456 28.1353H14.0741C15.3246 28.1353 16.5183 28.3058 17.3425 28.6185C17.5983 28.7321 17.8256 28.8174 17.9677 28.9027H17.9961V28.8742C18.0246 28.6753 18.4225 28.0216 18.593 27.7942L18.6783 27.8511C18.3656 28.4195 18.2804 28.9027 18.2519 29.0732L18.1383 29.2721H17.9961C17.8256 29.1584 17.5983 29.0163 17.2288 28.8742C16.4046 28.5616 15.2677 28.3911 14.0456 28.3911ZM16.6604 31.5174L16.8877 31.4037C17.4562 31.1479 17.6835 30.8069 17.6835 30.5511C17.6835 30.0679 16.1204 29.5279 14.0172 29.5279C11.9141 29.5279 10.3509 30.0679 10.3509 30.5511C10.3509 30.8069 10.5783 31.1195 11.1751 31.4037L11.4025 31.5174L11.1183 31.489C10.4646 31.2616 10.0383 30.949 10.0383 30.5795C10.0383 29.7269 12.0846 29.2721 14.0172 29.2721C15.9498 29.2721 17.9961 29.7269 17.9961 30.5795C17.9961 30.9774 17.5698 31.29 16.9162 31.489L16.6604 31.5174ZM19.3604 27.1406L19.0761 27.4248L18.7919 27.1406L19.0761 26.8564L19.3604 27.1406ZM19.7014 26.2595L19.4172 26.5437L19.133 26.2595L19.4172 25.9753L19.7014 26.2595ZM19.7298 25.2932L19.4456 25.5774L19.1614 25.2932L19.4456 25.009L19.7298 25.2932ZM19.2467 24.469L18.9625 24.7532L18.6783 24.469L18.9625 24.1848L19.2467 24.469ZM18.4225 23.9574L18.1383 24.2416L17.854 23.9574L18.1383 23.6732L18.4225 23.9574ZM17.4846 23.8153L17.2004 24.0995L16.9162 23.8153L17.2004 23.5311L17.4846 23.8153ZM16.5467 24.0143L16.2625 24.2985L15.9783 24.0143L16.2625 23.73L16.5467 24.0143ZM15.6372 24.3269L15.353 24.6111L15.0688 24.3269L15.353 24.0427L15.6372 24.3269ZM8.9867 26.8848L9.27091 27.169L8.9867 27.4532L8.70249 27.169L8.9867 26.8848ZM8.64565 25.9753L8.92986 26.2595L8.64565 26.5437L8.36144 26.2595L8.64565 25.9753ZM8.64565 25.009L8.92986 25.2932L8.64565 25.5774L8.36144 25.2932L8.64565 25.009ZM9.10039 24.1848L9.38459 24.469L9.10039 24.7532L8.81618 24.469L9.10039 24.1848ZM9.92459 23.6732L10.2088 23.9574L9.92459 24.2416L9.64038 23.9574L9.92459 23.6732ZM10.8625 23.5595L11.1467 23.8437L10.8625 24.1279L10.5783 23.8437L10.8625 23.5595ZM11.8004 23.7585L12.0846 24.0427L11.8004 24.3269L11.5162 24.0427L11.8004 23.7585ZM12.7098 24.0427L12.9941 24.3269L12.7098 24.6111L12.4256 24.3269L12.7098 24.0427ZM14.0456 23.9858L14.3298 24.27L14.0456 24.5543L13.7614 24.27L14.0456 23.9858ZM14.0456 24.7532L14.3298 25.0374L14.0456 25.3216L13.7614 25.0374L14.0456 24.7532ZM14.0456 25.5206L14.3298 25.8048L14.0456 26.089L13.7614 25.8048L14.0456 25.5206ZM15.1256 28.8742L14.9835 29.0163L14.8414 28.8742L14.9835 28.7321L15.1256 28.8742ZM17.0014 29.1869L16.8593 29.329L16.7172 29.1869L16.8593 29.0448L17.0014 29.1869ZM17.9961 29.6984L17.6267 29.8121L17.513 29.4427L17.8825 29.329L17.9961 29.6984ZM16.2056 28.9595L15.9214 29.2153L15.6656 28.9595L15.9214 28.6753L16.2056 28.9595ZM13.0793 28.7321L13.2214 28.8742L13.0793 29.0163L12.9372 28.8742L13.0793 28.7321ZM11.2035 29.0448L11.3456 29.1869L11.2035 29.329L11.0614 29.1869L11.2035 29.0448ZM10.1804 29.329L10.5499 29.4427L10.4362 29.8121L10.0667 29.6984L10.1804 29.329ZM12.1414 28.7037L12.3972 28.9879L12.1414 29.2437L11.8572 28.9879L12.1414 28.7037ZM27.0624 32.1427V22.1953H14.0456H1.05725V32.1427H27.0624ZM27.0624 32.1427V32.2848V32.4269H1.05725V32.2848V32.1427H27.0624Z" fill="#3C5D87"/><path d="M22.2314 49.7358C20.8388 51.4695 19.3893 52.8905 18.082 53.9989L16.5757 55.221C15.2399 56.2158 14.3304 56.7558 14.302 56.7842L14.103 56.8979L13.9041 56.7842C13.8757 56.7558 12.8525 56.1874 11.4315 55.0789L10.2662 54.141C8.93042 53.0042 7.39569 51.5263 5.94622 49.7074L5.74727 49.4516L5.34938 48.94L5.12201 48.6274C4.6957 48.0305 4.26938 47.3769 3.87149 46.6947L3.70096 46.4105L3.55886 46.1832L3.38833 45.899C1.79676 42.9716 0.659921 39.4474 0.659921 35.4116V21.798H27.5462V35.3832C27.5462 39.4474 26.3809 42.9716 24.7609 45.9274L24.5904 46.2116L24.4767 46.4105L24.3062 46.6947C24.1641 46.9221 24.0504 47.1495 23.9083 47.3484L23.823 47.4621C23.5672 47.8316 23.3114 48.2011 23.0556 48.5705L22.7999 48.9116C22.6577 49.1105 22.5156 49.2811 22.3735 49.4516L22.2314 49.7358ZM19.1335 53.4874C20.1851 52.521 21.322 51.3558 22.402 50.02L23.1977 51.1568C22.6009 51.64 21.9188 52.0947 21.322 52.4358C20.7251 52.7768 20.0999 53.061 19.503 53.3453L19.1335 53.4874ZM16.5472 59.9105H11.5736C11.8009 59.6547 12.0283 59.2852 12.0283 58.6031V56.8126C12.0283 56.4431 11.9715 56.1021 11.8294 55.7895C12.9378 56.6137 13.6767 57.04 13.7336 57.0684L14.103 57.2673L14.4725 57.0684C14.5009 57.04 15.183 56.6421 16.2346 55.8747C16.1493 56.1589 16.0925 56.4716 16.0925 56.8126V58.6031C16.0925 59.2852 16.3199 59.6547 16.5472 59.9105ZM5.74727 49.9632C6.85569 51.3558 8.02095 52.5495 9.12937 53.5442L8.64621 53.3168C8.04937 53.0326 7.42411 52.7484 6.79885 52.4074C6.57148 52.2937 5.80412 51.8105 4.92307 51.1284C5.00833 51.0147 5.40622 50.4747 5.74727 49.9632ZM26.0114 47.4621L26.523 48.5421L26.8925 49.3379C27.0346 49.6221 27.2051 50.0768 27.2051 50.6737C27.2051 51.4979 26.8641 52.3505 26.2104 53.2032C25.0735 54.6242 22.7146 56.1305 19.8441 57.2673L18.9346 57.6368L20.043 58.5747L20.2135 58.7168L20.2704 58.7737C20.5262 59.0579 20.6399 59.3705 20.6399 59.8252V62.3547C20.6399 63.2073 19.6167 63.7189 17.9114 63.7189H10.2378C8.53253 63.7189 7.50937 63.2073 7.50937 62.3547V59.8252C7.50937 59.3421 7.62306 59.0579 7.87885 58.7737L7.93569 58.7168L8.10621 58.5747L8.30516 58.4042L9.18621 57.6368L8.27674 57.2673C5.43464 56.1305 3.04728 54.6242 1.91044 53.2032C1.25676 52.3221 0.915709 51.4695 0.915709 50.6453C0.915709 50.0768 1.08624 49.6221 1.22834 49.3379L1.59781 48.5421L2.10939 47.4621C2.47886 46.7232 2.87676 46.4105 3.24623 46.2684L3.38833 46.5526C3.16097 46.6663 2.96202 46.8653 2.79149 47.1211C2.62097 47.4053 2.5357 47.7463 2.5357 48.1158C2.5357 48.4568 2.62097 48.7979 2.76307 49.1958L2.99044 49.7358C2.99044 49.7358 3.84307 48.4853 4.12728 48.1158L4.18412 48.3147C4.26938 48.5705 4.46833 48.7695 4.78096 48.9116L4.95149 48.9684C5.15043 49.2526 5.34938 49.5084 5.57675 49.7926C5.15043 50.4179 4.52517 51.2989 4.52517 51.2989L4.75254 51.4979C5.63359 52.2084 6.42938 52.6632 6.65674 52.8053C7.28201 53.1747 7.90727 53.4589 8.53253 53.7147C9.10095 53.9705 9.64095 54.2263 10.1241 54.5105C10.4936 54.8231 10.8346 55.1074 11.1757 55.3631C11.5167 55.7895 11.7157 56.2726 11.7157 56.8979V58.6884C11.7157 59.2852 11.5167 59.5694 11.3178 59.7968L10.8346 60.3368H17.2293L16.7746 59.7968C16.5757 59.5694 16.3767 59.2852 16.3767 58.6884V56.8979C16.3767 56.3579 16.5188 55.9031 16.803 55.5337C17.2293 55.1926 17.7125 54.8231 18.2241 54.3684C18.6504 54.141 19.1051 53.9137 19.6167 53.6863C20.2135 53.4021 20.8388 53.1179 21.4641 52.7768C22.0609 52.4358 22.7714 51.9526 23.3683 51.4695L23.5956 51.2989C23.5956 51.2989 23.0272 50.4463 22.6009 49.8495C22.8283 49.5653 23.0556 49.2526 23.2546 48.9684L23.3114 48.94C23.6241 48.8263 23.823 48.599 23.9083 48.3432L23.9651 48.1442C24.2209 48.5137 25.102 49.7642 25.102 49.7642L25.3293 49.2242C25.4714 48.8547 25.5567 48.4853 25.5567 48.1442C25.5567 47.7747 25.4714 47.4337 25.3009 47.1495C25.1588 46.9221 24.9883 46.7516 24.7609 46.6379L24.8746 46.4105C25.3577 46.5242 25.7556 46.9221 26.0114 47.4621ZM27.8588 21.4854H0.34729V35.3832C0.34729 39.4474 1.48413 43 3.10412 45.9558C2.67781 46.1263 2.25149 46.4958 1.82518 47.2916L1.3136 48.3716L0.915709 49.1958C0.773605 49.5084 0.574658 50.02 0.574658 50.6453C0.574658 51.5547 0.94413 52.4642 1.65465 53.3453C2.81991 54.7947 5.2357 56.3579 8.13463 57.4947C8.13463 57.4947 8.362 57.58 8.56095 57.6652C8.362 57.8358 8.07779 58.0916 8.07779 58.0916L7.87885 58.2621L7.70832 58.4326L7.62306 58.5179C7.31043 58.8589 7.16832 59.2284 7.16832 59.7968V62.3263C7.16832 63.3779 8.30516 64.0031 10.2094 64.0031H17.883C19.7872 64.0031 20.9525 63.3779 20.9525 62.3263V59.7968C20.9525 59.2568 20.8104 58.8589 20.4978 58.5179L20.4409 58.461L20.242 58.2905C20.242 58.2905 19.7588 57.8926 19.5314 57.6937C19.7304 57.6084 19.9578 57.5231 19.9578 57.5231C22.8567 56.3863 25.2725 54.8231 26.4377 53.3737C27.1483 52.4926 27.5177 51.5832 27.5177 50.6737C27.5177 50.0484 27.3472 49.5368 27.1767 49.2242L26.8072 48.4284L26.2956 47.3484C25.983 46.7516 25.5567 46.3253 25.0451 46.0695C26.6651 43.0853 27.8304 39.5327 27.8304 35.4116V21.4854H27.8588Z" fill="#3C5D87"/><path d="M6.08796 9.29222L5.88901 9.46275L5.69006 9.20696L6.37217 8.95117L6.31532 9.20696L6.08796 9.29222Z" fill="#3C5D87"/><path d="M8.64612 5.0296L8.70296 4.94434L9.04401 5.42749L8.95875 5.76854H8.87349L8.81664 5.37065L8.64612 5.0296Z" fill="#3C5D87"/><path d="M13.5059 2.41439L13.5343 2.04492L13.8185 2.64176L13.6196 2.81229L13.5059 3.03966L13.3922 2.92597L13.5059 2.41439Z" fill="#3C5D87"/><path d="M9.61224 4.06348L10.2659 4.29084L10.2375 4.48979L9.86803 4.234L9.58382 4.12032L9.52698 4.06348" fill="#3C5D87"/><path d="M18.8201 3.69336L18.5074 4.11967L18.6211 4.09125L19.0759 3.69336H18.8201Z" fill="#3C5D87"/><path d="M54.2059 21.2577H53.7511C53.2111 21.2577 52.1311 21.2862 51.9606 21.2862H51.9038L51.9322 21.7125H51.989C52.5006 21.7125 52.6711 21.7125 52.8132 21.7977C52.9838 21.9114 53.0974 22.8209 53.0974 24.0146L52.9838 26.6009C52.9838 28.3914 54.149 29.3293 56.2806 29.3293C59.7195 29.3293 59.89 27.5104 59.9469 23.6735L59.9753 22.5367V22.4798C60.0037 21.9114 60.0037 21.6841 60.9132 21.6272H60.97L60.9985 21.1725H60.8279L59.4353 21.2009L58.3553 21.1725L57.8722 21.1441V21.2009V21.5988H57.929C58.3269 21.5988 58.7248 21.6272 58.8953 21.7977C59.1511 22.0535 59.2079 23.1051 59.2079 23.6451V24.4693C59.2079 27.1125 59.0374 28.704 56.5648 28.704C54.3195 28.704 54.3195 26.9135 54.3195 26.0609V24.583C54.3195 21.8262 54.4332 21.8262 55.6553 21.7125H55.7122V21.2577H55.6553C55.3995 21.2293 54.7174 21.2293 54.2059 21.2577ZM68.6721 21.1725H68.6153V21.2293L68.53 21.5988H68.6153C70.15 21.6841 69.8942 21.7125 69.9511 24.8956V27.0272L64.4374 21.2862V21.2577L63.5564 21.2862L62.9595 21.2577H62.9027L62.3627 21.2293V21.3146V21.7125H62.4195C63.5279 21.9114 63.6985 22.0251 63.67 24.2988L63.6416 25.6914C63.6416 26.203 63.5848 27.7661 63.5279 28.2209C63.4711 28.6756 63.3006 28.704 63.0164 28.7609L62.5048 28.8746V28.9314V29.3009L64.3521 29.2156L65.2332 29.244L65.8585 29.2725V29.2156V28.8177H65.8016C64.2953 28.5619 64.2953 28.3914 64.2953 27.084L64.3237 23.7872L64.3521 23.3041C64.6648 23.6167 70.1216 29.2725 70.0932 29.3009L70.1216 29.3293H70.6332V29.244C70.6048 28.5904 70.6048 26.9419 70.6048 26.2314C70.6048 25.1514 70.6616 22.6504 70.7184 22.3377C70.7753 21.7977 71.23 21.6841 71.6847 21.6841H71.7416V21.2577H71.6847C70.8321 21.2577 70.4058 21.3146 70.0079 21.2862L69.7521 21.2577L69.1553 21.2293L68.6721 21.1725ZM73.2479 21.3146V21.7125H73.3047C74.3279 21.7409 74.5268 21.9683 74.5837 22.1672C74.7258 22.5083 74.7542 24.7819 74.7542 25.6061V25.7483C74.7542 26.4304 74.7542 28.0219 74.5553 28.4198C74.4984 28.5335 74.2142 28.7609 73.1911 28.8461H73.1342V29.244L74.3847 29.2156H75.55L77.4542 29.2725V29.2156L77.4258 28.8461H77.3689C76.5163 28.8461 76.2605 28.8177 76.1468 28.5051C76.09 28.3346 76.0616 27.5672 76.0616 26.2598C76.0616 23.1619 76.09 22.3377 76.2605 22.0535C76.4595 21.7125 77.1984 21.7409 77.4258 21.7693H77.4826V21.2862H76.5447L75.2089 21.3146L74.3279 21.2862L73.9584 21.2577L73.2479 21.2293H73.1911V21.3146H73.2479ZM78.6195 21.3146L78.6479 21.6556H78.7047C79.7847 21.7693 79.8131 21.7977 80.6942 23.5598L82.4847 27.1977L82.5131 27.2261C82.8258 27.8514 83.2805 28.8177 83.4226 29.3577V29.4146H83.8205L83.8489 29.3577C84.1047 28.5619 84.3037 28.0219 84.9289 26.7714L86.8615 22.9914C87.3163 22.1104 87.4868 21.883 88.3679 21.7125H88.4247V21.2862H88.3679C87.8847 21.3146 87.4015 21.3146 86.89 21.2862L85.3837 21.2577V21.3146L85.3552 21.7409H85.4121C85.81 21.7409 86.35 21.7977 86.35 22.2241C86.35 22.4514 86.1794 22.8493 86.0658 23.1051L86.0373 23.1619C85.6394 24.043 85.3837 24.5262 85.1279 25.0662L84.2468 26.8851L84.0479 27.3398C83.1952 25.9472 81.6037 22.1956 81.6037 21.9683C81.6037 21.883 81.6321 21.8546 82.2858 21.7693L82.4847 21.7409V21.3146H81.2626H80.6089C80.1542 21.3146 79.2163 21.2862 78.7331 21.2577H78.6479L78.6195 21.3146ZM95.8426 21.2009C94.8763 21.2577 93.3415 21.2862 92.3184 21.2862C91.6931 21.2862 90.1584 21.2577 89.5615 21.2293H89.5047V21.6272H89.5615C90.2436 21.7409 90.2721 21.7693 90.3289 21.9114C90.4142 22.1104 90.4994 22.8209 90.4994 25.2367C90.4994 26.2598 90.4142 27.9082 90.3289 28.4482C90.2721 28.704 89.9594 28.7893 89.4194 28.8461H89.3626L89.4194 29.3009H89.4763C90.5563 29.1872 91.8352 29.1872 92.6026 29.1872L95.7857 29.2156L95.8141 29.1588C95.9847 28.903 96.2405 28.5051 96.411 27.2261V27.1409L96.0415 27.1125L96.0131 27.1693C95.7573 27.9082 95.2173 28.6472 93.2563 28.6472C92.5742 28.6472 92.29 28.5619 91.8921 28.4198C91.8636 28.1925 91.8352 27.8514 91.8068 26.8851C91.8068 26.8851 91.7784 25.6914 91.7784 25.4356C92.29 25.3788 92.7447 25.3788 92.9721 25.3788C94.5352 25.3788 94.6489 25.4925 94.8478 26.4588V26.5156H95.2173V26.4588C95.1889 25.4072 95.1889 25.1514 95.2457 24.0714V24.0146H94.8194V24.0714C94.6489 24.6683 94.5352 24.7819 94.3078 24.8104C93.171 24.9525 92.0626 24.8956 91.8068 24.8956L91.7784 23.844C91.7784 23.3325 91.8068 22.5367 91.9205 21.9967C92.3468 21.9114 93.1142 21.8546 93.4552 21.8546C94.3363 21.8546 94.8478 21.9683 95.0752 22.2241C95.2741 22.423 95.2741 22.7356 95.2457 23.0483V23.1051L95.7005 23.1619V23.0767L95.7857 22.4514L95.8426 22.1672C95.8994 21.7409 95.8994 21.542 95.8994 21.3714V21.3146H95.8426V21.2009ZM100.532 24.924L101.328 24.9525C102.038 24.9525 103.232 24.7535 103.232 23.4462C103.232 22.7641 102.72 21.7409 101.356 21.7409C100.589 21.7409 100.589 21.7693 100.56 23.1051L100.532 24.924ZM101.839 21.1725C103.516 21.1725 104.681 22.0535 104.681 23.3609C104.681 24.384 103.772 25.0946 102.919 25.3504C104.511 27.624 104.824 27.9651 105.449 28.5335C105.477 28.5619 105.96 29.0451 106.586 29.0735H106.643L106.614 29.4998H106.557C105.165 29.4998 104.483 28.9882 104.113 28.6756C102.891 27.7377 101.726 25.8904 101.498 25.5209L100.532 25.4925V26.544V26.9135C100.532 27.4535 100.56 28.2209 100.674 28.4482C100.759 28.6188 101.385 28.7893 101.726 28.903H101.754L101.783 29.3293H101.697C101.214 29.244 100.475 29.1872 99.9636 29.1872C99.6794 29.1872 98.4573 29.2725 98.2015 29.2725H98.1447L98.0594 28.903H98.1162C98.2868 28.8746 98.9405 28.7325 99.0826 28.4482C99.1962 28.1925 99.1962 26.7998 99.1962 26.203V26.0325V24.1567C99.1962 21.7693 99.111 21.7693 98.1447 21.7125H98.0878L98.1162 21.2577H98.2299L98.9405 21.2862L99.6794 21.3146C99.8499 21.3146 100.305 21.2862 100.759 21.2293L101.839 21.1725ZM107.438 23.4177C107.438 24.7819 108.604 25.2651 109.428 25.5777L109.485 25.6061C110.934 26.203 111.588 26.4588 111.588 27.4535C111.588 28.0504 111.161 28.6756 110.195 28.6756C109.343 28.6756 108.717 28.3061 108.348 28.0219C107.893 27.6525 107.779 27.084 107.723 26.8851V26.8283H107.239L107.268 26.9135C107.524 27.7946 107.637 28.1925 107.609 29.1872V29.244L108.007 29.2725L108.035 29.2156L108.206 29.0167L108.689 29.1303H108.746L108.859 29.1588C109.058 29.2156 109.343 29.3009 109.826 29.3009C111.758 29.3009 112.81 28.1356 112.81 26.9988C112.81 25.4356 111.275 24.8388 110.252 24.4125C109.286 24.043 108.547 23.7019 108.547 22.9062C108.547 22.1388 109.144 21.5988 110.025 21.5988C110.82 21.5988 111.389 22.0535 111.531 22.1956C111.844 22.5083 111.929 22.8493 112.014 23.1904V23.2472L112.071 23.2756H112.412L112.298 22.2241C112.298 21.8546 112.384 21.4567 112.412 21.2862L112.44 21.2293L112.071 21.1725L111.815 21.343C111.076 21.1441 110.735 21.0872 110.224 21.0872C108.604 21.1441 107.438 22.0819 107.438 23.4177ZM114.458 21.3146V21.7125H114.515C115.567 21.7409 115.737 21.9683 115.823 22.1672C115.965 22.5083 115.993 24.7819 115.993 25.6061V25.7483C115.993 26.4304 115.993 28.0219 115.794 28.4198C115.709 28.5335 115.453 28.7609 114.43 28.8461H114.373V29.244L115.624 29.2156H116.789L118.693 29.2725V29.2156L118.665 28.8461H118.608C117.755 28.8461 117.499 28.8177 117.386 28.5051C117.329 28.3346 117.3 27.5672 117.3 26.2598C117.3 23.1619 117.329 22.3377 117.499 22.0535C117.698 21.7125 118.437 21.7409 118.665 21.7693H118.75V21.2862H117.812L116.476 21.3146L115.595 21.2862L115.226 21.2577L114.544 21.2293H114.487V21.3146H114.458ZM127.759 21.0588H127.504L127.475 21.0872C127.447 21.1441 127.361 21.2293 126.935 21.2577L125.344 21.2862H123.127L121.393 21.2577C120.967 21.2293 120.91 21.1441 120.853 21.0872L120.825 21.0588H120.54L120.512 21.0872L119.915 22.6788L119.887 22.7356L120.256 22.963L120.285 22.8777C120.54 22.2241 120.796 21.9114 122.189 21.9114C122.644 21.9114 123.013 21.9398 123.269 21.9683C123.354 23.0483 123.354 24.0714 123.354 24.8672C123.354 25.6346 123.326 27.8514 123.269 28.3346C123.24 28.5051 123.184 28.6188 122.501 28.7325L122.018 28.7893L121.819 28.8177L121.905 29.2725L122.558 29.2156H122.729L124.008 29.1872H124.207H124.917L125.457 29.2156L126.026 29.244V29.1872L126.054 28.7893L125.713 28.7609L125.685 28.7325C125.344 28.704 125.116 28.6188 125.002 28.5051C124.917 28.3914 124.775 27.8798 124.775 25.5777L124.804 23.9293L124.86 22.0535C124.86 21.883 124.86 21.883 125.599 21.883H125.628H126.054H126.139C127.418 21.883 127.532 22.1388 127.731 22.7356L127.788 22.9062L128.157 22.6788L128.072 22.2525C127.958 21.6272 127.845 21.1156 127.816 21.0304V21.002H127.759V21.0588ZM134.779 21.2862V21.6841H134.865C135.262 21.7125 135.802 21.7409 135.802 22.0535C135.802 22.1388 135.632 22.6219 134.126 24.7819C133.472 24.0146 132.051 22.1672 132.051 21.9398C132.051 21.8546 132.051 21.7409 132.96 21.7409H133.017V21.2862L132.25 21.3146L130.8 21.343L129.209 21.3146V21.343V21.7125H129.266C129.664 21.7125 129.891 21.7693 130.09 21.9114C130.573 22.2525 132.278 24.4409 132.335 24.5262L133.074 25.4925C133.131 26.0609 133.159 26.6861 133.159 27.4535C133.159 28.6472 133.159 28.903 132.051 28.9314H131.994L131.966 29.3293H132.022C132.193 29.3293 132.705 29.3009 133.188 29.2725L134.04 29.2156L134.694 29.244H134.836L135.717 29.3009V29.244V28.903H135.66C134.58 28.8177 134.58 28.6756 134.552 28.4482V28.363C134.524 27.8798 134.524 27.3398 134.524 26.743C134.524 26.2883 134.524 25.8335 134.552 25.3219L136.115 22.9346C136.627 22.1672 136.882 21.7693 137.962 21.7409H138.019V21.2862H137.962C137.82 21.2862 137.394 21.2862 137.025 21.3146L136.513 21.343L135.916 21.3146L135.49 21.2862L134.893 21.2577H134.779V21.2862ZM150.07 28.7325C151.519 28.7325 152.429 27.3114 152.429 25.9756C152.429 23.9009 151.235 21.7693 149.274 21.7693C147.711 21.7693 146.858 23.1904 146.858 24.583C146.887 26.6009 148.08 28.7325 150.07 28.7325ZM149.672 21.1156C152.287 21.1156 153.85 23.1904 153.85 25.2083C153.85 27.4535 151.889 29.3577 149.558 29.3577C147.285 29.3577 145.494 27.5388 145.494 25.2083C145.466 23.0198 147.427 21.1156 149.672 21.1156ZM161.722 21.1725C160.586 21.2862 160.301 21.2862 159.022 21.2862L157.687 21.2577L156.294 21.2293L155.839 21.2577L155.47 21.2862V21.343V21.6272H155.527C155.868 21.6556 156.209 21.6841 156.351 21.883C156.55 22.1956 156.578 22.5083 156.578 25.3219C156.578 26.6293 156.464 28.1356 156.408 28.363C156.322 28.6756 155.896 28.7893 155.583 28.8461H155.527L155.498 29.2725H155.583C156.379 29.2156 157.232 29.1872 157.459 29.1872L158.141 29.2156L159.42 29.2725V29.2156V28.8177H159.335C158.426 28.7325 158.113 28.5619 158.028 28.4482C157.942 28.3346 157.886 27.8514 157.886 27.3398V26.9135C157.886 26.9135 157.914 25.7198 157.914 25.464L158.568 25.4356C159.278 25.4356 160.188 25.6061 160.415 25.6914C160.557 25.7198 160.642 25.9756 160.699 26.3451V26.4019H161.097V26.3451C161.154 25.5209 161.154 24.7251 161.126 24.0998V24.043H160.699V24.0998C160.586 24.6683 160.557 24.924 159.022 24.924C158.568 24.924 158.397 24.8956 157.971 24.8672H157.942L157.914 24.4125V23.844C157.914 23.844 157.942 22.1956 157.942 21.9398C158.397 21.883 158.767 21.8546 158.88 21.8546C159.733 21.8546 160.5 22.0251 160.813 22.2525C161.069 22.4514 161.154 22.7641 161.211 23.0198V23.0767L161.666 23.0483V22.9914C161.666 22.8493 161.694 22.423 161.694 22.0535L161.722 21.2009V21.1725ZM46.8164 36.8609H43.008C41.3596 36.8609 40.1091 36.8609 39.0859 36.804C38.148 36.7472 37.9206 36.5482 37.807 36.3493H37.2954L35.9596 39.9587L36.528 40.3282C37.0964 38.7651 37.7785 38.0261 40.9333 38.0261C41.1891 38.0261 42.2122 38.0261 43.4627 38.1682C43.6333 40.4419 43.6901 42.6587 43.6901 44.9324C43.6901 46.3535 43.6617 51.6966 43.4627 52.8334C43.3775 53.3734 43.1217 53.6292 41.6438 53.885C41.0185 53.9703 40.6206 54.0271 40.2512 54.0555L40.3933 54.7661C40.8764 54.7376 41.4448 54.7092 42.1554 54.6524C42.8659 54.624 43.7469 54.5671 45.0259 54.5671C45.509 54.5671 46.3048 54.5387 47.0722 54.5671C47.8111 54.624 48.4932 54.624 49.4311 54.6524L49.5164 53.9134C49.3459 53.9134 49.0617 53.8566 48.6638 53.7997C48.1806 53.7429 47.3848 53.5724 47.0722 53.2598C46.5038 52.6061 46.5038 47.8029 46.5038 46.4956C46.5038 45.3871 46.6743 39.7882 46.6743 38.4808C46.6743 37.9408 46.8448 37.9408 48.4648 37.9408H48.5217C49.2322 37.9124 49.4311 37.9408 49.6869 37.9408C52.8417 37.9408 52.9269 38.7082 53.5238 40.2429L54.0922 39.8735L53.3248 36.264H52.8416C52.6995 36.4345 52.5006 36.6619 51.5627 36.7187C50.3406 36.7756 48.9196 36.7756 47.4701 36.7756H46.8164V36.8609ZM65.7163 53.8282C69.0416 53.8282 71.1448 50.5313 71.1448 47.3766C71.1448 42.3461 68.2458 37.6282 63.9542 37.6282C60.5153 37.6282 58.4406 40.6693 58.4406 44.165C58.4406 48.7977 61.1121 53.8282 65.7163 53.8282ZM64.7785 36.463C70.4626 36.463 73.9868 41.0103 73.9868 45.6145C73.9868 50.7303 69.5248 54.965 64.5227 54.965C59.3216 54.965 55.5701 50.7303 55.5701 45.6145C55.5985 40.7261 59.89 36.463 64.7785 36.463ZM82.3142 45.1029C82.8542 45.1882 83.7068 45.1882 84.2184 45.1882C84.8721 45.1882 88.6236 45.1882 88.6236 41.6356C88.6236 39.9872 87.43 37.5714 84.2752 37.5714C82.3995 37.5714 82.3995 37.7987 82.371 40.8114L82.3142 45.1029ZM77.17 36.7472C77.7384 36.804 78.2784 36.8324 78.8468 36.8324C79.3868 36.8893 79.9553 36.8893 80.4952 36.8893C80.8931 36.8893 81.9163 36.804 82.9395 36.7187C83.9626 36.6335 84.73 36.6335 85.3268 36.6335C89.1068 36.6335 91.5226 38.6798 91.5226 41.4366C91.5226 43.9377 89.2489 45.444 87.4584 45.8987C91.1531 51.2419 91.8068 52.0376 93.2563 53.3734C93.4268 53.544 94.5352 54.5671 95.9278 54.6524L95.871 55.3345C92.8015 55.3345 91.2952 54.1408 90.4994 53.5155C87.7994 51.384 85.1279 47.1492 84.6447 46.2682C83.8773 46.2682 83.5647 46.2682 82.2858 46.1829V48.7692C82.2858 49.9345 82.2573 52.5208 82.5984 53.2029C82.8258 53.6008 84.1616 53.9987 85.0426 54.2829L85.0994 54.965C84.0195 54.7945 82.3426 54.6524 81.1774 54.6524C80.5521 54.6524 77.7953 54.8229 77.2268 54.8797L77.0847 54.3397C77.3405 54.2829 78.9321 53.9419 79.3584 53.1745C79.671 52.4924 79.6142 48.7692 79.6142 47.5756V43.3124C79.6142 37.7987 79.3584 37.7135 77.1132 37.5714L77.17 36.7472ZM106.33 53.8282C109.684 53.8282 111.758 50.5313 111.758 47.3766C111.758 42.3461 108.859 37.6282 104.539 37.6282C101.129 37.6282 99.0257 40.6693 99.0257 44.165C99.0541 48.7977 101.697 53.8282 106.33 53.8282ZM105.392 36.463C111.076 36.463 114.6 41.0103 114.6 45.6145C114.6 50.7303 110.167 54.965 105.108 54.965C99.9068 54.965 96.1836 50.7303 96.1836 45.6145C96.1836 40.7261 100.504 36.463 105.392 36.463ZM121.507 36.8324C120.796 36.8893 120.256 36.8893 119.347 36.8893C118.92 36.8893 118.466 36.8893 118.011 36.8324C117.556 36.7756 117.499 36.804 117.073 36.7472V37.5145C119.659 37.9977 119.887 38.3956 119.801 43.5682V46.7229C119.801 47.9166 119.716 51.4977 119.574 52.4924C119.432 53.6576 118.949 53.7429 118.295 53.885C117.926 53.9703 117.528 54.0555 117.272 54.1124V54.7661C117.926 54.7661 118.608 54.7376 119.261 54.6808C119.944 54.624 120.825 54.5955 121.507 54.5955C122.189 54.5955 122.899 54.6524 123.525 54.6808C124.093 54.6808 124.491 54.7376 124.775 54.7661V53.9987C121.251 53.3734 121.251 52.8903 121.308 49.9061V42.3745L121.365 40.9535C121.365 40.9535 121.365 40.9819 134.438 54.8229H135.348C135.262 53.345 135.262 49.565 135.262 47.945C135.262 45.5861 135.262 39.504 135.348 38.7366C135.49 37.5714 137.053 37.4861 137.877 37.4861V36.804C135.973 36.804 134.921 36.8609 134.069 36.7756C133.273 36.6903 132.676 36.6335 132.193 36.6335C131.795 36.6335 131.34 36.5766 131.085 36.6335L130.942 37.2872C133.927 37.4577 133.841 37.7419 133.841 44.4493C133.841 45.245 133.813 49.1671 133.813 49.9345L121.507 36.8324ZM150.809 36.8609H147C145.352 36.8609 144.101 36.8609 143.078 36.804C142.14 36.7472 141.913 36.5482 141.799 36.3493H141.316L139.98 39.9587L140.577 40.3282C141.146 38.7651 141.828 38.0261 144.982 38.0261C145.238 38.0261 146.261 38.0261 147.512 38.1682C147.682 40.4419 147.739 42.6587 147.739 44.9324C147.739 46.3535 147.682 51.6966 147.512 52.8334C147.427 53.3734 147.142 53.6292 145.693 53.885C145.068 53.9703 144.67 54.0271 144.3 54.0555L144.442 54.7661C144.926 54.7376 145.494 54.7092 146.205 54.6524C146.915 54.624 147.796 54.5671 149.075 54.5671C149.558 54.5671 150.354 54.5387 151.121 54.5671C151.86 54.624 152.542 54.624 153.48 54.6524L153.566 53.9134C153.395 53.9134 153.139 53.8566 152.713 53.7997C152.23 53.7429 151.434 53.5724 151.121 53.2598C150.553 52.6061 150.553 47.8029 150.553 46.4956C150.553 45.3871 150.723 39.7882 150.723 38.4808C150.723 37.9408 150.894 37.9408 152.514 37.9408H152.571C153.281 37.9124 153.48 37.9408 153.736 37.9408C156.891 37.9408 156.976 38.7082 157.573 40.2429L158.141 39.8735L157.374 36.264H156.891C156.749 36.4345 156.521 36.6619 155.583 36.7187C154.361 36.7756 152.94 36.7756 151.491 36.7756H150.809V36.8609ZM169.311 53.8282C172.636 53.8282 174.739 50.5313 174.739 47.3766C174.739 42.3461 171.84 37.6282 167.52 37.6282C164.081 37.6282 162.007 40.6693 162.007 44.165C162.007 48.7977 164.678 53.8282 169.311 53.8282ZM168.373 36.463C174.057 36.463 177.581 41.0103 177.581 45.6145C177.581 50.7303 173.119 54.965 168.089 54.965C162.888 54.965 159.136 50.7303 159.136 45.6145C159.164 40.7261 163.484 36.463 168.373 36.463Z" fill="#3C5D87"/></svg>