<svg width="106" height="36" viewBox="0 0 106 36" fill="none" xmlns="http://www.w3.org/2000/svg"><path d="M45.2969 7.60156H49.429L59.0238 20.1233V7.60156H63.3907V28.0042H59.5559L49.6951 14.9346V28.0042H45.2969V7.60156Z" fill="#3C5D87"/><path d="M73.5643 20.0059L65.7383 7.60156H70.9348L75.8652 15.8659L80.7956 7.60156H85.8512L78.0252 19.8729V28.0042H73.4078V20.0059H73.5643Z" fill="#3C5D87"/><path d="M87.8008 19.329V7.58984H92.3477V19.1959C92.3477 22.5298 93.9129 24.2672 96.7381 24.2672C99.5633 24.2672 101.136 22.6629 101.136 19.329V7.58984H105.652V19.1959C105.652 25.3316 102.185 28.3994 96.7225 28.3994C91.1268 28.3994 87.8008 25.3316 87.8008 19.329Z" fill="#3C5D87"/><path d="M35.9998 36H0V0H35.9998V36ZM16.7869 31.7348C16.7869 32.0009 17.319 32.1339 17.4521 31.7348L18.6495 21.733H15.5895L16.7869 31.7348ZM19.7216 21.0678V19.5652H14.5251V21.0365L19.7216 21.0678ZM18.2503 18.7826C24.7773 19.0487 25.2938 13.0539 25.2938 10.7843C25.1608 11.3165 24.2216 12.9209 21.8269 13.9852C20.8494 14.382 19.9994 15.0389 19.3689 15.8846C18.7384 16.7303 18.3515 17.7326 18.2503 18.7826ZM17.5851 18.3835C18.6495 13.453 22.6486 13.32 23.0634 12.3809C23.5955 10.9174 22.5312 8.2487 22.2808 7.98261H22.1477C21.647 9.11603 20.9107 10.1298 19.9877 10.9565C19.2051 11.6217 15.7225 14.2904 17.5851 18.4226V18.3835ZM16.8025 18.6496C14.5408 13.9539 19.0643 10.9174 19.7373 10.2522C19.8703 10.1191 19.8703 10.1191 19.8703 9.98609C19.7681 8.51537 19.3995 7.07546 18.7825 5.73652H18.6495C18.2503 7.2 16.2547 9.33652 15.8556 9.8687C12.3886 13.8678 13.1869 16.4035 16.7869 18.6652L16.8025 18.6496ZM15.8556 18.7826C12.1226 16.5209 12.5217 13.453 14.126 11.1835V10.9565C13.9775 10.142 13.6573 9.36832 13.1869 8.68696C13.1869 8.55391 13.0539 8.55391 13.0539 8.68696C13.0539 9.36 12.2712 10.9565 11.1913 12.6939C10.1269 14.5565 10.1269 18.6887 15.8869 18.8217L15.8556 18.7826Z" fill="#3C5D87"/></svg>