<svg width="281" height="65" viewBox="0 0 281 65" fill="none" xmlns="http://www.w3.org/2000/svg"><path d="M13.025 7.07403C12.9666 7.13373 12.9225 7.44577 12.9225 7.75781V8.32289H12.2618H11.6011V8.99175C11.6011 9.70538 11.6303 9.72032 12.5257 9.66062C12.9076 9.64638 12.9225 9.66062 12.9225 10.3302C12.9225 10.8946 12.8486 11.0879 12.5555 11.326C11.6601 12.0247 11.4688 13.3034 12.1004 14.2694L12.4674 14.8345L12.1587 15.1614C11.7775 15.5779 11.4688 15.5332 8.70932 14.656C7.56432 14.2843 6.1844 13.9126 5.64131 13.8088C2.41178 13.2437 0.371346 14.656 0.415371 17.4359C0.430092 18.8632 0.752989 19.8299 1.98611 22.2231C2.99896 24.1856 3.38068 25.1815 3.6008 26.49L3.68892 27.0551H13.4951H23.3007L23.5354 25.8652C23.6826 25.0777 23.9906 24.2304 24.46 23.3085C26.3981 19.5321 26.5745 19.0416 26.5745 17.4658C26.5745 15.1166 25.1506 13.6901 22.8306 13.6901C21.7005 13.6751 20.5554 13.9275 17.8691 14.7748C15.4474 15.5481 15.1387 15.5779 14.7717 15.1763C14.5221 14.8941 14.5221 14.8643 14.8891 14.3142C15.5356 13.3624 15.3443 12.0247 14.478 11.3409C14.1409 11.073 14.0377 10.7311 14.0818 10.0032C14.0968 9.73523 14.1992 9.67555 14.7276 9.63146C15.3443 9.58668 15.3443 9.58667 15.3443 8.99175C15.3443 8.39751 15.3443 8.39752 14.7276 8.35274C14.111 8.30797 14.111 8.30798 14.0676 7.68389C14.0235 7.10389 13.9937 7.05912 13.5826 7.01435C13.3336 6.98518 13.084 7.01434 13.025 7.07403ZM7.49091 15.563C9.38455 16.1281 10.9845 16.8268 11.0726 17.1239C11.1018 17.2277 11.19 17.5845 11.2782 17.9122C11.3514 18.2391 11.6011 19.0118 11.8216 19.6216C12.291 21.0041 12.4524 22.7583 12.1885 23.725C11.924 24.6611 11.0726 25.5681 10.4562 25.5681C9.94236 25.5681 9.20838 25.003 8.88542 24.364C8.5478 23.725 8.60654 23.6355 9.3992 23.6355C10.1919 23.6355 10.2653 23.5466 9.98639 22.833C9.86897 22.5203 9.75154 22.4612 9.14971 22.4165C8.45975 22.3717 8.45975 22.3717 8.25421 21.658C8.06338 20.9743 8.04873 20.9593 7.46154 20.9593C6.88901 20.9593 6.87436 20.9743 6.94775 21.3609C6.99178 21.599 7.0799 21.8962 7.12392 22.0298C7.21197 22.2679 7.12393 22.2978 6.40459 22.2978C5.61193 22.2978 5.58256 22.3127 5.58256 22.6987C5.58256 23.3384 5.75873 23.4869 6.62479 23.5907C7.06518 23.6355 7.46154 23.7542 7.52022 23.8437C7.57897 23.9326 7.63771 24.2894 7.63771 24.6462C7.63771 25.1665 7.57897 25.3008 7.28538 25.4345C7.0799 25.5383 6.75694 25.5681 6.53674 25.5084C5.55319 25.2561 3.93849 23.145 2.61732 20.3949C1.97139 19.0715 1.85397 18.6997 1.80994 17.7928C1.72189 16.143 2.2797 15.31 3.6742 15.0278C4.59901 14.8494 5.55318 14.9681 7.49091 15.563ZM24.1371 15.3548C25.7666 16.2766 25.62 18.3429 23.6528 21.8215C22.6549 23.5758 21.539 24.9881 20.8342 25.3449C20.3356 25.6129 19.7923 25.6278 19.5575 25.3897C19.3662 25.1964 19.3228 24.111 19.4985 23.8437C19.5575 23.7542 19.9686 23.6355 20.4089 23.5758C21.2752 23.4571 21.4366 23.3234 21.4366 22.6987C21.4366 22.3127 21.4067 22.2978 20.6144 22.2978C19.8954 22.2978 19.8072 22.2679 19.8954 22.0298C19.9388 21.8962 20.027 21.5841 20.0711 21.3609C20.1593 20.9444 20.1443 20.9444 19.5135 20.9892C18.8968 21.034 18.8819 21.0489 18.7205 21.7028C18.559 22.3568 18.5448 22.3717 17.9132 22.4165C17.1941 22.4612 16.8855 22.7285 16.8855 23.2936C16.8855 23.5907 16.9594 23.6355 17.517 23.6355C17.8691 23.6355 18.192 23.6802 18.251 23.725C18.4125 23.9034 18.0163 24.6761 17.532 25.1224C16.8712 25.7018 16.313 25.7018 15.6529 25.1224C14.4346 24.0371 14.3606 21.4356 15.4915 18.7296C15.697 18.2391 15.8585 17.6442 15.8585 17.4061C15.8585 17.0351 15.9609 16.9306 16.6365 16.6036C17.6195 16.1281 20.4821 15.1913 21.4807 15.0278C22.4935 14.8494 23.433 14.9681 24.1371 15.3548ZM40.6667 14.656C37.7891 15.2808 35.5871 17.362 34.7799 20.2165C34.516 21.1974 34.5452 23.5317 34.8532 24.6021C35.6312 27.3074 37.7158 29.2998 40.5927 30.1172C41.7819 30.4441 45.1438 30.5635 46.5385 30.3254C47.9326 30.0873 48.2114 29.8201 48.4318 28.4525C48.6666 26.9357 48.6815 26.5639 48.52 26.5199C48.4319 26.49 48.2555 26.7871 48.1089 27.1887C47.7711 28.1547 46.9055 28.9131 45.8778 29.1512C45.4518 29.2401 44.4981 29.2998 43.72 29.255C42.5016 29.2102 42.193 29.1363 41.3125 28.6899C39.4334 27.7687 38.0387 25.9398 37.5985 23.8139C37.3638 22.6987 37.3929 20.5727 37.6575 19.547C38.0977 17.8525 39.0223 16.6036 40.358 15.9198C42.2961 14.9091 45.9511 15.3398 47.316 16.7223C47.6829 17.109 47.8593 17.5255 48.0798 18.6401C48.2555 19.5172 48.4318 18.7594 48.4759 16.8716L48.52 14.9383L46.9788 14.6859C45.0998 14.3738 42.0024 14.3589 40.6667 14.656ZM152.451 14.8643C152.495 14.9382 152.803 15.0129 153.126 15.0129C153.552 15.0129 153.815 15.1167 154.065 15.3846L154.432 15.7414V20.0971C154.432 25.2262 154.535 26.1481 155.254 27.6195C155.827 28.8093 156.751 29.6566 157.97 30.1172C158.953 30.4889 161.655 30.5785 162.711 30.2658C164.576 29.7163 165.912 28.4376 166.484 26.6386C166.777 25.7167 166.822 25.2411 166.895 20.6174L166.983 15.5779L167.336 15.2951C167.526 15.1465 167.893 15.0129 168.172 15.0129C168.451 15.0129 168.671 14.9382 168.671 14.8643C168.671 14.7748 167.673 14.7157 165.956 14.7157C164.238 14.7157 163.24 14.7748 163.24 14.8643C163.24 14.9382 163.504 15.0129 163.827 15.0129C164.268 15.0129 164.517 15.1167 164.796 15.3846L165.163 15.7563L165.119 21.0787C165.075 26.2519 165.061 26.4005 164.737 27.129C164.062 28.616 163.064 29.2848 161.391 29.4035C160.495 29.4632 160.216 29.4185 159.541 29.1064C158.542 28.6309 157.896 27.9471 157.485 26.9065C157.177 26.1332 157.148 25.8361 157.104 21.1228C157.075 18.3877 157.089 16.0087 157.133 15.816C157.266 15.295 157.633 15.0129 158.19 15.0129C158.469 15.0129 158.689 14.9382 158.689 14.8643C158.689 14.7748 157.529 14.7157 155.519 14.7157C153.449 14.7157 152.392 14.7605 152.451 14.8643ZM95.9345 16.9455C95.8762 17.035 95.421 19.8299 94.9218 23.1599C94.4225 26.49 93.9239 29.3594 93.8208 29.5379C93.7034 29.7753 93.5128 29.8798 93.2191 29.8798C92.9844 29.8798 92.749 29.9388 92.7049 30.0283C92.6465 30.1172 93.3364 30.1769 94.687 30.1769C96.0377 30.1769 96.7275 30.1172 96.6685 30.0283C96.6244 29.9388 96.3897 29.8798 96.155 29.8798C95.5092 29.8798 95.2297 29.4931 95.3179 28.7795C95.3769 28.4376 95.5967 26.7132 95.8172 24.9291C96.0377 23.1599 96.2574 21.7028 96.3165 21.7028C96.3605 21.7028 96.6834 22.3276 97.0355 23.0704C98.2538 25.7167 100.294 29.8051 100.5 30.0283C100.632 30.162 100.75 30.1918 100.838 30.1022C100.911 30.0134 101.645 28.5115 102.467 26.7573C104.831 21.7476 104.992 21.3908 105.05 21.4355C105.065 21.4647 105.344 23.2787 105.638 25.4793C106.049 28.5115 106.151 29.5379 106.02 29.7305C105.887 29.9537 105.917 30.0134 106.181 30.0873C106.754 30.2366 110.276 30.1918 110.174 30.0283C110.13 29.9388 109.895 29.8798 109.66 29.8798C108.985 29.8798 108.486 29.6267 108.324 29.1811C108.236 28.943 107.781 26.1332 107.311 22.9069C106.841 19.6813 106.387 16.9903 106.313 16.9156C106.093 16.6931 105.932 16.9903 103.495 22.2231C102.262 24.8396 101.234 27.0103 101.205 27.0402C101.176 27.07 100.926 26.6087 100.646 25.9996C99.4281 23.3085 96.3307 16.9754 96.1842 16.8858C96.096 16.8417 95.9786 16.8566 95.9345 16.9455ZM138.241 17.1985C138.124 17.436 137.023 20.1867 135.789 23.3384C133.397 29.4185 133.147 29.8798 132.281 29.8798C132.046 29.8798 131.797 29.9388 131.753 30.0283C131.693 30.1172 132.413 30.1769 133.793 30.1769C135.026 30.1769 135.936 30.1172 135.936 30.0432C135.936 29.9537 135.716 29.8798 135.467 29.8499C135.026 29.8051 134.982 29.7604 134.952 29.2848C134.923 28.9728 135.129 28.1845 135.467 27.2776L136.039 25.7913L138.08 25.7465L140.12 25.7017L140.824 27.6052C141.544 29.5819 141.617 29.8798 141.368 29.8798C141.294 29.8798 141.221 29.9388 141.221 30.0283C141.221 30.1172 142.057 30.1769 143.437 30.1769C144.861 30.1769 145.61 30.1172 145.551 30.0283C145.507 29.9388 145.243 29.8798 144.964 29.8798C144.567 29.8798 144.377 29.7604 143.966 29.2848C143.687 28.9429 143.32 28.3331 143.158 27.9023C142.424 26.0294 139.033 17.5703 138.872 17.1985C138.769 16.9754 138.622 16.7969 138.564 16.7969C138.491 16.7969 138.343 16.9754 138.241 17.1985ZM138.945 22.4612C139.356 23.6206 139.709 24.6171 139.723 24.691C139.753 24.7656 139.048 24.8246 138.153 24.8246C137.184 24.8246 136.523 24.7656 136.523 24.6761C136.523 24.4237 138.021 20.3651 138.124 20.3651C138.168 20.3651 138.549 21.3162 138.945 22.4612ZM56.3442 17.1836C52.9531 18.001 50.8102 21.2721 51.3678 24.7358C51.7938 27.3671 53.3642 29.2848 55.7866 30.1172C56.931 30.5188 59.4999 30.4889 60.645 30.0731C63.3171 29.0766 64.9024 26.9208 65.1371 23.9326C65.3426 21.2124 64.1392 18.8931 61.9515 17.7629C60.4395 16.9903 58.091 16.7522 56.3442 17.1836ZM59.3093 18.001C60.6308 18.4026 61.9664 19.9337 62.48 21.6282C62.891 22.9368 62.847 25.6278 62.4216 26.817C61.7609 28.6458 60.7481 29.4483 59.0156 29.5521C57.5625 29.6267 56.5057 29.2401 55.5071 28.2592C54.1864 26.9506 53.643 25.4196 53.6722 22.9666C53.6871 20.8854 54.0392 19.874 55.0377 18.8632C56.1387 17.7778 57.5917 17.4956 59.3093 18.001ZM171.696 17.1239C171.652 17.2277 171.592 19.9934 171.548 23.2488C171.446 29.8947 171.446 29.8798 170.506 29.8798C170.228 29.8798 169.992 29.9388 169.992 30.0283C169.992 30.1172 170.858 30.1769 172.282 30.1769C173.765 30.1769 174.528 30.1321 174.47 30.0283C174.426 29.9388 174.161 29.8798 173.898 29.8798C173.618 29.8798 173.325 29.7902 173.237 29.6715C172.943 29.3147 172.797 27.7538 172.723 24.1259L172.664 20.6772L177.464 25.598C180.121 28.3182 182.338 30.474 182.426 30.4299C182.529 30.3702 182.617 28.2741 182.69 24.3193C182.764 20.2905 182.852 18.1944 182.969 17.9562C183.072 17.7337 183.292 17.5994 183.571 17.5703C183.821 17.5404 184.07 17.4509 184.158 17.3769C184.232 17.3023 183.395 17.2426 181.971 17.2426C180.708 17.2426 179.695 17.3023 179.74 17.362C179.769 17.421 180.062 17.4957 180.371 17.5106C181.325 17.5845 181.355 17.6591 181.472 20.9295C181.545 22.5352 181.575 24.5424 181.56 25.3897L181.516 26.9208L176.745 21.926C174.132 19.1902 171.93 16.9455 171.857 16.9455C171.798 16.9455 171.725 17.035 171.696 17.1239ZM238.179 17.1388C236.755 17.6293 236.035 18.2832 235.742 19.3686C235.258 21.1825 236.035 22.5352 238.986 25.003C240.146 25.9697 240.645 26.8468 240.557 27.7538C240.425 28.9877 239.647 29.6267 238.311 29.6118C236.975 29.5969 236.094 28.928 235.83 27.7239C235.639 26.8767 235.595 26.7573 235.448 26.8319C235.375 26.8916 235.316 27.5903 235.316 28.4077V29.8947L235.859 30.1321C236.167 30.2515 236.916 30.4 237.518 30.4299C239.251 30.5486 240.733 30.0134 241.657 28.9131C242.068 28.4376 242.406 27.0992 242.318 26.2967C242.142 24.8396 241.408 23.8586 239.059 21.9708C237.591 20.7959 237.093 19.9337 237.357 19.0267C237.929 17.0642 241.173 17.4061 241.57 19.4581C241.731 20.2606 241.922 19.9486 241.922 18.8931C241.922 18.328 241.966 17.7629 242.01 17.6293C242.142 17.2874 241.482 17.0791 240.014 17.0052C239.206 16.9604 238.56 17.0201 238.179 17.1388ZM254.033 17.1388C253.885 17.5553 253.666 18.6848 253.666 19.0566C253.666 19.5769 253.9 19.6067 254.018 19.1013C254.194 18.4175 254.693 18.2391 256.704 18.1645L258.554 18.0906L258.481 23.5758C258.392 29.582 258.348 29.8798 257.614 29.8798C257.394 29.8798 257.159 29.9388 257.115 30.0283C257.057 30.1321 257.952 30.1769 259.669 30.1769C261.343 30.1769 262.326 30.1172 262.326 30.0283C262.326 29.9388 262.077 29.8798 261.769 29.8798C261.46 29.8798 261.079 29.7902 260.917 29.6715C260.653 29.4632 260.638 29.196 260.594 23.784L260.55 18.0906L262.136 18.1645C264 18.2391 264.587 18.4766 264.734 19.1753C264.895 19.9934 265.116 19.488 265.116 18.3131V17.1687H260.095C257.321 17.1687 254.84 17.1239 254.575 17.0642C254.238 16.9903 254.077 17.0052 254.033 17.1388ZM212.959 17.1985C210.523 17.2277 209.201 17.3023 209.26 17.3919C209.304 17.4807 209.568 17.5404 209.847 17.5404C210.919 17.5404 211.007 18.0458 210.919 24.4678C210.846 29.5379 210.802 29.8798 210.082 29.8798C209.847 29.8798 209.597 29.9388 209.553 30.0283C209.495 30.1172 210.185 30.1769 211.506 30.1769C212.622 30.1769 214.324 30.2217 215.294 30.2658C217.496 30.3851 217.525 30.3702 217.642 28.7645C217.745 27.5754 217.627 27.397 217.334 28.2741C217.26 28.5264 217.025 28.8534 216.82 29.0026C216.042 29.567 213.767 29.4632 213.267 28.8391C213.033 28.5563 213.004 28.1845 213.004 26.0437V23.5907L214.486 23.6802C216.086 23.7691 216.526 23.9624 216.526 24.617C216.526 24.8097 216.585 24.9881 216.658 25.0478C216.732 25.0926 216.835 24.6761 216.893 24.1259C217.055 22.2828 217.04 22.1783 216.688 22.506C216.468 22.7136 216.086 22.7733 214.75 22.7882L213.077 22.8181L213.033 20.4689L212.989 18.1055L214.633 18.1645C216.13 18.2093 216.277 18.2391 216.541 18.5661C216.688 18.7594 216.82 19.0715 216.82 19.2648C216.82 19.9337 217.07 19.6216 217.172 18.8334C217.334 17.4658 217.29 17.0941 217.011 17.1239C216.864 17.1538 215.044 17.1836 212.959 17.1985ZM67.6769 17.3919C67.6769 17.4658 67.8967 17.5404 68.1755 17.5404C69.1448 17.5404 69.1448 17.5404 69.1448 23.6355C69.1448 29.582 69.115 29.7604 68.3376 29.8499C68.088 29.8798 67.8383 29.9537 67.7793 30.0134C67.6179 30.1769 75.4278 30.3254 75.8239 30.1769C76.176 30.0432 76.2493 29.835 76.4107 28.4226C76.4697 28.0061 76.4548 27.6493 76.3816 27.6493C76.3232 27.6642 76.1319 27.9471 75.9705 28.289C75.5594 29.1811 75.2222 29.2998 73.4314 29.255C71.1853 29.196 71.3468 29.6566 71.3468 23.3085C71.3468 20.0083 71.4051 18.0159 71.4933 17.8226C71.5964 17.6293 71.8013 17.5404 72.154 17.5404C72.4179 17.5404 72.6974 17.4658 72.7408 17.3919C72.7998 17.2874 71.9336 17.2426 70.2601 17.2426C68.6306 17.2426 67.6769 17.3023 67.6769 17.3919ZM78.1724 17.3919C78.2165 17.4658 78.4811 17.5404 78.7599 17.5404C79.6696 17.5404 79.6695 17.5404 79.7577 22.1783C79.831 26.817 79.9192 27.3224 80.7854 28.6309C81.1524 29.196 81.4903 29.4782 82.2534 29.8798C83.2079 30.3702 83.3395 30.3851 84.7491 30.4001C85.5713 30.4001 86.525 30.3105 86.8629 30.2067C87.7583 29.9388 88.8301 29.1213 89.2995 28.3629C90.0335 27.1589 90.1509 26.4303 90.239 22.0298C90.3272 17.6741 90.3564 17.5404 91.0904 17.5404C91.281 17.5404 91.4865 17.4658 91.5306 17.3919C91.5897 17.2874 90.8116 17.2426 89.2995 17.2426C87.7434 17.2426 87.0535 17.3023 87.2007 17.3919C87.318 17.4658 87.5968 17.5404 87.8166 17.5404C88.4041 17.5404 88.6388 17.8823 88.7561 18.9677C88.8884 20.3353 88.727 26.5639 88.5364 27.2186C88.0812 28.7198 86.9951 29.508 85.3508 29.508C84.4554 29.508 84.2206 29.4483 83.604 29.0616C82.7527 28.5264 82.2683 27.6941 82.0628 26.3855C81.9889 25.8951 81.9156 23.8885 81.9156 21.926C81.9156 17.9712 81.9746 17.6442 82.7228 17.5703C82.9725 17.5404 83.2221 17.4509 83.3103 17.3769C83.3836 17.3023 82.3999 17.2426 80.7563 17.2426C79.0095 17.2426 78.1141 17.2874 78.1724 17.3919ZM111.935 17.3919C111.979 17.4658 112.244 17.5404 112.507 17.5404C112.772 17.5404 113.11 17.6293 113.271 17.7487C113.535 17.9562 113.55 18.1944 113.55 23.5907C113.55 29.7454 113.535 29.8798 112.743 29.8798C112.507 29.8798 112.273 29.9388 112.229 30.0283C112.141 30.1769 115.722 30.2956 117.587 30.2067C119.261 30.1321 120.64 29.3296 121.242 28.0509C121.653 27.1738 121.653 25.8801 121.242 25.003C120.919 24.3342 119.862 23.3831 119.069 23.0555C118.82 22.9368 118.614 22.818 118.614 22.7584C118.614 22.6987 118.849 22.4314 119.143 22.1492C120.875 20.4987 120.464 18.1347 118.335 17.4061C117.689 17.1985 111.803 17.1687 111.935 17.3919ZM117.426 18.2391C118.379 18.9528 118.746 20.707 118.174 21.8365C117.851 22.4911 117.322 22.7434 116.325 22.7434H115.679V20.2756V17.7928L116.354 17.8823C116.736 17.9122 117.205 18.0757 117.426 18.2391ZM117.763 23.799C118.79 24.3342 119.495 25.7614 119.495 27.3522C119.495 28.5264 119.055 29.1363 117.968 29.4483C117.264 29.6417 116.031 29.3886 115.825 28.9877C115.737 28.8392 115.679 27.5157 115.679 26.0437V23.3831L116.456 23.4571C116.867 23.4869 117.47 23.6504 117.763 23.799ZM124.398 17.3471C124.457 17.4061 124.677 17.4807 124.897 17.4957C125.118 17.5255 125.411 17.689 125.558 17.8674C125.807 18.1645 125.822 18.581 125.778 23.784C125.734 29.8648 125.734 29.8798 124.912 29.8798C124.691 29.8798 124.457 29.9388 124.413 30.0283C124.354 30.1321 125.264 30.1769 127.055 30.1769C128.846 30.1769 129.756 30.1321 129.697 30.0283C129.654 29.9388 129.345 29.8798 129.037 29.8798C128.728 29.8798 128.376 29.7753 128.259 29.6566C127.921 29.3147 127.833 27.7239 127.892 22.6546C127.936 17.6293 127.95 17.5404 128.758 17.5404C128.978 17.5404 129.213 17.4658 129.257 17.3919C129.316 17.2874 128.465 17.2426 126.82 17.2426C125.425 17.2426 124.339 17.2874 124.398 17.3471ZM187.256 17.3769C187.329 17.4509 187.579 17.5404 187.828 17.5703C188.636 17.6591 188.65 17.8077 188.606 23.8736C188.562 29.8648 188.562 29.8798 187.74 29.8798C187.52 29.8798 187.285 29.9388 187.241 30.0283C187.182 30.1321 188.092 30.1769 189.883 30.1769C191.674 30.1769 192.584 30.1321 192.525 30.0283C192.481 29.9388 192.188 29.8798 191.879 29.8798C191.586 29.8798 191.204 29.7902 191.043 29.6715C190.778 29.4632 190.764 29.2102 190.72 23.9034C190.69 17.7778 190.69 17.7039 191.542 17.5255C192.569 17.3172 192.115 17.2426 189.663 17.2426C188.092 17.2426 187.168 17.3023 187.256 17.3769ZM194.36 17.421C195.74 17.8077 195.579 17.5404 198.118 23.784C199.131 26.2817 200.159 28.8093 200.408 29.3886C200.643 29.9836 200.937 30.474 201.025 30.474C201.128 30.474 201.421 30.0283 201.671 29.4632C202.463 27.6792 205.546 20.6174 205.972 19.5619C206.515 18.269 207.043 17.5404 207.469 17.5404C207.645 17.5404 207.895 17.4658 208.012 17.3919C208.159 17.2874 207.543 17.2426 206.133 17.2426C204.768 17.2426 204.063 17.3023 204.122 17.3919C204.167 17.4658 204.401 17.5404 204.636 17.5404C205.414 17.5404 205.414 17.4957 203.638 22.0746C201.568 27.3671 201.612 27.2776 201.494 26.9655C200.423 24.1558 198.397 18.6997 198.309 18.3877C198.147 17.8077 198.28 17.5404 198.764 17.5404C198.999 17.5404 199.234 17.4658 199.278 17.3919C199.337 17.2874 198.412 17.2426 196.606 17.2575C194.551 17.2725 193.979 17.3172 194.36 17.421ZM221.003 17.3919C221.047 17.4658 221.312 17.5404 221.591 17.5404C222.574 17.5404 222.545 17.4061 222.545 23.5615C222.545 29.6267 222.515 29.8798 221.796 29.8798C221.576 29.8798 221.341 29.9388 221.297 30.0283C221.239 30.1321 222.104 30.1769 223.793 30.1769C225.481 30.1769 226.347 30.1321 226.288 30.0283C226.244 29.9388 225.98 29.8798 225.716 29.8798C224.747 29.8798 224.673 29.7163 224.629 27.1439L224.571 24.8246H225.51H226.464L227.801 26.7424C229.18 28.6899 230.178 29.7753 230.854 30.0283C231.352 30.2217 234.332 30.2217 234.215 30.0283C234.171 29.9388 233.936 29.8798 233.716 29.8798C233.246 29.8798 232.204 29.2251 231.544 28.5264C231.279 28.2442 230.384 27.1589 229.547 26.1033L228.035 24.2005L228.783 23.4272C230.178 22.0149 230.604 20.3054 229.914 18.9229C229.18 17.4807 228.373 17.2426 224.131 17.2426C222.017 17.2426 220.945 17.2874 221.003 17.3919ZM226.802 18.2832C227.845 18.8185 228.358 19.9635 228.226 21.4946C228.079 23.4272 227.184 24.2602 225.51 23.9923L224.673 23.8587L224.629 21.1079C224.615 19.6067 224.629 18.2832 224.659 18.1794C224.776 17.8674 226.141 17.9413 226.802 18.2832ZM245.812 17.3919C245.856 17.4658 246.091 17.5404 246.326 17.5404C247.206 17.5404 247.221 17.6591 247.177 23.7399C247.133 29.7163 247.104 29.8798 246.326 29.8798C246.091 29.8798 245.856 29.9388 245.812 30.0283C245.753 30.1321 246.664 30.1769 248.454 30.1769C250.245 30.1769 251.155 30.1321 251.097 30.0283C251.053 29.9388 250.759 29.8798 250.451 29.8798C250.157 29.8798 249.775 29.7902 249.614 29.6715C249.35 29.4632 249.335 29.2102 249.291 23.9034C249.262 19.6664 249.306 18.269 249.438 18.001C249.555 17.7778 249.863 17.5703 250.216 17.4509C250.73 17.3023 250.509 17.2725 248.263 17.2575C246.605 17.2426 245.753 17.2874 245.812 17.3919ZM267.699 17.5994C268.55 18.001 268.903 18.4474 270.679 21.3908C272.587 24.5574 272.499 24.3193 272.573 26.6087C272.646 29.0766 272.47 29.7753 271.795 29.8499C271.56 29.8798 271.295 29.9686 271.222 30.0432C271.134 30.1172 272.147 30.1769 273.835 30.1769C275.626 30.1769 276.551 30.1321 276.492 30.0283C276.448 29.9388 276.14 29.8798 275.832 29.8798C275.523 29.8798 275.171 29.7753 275.054 29.6566C274.76 29.3595 274.613 27.8725 274.687 25.9846C274.731 24.4977 274.76 24.4088 275.406 23.1898C276.301 21.4946 277.857 18.9826 278.43 18.2832C278.768 17.8972 279.105 17.6741 279.575 17.5554C279.942 17.4658 280.236 17.362 280.236 17.3172C280.236 17.2725 279.325 17.2426 278.224 17.2426C276.228 17.2426 276.199 17.2576 276.551 17.5255C276.83 17.7487 276.889 17.8823 276.815 18.2391C276.727 18.6997 274.216 23.472 274.055 23.4869C273.894 23.4869 270.988 18.1645 270.988 17.8525C270.988 17.6741 271.075 17.5404 271.193 17.5404C271.31 17.5404 271.457 17.4658 271.501 17.3919C271.56 17.2874 270.782 17.2426 269.27 17.2575H266.951L267.699 17.5994ZM3.38068 29.3595V30.1769H13.5093H23.6385V29.3595V28.5413H13.5093H3.38068V29.3595ZM42.3843 40.2268C42.3253 40.2864 42.2663 41.6839 42.2663 43.3187C42.252 44.9691 42.2079 46.8123 42.1489 47.4221C42.0756 48.3738 42.0173 48.5373 41.7677 48.5814C41.6062 48.6113 41.4149 48.7008 41.3267 48.7747C41.2535 48.8494 41.8118 48.9091 42.7214 48.8941C44.1453 48.8941 44.2186 48.8792 43.7491 48.7008C43.0884 48.4627 43.0593 48.2843 43.0301 45.1476L43.0152 42.6648L46.0393 45.7866C47.7128 47.4967 49.1509 48.909 49.254 48.909C49.3863 48.909 49.4596 47.9125 49.5328 44.9542C49.5918 42.7686 49.6794 40.8956 49.7234 40.7918C49.7675 40.6724 49.9147 40.5836 50.0613 40.5836C50.2227 40.5836 50.3699 40.5239 50.4283 40.435C50.4724 40.3604 49.9588 40.3007 49.0777 40.3156C47.7128 40.3156 47.6687 40.3305 48.1089 40.5239C48.4027 40.6426 48.6082 40.8658 48.6523 41.0591C48.7256 41.4607 48.902 46.6786 48.8429 46.6786C48.7839 46.6786 44.8209 42.6051 43.4412 41.1337C42.927 40.5687 42.4426 40.1671 42.3843 40.2268ZM56.1678 40.2715C56.1387 40.3156 56.0654 40.6874 55.9921 41.1039L55.889 41.8474L56.2411 41.4458C56.5498 41.1039 56.7404 41.0442 57.8122 40.9553L59.0156 40.8658V44.5526C59.0156 46.5748 58.9572 48.3141 58.8982 48.4179C58.8399 48.5224 58.6194 48.656 58.4288 48.7449C58.1642 48.8494 58.5462 48.8941 59.8968 48.8792C61.438 48.8792 61.6436 48.8494 61.2175 48.7157C60.9387 48.6262 60.6599 48.4776 60.6009 48.403C60.5426 48.3141 60.4836 46.5748 60.4836 44.5377V40.8508L61.4821 40.9404C62.8029 41.089 62.9501 41.1337 63.1997 41.5943C63.4052 41.981 63.4052 41.981 63.4195 41.1636V40.3305L60.7481 40.3902C59.2652 40.4201 57.6507 40.3902 57.1365 40.3156C56.6379 40.2417 56.197 40.2268 56.1678 40.2715ZM91.3549 40.2864C89.4169 40.6873 88.1104 42.1743 87.9638 44.166C87.7875 46.7085 89.2554 48.4776 91.9126 48.9233C92.8812 49.0875 94.7013 48.983 95.1422 48.7449C95.2887 48.671 95.4353 48.344 95.4943 47.9872C95.5384 47.6304 95.6266 47.2288 95.6557 47.0802C95.6998 46.9466 95.6707 46.8272 95.5825 46.8272C95.4943 46.8272 95.421 46.9316 95.421 47.0504C95.421 47.5408 94.628 48.1656 93.8357 48.3141C91.1935 48.8046 89.035 46.4113 89.5342 43.527C89.8721 41.5943 90.8407 40.7321 92.6465 40.7321C94.0853 40.7471 95.2738 41.4159 95.2738 42.2483C95.2738 42.3826 95.3478 42.5461 95.421 42.5902C95.5092 42.6499 95.5675 42.2781 95.5675 41.5794V40.4648L94.4666 40.3007C93.2191 40.1223 92.2646 40.108 91.3549 40.2864ZM102.848 40.4201C102.805 40.5537 102.731 40.9255 102.673 41.2524L102.57 41.8474L102.937 41.4607C103.23 41.1337 103.465 41.0591 104.434 40.9851C105.065 40.9254 105.638 40.9255 105.711 40.9702C105.858 41.0591 105.887 45.638 105.74 47.3332C105.653 48.4328 105.638 48.4925 105.198 48.671C104.786 48.8494 104.919 48.8792 106.562 48.8792C108.207 48.8941 108.794 48.7747 107.781 48.6411C107.561 48.6113 107.34 48.5075 107.282 48.4179C107.223 48.3141 107.165 46.5748 107.165 44.5377V40.8508L108.163 40.9404C109.484 41.089 109.631 41.1337 109.88 41.5943C110.086 41.981 110.086 41.981 110.1 41.1636V40.3305L107.429 40.3902C105.946 40.4201 104.331 40.3902 103.832 40.3156C103.04 40.2118 102.907 40.2268 102.848 40.4201ZM127.349 40.2417C126.248 40.494 125.881 40.6575 125.22 41.1927C124.163 42.0407 123.694 43.0813 123.694 44.5974C123.694 46.4704 124.574 47.9275 126.159 48.6262C127.29 49.1465 129.095 49.1017 130.24 48.5522C131.136 48.1208 131.782 47.4818 132.296 46.4853C132.575 45.965 132.633 45.6231 132.633 44.4489C132.633 43.1702 132.589 42.9619 132.208 42.2632C131.973 41.8324 131.518 41.2972 131.165 41.0442C130.196 40.3455 128.465 39.9737 127.349 40.2417ZM129.654 41.2674C130.064 41.5645 130.431 42.0108 130.725 42.5759C131.107 43.3485 131.151 43.5867 131.165 44.8057C131.165 45.965 131.107 46.277 130.784 46.9907C130.461 47.6894 130.285 47.8827 129.697 48.1656C128.244 48.8792 126.63 48.2694 125.748 46.6786C125.367 45.9799 125.294 45.6977 125.25 44.5085C125.176 42.9768 125.337 42.308 125.925 41.5943C126.468 40.9404 127.055 40.7172 128.112 40.7769C128.846 40.8068 129.154 40.9105 129.654 41.2674ZM147.049 40.2268C146.99 40.2864 146.946 41.8175 146.946 43.6165C146.946 45.4298 146.902 47.2586 146.843 47.7043C146.769 48.403 146.711 48.5224 146.3 48.7008C145.889 48.8792 145.977 48.8941 147.386 48.8941C148.648 48.8792 148.84 48.8494 148.458 48.7307C148.208 48.6411 147.944 48.4627 147.885 48.3291C147.827 48.1954 147.753 46.857 147.709 45.3409L147.651 42.5902L150.689 45.7567C152.362 47.4818 153.815 48.909 153.904 48.909C154.095 48.909 154.286 45.4447 154.286 42.2042C154.286 41.2226 154.345 40.8508 154.52 40.6724C154.638 40.5388 154.799 40.4648 154.873 40.5089C154.946 40.5537 155.034 40.5239 155.093 40.435C155.152 40.3455 154.682 40.2864 153.742 40.2864C152.377 40.3007 152.333 40.3156 152.773 40.5089C153.067 40.6283 153.273 40.8508 153.317 41.0591C153.361 41.2524 153.419 42.6051 153.463 44.0771L153.552 46.7532L150.352 43.4381C148.59 41.6242 147.107 40.182 147.049 40.2268ZM192.613 40.2864C190.617 40.7172 189.311 42.4117 189.311 44.5974C189.311 46.5002 190.177 47.8976 191.85 48.656C192.892 49.1465 194.742 49.1017 195.858 48.5522C198.735 47.1691 199.234 42.7984 196.724 40.9994C196.431 40.7918 195.975 40.5537 195.697 40.4499C194.992 40.2118 193.377 40.1223 192.613 40.2864ZM194.948 41.074C196.636 41.981 197.34 44.7907 196.401 46.9764C195.975 47.9722 195.3 48.3887 194.052 48.3887C192.717 48.3887 191.997 47.8976 191.307 46.5151C190.852 45.6231 190.808 45.4148 190.808 44.2854C190.808 42.5311 191.19 41.654 192.232 41.0143C192.878 40.6134 194.14 40.6433 194.948 41.074ZM36.2628 40.4791C36.4683 40.5687 36.6739 40.7172 36.7322 40.8068C36.8645 40.9852 36.8794 47.7938 36.7621 48.2544C36.718 48.4179 36.4975 48.6262 36.292 48.7157C35.9691 48.8494 36.2628 48.8792 37.6575 48.8941C38.846 48.8941 39.3452 48.8643 39.1987 48.7598C39.0814 48.6859 38.8609 48.6113 38.7144 48.6113C38.2592 48.6113 38.171 47.9275 38.171 44.5085C38.171 41.1778 38.2443 40.5836 38.6845 40.5836C38.7876 40.5836 38.9342 40.509 38.9783 40.435C39.0373 40.3455 38.5088 40.2865 37.4811 40.3007C36.1597 40.3007 35.9541 40.3306 36.2628 40.4791ZM65.093 40.3902C65.152 40.4499 65.2985 40.5089 65.4159 40.5239C66.0766 40.6283 66.0617 40.5239 66.0617 44.4787C66.0617 46.545 66.0034 48.3141 65.9443 48.3887C65.886 48.4776 65.6805 48.6262 65.4749 48.7157C65.1663 48.8643 65.4159 48.8941 66.8696 48.8941C68.0581 48.9091 68.5574 48.8643 68.4109 48.7598C68.2935 48.6859 68.088 48.6113 67.9557 48.6113C67.5887 48.6113 67.5297 48.2992 67.5297 46.292V44.4339L69.7024 44.4787L71.8603 44.5228V46.4263C71.8603 48.1357 71.8311 48.3589 71.5815 48.5373C71.435 48.656 71.2437 48.7157 71.1853 48.671C71.1114 48.6262 71.053 48.671 71.053 48.7449C71.053 48.8494 71.6548 48.909 72.7557 48.909C73.8418 48.909 74.4143 48.8494 74.356 48.7598C74.3119 48.671 74.1063 48.6113 73.9008 48.6113C73.6512 48.6113 73.5046 48.4926 73.4015 48.2246C73.2401 47.8237 73.196 41.4756 73.3432 40.9105C73.4015 40.7321 73.5487 40.5836 73.7102 40.5836C73.8567 40.5836 74.0182 40.509 74.0622 40.435C74.1213 40.3455 73.563 40.2865 72.4918 40.3007C70.9357 40.3156 70.8624 40.3156 71.3027 40.5239C71.8895 40.7769 71.9634 41.0442 71.9044 42.6648L71.8603 43.9286L69.6875 43.9733L67.5154 44.0174L67.5595 42.3378C67.6036 40.7172 67.6178 40.6575 67.9407 40.6134C68.1171 40.5836 68.2636 40.509 68.2636 40.435C68.2636 40.3604 67.5297 40.3007 66.6342 40.3007C65.7245 40.3007 65.0347 40.3455 65.093 40.3902ZM76.7045 40.4499C76.8659 40.509 77.1155 40.5985 77.2621 40.6426C77.4974 40.7172 77.5117 41.0293 77.5117 44.4339C77.5117 46.4704 77.4676 48.2395 77.4242 48.3738C77.3801 48.5075 77.2187 48.6113 77.0714 48.6113C76.91 48.6113 76.7485 48.6859 76.7045 48.7598C76.6461 48.8643 77.4676 48.9091 79.2151 48.8792L81.8274 48.8344L81.9454 48.2395C82.1069 47.4669 82.0187 47.0653 81.7982 47.6005C81.5785 48.1357 81.1965 48.3141 80.3011 48.3141C79.0095 48.3141 78.9797 48.2694 78.9797 46.3069V44.5974H79.9049C80.932 44.5974 81.0934 44.672 81.2698 45.1923C81.3729 45.5044 81.4021 45.4148 81.4903 44.672C81.5927 43.839 81.5194 43.3933 81.3729 43.8098C81.3288 43.9435 80.932 44.0025 80.1397 44.0025H78.9797V42.4416V40.8807H79.7577C80.8587 40.8807 81.1816 41.0143 81.4163 41.5346C81.6076 41.9959 81.6076 41.9959 81.6219 41.6092C81.6219 41.3861 81.666 41.0293 81.7101 40.7918L81.7833 40.3604L79.097 40.3455C77.6148 40.3305 76.543 40.3753 76.7045 40.4499ZM98.1806 40.5836L98.6507 40.8807V44.4041C98.6507 46.3516 98.6066 48.076 98.5625 48.2544C98.5184 48.4179 98.2979 48.6262 98.0924 48.7157C97.7844 48.8344 98.0632 48.8792 99.4281 48.8792C100.368 48.8941 101.146 48.8643 101.146 48.8344C101.146 48.8046 100.94 48.7157 100.676 48.6411C100.353 48.5665 100.162 48.403 100.104 48.1507C100.045 47.9573 100.001 46.277 99.9864 44.4339C99.9715 40.9404 99.9864 40.8067 100.632 40.4648C100.867 40.3305 100.559 40.3007 99.3107 40.2864H97.6962L98.1806 40.5836ZM110.614 40.435C110.658 40.509 110.791 40.5836 110.893 40.5836C111.275 40.5836 112.567 42.3826 113.623 44.4041C114.034 45.1774 114.064 45.3409 114.064 46.8421C114.064 48.3589 114.049 48.4627 113.741 48.6262C113.55 48.7306 113.389 48.7897 113.359 48.7747C113.33 48.7449 113.271 48.7747 113.227 48.8195C113.183 48.8643 113.917 48.8941 114.857 48.8941C115.928 48.8941 116.544 48.8494 116.486 48.7598C116.442 48.671 116.236 48.6113 116.046 48.6113C115.561 48.6113 115.488 48.2544 115.561 46.3516L115.605 44.8206L116.559 43.1851C117.645 41.327 118.233 40.5836 118.614 40.5836C118.776 40.5836 118.938 40.509 118.981 40.435C119.04 40.3455 118.614 40.2864 117.822 40.2864C117.073 40.2864 116.559 40.3455 116.559 40.435C116.559 40.509 116.633 40.5836 116.706 40.5836C117.029 40.5836 116.809 41.2972 116.046 42.7543C115.591 43.6016 115.18 44.3152 115.121 44.3593C114.988 44.4339 113.036 41.0591 113.036 40.762C113.036 40.6724 113.11 40.5836 113.183 40.5836C113.271 40.5836 113.33 40.509 113.33 40.435C113.33 40.3455 112.757 40.2864 111.921 40.2864C111.025 40.2864 110.555 40.3455 110.614 40.435ZM134.85 40.4499C135.011 40.509 135.246 40.5985 135.393 40.6426C135.628 40.7172 135.643 41.0293 135.643 44.4787C135.643 46.545 135.584 48.3141 135.525 48.4179C135.467 48.5224 135.246 48.656 135.055 48.7449C134.777 48.8494 135.158 48.8941 136.523 48.8941C137.757 48.9091 138.285 48.8643 138.138 48.7598C138.021 48.6859 137.771 48.6113 137.609 48.6113C137.169 48.6113 137.111 48.3738 137.111 46.3666V44.5974H138.006C139.033 44.5974 139.459 44.7758 139.474 45.2364C139.503 45.7126 139.709 44.8355 139.738 44.1517C139.753 43.7651 139.709 43.6905 139.577 43.8241C139.474 43.9286 138.945 44.0025 138.255 44.0025H137.111V42.4416V40.8807H138.035C139.107 40.8807 139.621 41.1039 139.767 41.6242C139.855 41.9362 139.87 41.9362 139.885 41.6988C139.9 41.5346 139.944 41.1636 139.988 40.8658L140.061 40.3455H137.316C135.804 40.3455 134.703 40.3902 134.85 40.4499ZM157.295 40.4052C157.339 40.4499 157.515 40.5089 157.706 40.5388C157.882 40.5686 158.088 40.6575 158.175 40.7471C158.263 40.8359 158.322 42.2781 158.322 44.6123C158.322 48.1059 158.308 48.3589 158.044 48.5373C157.896 48.656 157.706 48.7157 157.647 48.671C157.574 48.6262 157.515 48.671 157.515 48.7449C157.515 48.8494 158.352 48.909 160.01 48.909H162.506L162.653 48.5224C162.741 48.3141 162.8 47.9275 162.8 47.6751V47.1989L162.506 47.6751C162.344 47.9424 162.051 48.1954 161.845 48.2544C161.273 48.403 159.996 48.2395 159.849 48.0021C159.775 47.8827 159.717 47.0802 159.717 46.1882V44.5974H160.744C161.772 44.5974 161.787 44.6123 161.977 45.058L162.168 45.5193L162.271 44.8206C162.418 43.7203 162.403 43.6755 162.081 43.8539C161.919 43.9285 161.332 44.0025 160.759 44.0025H159.717V42.4416V40.8807H160.568C161.566 40.8807 162.095 41.1188 162.212 41.6242L162.3 41.9959L162.403 41.6242C162.462 41.4159 162.506 41.0442 162.506 40.7918V40.3305H159.864C158.396 40.3156 157.251 40.3604 157.295 40.4052ZM164.444 40.6283C164.737 40.8807 165.031 41.5794 165.736 43.78C167.277 48.5224 167.511 49.1166 167.717 48.8792C167.82 48.7747 168.349 47.5408 168.877 46.1583C169.42 44.7609 169.934 43.4381 170.036 43.2149C170.213 42.8133 170.242 42.8581 171.079 44.9244C172.4 48.1506 172.811 49.0576 172.928 48.983C173.002 48.9382 173.501 47.5557 174.029 45.891C175.556 41.2375 175.791 40.6724 176.261 40.4791C176.613 40.3455 176.452 40.3156 175.351 40.3007C174.103 40.3007 174.044 40.3156 174.44 40.5239C174.661 40.6426 174.837 40.7918 174.837 40.8508C174.837 40.9553 174.367 42.62 173.618 45.1625C173.413 45.8463 173.222 46.4412 173.178 46.4704C173.149 46.5151 172.561 45.1923 171.901 43.5568C171.225 41.9213 170.624 40.5388 170.565 40.494C170.389 40.3902 170.272 40.6575 169.185 43.6314C168.642 45.1028 168.157 46.3964 168.099 46.5002C168.04 46.6047 167.659 45.5492 167.233 44.1219C166.279 40.8807 166.22 40.5836 166.514 40.5836C166.646 40.5836 166.792 40.509 166.837 40.435C166.895 40.3455 166.41 40.2864 165.486 40.2864H164.047L164.444 40.6283ZM180.341 40.435C180.4 40.5239 180.518 40.5836 180.621 40.5836C180.944 40.5836 181.678 41.5055 182.675 43.1552C183.821 45.0288 184.011 45.7425 183.865 47.3332C183.762 48.4328 183.747 48.4776 183.307 48.6859C182.881 48.8643 182.984 48.8792 184.672 48.8792C186.213 48.8792 186.419 48.8494 185.993 48.7157C185.715 48.6262 185.435 48.4776 185.377 48.403C185.318 48.3141 185.259 47.5557 185.259 46.7085C185.259 45.0288 185.289 44.9393 186.551 42.8133C187.549 41.1188 187.754 40.8658 188.283 40.6426C188.562 40.5239 188.782 40.4052 188.782 40.3604C188.782 40.3305 188.21 40.3007 187.52 40.3007C186.316 40.3007 186.272 40.3156 186.507 40.5836C186.712 40.8068 186.712 40.9105 186.551 41.2823C186.199 42.0848 184.922 44.4489 184.833 44.4489C184.745 44.4489 182.998 41.3121 182.823 40.8359C182.779 40.6874 182.808 40.5836 182.896 40.5836C182.984 40.5836 183.057 40.5239 183.057 40.435C183.057 40.3604 182.456 40.3007 181.663 40.3007C180.811 40.3007 180.298 40.3604 180.341 40.435ZM200.672 40.494L201.187 40.6874L201.231 44.3152C201.245 46.3069 201.231 48.076 201.201 48.2395C201.157 48.4179 200.937 48.6262 200.716 48.7157C200.379 48.8344 200.643 48.8643 202.067 48.8792C203.241 48.8941 203.755 48.8494 203.608 48.7598C203.491 48.6859 203.271 48.6113 203.124 48.6113C202.743 48.6113 202.581 48.0021 202.581 46.5898V45.3409H203.212C203.844 45.3409 203.858 45.3558 204.636 46.4853C206.089 48.5963 206.574 48.9233 208.218 48.8941H208.967L208.379 48.6262C208.056 48.4776 207.484 48.0319 207.102 47.6304C206.324 46.798 204.93 45.058 204.93 44.8945C204.93 44.8504 205.106 44.6422 205.312 44.4339C206.265 43.527 206.559 42.2632 206.016 41.3562C205.561 40.5537 204.974 40.3902 202.434 40.3305C200.423 40.3007 200.218 40.3156 200.672 40.494ZM204.328 41.2674C205.429 42.2042 205.179 44.5526 203.946 44.7907C203.726 44.8355 203.329 44.8355 203.066 44.7907L202.581 44.7012V42.7984V40.8807H203.227C203.711 40.8807 203.99 40.9852 204.328 41.2674ZM209.597 40.4791C209.862 40.5836 210.141 40.762 210.214 40.8807C210.376 41.1337 210.405 47.0205 210.258 47.9125C210.2 48.3291 210.082 48.5224 209.833 48.6262C209.642 48.6859 209.48 48.7897 209.48 48.8344C209.48 48.8792 210.214 48.909 211.124 48.909C212.592 48.909 213.106 48.7897 212.24 48.656C212.064 48.6262 211.858 48.5224 211.799 48.4179C211.741 48.3291 211.682 47.4072 211.682 46.3815C211.682 44.8504 211.711 44.5676 211.873 44.746C211.976 44.8654 212.651 45.6679 213.371 46.5002C215.205 48.6709 215.367 48.7747 216.908 48.8792C217.848 48.9382 218.156 48.909 218.082 48.7897C218.024 48.6859 217.877 48.6113 217.759 48.6113C217.216 48.6113 216.292 47.8976 214.838 46.3516C213.972 45.4298 213.15 44.4936 212.989 44.2854L212.725 43.8987L214.31 42.3229C215.528 41.1188 216.028 40.7172 216.497 40.5836C216.835 40.494 217.114 40.3902 217.114 40.3604C217.114 40.3156 216.512 40.2864 215.792 40.2864H214.471L214.56 40.6426C214.633 40.9404 214.471 41.1927 213.634 42.0997C213.077 42.6946 212.416 43.4232 212.152 43.7054L211.682 44.2257V42.5902C211.682 41.6839 211.741 40.8807 211.799 40.8068C211.858 40.7172 212.064 40.5687 212.27 40.4791C212.577 40.3306 212.314 40.3007 210.875 40.3007C209.334 40.3156 209.172 40.3306 209.597 40.4791Z" fill="#3C5D87"/></svg>