<svg width="88" height="65" viewBox="0 0 88 65" fill="none" xmlns="http://www.w3.org/2000/svg"><path d="M77.7467 28.8549C75.0749 28.8549 73.2059 31.026 72.5641 34.4457L81.9677 34.3371C81.9677 31.4604 80.204 28.8549 77.7467 28.8549V28.8549ZM77.2654 50.9489C71.6561 50.9489 67.3281 46.4431 67.3281 40.1461C67.3281 32.4374 71.9769 27.1714 78.5483 27.1714C83.8367 27.1714 86.7753 30.2122 86.7753 35.0433V36.0202L72.3507 35.9116C72.2438 36.5087 72.1898 37.4861 72.1898 38.6803C72.1898 44.2175 75.6091 47.8544 80.151 47.8544C82.8757 47.8544 84.2651 46.8775 86.4015 45.0318L87.2032 46.28C84.1576 49.1031 81.6468 50.9489 77.2654 50.9489V50.9489ZM52.5826 50.5145V49.2658C54.987 49.1031 55.6811 48.5606 56.109 47.6372V19.5171C56.109 17.6714 55.8416 16.9116 52.1553 16.5858V15.5003L61.9327 13.0029L62.2525 13.9263L60.7038 15.8806V47.6372C61.238 48.7232 62.2525 49.1031 64.443 49.2658V50.5145H52.5826ZM36.2879 42.1546C36.074 43.0229 35.9141 43.7831 35.9141 44.9777C35.9141 46.6058 36.8221 48.2343 38.5848 48.2343C40.1875 48.2343 41.0961 47.6918 42.5389 46.5517L42.5919 39.2228C41.2031 39.8744 37.7837 41.3948 36.2879 42.1546V42.1546ZM46.9728 51.0029C44.0882 51.0029 42.6988 48.994 42.5919 47.5832C40.7752 49.5375 38.4249 51.0029 36.1809 51.0029C33.2958 51.0029 30.838 49.2117 30.838 46.1178C30.838 44.5973 31.2123 43.0229 31.9599 41.7747L42.5919 37.866V33.8487C42.5919 31.4059 41.4699 29.0716 39.0655 29.0716C37.6232 29.0716 36.2339 30.8628 36.1275 33.632L31.3187 34.4457V33.9032C32.9215 29.0171 38.211 27.1178 40.7752 27.1178C45.6374 27.1178 47.4001 29.7233 47.3471 33.7401L47.1867 45.1404C47.1332 47.366 48.3087 47.9085 49.3772 47.9085C50.2317 47.9085 51.0863 47.366 52.1024 46.3345V47.9085C50.9264 49.3204 48.8435 51.0029 46.9728 51.0029V51.0029ZM29.4491 20.983L20.6338 36.0743V46.2264C21.6488 48.6687 24.2131 48.994 26.671 49.1031V50.5145H9.41417V49.1031C11.872 48.994 14.8641 48.6147 15.6652 46.9861V36.5087L6.68947 21.0916C5.14049 18.4856 3.64411 17.6178 0.652344 17.4001V15.9888H15.6652V17.4001C12.8335 17.5628 11.9255 18.1063 11.1239 18.7579L19.4584 33.4143L27.6325 18.8115C26.7779 18.1603 25.656 17.5628 22.8243 17.4001V15.9888H35.6462V17.4001C32.7616 17.5092 30.9449 18.4856 29.4491 20.983V20.983Z" fill="#3C5D87"/></svg>