<svg width="119" height="65" viewBox="0 0 119 65" fill="none" xmlns="http://www.w3.org/2000/svg"><path fill-rule="evenodd" clip-rule="evenodd" d="M8.09444 45.7531C6.39717 45.7531 4.23078 45.9917 2.82507 45.9917C2.53269 45.9917 1.77201 45.9917 1.77201 45.3953C1.77201 44.9175 2.18166 44.3801 3.93758 44.0822C5.22601 43.843 6.57307 43.6637 6.57307 40.2019V12.1499C6.57307 11.0164 4.1135 11.1356 2.59051 11.0164C1.24426 10.8961 0.834595 10.8961 0.834595 10.2404C0.834595 9.22547 2.41621 9.22547 3.11825 9.22547H8.44628C11.3147 9.22547 14.0667 8.86834 17.813 8.86834C30.1085 8.86834 40.0617 15.0753 40.0617 29.4596C40.0617 38.4127 31.9817 45.7531 21.9121 45.7531H8.09444ZM11.6079 38.293C11.6079 42.4706 15.2956 44.3207 19.1023 44.3207C23.6688 44.3207 34.5578 40.4422 34.5578 28.3251C34.5578 16.0905 23.7861 10.6582 16.5254 10.6582C11.7244 10.6582 11.6079 11.732 11.6079 12.5677V38.293ZM45.52 38.3524C45.52 34.712 45.6365 29.1607 45.6365 25.6399C45.6365 24.804 44.6421 24.684 43.9392 24.5054C42.5335 24.1476 42.1825 24.0283 42.1825 23.6102C42.1825 23.0731 42.8259 23.0731 43.646 23.0731C44.4653 23.0731 45.2847 23.1934 46.1634 23.1934C46.9836 23.1934 47.8615 23.0731 48.7395 23.0731C49.5002 23.0731 49.6182 23.3716 49.6182 24.2076C49.6182 29.5186 49.5002 34.8306 49.5002 40.1433C49.5002 42.5909 51.2569 43.9623 54.1261 43.9623C60.6237 43.9623 61.0928 41.1571 61.1514 38.7102C61.1514 34.4728 61.2687 30.1753 61.2687 25.9368C61.2687 25.2218 60.9755 25.2218 58.2244 24.5054C57.7561 24.3862 56.5271 24.0283 56.5271 23.5502C56.5271 23.1934 57.1697 23.0731 57.8139 23.0731C58.8091 23.0731 59.8052 23.1934 60.8004 23.1934C61.9707 23.1934 63.0832 23.0731 64.2536 23.0731C64.6641 23.0731 65.4834 23.2517 65.4834 24.3268C65.4834 30.3545 65.2496 36.3829 65.2496 42.4106C65.2496 43.6637 66.2449 43.843 66.7718 43.843C69.0555 43.843 69.817 43.843 69.817 44.4404C69.817 44.9175 69.5238 45.0374 68.6458 45.1567C64.5476 45.8134 62.1466 46.3499 61.6205 46.3499C61.1514 46.3499 61.1514 45.9317 61.1514 45.3953V44.0232C61.1514 43.5451 61.0341 43.3065 60.7418 43.3065C59.8052 43.3065 57.2869 46.8276 52.5453 46.8276C47.0414 46.8276 45.52 43.4258 45.52 38.3524ZM75.3274 11.7927C75.3274 8.62874 72.4582 9.64328 72.4582 8.50951C72.4582 8.0917 72.8687 7.97239 73.688 7.67382L77.6689 6.12282C77.9621 6.00293 78.3131 6.00293 78.665 6.00293C78.9573 6.00293 79.3084 6.18153 79.3084 7.07806V31.6083C79.3084 32.264 79.4248 32.5626 79.8361 32.5626C80.4209 32.5626 89.378 27.1906 89.378 26.1171C89.378 24.5655 87.1546 24.5655 87.1546 23.6705C87.1546 23.3716 87.6221 23.0731 87.9739 23.0731C89.2037 23.0731 90.9596 23.1931 92.481 23.1931C93.9445 23.1931 95.7013 23.0731 96.8724 23.0731C97.3993 23.0731 97.9849 23.1931 97.9849 23.7887C97.9849 24.4461 95.9366 24.8639 95.1165 25.2218C93.4184 25.9978 83.8162 31.6683 83.8162 32.3241C83.8162 32.7419 84.1094 32.9798 84.2854 33.1597L94.4128 42.5299C96.8138 44.7389 99.0388 44.5603 99.0388 45.3953C99.0388 45.6939 98.454 45.9917 97.5166 45.9917C96.2868 45.9917 94.7638 45.7531 93.0079 45.7531C91.4857 45.7531 90.0809 45.9917 88.6751 45.9917C87.4462 45.9917 86.9192 45.9317 86.9192 45.3953C86.9192 44.8582 87.6221 44.6786 88.6173 44.5603C89.2037 44.4993 89.7306 44.1422 89.7306 43.7243C89.7306 43.4258 89.4358 43.1263 89.0864 42.7695L80.245 34.2341C80.0699 34.055 79.8361 33.8764 79.718 33.8764C79.4835 33.8764 79.3084 33.9357 79.3084 34.1749V42.6502C79.3084 43.9623 80.0699 44.3801 80.596 44.5603C81.5326 44.8582 82.2949 44.8582 82.2949 45.3953C82.2949 45.8724 81.5326 45.9917 80.9478 45.9917C79.5429 45.9917 78.3131 45.7531 77.0247 45.7531C75.619 45.7531 73.8052 45.9917 72.8092 45.9917C72.4582 45.9917 71.4043 45.9317 71.4043 45.3953C71.4043 44.8582 71.8726 44.7389 72.4582 44.5603C74.0976 44.0822 75.3274 44.2618 75.3274 41.7549V11.7927ZM103.355 31.9062C103.239 32.264 103.239 33.0413 103.239 33.995C103.239 39.0097 104.585 43.9623 111.727 43.9623C116.236 43.9623 116.352 41.5756 117.289 41.5756C117.582 41.5756 117.816 41.7549 117.816 42.0528C117.816 42.4706 115.357 46.8276 109.268 46.8276C102.828 46.8276 99.1398 42.172 99.1398 34.712C99.1398 29.1008 102.535 22.1178 109.795 22.1178C116.529 22.1178 118.812 27.9673 118.812 30.5344C118.812 31.6083 118.636 31.9058 117.64 31.9058H103.355V31.9062ZM114.948 27.1906C114.948 25.1619 113.074 23.5502 110.615 23.5502C106.4 23.5502 103.881 27.7287 103.881 29.5785C103.881 29.9967 103.999 30.1166 108.976 30.1166C114.128 30.1166 114.948 29.3393 114.948 27.1906ZM5.73341 51.1775V55.5026C5.77902 56.7159 6.46068 57.4477 7.54143 57.4477C8.62137 57.4477 9.30386 56.7159 9.34947 55.5026V51.1775H9.94076V55.5122C9.92202 56.9469 9.13201 58.0029 7.54143 58.0029C5.95084 58.0029 5.16166 56.9469 5.14374 55.5122V51.1775H5.73341ZM18.4027 51.1775H19.0754L22.6907 57.0586H22.7094V51.1775H23.2999V57.8639H22.5547L19.0119 52.0846H18.9932V57.8639H18.4027V51.1775ZM31.8156 57.8649H32.4069V51.1511H31.8156V57.8649ZM42.9904 57.2616H43.01L45.0908 51.1775H45.6796L43.3088 57.8639H42.6369L40.2384 51.1775H40.8818L42.9904 57.2616ZM53.5063 57.8639V51.1775H57.4042V51.7337H54.0976V54.1319H57.2772V54.6871H54.0976V57.3076H57.5411V57.8639H53.5063ZM66.2261 57.8639H65.6357V51.1775H67.7793C68.3526 51.1775 68.8242 51.2147 69.3242 51.5301C69.7779 51.8075 69.9962 52.2893 69.9962 52.9275C69.9962 53.6508 69.4961 54.1691 68.7338 54.3641V54.381C69.5694 54.5207 69.7502 55.0953 69.8324 55.8726C69.9505 56.9561 69.9155 57.456 70.1786 57.8639H69.4961C69.3422 57.4194 69.3055 56.9469 69.2697 56.475C69.1337 54.9471 69.0424 54.6782 67.8526 54.6782H66.2261V57.8642V57.8639ZM67.4893 54.1233C68.3249 54.1233 69.3601 54.0663 69.3601 52.9275C69.3601 51.6401 68.1792 51.7337 67.5529 51.7337H66.2261V54.1233H67.4893ZM79.9224 58.0029C78.8775 58.0029 77.9971 57.225 77.9694 56.1224H78.6047C78.6234 57.1511 79.3686 57.4477 80.249 57.4477C80.9861 57.4477 81.8298 57.0121 81.8298 56.1603C81.8298 55.4928 81.3575 55.1787 80.8037 54.9925C79.7408 54.6324 78.1234 54.289 78.1234 52.8445C78.1234 51.6773 79.1772 51.0385 80.2124 51.0385C81.0757 51.0385 82.2029 51.3445 82.3478 52.6319H81.7117C81.6938 51.8075 80.9584 51.594 80.2857 51.594C79.6048 51.594 78.7602 51.9456 78.7602 52.7611C78.7602 54.6607 82.4659 53.7981 82.4659 56.1043C82.4659 57.5584 81.2394 58.0029 79.9224 58.0029ZM90.6795 57.8649H91.2707V51.1511H90.6795V57.8649ZM101.254 51.7337H99.1373V51.1775H103.934V51.7337H101.855L101.845 57.8639H101.263L101.254 51.7337ZM113.783 54.975L111.367 51.1775H112.121L114.129 54.41L116.136 51.1775H116.772L114.374 54.9553V57.8639H113.783V54.975Z" fill="#3C5D87"/></svg>