<svg width="126" height="65" viewBox="0 0 126 65" fill="none" xmlns="http://www.w3.org/2000/svg"><path d="M11.5523 13.3984C5.04505 13.3984 0.827759 17.3766 0.827759 22.3677C0.827759 27.3556 5.04505 31.333 11.5523 31.333C13.541 31.333 16.0725 30.7547 17.5475 29.0915L17.8787 30.9703H21.495V21.5454H12.4562V24.8726H16.3722C16.0725 26.4388 14.205 27.476 11.4328 27.476C7.81726 27.476 6.43116 24.9219 6.43116 22.3677C6.43116 19.812 7.81726 17.2563 11.4328 17.2563C13.6921 17.2563 15.499 18.148 15.6799 19.6198H21.2833C20.7712 15.3039 16.0111 13.3984 11.5523 13.3984ZM86.5547 13.7619V16.8944H91.6759V13.7619H86.5547ZM31.041 18.1004C26.4319 18.1004 22.6056 20.8484 22.6056 24.6803C22.6056 28.875 26.0709 31.333 31.163 31.333C34.6573 31.333 37.9998 30.081 38.9344 27.1876H34.1444C33.6622 28.1028 32.457 28.56 31.2211 28.56C29.0523 28.56 27.8164 27.4275 27.7268 25.7151H39.2058C39.4457 21.4735 36.6452 18.1004 31.041 18.1004ZM48.23 18.1004C43.3794 18.1004 40.0055 20.9687 40.0055 24.728C40.0055 28.4873 43.3794 31.333 48.23 31.333C53.0806 31.333 56.4837 28.4873 56.4837 24.728C56.4837 20.9687 53.0806 18.1004 48.23 18.1004ZM75.4457 18.1004C71.0152 18.1004 68.5765 20.8968 68.5765 24.2231C68.5765 27.7409 70.7139 30.4404 75.4457 30.4404C77.1016 30.4404 78.667 29.7676 79.6008 28.6101H79.663V29.7902C79.663 31.3346 79.4198 32.7078 76.9804 32.7078C76.1993 32.7078 75.5652 32.6335 75.1129 32.4412C74.6315 32.249 74.3601 31.9105 74.2389 31.3572H69.1177C69.7203 34.707 73.1533 35.358 76.7995 35.358C84.1234 35.358 84.6 31.5002 84.6 29.4526V18.4614H79.6912V20.0277H79.6315C78.7284 18.7506 77.3124 18.1004 75.4457 18.1004ZM100.594 18.1004C98.8164 18.1004 97.0071 18.3403 95.6258 18.9663C94.2365 19.6173 93.2752 20.6787 93.1864 22.3185H97.9764C98.2106 21.2579 99.1234 20.7506 100.537 20.7506C101.587 20.7506 103.009 21.1125 103.009 22.0519C103.009 22.8233 102.524 23.0648 101.652 23.2102C98.0975 23.7886 92.5563 23.4744 92.5563 27.5487C92.5563 30.127 94.8988 31.333 97.8875 31.333C99.7534 31.333 101.716 30.8992 103.041 29.7902C103.098 30.2013 103.154 30.585 103.34 30.9703H108.493C107.888 29.9832 107.888 28.8241 107.888 27.766V22.295C107.888 18.7514 104.301 18.1004 100.594 18.1004ZM67.0652 18.2199C64.8657 18.2199 63.1185 19.0648 62.3657 20.6561H62.3035V18.4614H57.3342V30.9703H62.457V24.7765C62.457 23.2118 63.7809 21.8104 66.3108 21.8104C67.0038 21.8104 67.6072 21.9073 68.2704 22.0519V18.316C67.8786 18.2433 67.457 18.2199 67.0652 18.2199ZM86.5547 18.4614V30.9703H91.6759V18.4614H86.5547ZM31.041 20.8718C32.7583 20.8718 33.9933 22.0277 34.0846 23.4259H27.7268C28.0273 21.9065 29.234 20.8718 31.041 20.8718ZM48.23 21.2337C50.6096 21.2337 51.3625 23.1375 51.3625 24.728C51.3625 26.3176 50.6096 28.1989 48.23 28.1989C45.8496 28.1989 45.1266 26.3176 45.1266 24.728C45.1266 23.1375 45.8496 21.2337 48.23 21.2337ZM76.6791 21.2337C78.9691 21.2337 79.7526 22.8015 79.7526 24.392C79.7526 25.9574 78.8189 27.3072 76.6492 27.3072C74.5402 27.3072 73.6977 25.8362 73.6977 24.3661C73.6977 22.8233 74.4198 21.2337 76.6791 21.2337ZM102.944 25.1141C103.065 27.6933 102.249 28.8015 99.81 28.8015C98.663 28.8015 97.6694 28.3912 97.6694 27.3798C97.6694 26.3912 98.6387 26.0059 99.7858 25.7878C100.9 25.5471 102.225 25.4752 102.944 25.1141ZM43.5297 34.0971V37.9534H49.9465V51.308H55.5483V37.9534H61.9675V34.0971H43.5297ZM92.2898 34.0971V51.308H97.4109V44.4865C97.4109 43.1133 98.251 41.8104 100.182 41.8104C102.984 41.8104 102.742 43.5462 102.742 45.2579V51.308H107.863V43.2805C107.863 41.4727 107.443 38.4356 102.233 38.4356C100.367 38.4356 98.251 39.2312 97.4675 40.5107H97.4109V34.0971H92.2898ZM65.8835 38.4356C61.2744 38.4356 57.4465 41.1844 57.4465 45.0164C57.4465 49.2102 60.9118 51.6706 66.003 51.6706C69.4966 51.6706 72.8407 50.417 73.7752 47.5228H68.9869C68.503 48.4388 67.2987 48.8976 66.062 48.8976C63.8932 48.8976 62.6589 47.7651 62.5685 46.0527H74.0475C74.2874 41.8104 71.4869 38.4356 65.8835 38.4356ZM83.3803 38.4356C78.3455 38.4356 75.1824 41.2797 75.1824 45.2579C75.1824 49.0907 78.6775 51.6706 83.3803 51.6706C87.5321 51.6706 90.7874 49.7409 91.2397 46.3904H86.272C86.0297 47.7159 85.125 48.5358 83.3479 48.5358C81.1751 48.5358 80.3043 46.871 80.3043 45.2579C80.3043 43.522 80.7567 41.5689 83.6145 41.5689C84.915 41.5689 86.0862 42.316 86.1185 43.3774H91.0862C90.7308 40.0761 87.2656 38.4356 83.3803 38.4356ZM65.8835 41.2078C67.6008 41.2078 68.8342 42.3645 68.9255 43.7635H62.5685C62.8698 42.2433 64.0757 41.2078 65.8835 41.2078Z" fill="#3C5D87"/><path fill-rule="evenodd" clip-rule="evenodd" d="M125.347 59.0029H114.741V56.9763H125.347V59.0029ZM122.695 44.7889L120.042 5.00293L117.39 44.7889H122.695ZM125.347 35.0506L120.043 54.9399H125.347V35.0506ZM114.741 35.0506L120.043 54.9399H114.741V35.0506Z" stroke="#3C5D87" stroke-width="0.995"/></svg>