<svg width="169" height="30" viewBox="0 0 169 30" fill="none" xmlns="http://www.w3.org/2000/svg"><path d="M65.5273 2.29389L63.6397 1.75457V0.40625H70.988C75.7745 0.40625 77.5273 1.95681 77.5273 5.52985C77.5273 8.90064 75.5723 10.6534 71.797 10.6534H68.8307V16.0467L70.7183 16.586V17.9344H63.5723V16.6535L65.5273 16.1141V2.29389ZM68.8307 2.29389V9.10289L72.3363 8.83322C73.2127 8.42873 74.0891 7.8894 74.0891 5.7321C74.0891 4.0467 74.0217 2.29389 70.7857 2.29389H68.8307Z" fill="#3C5D87"/><path d="M104.898 10.5186H102.539V16.1815L104.426 16.7209V17.9344H97.2129V16.6535L99.168 16.1141V2.29389L97.2803 1.75457V0.40625H104.966C109.55 0.40625 111.168 2.02423 111.168 5.12535C111.168 7.55232 110.224 8.76581 108.067 9.64221L111.303 15.9793L113.393 16.6535V17.9344H108.539L104.898 10.5186ZM102.539 2.29389V8.96805L106.112 8.69839C107.258 8.15906 107.797 7.21524 107.797 5.39502C107.797 3.43996 107.19 2.22648 105.168 2.22648L102.539 2.29389Z" fill="#3C5D87"/><path d="M114.877 16.7209L116.765 16.1815V2.29389L114.877 1.75457V0.40625H123.371C128.158 0.40625 130.989 3.30513 130.989 8.96805C130.989 15.3726 128.09 17.9344 123.034 17.9344H114.877V16.7209ZM120.135 2.29389V16.1815H122.63C124.383 16.1815 127.349 15.9119 127.349 9.5748C127.349 4.58603 126.472 2.29389 122.63 2.29389H120.135Z" fill="#3C5D87"/><path d="M70.988 27.1003C70.988 29.2576 69.7745 29.9992 67.752 29.9992C65.7296 29.9992 64.5161 28.7857 64.5161 27.1003V22.8531L63.5723 22.5834V21.7744H67.2801V22.5834L66.4037 22.8531V27.1003C66.4037 28.1789 66.8082 28.7857 68.0217 28.7857C68.6284 28.7857 69.6397 28.5834 69.6397 27.0329V22.7857L68.6959 22.516V21.707H71.9318V22.516L70.988 22.7857V27.1003Z" fill="#3C5D87"/><path d="M77.4601 24.8766V28.7867L78.3365 29.0564V29.8654H75.168V29.0564L76.1118 28.7867V23.1912L75.7073 22.7193L75.168 22.517V21.6406H77.2579L81.2354 26.6294V22.7193L80.2916 22.4496V21.6406H83.4601V22.4496L82.5163 22.7193V29.7979H81.4376L77.4601 24.8766Z" fill="#3C5D87"/><path d="M90.269 28.856L91.2128 29.1257V29.9347H87.4375V29.1257L88.3813 28.856V22.856L87.4375 22.5863V21.7773H91.2128V22.5863L90.269 22.856V28.856Z" fill="#3C5D87"/><path d="M140.763 28.856L141.707 29.1257V29.9347H137.932V29.1257L138.875 28.856V22.856L137.932 22.5863V21.7773H141.707V22.5863L140.763 22.856V28.856Z" fill="#3C5D87"/><path d="M99.776 29.8643H98.0232L95.4614 22.7857L94.5176 22.516V21.707H98.4951V22.516L97.5513 22.7857L99.3041 27.8419L101.057 22.7857L100.113 22.516V21.707H103.349V22.516L102.405 22.7857L99.776 29.8643Z" fill="#3C5D87"/><path d="M107.192 22.856L106.248 22.5863V21.7773H112.653L112.72 24.2717H111.776L111.304 22.856H109.147V25.1481H111.237V26.2942H109.147V28.856H111.304L111.978 27.4403H112.99L112.855 29.9347H106.315V29.1257L107.259 28.9234V22.856H107.192Z" fill="#3C5D87"/><path d="M120.607 26.5639H119.933V28.856L120.877 29.1257V29.9347H117.102V29.1257L118.045 28.856V22.856L117.102 22.5863V21.7773H120.809C123.102 21.7773 123.776 22.6537 123.776 24.0695C123.776 24.9459 123.573 25.8223 122.427 26.2268L123.776 28.856L124.922 29.1931V29.9347H122.158L120.607 26.5639ZM119.933 22.856V25.6875L121.214 25.5526C121.618 25.2155 121.888 24.6762 121.888 24.1369C121.888 23.3279 121.686 22.7886 120.809 22.7886H119.933V22.856Z" fill="#3C5D87"/><path d="M128.225 27.371H129.371L129.64 28.517C130.18 28.8541 130.786 28.9889 131.393 28.9889C131.461 28.9889 131.595 28.9889 131.663 28.9889C132 28.7867 132.135 28.3822 132.202 27.9777C132.202 26.0901 128.292 26.8991 128.292 24.135C128.292 22.8541 129.438 21.6406 131.393 21.6406C132.135 21.6406 132.944 21.8429 133.618 22.18V24.3373H132.539L132.135 22.9889C131.73 22.8541 131.258 22.7193 130.786 22.7193C130.719 22.7193 130.652 22.7193 130.584 22.7193C130.247 22.9215 130.045 23.2586 130.045 23.6631C130.045 25.2811 133.888 24.7418 133.888 27.4384C133.888 28.9215 132.539 30.0002 130.786 30.0002C129.91 30.0002 129.034 29.7305 128.292 29.2586L128.225 27.371Z" fill="#3C5D87"/><path d="M148.179 22.8531H147.1L146.628 24.2688H145.617V21.707H152.763V24.2688H151.752L151.28 22.8531H150.134V28.8531L151.078 29.1228V29.9318H147.303V29.1228L148.246 28.8531V22.8531H148.179Z" fill="#3C5D87"/><path d="M159.101 26.7661L156.944 22.856L156 22.5863V21.7773H159.978V22.5863L159.034 22.856L160.382 25.4852L161.73 22.856L160.787 22.5863V21.7773H164.022V22.5863L163.079 22.856L160.921 26.7661V28.856L161.865 29.1257V29.9347H158.09V29.1257L159.034 28.856V26.7661H159.101Z" fill="#3C5D87"/><path d="M162.606 12.8782L161.326 16.1141H155.865V9.84446H158.966L159.371 11.5973H160.719V6.27142H159.371L158.966 8.02423H155.865V2.29389H161.123L162.067 5.66468H164.022L163.887 0.40625H150.606V1.75457L152.494 2.29389V16.1815L150.539 16.7209V17.9344H164.157L164.427 12.8782H162.606Z" fill="#3C5D87"/><path d="M93.9108 11.9343C93.9108 16.3838 91.7535 18.204 87.4389 18.204C83.4613 18.204 80.5625 16.586 80.5625 12.3388V2.29389L78.6074 1.75457V0.40625H85.7535V1.75457L83.8658 2.29389V12.3388C83.8658 14.9006 85.0119 15.9793 87.8434 15.9793C89.7984 15.9793 91.5512 14.8332 91.5512 12.1366V2.29389L89.5962 1.75457V0.40625H95.7984V1.75457L93.9108 2.29389V11.9343Z" fill="#3C5D87"/><path d="M147.169 11.9343C147.169 16.3838 145.011 18.204 140.697 18.204C136.719 18.204 133.753 16.586 133.753 12.3388V2.29389L131.865 1.75457V0.40625H139.011V1.75457L137.124 2.29389V12.3388C137.124 14.9006 138.27 15.9793 141.101 15.9793C143.056 15.9793 144.809 14.8332 144.809 12.1366V2.29389L142.921 1.75457V0.40625H149.124V1.75457L147.236 2.29389V11.9343H147.169Z" fill="#3C5D87"/><path d="M29.7978 29.9326L33.573 21.0337H39.8427C48.8764 21.0337 52.3146 17.3259 54.7416 11.7303C55.618 9.64046 57.1011 6.20225 55.1461 3.23596C53.191 0.269663 49.0787 0 46.1798 0H12.8764L8.1573 10.9888H14.1573L10.7865 18.8764H4.7191L0 29.9326H29.7978Z" fill="#3C5D87"/><path d="M53.3936 4.38299C52.315 2.76501 50.0228 2.02344 46.1127 2.02344H14.2251L11.3262 8.96726H17.3262L12.27 20.8999H6.20262L3.23633 27.8437H28.4498L31.4161 20.8999H25.2813L26.0903 18.9448H39.8431C48.6745 18.9448 51.0341 15.1695 52.8543 10.8549C53.7981 8.63018 54.6745 6.27063 53.3936 4.38299ZM30.4049 8.96726H40.5172C41.933 8.96726 41.7307 9.64142 41.5285 10.1133C40.9891 11.3268 39.7757 12.0684 38.2925 12.0684H29.0566L30.4049 8.96726Z" fill="white"/><path d="M46.1794 3.10156H14.9659L12.9434 7.88808H18.9434L12.9434 21.978H6.87599L4.85352 26.7645H27.7749L29.7973 21.978H23.6625L25.4153 17.933H39.8423C48.1344 17.933 50.2243 14.4274 51.8423 10.5173C53.4603 6.60718 54.4715 3.10156 46.1794 3.10156ZM38.2917 13.1465H27.5052L29.7299 7.9555H40.5164C42.4041 7.9555 43.2131 8.96674 42.4715 10.5847C41.7973 12.1353 40.1794 13.1465 38.2917 13.1465Z" fill="#3C5D87"/><path d="M166.315 29.865C165.371 29.865 164.562 29.056 164.562 28.1122C164.562 27.1684 165.371 26.3594 166.315 26.3594C167.259 26.3594 168.068 27.1684 168.068 28.1122C168.068 29.056 167.259 29.865 166.315 29.865ZM166.315 26.7639C165.574 26.7639 164.9 27.3706 164.9 28.1796C164.9 28.9212 165.506 29.5953 166.315 29.5953C167.057 29.5953 167.731 28.9886 167.731 28.1796C167.731 27.3706 167.057 26.7639 166.315 26.7639Z" fill="#3C5D87"/><path d="M166.112 28.2485V28.9227H165.775V27.3047H166.517C166.854 27.3047 167.056 27.5069 167.056 27.7766C167.056 27.9114 166.989 28.1137 166.787 28.1811C166.854 28.1811 166.989 28.3159 166.989 28.5856V28.653C166.989 28.7878 166.989 28.8553 166.989 28.9901H166.652C166.652 28.8553 166.584 28.7204 166.652 28.653C166.652 28.4508 166.584 28.3833 166.315 28.3833L166.112 28.2485ZM166.112 27.9788H166.382C166.584 27.9788 166.652 27.9114 166.652 27.7766C166.652 27.6418 166.584 27.5743 166.382 27.5743H166.112V27.9788Z" fill="#3C5D87"/></svg>