<svg width="189" height="40" viewBox="0 0 189 40" fill="none" xmlns="http://www.w3.org/2000/svg"><path d="M14.6675 14.8594L16.232 26.2016L21.3698 17.6149L19.189 27.0609L24.7297 21.7572L21.8438 28.7557L26.4542 25.3127C24.309 31.1497 22.4364 34.4268 14.6675 37.0875C6.89271 34.4268 5.02604 31.1497 2.88086 25.3127L7.49123 28.7557L4.6053 21.7572L10.146 27.0609L7.9653 17.6149L13.1031 26.2016L14.6675 14.8594Z" fill="#3C5D87"/><path d="M6.52468 11.0499C4.17209 11.0499 2.76172 9.78769 2.76172 7.67214V2.60547H4.71135V7.5951C4.71135 8.82769 5.35727 9.50325 6.53653 9.50325C7.71579 9.50325 8.38542 8.85732 8.38542 7.63065V2.60547H10.3528V7.64251C10.3528 9.74621 8.88913 11.0558 6.52468 11.0558" fill="#3C5D87"/><path d="M13.902 5.94176H14.6131C15.5613 5.94176 16.0887 5.58621 16.0887 4.94028C16.0887 4.29436 15.6324 3.99214 14.6902 3.99214H13.902V5.94176ZM13.902 9.52695H14.7435C15.502 9.52695 16.4028 9.33139 16.4028 8.40695C16.4028 7.48251 15.4842 7.25139 14.7139 7.25139H13.902V9.52695ZM14.7435 10.9136H12.0176V2.60547H14.785C16.8057 2.60547 17.9198 3.39362 17.9198 4.80991C17.9198 5.55658 17.5287 6.13139 16.7879 6.48695C17.7835 6.83658 18.2931 7.50028 18.2931 8.44843C18.2931 10.0366 17.0309 10.9077 14.7435 10.9077" fill="#3C5D87"/><path d="M23.7567 11.0515C21.0664 11.0515 19.3301 9.37447 19.3301 6.76707C19.3301 4.15966 21.1316 2.46484 23.8101 2.46484C24.8056 2.46484 25.6412 2.6604 26.3642 3.06336L26.4293 3.09892L26.139 4.78781L26.0086 4.70484C25.2975 4.22484 24.616 4.00558 23.8753 4.00558C22.2753 4.00558 21.3212 5.0367 21.3212 6.76114C21.3212 8.48558 22.3108 9.50484 23.899 9.50484C24.6516 9.50484 25.3923 9.27966 26.1686 8.81151L26.293 8.73447L26.5656 10.3108L26.5064 10.3463C25.7123 10.8026 24.7345 11.0515 23.7508 11.0515" fill="#3C5D87"/><path d="M0 0V21.6948C0 30.8148 4.96 37.4104 14.6667 40C24.3733 37.4104 29.3333 30.8089 29.3333 21.6948V0H0ZM14.6667 38.8504C5.49333 36.2489 1.11407 30.1926 1.11407 21.5526V1.11407H28.2252V21.5585C28.2252 30.1926 23.8459 36.2548 14.6667 38.8504Z" fill="#3C5D87"/><path d="M14.667 13.8552C16.7114 13.8552 16.9899 14.6848 18.6373 14.673C20.2788 14.6848 20.5573 13.8552 22.6077 13.8552C24.6581 13.8552 24.9366 14.6848 26.5781 14.673V12.7708C24.9366 12.7826 24.6522 11.9648 22.6077 11.9648C20.5633 11.9648 20.2788 12.7826 18.6373 12.7708C16.9899 12.7826 16.7114 11.9648 14.667 11.9648C12.6225 11.9648 12.344 12.7826 10.6966 12.7708C9.05512 12.7826 8.7766 11.9648 6.72623 11.9648C4.67586 11.9648 4.39734 12.7826 2.75586 12.7708V14.673C4.39734 14.6848 4.68179 13.8552 6.72623 13.8552C8.77067 13.8552 9.05512 14.6848 10.6966 14.673C12.344 14.6848 12.6225 13.8552 14.667 13.8552Z" fill="#3C5D87"/><path d="M15.9639 17.2962C16.9476 17.5332 17.4217 17.9836 18.6365 17.9777C20.278 17.9895 20.5565 17.1599 22.6069 17.1599C24.6573 17.1599 24.9358 17.9895 26.5773 17.9777V16.0755C24.9358 16.0873 24.6513 15.2695 22.6069 15.2695C20.5625 15.2695 20.278 16.0873 18.6365 16.0755C17.315 16.0814 16.8765 15.5599 15.6973 15.3525L15.9639 17.3021V17.2962Z" fill="#3C5D87"/><path d="M10.6966 17.9719C11.9114 17.9778 12.3796 17.5274 13.3692 17.2904L13.6359 15.3408C12.4566 15.5482 12.0181 16.0756 10.6966 16.0637C9.05512 16.0756 8.7766 15.2578 6.72623 15.2578C4.67586 15.2578 4.39734 16.0756 2.75586 16.0637V17.966C4.39734 17.9778 4.68179 17.1482 6.72623 17.1482C8.77068 17.1482 9.05512 17.9778 10.6966 17.966V17.9719Z" fill="#3C5D87"/><path d="M16.4386 20.7371C16.9956 20.9267 17.4223 21.1637 18.086 21.2467L19.2297 19.3386C19.0519 19.3623 18.8564 19.3741 18.6371 19.3741C17.5053 19.38 17.0193 18.9948 16.166 18.7578L16.4386 20.743V20.7371Z" fill="#3C5D87"/><path d="M21.6719 20.5279C21.9385 20.4864 22.2408 20.4568 22.6022 20.4568C24.6467 20.4568 24.9311 21.2864 26.5726 21.2746V19.3723C24.9311 19.3842 24.6467 18.5664 22.6022 18.5664C22.4304 18.5664 22.2704 18.5723 22.1222 18.5842L21.6719 20.5279Z" fill="#3C5D87"/><path d="M7.66246 20.5279L7.21209 18.5842C7.06394 18.5723 6.90394 18.5664 6.73209 18.5664C4.68764 18.5664 4.4032 19.3842 2.76172 19.3723V21.2746C4.4032 21.2864 4.68764 20.4568 6.73209 20.4568C7.09357 20.4568 7.39579 20.4805 7.66246 20.522V20.5279Z" fill="#3C5D87"/><path d="M11.2472 21.2448C11.9109 21.1619 12.3376 20.9248 12.8946 20.7352L13.1672 18.75C12.3139 18.993 11.828 19.3781 10.6961 19.3663C10.4768 19.3663 10.2813 19.3544 10.1035 19.3307L11.2472 21.2389V21.2448Z" fill="#3C5D87"/><path d="M45.0687 13.9183H43.6347V7.86203H41.3828V6.58203H47.2436L47.4332 7.86203H45.0687V13.9183Z" fill="#3C5D87"/><path d="M56.1613 13.9183H54.7272V10.7598H51.5687V13.9183H50.1465V6.58203H51.5687V9.44425H54.7272V6.58203H56.1613V13.9124V13.9183Z" fill="#3C5D87"/><path d="M64.9689 13.9183H60.2578V6.58203H64.8682V7.85018H61.6741V9.47388H64.2163L64.4237 10.742H61.6741V12.6502H64.963V13.9183H64.9689Z" fill="#3C5D87"/><path d="M76.0199 14.0546C74.1473 14.0546 73.0273 12.9287 73.0273 11.0502V6.58203H74.4496V10.9909C74.4496 12.1702 75.0125 12.8161 76.0318 12.8161C77.051 12.8161 77.6318 12.1939 77.6318 11.0205V6.58203H79.0659V10.9909C79.0659 12.9109 77.9281 14.0546 76.0199 14.0546Z" fill="#3C5D87"/><path d="M88.9681 13.9183H87.7355L84.2452 8.78055V13.9183H82.9355V6.58203H84.3281L87.6585 11.5065V6.58203H88.9681V13.9124V13.9183Z" fill="#3C5D87"/><path d="M94.479 13.9183H93.0449V6.58203H94.479V13.9124V13.9183Z" fill="#3C5D87"/><path d="M101.425 14.0305H100.133L97.3066 6.75939L98.7407 6.44531L100.833 12.1698L102.883 6.58161H104.329L101.425 14.0246V14.0305Z" fill="#3C5D87"/><path d="M111.748 13.9183H107.037V6.58203H111.653V7.85018H108.465V9.47388H111.007L111.215 10.742H108.465V12.6502H111.754V13.9183H111.748Z" fill="#3C5D87"/><path d="M119.533 14.0072L117.442 11.1391H116.766V13.9183H115.344V6.58203H117.643C119.385 6.58203 120.422 7.43536 120.422 8.86944C120.422 9.87092 119.919 10.582 118.964 10.9435L120.997 13.6754L119.522 14.0072H119.533ZM116.772 9.99536H117.637C118.52 9.99536 119.012 9.60425 119.012 8.88129C119.012 8.01611 118.265 7.8324 117.637 7.8324H116.772V9.99536Z" fill="#3C5D87"/><path d="M126.23 14.0103C125.453 14.0103 124.565 13.8207 123.735 13.4651L123.682 13.4414L123.895 12.1377L123.984 12.1851C124.719 12.5703 125.619 12.8133 126.289 12.8133C127.095 12.8133 127.616 12.4577 127.616 11.9125C127.616 11.3673 127.273 11.154 126.248 10.8044C124.707 10.2651 123.931 9.78512 123.931 8.62363C123.931 7.36141 124.95 6.48438 126.413 6.48438C127.154 6.48438 127.907 6.63845 128.529 6.91697L128.582 6.94067L128.375 8.274L128.286 8.2266C127.605 7.87104 126.976 7.69919 126.378 7.69919C125.738 7.69919 125.258 8.03104 125.258 8.47549C125.258 8.96734 125.59 9.15104 126.728 9.54215C128.168 10.0459 128.95 10.5436 128.95 11.7644C128.95 13.1096 127.859 14.0162 126.242 14.0162L126.23 14.0103Z" fill="#3C5D87"/><path d="M133.928 13.9183H132.494V6.58203H133.928V13.9124V13.9183Z" fill="#3C5D87"/><path d="M140.387 13.9183H138.953V7.86203H136.701V6.58203H142.562L142.752 7.86203H140.387V13.9183Z" fill="#3C5D87"/><path d="M148.055 13.9179H146.621V11.0853L143.996 6.75939L145.454 6.44531L147.356 9.78161L149.199 6.58161H150.775L148.055 11.0675V13.912V13.9179Z" fill="#3C5D87"/><path d="M44.9147 28.7183C43.1547 28.7183 41.3828 27.4146 41.3828 24.9197C41.3828 22.4249 43.1547 21.1094 44.9147 21.1094C46.6747 21.1094 48.4287 22.4131 48.4287 24.9079C48.4287 27.4027 46.6628 28.7242 44.9147 28.7242V28.7183ZM44.9147 22.342C43.6702 22.342 42.8287 23.3731 42.8287 24.902C42.8287 26.4309 43.7058 27.4975 44.9147 27.4975C46.1236 27.4975 46.9828 26.4605 46.9828 24.9197C46.9828 23.379 46.1117 22.342 44.9147 22.342Z" fill="#3C5D87"/><path d="M53.1468 28.5843H51.7305V21.2539H56.2282V22.5221H53.1527V24.2584H55.5705L55.7779 25.5265H53.1527V28.5902L53.1468 28.5843Z" fill="#3C5D87"/><path d="M66.3962 28.5843H63.9844V21.2539H66.3844C67.931 21.2539 68.8496 21.965 68.8496 23.1561C68.8496 23.8613 68.5414 24.3769 67.937 24.7028C68.7607 24.9991 69.1814 25.5739 69.1814 26.4035C69.1814 27.8139 68.1918 28.5902 66.4022 28.5902L66.3962 28.5843ZM65.3473 27.3872H66.4081C67.3622 27.3872 67.8244 27.0613 67.8244 26.3976C67.8244 25.6924 67.3562 25.3369 66.4259 25.3369H65.3533V27.3872H65.3473ZM65.3473 24.1695H66.2836C67.1014 24.1695 67.5103 23.8672 67.5103 23.2628C67.5103 22.9191 67.3859 22.4569 66.3251 22.4569H65.3473V24.1695Z" fill="#3C5D87"/><path d="M76.8263 28.6732L74.7344 25.805H74.0648V28.5843H72.6426V21.2539H74.9418C76.6841 21.2539 77.7211 22.1072 77.7211 23.5413C77.7211 24.5428 77.2174 25.2539 76.2633 25.6154L78.2959 28.3472L76.8204 28.6791L76.8263 28.6732ZM74.0707 24.6613H74.9359C75.8189 24.6613 76.3048 24.2702 76.3048 23.5472C76.3048 22.6821 75.5581 22.4984 74.9359 22.4984H74.0707V24.6613Z" fill="#3C5D87"/><path d="M82.8814 28.5843H81.4414V21.2539H82.8814V28.5843Z" fill="#3C5D87"/><path d="M89.348 28.5863H87.914V22.53H85.6621V21.25H91.5229L91.7125 22.53H89.348V28.5863Z" fill="#3C5D87"/><path d="M95.77 28.5843H94.3359V21.2539H95.77V28.5843Z" fill="#3C5D87"/><path d="M101.697 28.6822C100.92 28.6822 100.031 28.4925 99.2018 28.137L99.1484 28.1133L99.3558 26.8096L99.4447 26.857C100.18 27.2422 101.086 27.4851 101.75 27.4851C102.556 27.4851 103.083 27.1296 103.083 26.5844C103.083 26.0392 102.74 25.8259 101.714 25.4762C100.18 24.937 99.3973 24.457 99.3973 23.2955C99.3973 22.0333 100.423 21.1562 101.88 21.1562C102.621 21.1562 103.368 21.3103 103.99 21.5888L104.043 21.6125L103.836 22.9459L103.747 22.8985C103.065 22.5429 102.437 22.3711 101.839 22.3711C101.205 22.3711 100.719 22.7029 100.719 23.1474C100.719 23.6392 101.051 23.8229 102.188 24.214C103.628 24.7177 104.405 25.2155 104.405 26.4363C104.405 27.7814 103.314 28.6881 101.697 28.6881V28.6822Z" fill="#3C5D87"/><path d="M113.536 28.5843H112.102V25.4258H108.95V28.5843H107.527V21.2539H108.95V24.1161H112.102V21.2539H113.536V28.5843Z" fill="#3C5D87"/><path d="M124.553 28.7203C122.444 28.7203 121.021 27.1973 121.021 24.9336C121.021 22.6699 122.444 21.1055 124.553 21.1055C125.389 21.1055 126.064 21.2832 126.663 21.6684L126.704 21.6921L126.479 23.0314L126.384 22.9603C125.804 22.5218 125.241 22.3203 124.601 22.3203C123.279 22.3203 122.491 23.2921 122.491 24.9158C122.491 26.5395 123.309 27.5055 124.63 27.5055C125.264 27.5055 125.922 27.2803 126.533 26.8536L126.627 26.7884L126.823 28.0447L126.781 28.0684C126.147 28.4892 125.359 28.7203 124.559 28.7203H124.553Z" fill="#3C5D87"/><path d="M132.979 28.7183C131.219 28.7183 129.447 27.4146 129.447 24.9197C129.447 22.4249 131.219 21.1094 132.979 21.1094C134.739 21.1094 136.493 22.4131 136.493 24.9079C136.493 27.4027 134.721 28.7242 132.979 28.7242V28.7183ZM132.979 22.342C131.735 22.342 130.893 23.3731 130.893 24.902C130.893 26.4309 131.77 27.4975 132.979 27.4975C134.188 27.4975 135.047 26.4605 135.047 24.9197C135.047 23.379 134.176 22.342 132.979 22.342Z" fill="#3C5D87"/><path d="M143.973 28.5843H139.635V21.2539H141.057V27.3339H143.771L143.973 28.5902V28.5843Z" fill="#3C5D87"/><path d="M149.496 28.7226C147.624 28.7226 146.504 27.5967 146.504 25.7181V21.25H147.926V25.6589C147.926 26.8381 148.489 27.4841 149.508 27.4841C150.528 27.4841 151.102 26.8619 151.102 25.6885V21.25H152.542V25.6589C152.542 27.5789 151.399 28.7226 149.491 28.7226H149.496Z" fill="#3C5D87"/><path d="M161.051 28.608H159.676L157.72 23.0495L157.312 28.5843H156.008L156.589 21.2539H158.52L160.44 26.8717L162.384 21.2539H164.274L164.855 28.5843H163.433L163.012 23.0495L161.051 28.608Z" fill="#3C5D87"/><path d="M171.107 28.5843H168.695V21.2539H171.089C172.636 21.2539 173.561 21.965 173.561 23.1561C173.561 23.8613 173.252 24.3769 172.648 24.7028C173.466 24.9991 173.886 25.5739 173.886 26.4035C173.886 27.8139 172.903 28.5902 171.107 28.5902V28.5843ZM170.064 27.3872H171.119C172.073 27.3872 172.535 27.0613 172.535 26.3976C172.535 25.6924 172.061 25.3369 171.131 25.3369H170.058V27.3872H170.064ZM170.064 24.1695H170.995C171.812 24.1695 172.221 23.8672 172.221 23.2628C172.221 22.9191 172.103 22.4569 171.036 22.4569H170.064V24.1695Z" fill="#3C5D87"/><path d="M178.924 28.5843H177.484V21.2539H178.924V28.5843Z" fill="#3C5D87"/><path d="M187.552 28.7196L186.841 26.7818H183.765L183.096 28.5833H181.691L184.583 21.1641H186.1L188.957 28.4055L187.546 28.7196H187.552ZM184.234 25.5137H186.361C186.231 25.1404 185.697 23.7004 185.3 22.6396L184.228 25.5137H184.234Z" fill="#3C5D87"/></svg>