<svg width="32" height="33" viewBox="0 0 32 33" fill="none" xmlns="http://www.w3.org/2000/svg"><path d="M25.7539 27.3513L24.8956 29.6051C24.7145 30.0804 24.375 30.4787 23.9344 30.7329C23.4938 30.9871 22.9791 31.0816 22.4769 31.0006L20.0961 30.6194C19.9422 30.5951 19.7849 30.6035 19.6343 30.6438C19.4838 30.6841 19.3434 30.7555 19.2222 30.8534L17.3519 32.3738C16.9577 32.695 16.4648 32.8704 15.9564 32.8704C15.4479 32.8704 14.955 32.695 14.5609 32.3738L12.6905 30.8534C12.5691 30.7552 12.4283 30.6836 12.2774 30.6433C12.1264 30.603 11.9687 30.5948 11.8144 30.6194L9.43361 31.0006C8.93145 31.0816 8.4167 30.9871 7.97612 30.7329C7.53553 30.4787 7.19605 30.0804 7.01488 29.6051L6.15662 27.3513C6.10088 27.2061 6.01535 27.0741 5.90555 26.9639C5.79574 26.8537 5.66409 26.7678 5.51905 26.7115L3.26529 25.8533C2.78974 25.6724 2.39117 25.333 2.13692 24.8923C1.88267 24.4517 1.78831 23.9367 1.86978 23.4345L2.25098 21.0537C2.27676 20.9005 2.27024 20.7437 2.23185 20.5932C2.19346 20.4427 2.12405 20.3019 2.02806 20.1798L0.496569 18.3095C0.175387 17.9153 0 17.4224 0 16.914C0 16.4055 0.175387 15.9126 0.496569 15.5185L2.01691 13.6481C2.1129 13.526 2.18231 13.3852 2.2207 13.2348C2.25909 13.0843 2.26561 12.9274 2.23984 12.7743L1.86978 10.3934C1.78831 9.89124 1.88267 9.37631 2.13692 8.93563C2.39117 8.49495 2.78974 8.15553 3.26529 7.97471L5.51905 7.11422C5.66444 7.0592 5.79646 6.9739 5.90638 6.86399C6.0163 6.75407 6.1016 6.62204 6.15662 6.47666L7.01711 4.22289C7.19793 3.74734 7.53734 3.34878 7.97802 3.09452C8.4187 2.84027 8.93364 2.74591 9.43584 2.82739L11.8144 3.20859C11.9676 3.23436 12.1244 3.22784 12.2749 3.18945C12.4254 3.15106 12.5662 3.08165 12.6883 2.98566L14.5586 1.46532C14.9528 1.14414 15.4457 0.96875 15.9541 0.96875C16.4626 0.96875 16.9555 1.14414 17.3497 1.46532L19.22 2.98566C19.3421 3.08165 19.4829 3.15106 19.6334 3.18945C19.7839 3.22784 19.9407 3.23436 20.0939 3.20859L22.4747 2.82739C22.9769 2.74591 23.4918 2.84027 23.9325 3.09452C24.3732 3.34878 24.7126 3.74734 24.8934 4.22289L25.7517 6.47666C25.8079 6.62169 25.8939 6.75335 26.0041 6.86315C26.1143 6.97296 26.2462 7.05848 26.3915 7.11422L28.6452 7.97471C29.1205 8.15588 29.5188 8.49537 29.773 8.93595C30.0272 9.37654 30.1218 9.89128 30.0407 10.3934L29.6618 12.772C29.6375 12.926 29.6458 13.0833 29.6862 13.2338C29.7265 13.3843 29.7979 13.5247 29.8958 13.6459L31.4162 15.5162C31.7374 15.9104 31.9127 16.4033 31.9127 16.9118C31.9127 17.4202 31.7374 17.9131 31.4162 18.3073L29.8958 20.1776C29.7979 20.2988 29.7265 20.4392 29.6862 20.5897C29.6458 20.7402 29.6375 20.8975 29.6618 21.0515L30.043 23.4323C30.124 23.9345 30.0295 24.4492 29.7753 24.8898C29.5211 25.3304 29.1228 25.6699 28.6475 25.851L26.3937 26.7093C26.248 26.7655 26.1158 26.8517 26.0056 26.9623C25.8954 27.0729 25.8096 27.2054 25.7539 27.3513Z" fill="#FFC800"/><path d="M22.1315 14.7772C22.7158 16.0753 22.8294 17.5365 22.4527 18.9094C22.076 20.2822 21.2326 21.4809 20.0676 22.299C18.9026 23.1172 17.4889 23.5038 16.0697 23.3922C14.6505 23.2807 13.3145 22.678 12.2917 21.6878C11.2114 22.0827 10.0349 22.1316 8.92561 21.8276C7.81629 21.5236 6.8291 20.8818 6.10105 19.9914C6.02906 19.9025 5.97913 19.7979 5.95532 19.6861C5.93152 19.5742 5.93453 19.4583 5.9641 19.3479C5.99367 19.2374 6.04896 19.1356 6.12546 19.0506C6.20195 18.9656 6.29748 18.8999 6.40422 18.8589L9.36689 17.7131L7.86215 15.5663C7.66708 15.287 7.5441 14.9638 7.50417 14.6254C7.46423 14.287 7.50856 13.9441 7.63323 13.627C7.7579 13.3099 7.95903 13.0286 8.21872 12.808C8.4784 12.5875 8.78859 12.4346 9.12167 12.3629C10.8159 12.0018 11.9053 11.6518 12.3897 11.3129C12.8742 10.9741 13.5638 10.0824 14.4585 8.63782C14.639 8.34802 14.8885 8.10751 15.1847 7.93783C15.481 7.76814 15.8147 7.67458 16.156 7.66552C16.4973 7.65646 16.8355 7.7322 17.1403 7.88593C17.4451 8.03967 17.7071 8.26661 17.9027 8.54643L19.3985 10.6776L21.4538 8.31235C21.5287 8.22592 21.623 8.15843 21.7289 8.11541C21.8349 8.07239 21.9495 8.05507 22.0635 8.06485C22.1774 8.07464 22.2874 8.11125 22.3845 8.17171C22.4816 8.23216 22.5629 8.31473 22.622 8.41267C23.207 9.39445 23.4739 10.5332 23.3861 11.6727C23.2983 12.8122 22.8601 13.8966 22.1315 14.7772ZM16.8215 24.9247L15.232 24.7018C14.9645 24.663 14.6925 24.7322 14.476 24.894C14.2594 25.0558 14.116 25.2969 14.0773 25.5645C14.0386 25.832 14.1077 26.104 14.2695 26.3205C14.4313 26.5371 14.6725 26.6805 14.94 26.7192L16.5294 26.9422C16.7973 26.9794 17.0689 26.9087 17.2847 26.7457C17.5004 26.5826 17.6425 26.3406 17.6797 26.0727C17.717 25.8049 17.6463 25.5333 17.4833 25.3175C17.3202 25.1018 17.0782 24.9597 16.8103 24.9225L16.8215 24.9247ZM25.1745 17.7911C24.9105 17.7349 24.635 17.7857 24.4085 17.9324C24.1819 18.0791 24.0229 18.3097 23.9662 18.5736L23.634 20.1541C23.6018 20.2867 23.5965 20.4244 23.6185 20.5591C23.6406 20.6938 23.6894 20.8227 23.7622 20.9381C23.8349 21.0536 23.9302 21.1532 24.0422 21.2311C24.1542 21.3091 24.2808 21.3637 24.4143 21.3918C24.5479 21.4199 24.6857 21.4208 24.8196 21.3946C24.9535 21.3684 25.0808 21.3156 25.1939 21.2392C25.3071 21.1629 25.4037 21.0646 25.4781 20.9502C25.5525 20.8357 25.6031 20.7076 25.627 20.5732L25.9592 19.0127C26.0161 18.7476 25.9654 18.4707 25.8182 18.2429C25.6711 18.0151 25.4396 17.855 25.1745 17.7978V17.7911Z" fill="white"/></svg>