<svg width="239" height="271" viewBox="0 0 239 271" fill="none" xmlns="http://www.w3.org/2000/svg"><path d="M1.60574 68.4534C5.63405 59.1983 16.2446 54.6042 25.8215 58.1617L29.6694 59.5911C30.7013 59.9744 31.2817 61.1542 30.8133 62.2305C26.7849 71.4857 16.1744 76.0797 6.59751 72.5223L2.74964 71.0929C1.71767 70.7096 1.13725 69.5298 1.60574 68.4534Z" fill="#FFD9AB" stroke="#083156" stroke-width="2.02059"/><path d="M20.0405 50.2137C26.3486 52.4575 29.8002 59.1444 28.1286 65.5039C27.8219 66.6704 26.5913 67.1919 25.5628 66.8261L23.3841 66.0511C17.0759 63.8074 13.6244 57.1204 15.296 50.761C15.6026 49.5945 16.8333 49.0729 17.8618 49.4387L20.0405 50.2137Z" fill="#FFD9AB" stroke="#083156" stroke-width="2.02059"/><path d="M133.086 214.528C132.085 211.901 129.144 210.583 126.517 211.583C123.89 212.584 122.572 215.524 123.572 218.151L129.715 234.282C130.716 236.909 133.656 238.227 136.283 237.227C138.91 236.226 140.229 233.286 139.229 230.659L133.086 214.528Z" fill="#083156" stroke="#083156" stroke-width="2.02059"/><path d="M75.7327 247.401C74.2453 245.016 71.1058 244.288 68.7203 245.775C66.3349 247.262 65.6069 250.402 67.0942 252.787L76.2267 267.434C77.7141 269.819 80.8536 270.547 83.239 269.06C85.6245 267.573 86.3525 264.433 84.8651 262.048L75.7327 247.401Z" fill="#083156" stroke="#083156" stroke-width="2.02059"/><path fill-rule="evenodd" clip-rule="evenodd" d="M71.406 235.746C70.0984 234.701 69.8854 232.794 70.9303 231.486L77.3949 223.396C90.8609 206.545 97.1898 185.318 99.3015 173.188L101.078 162.986C101.365 161.337 102.934 160.233 104.583 160.52L124.988 164.072C126.637 164.359 127.741 165.929 127.454 167.578L125.678 177.78C123.117 192.488 115.566 218.515 98.3102 240.11L91.8456 248.199C90.8007 249.507 88.8935 249.72 87.5858 248.675L71.406 235.746Z" fill="#FFD9AB" stroke="#083156" stroke-width="2.02059" stroke-linecap="square"/><path fill-rule="evenodd" clip-rule="evenodd" d="M126.387 137.369C126.934 135.495 128.898 134.419 130.772 134.966L140.228 137.725C147.353 139.804 154.494 143.746 160.556 148.563C166.591 153.358 172.363 159.664 175.947 167.042C179.595 174.553 181.344 184.13 177.172 193.75C173.102 203.136 164.576 209.795 153.697 214.312L144.6 218.09C142.796 218.838 140.727 217.983 139.978 216.18L132.423 197.985C131.674 196.182 132.529 194.113 134.333 193.364L143.43 189.586C150.678 186.577 152.302 183.808 152.61 183.098C152.816 182.621 153.173 181.433 151.865 178.74C150.492 175.914 147.743 172.578 143.901 169.524C140.084 166.492 135.99 164.378 132.728 163.426L123.272 160.666C121.397 160.119 120.321 158.156 120.868 156.281L126.387 137.369Z" fill="#FFD9AB" stroke="#083156" stroke-width="2.02059" stroke-linecap="square"/><path fill-rule="evenodd" clip-rule="evenodd" d="M61.9547 97.0446L28.9969 93.2472L36.6378 74.1521L83.773 93.2229L61.9547 97.0446Z" fill="#C7A185" stroke="#083156" stroke-width="2.02059"/><path d="M32.6303 89.6378L31.5297 96.5756" stroke="#083156" stroke-width="2.02059" stroke-linecap="round"/><path fill-rule="evenodd" clip-rule="evenodd" d="M30.7651 17.3695C30.7527 17.4165 30.7418 17.4639 30.7325 17.5115L28.8142 64.3057L8.17948 109.31C2.28386 123.559 28.6122 128.658 30.5798 115.481C30.5922 115.434 30.6031 115.387 30.6124 115.339L36.6479 66.3684L53.2436 23.8744C56.8093 12.6046 33.4688 7.10145 30.7651 17.3695Z" fill="white" stroke="#083156" stroke-width="2.02059"/><path d="M30.0386 58.4812C33.8643 57.2641 36.0269 57.4161 39.0004 60.1708C40.0793 61.153 39.6377 62.3831 39.4445 63.1172L37.1697 71.7564C36.9764 72.4904 36.2246 72.9288 35.4906 72.7355C32.5253 70.2483 30.6735 69.5915 26.8514 70.4607C26.1173 70.2674 25.679 69.5157 25.8723 68.7816L28.147 60.1424C28.3403 59.4084 28.9384 58.8832 30.0386 58.4812Z" fill="#FFD9AB" stroke="#083156" stroke-width="2.02059"/><path fill-rule="evenodd" clip-rule="evenodd" d="M41.8753 74.8553C42.2955 75.4866 42.7337 76.145 43.1824 76.8068C44.2002 78.3076 43.8085 80.3494 42.3076 81.3671C40.8068 82.3849 38.765 81.9932 37.7473 80.4924C37.2059 79.694 36.7314 78.9803 36.3027 78.3355C35.1484 76.5995 34.8595 75.1782 33.9482 77.5167C33.2897 79.2063 31.3862 80.0422 29.6966 79.3838C28.0069 78.7253 27.171 76.8218 27.8295 75.1322C28.6443 73.0412 29.4903 71.1918 30.5196 69.9613C31.0616 69.3133 31.88 68.5584 33.0475 68.2078C34.3275 67.8235 35.5189 68.0723 36.4448 68.5409C37.2818 68.9645 37.9412 69.5808 38.431 70.1098C38.9425 70.6622 39.4371 71.3065 39.9108 71.9666C40.4875 72.77 41.1549 73.7728 41.8753 74.8553Z" fill="#C7A185" stroke="#083156" stroke-width="2.02059" stroke-linecap="round"/><path fill-rule="evenodd" clip-rule="evenodd" d="M39.3514 75.7661L53.9915 82.8942L46.222 95.135L35.591 90.5752C35.9497 83.8815 35.478 79.5227 39.3514 75.7661Z" fill="#C7A185"/><path fill-rule="evenodd" clip-rule="evenodd" d="M49.8912 71.5042C50.6554 69.626 53.0132 69.0148 54.6298 70.2389C72.4333 83.7193 92.3343 92.062 115.017 87.6766C116.982 87.2966 118.865 88.7829 118.825 90.7844L118.433 110.723C118.406 112.104 117.449 113.295 116.101 113.596C90.6819 119.264 63.9479 118.684 39.7002 102.877C38.5099 102.101 38.0598 100.583 38.5953 99.2671L49.8912 71.5042Z" fill="#083156"/><path d="M233.795 51.1338C232.915 49.4689 230.931 48.7633 229.22 49.441C229.619 48.2239 229.366 46.8326 228.437 45.8228C227.07 44.3365 224.757 44.2397 223.271 45.6067L220.259 48.3771C219.917 46.6467 218.455 45.2866 216.61 45.1511C214.397 44.9884 212.47 46.651 212.308 48.8646L211.954 53.6813C211.791 53.8536 211.635 54.034 211.485 54.2226L201.202 67.1932C200.895 67.4782 200.605 67.7898 200.338 68.1276L189.869 81.3318C187.032 84.9104 187.633 90.1114 191.212 92.9486C194.79 95.7858 199.991 95.1847 202.828 91.6061L213.112 78.6355C213.419 78.3506 213.708 78.0389 213.976 77.7012L224.293 64.6881L231.001 63.2423C232.975 62.8168 234.231 60.8716 233.805 58.8976C233.553 57.7281 232.768 56.8108 231.759 56.3459L232.271 56.0752C234.056 55.1314 234.739 52.9191 233.795 51.1338Z" fill="#C7A185" stroke="#083156" stroke-width="2.02059"/><path d="M216.557 60.4145C218.698 57.1492 221.593 58.12 221.593 58.12" stroke="#083156" stroke-width="1.35103" stroke-linecap="round"/><path fill-rule="evenodd" clip-rule="evenodd" d="M202.882 52.0013C201.332 50.6936 198.96 51.2485 198.098 53.0837C188.601 73.295 174.859 89.9324 152.737 96.5932C150.821 97.1704 149.845 99.3615 150.81 101.115L160.426 118.587C161.092 119.797 162.492 120.406 163.826 120.046C188.966 113.248 212.367 100.308 226.488 75.0415C227.181 73.8012 226.874 72.2481 225.788 71.3317L202.882 52.0013Z" fill="#083156"/><path fill-rule="evenodd" clip-rule="evenodd" d="M163.545 91.8769C164.147 91.796 164.769 91.753 165.363 91.8803C168.688 92.5928 167.077 95.5068 166.656 99.6651L164.889 117.117C163.342 132.396 167.788 143.563 174.681 162.121C177.774 171.291 71.9294 204.398 82.8743 186.612C93.2329 172.149 102.483 144.059 106.56 112.216L108.354 94.49C108.798 90.1025 112.678 88.9015 117.072 89.2707C135.517 91.9017 146.796 94.1268 163.545 91.8769Z" fill="#083156"/><path d="M118.143 88.6824C118.563 88.7692 118.982 88.856 119.4 88.9426C133.59 91.8822 146.896 94.6383 161.585 93.1205L138.336 115.867C136.989 116.846 135.241 116.595 134.358 115.468L118.143 88.6824Z" fill="#FFE999" stroke="#083156" stroke-width="2.02059"/><path fill-rule="evenodd" clip-rule="evenodd" d="M142.278 68.5147C147.077 69.1302 150.468 73.5191 149.852 78.3176L147.824 94.1313C147.209 98.9298 142.82 102.321 138.021 101.705C133.223 101.09 129.832 96.7011 130.447 91.9026L132.475 76.0889C133.091 71.2904 137.48 67.8993 142.278 68.5147Z" fill="#C7A185" stroke="#083156" stroke-width="2.02059" stroke-linecap="round"/><path fill-rule="evenodd" clip-rule="evenodd" d="M86.0082 79.0722C84.7526 79.331 83.525 78.5229 83.2662 77.2673C81.0892 66.7025 85.6112 44.1999 117.482 33.4039C118.696 32.9926 120.014 33.6434 120.425 34.8576C120.836 36.0718 120.186 37.3896 118.971 37.8009C89.2588 47.8658 86.1218 68.1228 87.8131 76.3303C88.0719 77.5859 87.2638 78.8135 86.0082 79.0722Z" fill="#FFE999" stroke="#083156" stroke-width="2.02059" stroke-linecap="round"/><path fill-rule="evenodd" clip-rule="evenodd" d="M126.39 2.78743C128.51 1.07321 131.793 1.28596 133.573 3.25292L168.986 44.8906C170.63 46.7073 170.384 49.3665 168.426 50.9499L128.112 83.5486C125.992 85.2628 122.709 85.0501 120.93 83.0831L85.5161 41.4454C83.8721 39.6286 84.1177 36.9694 86.0758 35.3861L126.39 2.78743Z" fill="#3C5D87" stroke="#083156" stroke-width="2.02059" stroke-linecap="square"/><path d="M131.491 33.6127C118.88 35.2838 110.012 46.8614 111.683 59.4722L112.173 63.1713C109.126 63.8928 107.061 66.8202 107.481 69.9913C107.929 73.3727 111.034 75.7506 114.415 75.3025L114.699 75.2649C117.493 83.2703 122.677 88.9096 131.83 87.6968L151.913 85.0355C162.473 83.6362 166.155 76.8186 166.741 68.3621C169.971 67.7829 172.204 64.7584 171.769 61.4724C171.372 58.4832 168.9 56.2781 165.996 56.1164L165.496 52.3413C163.825 39.7306 152.247 30.8623 139.637 32.5334L131.491 33.6127Z" fill="#C7A185" stroke="#083156" stroke-width="2.02059"/><path fill-rule="evenodd" clip-rule="evenodd" d="M137.822 64.2217C137.719 64.6744 138.003 65.1246 138.456 65.2274C138.846 65.316 139.267 65.3958 139.658 65.4697C139.902 65.5159 140.134 65.5598 140.338 65.6021C140.917 65.722 141.391 65.8487 141.777 66.0286C142.149 66.2023 142.414 66.4145 142.6 66.6989C142.789 66.9874 142.941 67.4178 142.972 68.0988C143.003 68.7729 142.611 69.435 141.859 69.9377C141.106 70.4401 140.113 70.6901 139.234 70.5753C138.774 70.5152 138.352 70.8395 138.292 71.2997C138.232 71.76 138.556 72.1818 139.016 72.2419C140.326 72.413 141.724 72.0487 142.792 71.3354C143.86 70.6224 144.717 69.4676 144.651 68.0226C144.611 67.1237 144.4 66.38 144.006 65.778C143.609 65.172 143.07 64.7773 142.488 64.5055C141.918 64.2397 141.286 64.0819 140.679 63.9562C140.408 63.9002 140.156 63.8527 139.907 63.8059C139.552 63.7393 139.206 63.6742 138.828 63.5882C138.375 63.4855 137.925 63.7691 137.822 64.2217Z" fill="#083156"/><path d="M131.491 33.6127C118.88 35.2838 110.012 46.8614 111.683 59.4722L112.173 63.1713C109.126 63.8928 107.061 66.8203 107.481 69.9913C107.929 73.3727 111.034 75.7506 114.415 75.3025L114.699 75.2649C117.493 83.2703 122.677 88.9096 131.83 87.6968L151.913 85.0355C162.473 83.6362 166.155 76.8186 166.741 68.3621C169.971 67.7829 172.204 64.7584 171.769 61.4724C171.372 58.4832 168.9 56.2781 165.996 56.1164L165.496 52.3413C163.825 39.7306 152.247 30.8623 139.637 32.5334L131.491 33.6127Z" stroke="#083156" stroke-width="2.02059"/><path d="M141.51 61.8996C139.006 51.3074 153.712 51.6855 154.387 59.5236" stroke="#083156" stroke-width="2.02059" stroke-linecap="round"/><path d="M121.25 64.5858C119.317 58.2099 132.745 52.1246 134.128 62.2098" stroke="#083156" stroke-width="2.02059" stroke-linecap="round"/><path fill-rule="evenodd" clip-rule="evenodd" d="M146.622 74.9402C146.95 75.3249 146.905 75.9027 146.52 76.2308C143.88 78.4825 140.937 78.8818 138.381 78.4746C135.854 78.072 133.675 76.8819 132.416 75.89C132.018 75.5771 131.95 75.0015 132.263 74.6044C132.576 74.2072 133.151 74.1389 133.549 74.4517C134.606 75.2849 136.502 76.3212 138.669 76.6664C140.806 77.0069 143.177 76.6755 145.332 74.8377C145.716 74.5096 146.294 74.5555 146.622 74.9402Z" fill="#083156"/><path fill-rule="evenodd" clip-rule="evenodd" d="M99.8352 43.6231C100.448 46.635 102.927 48.674 105.772 48.8671L104.091 50.3245C96.5265 59.736 109.311 69.6652 116.824 62.2781L145.851 34.9642C149.943 31.4169 148.66 25.7391 145.486 22.9756C134.393 13.3182 96.3279 26.3846 99.8352 43.6231Z" fill="#083156"/><path fill-rule="evenodd" clip-rule="evenodd" d="M166.012 56.2231C163.559 55.5636 161.438 54.1522 159.827 52.8604C157.674 51.1346 155.609 48.946 153.766 46.7385C150.071 42.3111 146.756 37.182 144.803 33.7753C144.545 33.3256 144.353 32.8561 144.225 32.3779C154.945 33.0951 164.031 41.2767 165.497 52.337L166.012 56.2231Z" fill="#083156"/><path d="M138.038 49.9805C139.793 48.4097 144.852 45.6516 151.052 47.1855" stroke="#083156" stroke-width="2.02059" stroke-linecap="round"/><path d="M35.1016 76.416C36.6945 79.2872 38.1793 81.1851 40.5329 82.3886" stroke="#083156" stroke-width="2.02059" stroke-linecap="round"/><path d="M9.15263 118.077C7.56838 112.293 14.9202 106.013 25.0707 115.206" stroke="#083156" stroke-width="2.02059" stroke-linecap="round"/><path d="M224.908 52.5772L229.335 49.2236" stroke="#083156" stroke-width="2.02059" stroke-linecap="round"/><path d="M226.789 57.34L232.283 56.5341" stroke="#083156" stroke-width="2.02059" stroke-linecap="round"/><path d="M218.681 50.0083L222.685 46.16" stroke="#083156" stroke-width="2.02059" stroke-linecap="round"/><path d="M46.9876 88.4985L53.3082 74.059C53.4416 73.7541 53.8196 73.6524 54.0809 73.8585C64.239 81.8678 88.2552 96.1617 107.229 92.2766" stroke="#FEF6F0" stroke-width="2.02059" stroke-linecap="round"/><path d="M109.068 114.165C106.177 142.772 99.3013 170.902 86.4297 187.796" stroke="#FEF6F0" stroke-width="2.02059" stroke-linecap="round"/><path d="M201.138 54.4287C192.848 73.7236 175.269 93.4472 160.69 95.4481" stroke="#FEF6F0" stroke-width="2.02059" stroke-linecap="round"/></svg>