<svg width="217" height="271" viewBox="0 0 217 271" fill="none" xmlns="http://www.w3.org/2000/svg"><path fill-rule="evenodd" clip-rule="evenodd" d="M83.5882 95.5111C88.1458 94.6403 92.5464 97.629 93.4173 102.187L96.0328 115.875C96.9036 120.433 93.9149 124.833 89.3573 125.704C84.7997 126.575 80.3991 123.586 79.5283 119.029L76.9127 105.34C76.0419 100.783 79.0306 96.3819 83.5882 95.5111Z" fill="#FFE999" stroke="#083156" stroke-width="2.24042" stroke-linecap="round"/><rect x="79.2891" y="111.923" width="14.5632" height="17.1499" transform="rotate(-10.8174 79.2891 111.923)" fill="#FFE999"/><path d="M202.971 55.2491C196.212 48.0236 184.91 47.2137 177.175 53.5967L174.174 56.0723C173.234 56.848 173.05 58.3001 173.945 59.2566C180.704 66.4821 192.006 67.292 199.742 60.909L202.742 58.4334C203.682 57.6578 203.866 56.2057 202.971 55.2491Z" fill="#FFD9AB" stroke="#083156" stroke-width="2.24042"/><path d="M179.971 44.3832C174.84 48.4985 173.762 55.793 177.295 61.1848C178.035 62.3155 179.524 62.4045 180.465 61.6503L182.129 60.315C187.261 56.1997 188.339 48.9052 184.806 43.5134C184.065 42.3827 182.577 42.2937 181.636 43.0479L179.971 44.3832Z" fill="#FFD9AB" stroke="#083156" stroke-width="2.24042"/><path fill-rule="evenodd" clip-rule="evenodd" d="M157.436 104.432L185.592 87.1801L172.388 71.9673L134.903 104.756L157.436 104.432Z" fill="#9A755E" stroke="#083156" stroke-width="2.24042"/><path fill-rule="evenodd" clip-rule="evenodd" d="M159.577 17.5404C159.604 17.5799 159.629 17.6202 159.653 17.6613L176.462 60.3416L210.014 95.3527C220.047 106.643 197.325 119.819 191.271 108.259C191.244 108.22 191.219 108.179 191.195 108.138L169.877 64.767L140.869 30.7811C133.949 21.4993 153.777 8.90845 159.577 17.5404Z" fill="white" stroke="#083156" stroke-width="2.24042"/><path d="M173.459 55.3482C169.528 55.4513 167.576 56.2867 165.71 59.7908C165.027 61.0463 165.831 62.0426 166.245 62.6597L171.126 69.9223C171.54 70.5393 172.377 70.7034 172.994 70.2888C174.938 67.0348 176.441 65.8321 180.257 65.4083C180.874 64.9936 181.038 64.1572 180.623 63.5402L175.743 56.2776C175.328 55.6605 174.606 55.3667 173.459 55.3482Z" fill="#FFD9AB" stroke="#083156" stroke-width="2.24042"/><path fill-rule="evenodd" clip-rule="evenodd" d="M167.768 74.3006C167.582 75.0197 167.388 75.7697 167.186 76.5262C166.726 78.2419 167.744 80.0052 169.46 80.4646C171.176 80.9241 172.939 79.9057 173.399 78.1901C173.643 77.2774 173.853 76.4646 174.042 75.7303C174.552 73.7532 174.363 72.3453 175.958 74.2162C177.11 75.568 179.14 75.7299 180.491 74.5778C181.843 73.4257 182.005 71.3959 180.853 70.0441C179.427 68.3712 178.05 66.9318 176.703 66.124C175.993 65.6986 174.993 65.263 173.8 65.3137C172.492 65.3694 171.47 65.9824 170.764 66.7134C170.126 67.3743 169.713 68.1564 169.43 68.8032C169.134 69.4786 168.884 70.2337 168.658 70.9967C168.382 71.9252 168.087 73.0675 167.768 74.3006Z" fill="#9A755E" stroke="#083156" stroke-width="2.24042" stroke-linecap="round"/><path fill-rule="evenodd" clip-rule="evenodd" d="M170.397 74.332L159.141 85.6309L166.662 94.9665L178.634 86.826C176.152 80.7479 175.188 76.5633 170.397 74.332Z" fill="#9A755E"/><path d="M174.535 73.5693C173.984 76.7377 173.22 78.9708 171.429 80.8406" stroke="#083156" stroke-width="2.24042" stroke-linecap="round"/><path d="M211.93 103.778C211.538 97.9179 202.718 94.4694 196.279 106.236" stroke="#083156" stroke-width="2.24042" stroke-linecap="round"/><path fill-rule="evenodd" clip-rule="evenodd" d="M85.6855 155.705C86.1974 155.561 87.3575 155.18 88.6106 154.465L73.6234 128.194C75.8745 126.909 78.1717 126.394 78.6192 126.294C78.6435 126.288 78.6623 126.284 78.6754 126.281C79.3888 126.114 80.2124 125.952 80.806 125.835C80.8688 125.822 80.9289 125.81 80.9861 125.799C82.3788 125.524 83.9342 125.21 85.8187 124.707C89.5288 123.718 94.77 121.925 101.11 118.313C113.221 111.414 130.385 97.2809 148.46 67.3015C149.512 65.5569 152.02 65.4342 153.201 67.0941L173.497 95.6221C174.134 96.5167 174.186 97.7099 173.625 98.6532C153.687 132.132 127.279 147.475 86.8542 155.47C86.1853 155.602 85.8656 155.666 85.6855 155.705ZM85.5615 155.732C85.5948 155.724 85.6346 155.716 85.6855 155.705C85.3869 155.788 85.3088 155.791 85.5615 155.732Z" fill="#083156"/><path fill-rule="evenodd" clip-rule="evenodd" d="M57.5692 203.144C56.4667 204.125 56.1675 205.72 56.815 207.046L68.4013 224.386C69.208 226.038 68.5227 228.031 66.8706 228.838L53.4739 237.843C51.8219 238.65 49.8287 237.964 49.022 236.312L36.0127 209.669C33.109 203.722 34.1206 196.368 39.0688 191.457C43.4404 187.118 56.9059 174.22 70.6827 166.829L78.8615 162.441C80.4816 161.572 82.4995 162.181 83.3686 163.801L92.1439 180.159C93.013 181.779 92.4042 183.796 90.7842 184.666L82.6053 189.053C75.9299 192.634 62.8888 198.412 57.5692 203.144Z" fill="#3C5D87"/><path d="M40.809 191.705C36.0738 196.405 35.1056 203.443 37.8844 209.134L50.3338 234.63" stroke="#FEF6F0" stroke-width="2.24042" stroke-linecap="round"/><path fill-rule="evenodd" clip-rule="evenodd" d="M57.5692 203.144C56.4667 204.125 56.1675 205.72 56.815 207.046L68.4013 224.386C69.208 226.038 68.5227 228.031 66.8706 228.838L53.4739 237.843C51.8219 238.65 49.8287 237.964 49.022 236.312L36.0127 209.669C33.109 203.722 34.1206 196.368 39.0688 191.457C43.4404 187.118 56.9059 174.22 70.6827 166.829L78.8615 162.441C80.4816 161.572 82.4995 162.181 83.3686 163.801L92.1439 180.159C93.013 181.779 92.4042 183.796 90.7842 184.666L82.6053 189.053C75.9299 192.634 62.8888 198.412 57.5692 203.144Z" stroke="#083156" stroke-width="2.24042" stroke-linecap="square"/><path d="M67.9146 248.007L67.9145 248.008L67.9136 248.014L67.7745 249.116L67.7331 249.11C67.7126 249.218 67.6902 249.333 67.6656 249.454C67.4991 250.276 67.2326 251.409 66.8226 252.728C66.0137 255.331 64.5887 258.843 62.1188 262.107C60.463 264.296 57.3464 264.728 55.1578 263.072C52.9691 261.416 52.5372 258.3 54.193 256.111C55.7414 254.064 56.7309 251.712 57.3319 249.779C57.6268 248.83 57.8141 248.027 57.9252 247.48C57.9805 247.207 58.0162 247.001 58.0365 246.875C58.0463 246.814 58.0525 246.772 58.0555 246.752C58.0555 246.751 58.0556 246.751 58.0557 246.75L58.0575 246.737C58.4119 244.026 60.892 242.108 63.6077 242.451C66.3154 242.793 68.2376 245.254 67.9204 247.959C67.9181 247.986 67.9154 248.002 67.9147 248.006C67.9146 248.006 67.9146 248.007 67.9146 248.007C67.9146 248.007 67.9146 248.007 67.9146 248.007Z" fill="#FFE999" stroke="#083156" stroke-width="2.24042" stroke-linecap="round"/><path d="M116.571 258.246L116.571 258.247L116.567 258.252L116.566 258.254L115.968 259.187L115.932 259.164C115.877 259.24 115.818 259.319 115.756 259.402C115.272 260.047 114.572 260.921 113.671 261.898C111.894 263.824 109.205 266.287 105.709 268.103C103.348 269.33 100.44 268.411 99.2129 266.05C97.9859 263.689 98.9052 260.78 101.266 259.553C103.448 258.42 105.273 256.791 106.59 255.364C107.236 254.664 107.728 254.046 108.05 253.618C108.21 253.404 108.326 253.241 108.395 253.14L109.317 253.777L108.395 253.14C108.429 253.09 108.452 253.057 108.462 253.041L108.469 253.03C109.908 250.804 112.878 250.158 115.113 251.589C117.341 253.015 118 255.969 116.597 258.205C116.583 258.228 116.574 258.242 116.572 258.245C116.571 258.245 116.571 258.246 116.571 258.246C116.571 258.246 116.571 258.246 116.571 258.246Z" fill="#FFE999" stroke="#083156" stroke-width="2.24042" stroke-linecap="round"/><path fill-rule="evenodd" clip-rule="evenodd" d="M109.358 188.21C113.652 173.723 106.6 172.259 91.9613 169.89C90.1989 169.367 88.3467 170.371 87.8234 172.134L85.1759 181.028C80.3622 197.24 82.1085 211.878 84.9375 222.269C88.6629 233.302 95.1536 251.817 101.648 248.854L116.528 237.898C118.09 236.929 118.573 234.878 117.605 233.315C109.325 219.384 104.545 204.417 109.358 188.21Z" fill="#3C5D87"/><path fill-rule="evenodd" clip-rule="evenodd" d="M109.358 188.21C113.652 173.723 106.6 172.259 91.9613 169.89C90.1989 169.367 88.3467 170.371 87.8234 172.134L85.1759 181.028C80.3622 197.24 82.1085 211.878 84.9375 222.269C88.6629 233.302 95.1536 251.817 101.648 248.854L116.528 237.898C118.09 236.929 118.573 234.878 117.605 233.315C109.325 219.384 104.545 204.417 109.358 188.21Z" stroke="#083156" stroke-width="2.24042" stroke-linecap="square"/><path d="M84.2133 210.394C83.7973 207.593 83.3644 201.171 83.4841 198.31" stroke="#FEF6F0" stroke-width="1.51228" stroke-linecap="round"/><path d="M38.3496 188.99C48.2021 178.502 71.2278 161.352 63.558 125.304C79.5816 121.596 116.795 116.745 124.026 125.126C136.171 139.203 138.625 195.451 124.203 214.086C123.665 214.781 122.752 215.021 121.912 214.762L38.3496 188.99Z" fill="#083156"/><circle cx="18.0899" cy="107.937" r="11.2144" transform="rotate(26.1673 18.0899 107.937)" fill="#9A755E" stroke="#083156" stroke-width="2.24042"/><path fill-rule="evenodd" clip-rule="evenodd" d="M18.105 108.763C21.1683 106.279 25.6655 106.748 28.1498 109.811L35.6821 119.1C38.1663 122.163 37.6968 126.66 34.6335 129.144C31.5701 131.629 27.0729 131.159 24.5887 128.096L17.0564 118.808C14.5722 115.744 15.0417 111.247 18.105 108.763Z" fill="#9A755E"/><path fill-rule="evenodd" clip-rule="evenodd" d="M85.6659 125.575L52.1636 154.279C46.626 159.07 39.1915 160.848 31.3538 155.418L5.0653 135.571C3.90205 134.693 3.87381 132.955 5.00791 132.039L30.3917 111.547C31.38 110.75 32.8332 110.932 33.5936 111.949L48.9576 129.055L61.5116 121.482L85.6659 125.575Z" fill="#083156"/><path d="M31.6349 115.319L47.6187 133.264C47.801 133.468 48.1046 133.511 48.3362 133.365L60.8774 125.436" stroke="#FEF6F0" stroke-width="2.24042" stroke-linecap="round"/><path d="M31.5995 115.342L21.8062 123.002" stroke="white" stroke-width="2.24042" stroke-linecap="round"/><path d="M86.4869 138.516C83.5761 136.29 80.3955 134.305 77.2676 132.352C76.0581 131.597 74.8566 130.846 73.6816 130.089C70.0117 127.724 66.5476 125.261 63.6487 122.267C64.3429 122.146 65.0291 122.028 65.7077 121.911C82.7906 118.96 95.0918 116.835 110.217 112.348L90.9385 137.736C90.9381 137.737 90.9377 137.737 90.9374 137.738C89.7826 139.246 87.7798 139.505 86.4869 138.516Z" fill="#FFE999" stroke="#083156" stroke-width="2.24042"/><path fill-rule="evenodd" clip-rule="evenodd" d="M93.045 108.011L97.0742 125.177L82.2683 128.653L79.0456 110.602L93.045 108.011Z" fill="#FFE999"/><path d="M150.806 69.9584C140.967 89.9498 121.188 109.999 108.983 115.758" stroke="#FEF6F0" stroke-width="2.24042" stroke-linecap="round"/><path d="M100.078 9.63336C107 19.9875 102.447 35.1757 89.9099 43.5571C77.3724 51.9385 61.5976 50.3393 54.6757 39.9851C47.7539 29.631 52.3062 14.4428 64.8436 6.06142C77.381 -2.31998 93.1559 -0.720773 100.078 9.63336Z" fill="#083156"/><path d="M65.4508 43.9084C66.9973 55.5597 60.5043 66.0332 50.9482 67.3016C41.3921 68.57 32.3917 60.1531 30.8452 48.5018C29.2986 36.8505 35.7917 26.377 45.3477 25.1086C54.9038 23.8402 63.9043 32.2571 65.4508 43.9084Z" fill="#083156"/><path d="M120.042 23.3796C124.795 32.7318 118.331 45.5568 105.604 52.0252C92.8776 58.4935 78.7072 56.1558 73.954 46.8036C69.2009 37.4515 75.6648 24.6265 88.3917 18.1581C101.119 11.6897 115.289 14.0275 120.042 23.3796Z" fill="#083156"/><path d="M45.4355 41.6807L91.0698 31.5951L97.2405 59.516L51.6063 69.6016L45.4355 41.6807Z" fill="#083156"/><path d="M96.7581 55.7825C103.113 54.378 105.375 57.4771 106.726 63.5883L111.38 91.5723C112.967 98.7529 112.032 105.745 104.565 107.395L72.8069 115.332C65.3397 116.983 57.9997 112.5 56.4128 105.319L50.299 77.656C48.9484 71.5449 53.0054 65.4522 59.3605 64.0477L96.7581 55.7825Z" fill="#9A755E"/><path d="M93.804 58.4648C99.2609 57.2588 104.683 60.7352 105.901 66.2496L112.015 93.9125C113.47 100.496 109.349 106.991 102.83 108.432L70.9666 115.474C64.4477 116.915 57.9734 112.762 56.5183 106.178L50.4045 78.5148C49.1858 73.0005 52.6376 67.5629 58.0945 66.3569L93.804 58.4648Z" stroke="#083156" stroke-width="2.24042"/><path d="M118.385 78.3979C119.23 82.2175 116.553 86.0567 112.407 86.973C108.262 87.8892 104.216 85.5356 103.372 81.7159C102.528 77.8962 105.205 74.057 109.35 73.1408C113.496 72.2245 117.541 74.5782 118.385 78.3979Z" fill="#9A755E"/><path d="M42.6875 65.8975L51.4203 82.9367L64.4145 68.9559L108.511 72.8189L107.619 50.8203L42.6875 65.8975Z" fill="#FFE999" stroke="#083156" stroke-width="2.24042"/><path d="M60.6141 57.5376C62.4565 46.586 72.8281 39.2016 83.7797 41.044L82.8388 46.6369C80.9964 57.5885 70.6248 64.973 59.6732 63.1306L60.6141 57.5376Z" fill="#FFE999"/><path d="M51.3312 50.9591C51.5526 58.1697 57.5775 63.8355 64.7881 63.6141L64.675 59.9316C64.4536 52.721 58.4287 47.0552 51.2181 47.2766L51.3312 50.9591Z" fill="#FFE999"/><path d="M91.5963 80.1303C93.4727 83.3605 93.2863 87.4949 90.5593 88.6248C84.5821 90.7603 80.6873 88.882 78.8108 85.6518C76.9344 82.4215 78.4873 77.5964 81.2563 75.9879C84.0252 74.3794 89.7198 76.9001 91.5963 80.1303Z" fill="white"/><path d="M69.5167 84.7044C71.1051 88.0856 70.0432 91.9304 67.1449 93.2919C64.2465 94.6535 59.5954 93.4926 58.0069 90.1114C56.4185 86.7303 58.4943 82.4092 61.3927 81.0476C64.2911 79.686 67.9283 81.3232 69.5167 84.7044Z" fill="white"/><path d="M78.8045 85.8351C77.3722 83.4792 77.7255 80.6486 79.5937 79.5127C81.4619 78.3769 84.1713 79.3612 84.2094 83.3901C87.3652 86.6389 86.2944 87.9361 84.4262 89.0719C82.558 90.2078 80.2369 88.1909 78.8045 85.8351Z" fill="#083156"/><path d="M58.5086 90.8771C56.9018 88.4997 56.8398 85.734 58.3701 84.6997C59.9004 83.6654 62.6799 84.0515 63.0934 87.6987C66.1964 90.0546 65.7192 92.2747 64.1889 93.309C62.6585 94.3433 60.1154 93.2545 58.5086 90.8771Z" fill="#083156"/><path fill-rule="evenodd" clip-rule="evenodd" d="M71.3866 90.4131C71.7105 90.7804 71.6754 91.3407 71.3081 91.6646C70.9914 91.9439 70.6414 92.2309 70.3172 92.4966C70.1146 92.6627 69.922 92.8206 69.7541 92.963C69.2783 93.3668 68.9033 93.7237 68.6372 94.085C68.3802 94.4341 68.2422 94.7644 68.2134 95.122C68.1842 95.4846 68.2607 95.9602 68.5762 96.6065C68.8886 97.2463 69.586 97.6615 70.5369 97.7467C71.4875 97.8318 72.5334 97.5616 73.2896 97.0109C73.6855 96.7226 74.2401 96.8098 74.5284 97.2057C74.8166 97.6015 74.7294 98.1561 74.3336 98.4444C73.2075 99.2645 71.7282 99.6338 70.3788 99.5129C69.0297 99.3921 67.6522 98.7559 66.9827 97.3845C66.5662 96.5314 66.3849 95.7365 66.4458 94.9797C66.5071 94.2179 66.8071 93.5799 67.2092 93.0337C67.6023 92.4997 68.1076 92.0344 68.6068 91.6108C68.829 91.4223 69.039 91.2506 69.2458 91.0815C69.5402 90.8408 69.828 90.6055 70.1352 90.3346C70.5024 90.0107 71.0627 90.0458 71.3866 90.4131Z" fill="#083156"/><path d="M106.077 74.0157C109.704 72.3386 116.103 71.0187 118.2 78.9776C119.041 83.4585 116.671 87.6872 110.283 87.4952" stroke="#083156" stroke-width="2.24042" stroke-linecap="round"/><path d="M78.7263 85.6677C74.4954 78.0334 84.613 68.2935 91.6018 80.6594" stroke="#083156" stroke-width="2.24042" stroke-linecap="round"/><path d="M57.7913 90.1191C54.2404 82.1458 65.1667 73.3227 71.0536 86.2495" stroke="#083156" stroke-width="2.24042" stroke-linecap="round"/><mask id="path-48-outside-1_100_8161" maskUnits="userSpaceOnUse" x="70.1772" y="88.2828" width="29.1341" height="25.1898" fill="black"><rect fill="white" x="70.1772" y="88.2828" width="29.1341" height="25.1898"/><path d="M92.4035 93.6518C90.1816 91.5346 86.7905 92.8018 84.8693 95.1951L84.7745 95.3132C82.7323 97.8573 80.1505 99.9161 77.2158 101.341L-nan -nanL77.2158 101.341C75.0738 102.381 74.6635 105.246 76.8003 106.296C77.2518 106.518 77.7206 106.713 78.1948 106.86C81.5548 107.902 86.4826 106.214 87.93 105.665C88.2077 105.56 88.4774 105.443 88.7393 105.303C89.9774 104.642 93.7251 102.334 94.1882 98.4384C94.4405 96.3156 93.5667 94.7603 92.4035 93.6518Z"/></mask><path d="M92.4035 93.6518C90.1816 91.5346 86.7905 92.8018 84.8693 95.1951L84.7745 95.3132C82.7323 97.8573 80.1505 99.9161 77.2158 101.341L-nan -nanL77.2158 101.341C75.0738 102.381 74.6635 105.246 76.8003 106.296C77.2518 106.518 77.7206 106.713 78.1948 106.86C81.5548 107.902 86.4826 106.214 87.93 105.665C88.2077 105.56 88.4774 105.443 88.7393 105.303C89.9774 104.642 93.7251 102.334 94.1882 98.4384C94.4405 96.3156 93.5667 94.7603 92.4035 93.6518Z" fill="#083156"/><path d="M78.1948 106.86L78.6927 105.255L78.1948 106.86ZM94.1882 98.4384L92.5196 98.24L94.1882 98.4384ZM84.7745 95.3132L83.4642 94.2613L83.4642 94.2613L84.7745 95.3132ZM76.8003 106.296L76.0589 107.804L76.8003 106.296ZM87.93 105.665L88.5256 107.237L87.93 105.665ZM88.7393 105.303L87.9472 103.821L88.7393 105.303ZM92.4035 93.6518L91.2443 94.8682L92.4035 93.6518ZM84.8693 95.1951L86.1796 96.247L86.1796 96.247L84.8693 95.1951ZM77.5416 104.788C77.9311 104.98 78.3179 105.139 78.6927 105.255L77.697 108.465C77.1233 108.287 76.5725 108.057 76.0589 107.804L77.5416 104.788ZM92.5196 98.24C92.6951 96.7639 92.1223 95.7049 91.2443 94.8682L93.5626 92.4353C95.0112 93.8156 96.186 95.8673 95.8568 98.6367L92.5196 98.24ZM86.1796 96.247L86.0849 96.3651L83.4642 94.2613L83.5589 94.1433L86.1796 96.247ZM78.6927 105.255C79.9665 105.65 81.7023 105.555 83.4555 105.211C85.1604 104.875 86.657 104.351 87.3344 104.094L88.5256 107.237C87.7557 107.528 86.0647 108.123 84.1038 108.508C82.1913 108.884 79.7832 109.112 77.697 108.465L78.6927 105.255ZM87.9472 103.821C88.4872 103.533 89.5779 102.881 90.5678 101.894C91.5593 100.905 92.348 99.6834 92.5196 98.24L95.8568 98.6367C95.5653 101.089 94.2486 102.969 92.941 104.273C91.6316 105.579 90.2294 106.412 89.5314 106.785L87.9472 103.821ZM86.0849 96.3651C83.8869 99.1032 81.1082 101.319 77.9496 102.853L76.4819 99.8294C79.1928 98.5132 81.5777 96.6114 83.4642 94.2613L86.0849 96.3651ZM76.0589 107.804C74.3139 106.946 73.5605 105.266 73.7325 103.638C73.8981 102.07 74.9019 100.596 76.4819 99.8294L77.9496 102.853C77.3877 103.125 77.1153 103.605 77.0745 103.991C77.0547 104.178 77.0892 104.328 77.1482 104.44C77.2029 104.544 77.3094 104.674 77.5416 104.788L76.0589 107.804ZM87.3344 104.094C87.5648 104.007 87.7652 103.919 87.9472 103.821L89.5314 106.785C89.1895 106.968 88.8506 107.113 88.5256 107.237L87.3344 104.094ZM91.2443 94.8682C90.6309 94.2837 89.8588 94.1235 88.9423 94.3593C87.9784 94.6073 86.9477 95.2902 86.1796 96.247L83.5589 94.1433C84.712 92.7068 86.3375 91.5594 88.105 91.1047C89.9198 90.6378 91.9542 90.9026 93.5626 92.4353L91.2443 94.8682Z" fill="#083156" mask="url(#path-48-outside-1_100_8161)"/><path d="M93.836 94.855L93.4758 94.3427C93.1885 93.9343 92.8637 93.5685 92.5213 93.2422L93.836 94.855ZM93.836 94.855L93.448 95.3465M93.836 94.855L93.448 95.3465M93.448 95.3465C93.1073 95.7783 92.6984 96.1671 92.2254 96.496L93.448 95.3465ZM83.6576 94.986L83.6576 94.986C82.4211 96.5262 80.9792 97.8816 79.3763 99.0163L78.4728 99.656L79.332 100.354C81.4336 102.062 84.4897 102.256 86.8255 100.631L86.8255 100.631C87.9644 99.8392 88.7584 98.7344 89.1715 97.514C90.2301 97.4772 91.2916 97.1454 92.2254 96.496L83.6576 94.986ZM83.6576 94.986L83.7524 94.8679C83.7524 94.8679 83.7524 94.8679 83.7524 94.8679M83.6576 94.986L83.7524 94.8679M83.7524 94.8679C84.8093 93.5513 86.286 92.5201 87.8526 92.1171M83.7524 94.8679L87.8526 92.1171M87.8526 92.1171C89.4428 91.708 91.1616 91.9466 92.5213 93.2422L87.8526 92.1171Z" fill="white" stroke="#083156" stroke-width="1.68031"/><path d="M105.396 49.6943L105.809 63.4852" stroke="white" stroke-width="2.24042" stroke-linecap="round"/><path fill-rule="evenodd" clip-rule="evenodd" d="M100.604 53.5608L108.147 51.9558L108.166 46.0537L100.63 50.4842L100.604 53.5608Z" fill="#083156"/><path d="M103.906 245.112C109.665 240.821 117.165 237.153 115.879 233.61" stroke="#FEF6F0" stroke-width="1.51228" stroke-linecap="round"/></svg>