<svg width="768" height="345" viewBox="0 0 768 345" fill="none" xmlns="http://www.w3.org/2000/svg"><g opacity="0.1"><rect x="-61.1577" y="63.3926" width="199.395" height="199.395" rx="56.3587" transform="rotate(7.15765 -61.1577 63.3926)" fill="white"/><rect x="275.987" y="120.96" width="223.769" height="223.769" rx="63.248" transform="rotate(-0.322 275.987 120.96)" fill="white"/><rect x="519.73" y="69.3037" width="158.776" height="158.776" rx="44.8777" transform="rotate(25.6783 519.73 69.3037)" fill="white"/><rect x="774.265" y="57.0869" width="81.2967" height="81.2967" rx="22.9784" transform="rotate(41.662 774.265 57.0869)" fill="white"/><rect x="-23.3228" y="29.5518" width="45.9621" height="45.9621" rx="12.9911" transform="rotate(41.662 -23.3228 29.5518)" fill="white"/><rect x="84.9849" y="26.9141" width="13.8653" height="13.8653" rx="6.64885" transform="rotate(21.5926 84.9849 26.9141)" fill="white"/><rect width="13.8653" height="13.8653" rx="6.64885" transform="matrix(-0.929824 0.368005 0.368005 0.929824 569.582 0.788086)" fill="white"/><rect width="5.36647" height="5.36647" rx="2.50887" transform="matrix(-0.931203 -0.364501 -0.364501 0.931203 754.447 8.68848)" fill="white"/><rect width="5.36647" height="5.36647" rx="2.50887" transform="matrix(-0.688549 -0.72519 -0.72519 0.688549 22.5083 40.1885)" fill="white"/><rect width="5.36647" height="5.36647" rx="2.50887" transform="matrix(-0.967296 -0.253651 -0.253651 0.967296 440.33 6.48633)" fill="white"/><rect x="713.277" y="88.6572" width="20.3969" height="20.3969" rx="6.64885" transform="rotate(-158.407 713.277 88.6572)" fill="white"/><rect x="199.468" y="9.82031" width="7.75316" height="7.75316" rx="3.71789" transform="rotate(-7.03952 199.468 9.82031)" fill="white"/><rect x="792.495" y="102.053" width="185.104" height="185.104" rx="52.3195" transform="rotate(87.6722 792.495 102.053)" fill="white"/><rect x="93.2896" y="112.325" width="185.981" height="185.981" rx="52.5672" transform="rotate(-7.34834 93.2896 112.325)" fill="white"/></g></svg>