<svg width="1311" height="672" viewBox="0 0 1311 672" fill="none" xmlns="http://www.w3.org/2000/svg"><path opacity="0.4" fill-rule="evenodd" clip-rule="evenodd" d="M370.733 10.7093C368.507 10.9557 366.267 11.0627 364.046 11.3404L344.772 13.7494V13.7494C344.763 13.7494 344.755 13.7532 344.751 13.7614C344.659 13.9396 343.547 16.0593 341.944 17.1429C341.673 17.3241 341.401 17.4762 341.148 17.6179C339.823 18.3601 339.007 18.8167 341.38 21.6648C344.206 25.0583 344.206 25.0583 351.554 25.6224V25.6224C353.455 25.7684 357.392 28.5321 359.199 29.1423C359.646 29.2934 360.113 29.4401 360.598 29.5784C361.263 29.7686 361.753 29.9428 362.145 30.0822C362.654 30.2635 362.998 30.3858 363.348 30.4075C364.074 30.4526 364.827 30.0655 367.139 28.8758C367.949 28.4596 368.949 27.9452 370.206 27.3167C374.686 25.0763 374.636 25.1925 374.365 25.8171C374.158 26.2955 373.821 27.072 375.292 27.3167C376.988 27.5996 376.988 27.5996 376.988 27.0344C376.988 26.4691 376.988 25.3387 378.683 23.3607C380.971 20.6918 384.803 20.0802 388.79 19.4441C390.712 19.1373 392.671 18.8247 394.509 18.2729C398.28 17.1414 402.052 16.5129 404.816 16.0524C406.195 15.8227 407.323 15.6347 408.075 15.447L408.221 15.4104C410.705 14.7908 419.54 12.5864 427.292 10.9251C431.823 9.95397 430.98 11.2073 430.068 12.5622C429.388 13.5733 428.669 14.641 430.118 14.8828V14.8828C436.442 15.9352 419.96 19.3239 413.55 19.2509C411.818 19.2312 409.962 19.2696 408.073 19.4047C400.161 19.9689 407.509 24.4907 409.769 23.9265C410.9 23.6437 411.889 23.9264 413.372 24.3505C414.856 24.7747 416.835 25.3403 419.944 25.6224C424.254 26.0135 425.034 26.9482 426.424 28.6145C427.039 29.3522 427.774 30.2334 428.988 31.2743C430.281 32.3826 431.152 33.0683 431.837 33.6076C433.247 34.7189 433.869 35.2085 435.772 37.4921C437.427 39.4776 437.724 41.2696 438.027 43.095C438.242 44.3865 438.459 45.6947 439.162 47.1C439.665 48.106 440.069 49.3607 440.388 50.6279C441.377 54.5578 441.403 59.5479 438.032 61.7973V61.7973C436.336 62.9274 432.944 63.4916 427.292 62.3615C423.203 61.5442 424.734 65.4571 426.108 68.9685C426.633 70.312 427.136 71.5967 427.292 72.5353C427.388 73.1121 427.484 73.7544 427.586 74.4342L427.586 74.4377C428.082 77.7545 428.711 81.9643 430.118 83.8408C430.725 84.6497 431.331 85.6752 431.989 86.7883L431.99 86.7889L431.99 86.7897C433.172 88.7887 434.521 91.0696 436.336 92.8845C437.817 94.3661 438.989 94.9158 440.257 95.5108C441.407 96.0507 442.637 96.6278 444.25 97.9722C447.024 100.284 452.066 93.1406 455.048 88.9168C455.712 87.9767 456.273 87.1812 456.685 86.6667C457.72 85.3731 458.044 84.5531 458.417 83.6102C458.858 82.4934 459.368 81.2042 461.207 78.7514C463.728 75.3904 465.938 74.8404 471.784 73.385C473.801 72.8831 476.25 72.2734 479.294 71.4036C487.491 69.0618 487.063 67.5293 486.758 66.4324C486.621 65.9405 486.508 65.5362 487.208 65.1858C489.47 64.0558 496.818 61.2298 500.21 61.2298C502.535 61.2298 505.925 60.4317 510.38 59.3829C512.419 58.903 514.681 58.3705 517.165 57.838C520.891 57.0396 522.863 57.2434 524.26 57.3879C525.83 57.5502 526.675 57.6376 528.469 56.1421C528.833 55.8393 529.17 55.5625 529.483 55.3053L529.505 55.2875L529.507 55.2863C532.102 53.1578 533.053 52.3781 533.557 49.3601C533.758 48.151 533.528 47.1574 533.277 46.0721C532.824 44.1129 532.302 41.8548 534.121 37.4904C535.648 33.8246 536.845 33.9555 539.318 34.2259C541.421 34.4559 544.447 34.7868 549.383 32.9686C555.665 30.6535 555.371 28.339 555.063 25.9115C554.845 24.1891 554.619 22.4098 556.73 20.533C557.355 19.9776 557.886 19.4989 558.351 19.0802L558.352 19.0794C559.646 17.913 560.424 17.2124 561.273 16.6148C562.552 15.7161 563.994 15.0505 567.605 13.3839L568.036 13.1852L568.036 13.1849L568.037 13.1844C570.513 12.0416 571.32 11.6692 571.279 11.5046C571.26 11.4251 571.043 11.3941 570.721 11.3481C569.731 11.2068 567.753 10.9243 567.47 8.66336C567.173 6.2848 565.625 6.40855 563.648 6.56659C561.867 6.70899 559.738 6.87922 557.862 5.27155C555.228 3.01383 553.095 4.01247 551.131 4.9327C550.144 5.39495 549.199 5.83741 548.254 5.83741C547.353 5.83741 546.338 5.95204 545.116 6.08996C542.504 6.38476 538.949 6.78596 533.558 6.4016C529.841 6.13652 526.373 6.36999 523.33 6.57484C519.896 6.80599 517.003 7.0007 514.905 6.4016C513.089 5.88216 511.273 6.0776 508.911 6.33185C506.126 6.63156 502.582 7.01298 497.384 6.4016C494.347 6.04449 492.1 5.91308 490.359 5.81121C486.589 5.59071 485.185 5.50857 483.252 3.57564C481.639 1.96263 478.553 2.7435 474.729 3.71098C471.854 4.43851 468.561 5.27155 465.165 5.27155H449.339C448.271 5.27155 447.303 5.29648 446.382 5.3202C442.915 5.40945 440.12 5.48143 435.208 4.1415C431.843 3.22435 429.802 3.30018 427.563 3.38341C425.665 3.45393 423.624 3.52977 420.514 3.01146C417.41 2.49437 415.371 2.21389 413.477 1.95333C411.232 1.64445 409.19 1.36356 405.818 0.749687C402.179 0.0883812 401.831 0.201071 399.789 0.861619C398.342 1.32982 396.044 2.07328 391.121 3.01146C382.625 4.62916 382.237 5.08896 381.252 6.25594C380.861 6.71935 380.375 7.29428 379.251 8.0975C376.968 9.72759 373.37 10.4174 370.733 10.7093ZM580.436 220.251C580.445 220.252 580.45 220.263 580.444 220.27L580.434 220.284L580.423 220.267C580.418 220.258 580.426 220.25 580.436 220.251ZM580.434 220.284C580.652 220.627 582.378 223.31 583.475 224.031C584.606 224.786 587.62 224.031 590.258 222.149C591.868 221 593.056 221.393 594.251 221.789C595.015 222.042 595.782 222.296 596.664 222.149C596.821 222.123 596.974 222.096 597.124 222.071C599.139 221.726 600.615 221.473 603.069 222.526C605.595 223.608 608.123 221.578 609.986 220.081L609.993 220.075C610.073 220.011 610.151 219.949 610.227 219.887C611.384 218.963 613.031 218.786 614.617 218.617C615.241 218.55 615.857 218.484 616.429 218.374C619.209 217.839 624.084 217.112 632.085 216.497C638.247 216.023 640.103 215.946 640.402 215.934C640.434 215.932 640.448 215.932 640.448 215.931C640.448 215.928 638.382 215.972 639.999 215.365C641.439 214.826 643.052 214.458 644.63 214.097C646.356 213.703 648.041 213.319 649.419 212.729C650.963 212.066 651.086 212.438 651.302 213.086C651.454 213.546 651.653 214.144 652.434 214.612C653.469 215.233 652.685 216.309 651.705 217.653C650.901 218.755 649.967 220.036 649.796 221.394C649.697 222.186 649.598 222.744 649.513 223.225C649.273 224.574 649.141 225.317 649.419 228.929C649.6 231.276 650.645 231.374 652.017 231.503C653.509 231.643 655.386 231.819 656.956 234.96C658.801 238.649 660.645 238.103 662.491 237.557C663.66 237.211 664.83 236.865 666 237.596C667.092 238.279 668.183 238.715 669.418 239.208C671.593 240.075 674.211 241.12 678.057 244.003C682.342 247.216 684.152 247.003 686.329 246.746C687.215 246.642 688.162 246.531 689.361 246.64C691.121 246.8 691.794 247.164 692.044 247.299C692.117 247.338 692.154 247.358 692.171 247.347C692.188 247.336 692.186 247.294 692.18 247.21V247.21C692.166 246.991 692.132 246.489 692.378 245.51C692.659 244.385 693.307 243.628 694.009 242.807C695.19 241.428 696.523 239.87 696.523 236.09C696.523 231.954 696.877 232.605 697.587 233.909C697.911 234.505 698.31 235.238 698.783 235.711C699.422 236.349 700.465 236.65 701.628 236.984C703.211 237.44 705.015 237.959 706.318 239.48C707.51 240.868 709.537 241.003 711.74 241.15C713.72 241.282 715.841 241.423 717.625 242.493C719.78 243.787 723.662 243.601 727.508 243.416C730.384 243.278 733.24 243.141 735.336 243.625C738.546 244.365 741.432 244.458 743.995 244.541C745.343 244.584 746.602 244.625 747.772 244.755C750.125 245.017 751.39 244.552 752.574 244.117C753.095 243.926 753.6 243.74 754.175 243.625C755.962 243.268 757.409 241.555 761.087 234.636C761.504 233.85 761.866 233.032 762.135 232.184C762.664 230.518 763.593 227.321 764.351 223.276C765.06 219.492 764.73 219.271 764.292 218.978C764.033 218.805 763.736 218.606 763.596 217.624C763.359 215.961 761.474 216.246 759.829 216.494C758.866 216.639 757.985 216.772 757.567 216.494C757.013 216.124 755.285 216.207 753.356 216.299C751.344 216.395 749.115 216.502 747.77 216.117C746.363 215.714 745.17 215.956 743.906 216.211C742.801 216.435 741.64 216.67 740.233 216.494C739.046 216.346 737.86 216.314 736.743 216.284C735.02 216.238 733.461 216.197 732.318 215.739C732.203 215.693 732.087 215.648 731.972 215.605C731.79 215.535 731.607 215.468 731.423 215.4L731.421 215.4L731.419 215.399C729.819 214.81 728.133 214.191 725.914 211.97C725.044 211.1 724.255 210.681 723.603 210.334C722.278 209.63 721.514 209.224 721.766 205.94C721.928 203.852 721.678 202.517 721.455 201.323C721.155 199.715 720.902 198.361 721.766 195.766C723.274 191.244 718.375 192.751 714.23 195.766C711.235 197.945 709.42 196.778 707.932 195.822C707.361 195.455 706.838 195.119 706.315 195.015C704.919 194.735 704.766 196.322 704.626 197.776V197.776C704.577 198.281 704.53 198.77 704.433 199.158C704.055 200.665 708.578 205.187 710.087 205.94C710.46 206.127 710.417 206.36 710.14 206.606C709.867 206.848 709.585 207.087 709.303 207.326C707.628 208.747 705.94 210.179 705.94 212.347C705.94 213.854 704.433 214.232 703.301 213.479C702.814 213.153 702.467 213.388 702.139 213.61C701.707 213.903 701.308 214.174 700.665 213.102C699.909 211.841 699.153 210.917 698.397 209.993L698.394 209.99C698.021 209.533 697.647 209.076 697.273 208.578C696.473 207.51 695.482 205.306 694.705 203.576L694.704 203.575L694.704 203.575L694.703 203.572C694.384 202.863 694.102 202.234 693.883 201.796C693.34 200.713 692.02 199.63 691.04 198.826L691.039 198.825C690.657 198.511 690.326 198.24 690.114 198.028C689.361 197.273 688.609 193.506 688.609 190.114C688.609 186.722 685.592 184.839 682.956 185.216C681.327 185.449 680.56 184.674 679.412 183.514C678.701 182.797 677.846 181.933 676.55 181.069C674.965 180.011 674.285 179.284 673.626 178.578C672.875 177.774 672.15 176.998 670.143 175.794C669.077 175.154 668.101 174.483 667.156 173.834C664.762 172.19 662.566 170.682 659.593 170.142C656.284 169.541 657.056 171.579 657.886 173.766C658.096 174.32 658.309 174.884 658.461 175.417C658.915 177 659.367 177.362 660.227 178.05C660.799 178.508 661.553 179.111 662.608 180.317C663.629 181.483 664.423 182.367 665.014 183.013C665.907 183.988 666.926 184.834 668.05 185.53C669.902 186.675 672.816 188.361 674.29 188.608C675.645 188.833 677.811 191.223 679.736 193.346C681.023 194.767 682.202 196.068 682.957 196.521C683.228 196.684 683.444 196.807 683.614 196.904C683.992 197.119 684.138 197.203 684.141 197.29C684.142 197.346 684.085 197.403 683.991 197.497C683.838 197.65 683.587 197.902 683.336 198.405C682.771 199.533 681.995 198.971 680.85 198.143C680.466 197.865 680.04 197.557 679.567 197.273C678.123 196.407 678.007 197.754 677.862 199.446C677.818 199.963 677.771 200.512 677.682 201.04C677.676 201.074 676.315 204.364 676.291 204.389C674.15 206.64 670.208 210.778 669.393 211.592C668.263 212.724 665.623 210.839 663.741 209.332C662.706 208.502 663.721 208.585 665.157 208.702C666.333 208.798 667.792 208.917 668.64 208.578C670.525 207.827 674.292 203.303 675.045 201.796C675.677 200.531 674.367 199.647 672.986 198.716C672.206 198.191 671.404 197.65 670.917 197.017C670.55 196.541 670.254 196.091 670.145 195.766C669.931 195.122 668.855 194.353 667.411 193.321L667.41 193.321C666.326 192.546 665.033 191.622 663.741 190.491C661.708 188.711 660.359 188.476 659.235 188.279C658.692 188.184 658.202 188.098 657.711 187.853C657.026 187.511 656.263 187.091 655.423 186.629L655.422 186.629C654.413 186.073 653.291 185.456 652.058 184.839C650.622 184.123 649.49 181.885 648.566 180.058C648.034 179.008 647.572 178.092 647.159 177.68C646.991 177.513 646.815 177.387 646.637 177.293C645.901 176.907 645.073 177.071 644.231 177.237C643.601 177.362 642.963 177.489 642.349 177.388C641.599 177.264 640.834 176.934 640.377 176.172C639.247 174.289 637.74 175.795 638.494 180.696C639.132 184.856 631.619 182.764 628.186 181.808C627.576 181.638 627.095 181.504 626.811 181.447C625.524 181.189 623.354 183.046 622.111 184.246C621.46 184.875 620.907 185.594 620.405 186.347L620.218 186.629C618.104 189.798 614.798 191.766 611.516 193.718L611.499 193.728L611.491 193.733C611.197 193.908 610.902 194.084 610.609 194.259C608.726 195.39 605.334 201.041 606.464 203.303C607.405 205.187 606.517 206.023 604.888 207.557C604.561 207.865 604.205 208.201 603.827 208.578C602.741 209.663 600.44 210.835 598.133 212.01C595.632 213.284 593.123 214.562 592.143 215.737C590.26 217.999 587.245 217.244 584.23 215.359C582.175 214.075 580.469 214.193 579.234 214.278C578.658 214.318 578.184 214.35 577.824 214.23C577.481 214.115 576.755 213.966 575.911 213.814C572.965 213.282 569.84 212.27 568.781 209.47C568.633 209.081 568.504 208.657 568.402 208.2C567.651 204.808 567.651 202.547 568.781 200.286C569.912 198.025 569.536 193.501 569.159 190.111C568.781 186.721 569.534 183.707 572.926 181.067C574.142 180.122 574.486 179.613 574.652 179.365C574.718 179.268 574.756 179.211 574.809 179.185C574.884 179.148 574.987 179.169 575.235 179.22C575.616 179.298 576.339 179.447 577.824 179.562C582.725 179.937 585.736 181.067 589.882 183.329C593.267 185.176 595.397 183.755 596.884 182.762C597.219 182.538 597.52 182.337 597.797 182.199C598.338 181.928 598.685 182.047 598.994 182.152C599.547 182.341 599.98 182.489 601.187 180.316C602.144 178.594 601.936 177.552 601.745 176.598C601.56 175.673 601.391 174.831 602.319 173.532C603.222 172.267 602.055 170.95 600.877 169.622C600.37 169.05 599.86 168.475 599.514 167.901C599.05 167.133 598.567 166.502 598.174 166.372C597.568 166.169 596.964 165.644 596.187 164.969C595.511 164.382 594.704 163.681 593.652 162.98L593.587 162.937L593.435 162.836L593.302 162.749C591.084 161.288 588.533 159.609 598.55 159.966C605.545 160.216 601.775 158.478 598.219 156.84C596.411 156.007 594.659 155.199 594.405 154.691C593.652 153.184 596.665 151.676 600.812 152.429C603.412 152.903 603.491 152.782 603.654 152.534C603.751 152.386 603.877 152.193 604.579 152.053C605.287 151.911 605.676 151.77 606.065 151.629C606.713 151.393 607.36 151.158 609.479 150.923C611.641 150.682 612.271 150.29 612.835 149.939C613.155 149.739 613.454 149.553 614.001 149.416C614.695 149.242 615.23 148.507 616.012 147.432C616.925 146.177 618.174 144.46 620.406 142.632C622.639 140.807 622.795 140.947 623.11 141.23C623.381 141.473 623.768 141.821 625.681 141.126C628.065 140.259 628.081 138.396 628.094 136.825C628.104 135.665 628.112 134.664 629.073 134.344C629.591 134.171 630.089 133.979 630.604 133.781C632.336 133.113 634.254 132.373 637.74 132.082C639.319 131.951 639.796 131.911 639.795 131.899C639.795 131.897 639.772 131.896 639.733 131.895C639.694 131.894 639.641 131.894 639.577 131.894C639.153 131.894 638.305 131.894 638.87 131.707C639.328 131.554 639.972 130.782 640.775 129.818C641.956 128.403 643.483 126.573 645.276 125.677C647.023 124.802 647 125.319 646.963 126.129C646.937 126.718 646.903 127.461 647.537 127.937C649.046 129.067 652.436 128.313 654.698 126.807C656.68 125.485 658.664 125.902 661.663 126.533C662.083 126.621 662.524 126.714 662.986 126.807C665.165 127.242 665.455 128.182 665.675 128.897C665.836 129.419 665.96 129.822 666.755 129.822C667.358 129.822 667.923 129.937 668.449 130.045C669.565 130.274 670.508 130.467 671.277 129.443C672.407 127.935 676.175 126.052 678.06 126.052C679.481 126.052 681.764 126.267 682.797 126.373C683.157 126.41 683.513 126.46 683.871 126.514C684.61 126.625 685.94 126.807 686.726 126.807C687.857 126.807 693.509 123.038 692.754 117.388C692.185 113.12 694.84 114.223 697.147 115.181C697.895 115.492 698.607 115.787 699.16 115.879C701.421 116.256 704.437 114.373 701.798 106.836C699.949 101.553 701.617 102.566 703.819 103.904C704.759 104.474 705.796 105.104 706.698 105.329C709.71 106.081 713.857 103.821 715.74 101.937C717.625 100.052 714.989 97.792 713.857 97.0386C713.262 96.6422 711.938 96.8715 710.487 97.1227C709.18 97.3489 707.77 97.5929 706.698 97.4136C705.366 97.1917 703.51 97.6242 701.825 98.0169C700.649 98.2908 699.557 98.5453 698.783 98.5453C696.901 98.5453 692.754 92.5167 693.509 91.7617C693.838 91.4334 694.671 90.0982 695.661 88.5098C696.938 86.4614 698.477 83.9919 699.538 82.718C701.263 80.6477 699.175 77.0319 696.501 77.3652C694.71 77.5885 691.988 78.5943 687.859 81.2096C685.799 82.515 684.276 83.4573 683.16 84.1482L683.157 84.15C680.779 85.6218 680.245 85.9523 680.273 86.2243C680.282 86.3031 680.337 86.3769 680.408 86.4722C680.609 86.7402 680.937 87.1775 680.699 88.3699C680.41 89.8161 680.066 90.8743 679.75 91.8421C679.244 93.3962 678.814 94.7174 678.814 97.0386C678.814 98.1008 678.931 99.2544 679.051 100.434C679.338 103.258 679.64 106.228 678.381 108.438C677.752 109.543 677.309 110.593 677.309 111.358C677.309 113.66 670.988 117.974 669.385 119.031L669.297 119.089L669.183 119.165L669.167 119.175L669.138 119.194L668.941 119.325C668.846 119.388 668.75 119.45 668.654 119.513C667.691 120.138 665.106 121.691 664.496 120.778C664.278 120.449 663.614 120.248 662.791 119.998C660.781 119.388 657.824 118.491 658.091 114.748C658.33 111.414 656.311 110.488 652.7 108.832C650.597 107.867 647.954 106.655 644.902 104.576C638.674 100.329 637.763 102.673 636.896 104.902C636.609 105.64 636.327 106.365 635.859 106.834C633.975 108.719 633.222 95.1535 635.482 91.385L635.482 91.3844L635.484 91.3812C636.275 90.0635 636.512 89.6693 636.583 89.6972C636.613 89.7091 636.613 89.7979 636.613 89.9247C636.613 90.3487 636.613 91.1967 637.744 91.0083C638.277 90.9194 638.853 90.8515 639.461 90.7798C641.428 90.5477 643.73 90.2761 646.034 89.1249C648.044 88.1203 648.044 86.9482 648.045 85.6082C648.045 84.9384 648.045 84.2267 648.296 83.473C648.924 81.5874 654.529 77.0836 657.686 74.5464C658.316 74.0403 658.848 73.6125 659.225 73.2992C660.192 72.4931 662.192 71.0668 664.401 69.4919C667.357 67.3839 670.687 65.0097 672.412 63.5005C674.035 62.0799 675.769 60.9874 677.729 59.7514L677.731 59.7507L677.732 59.7498C679.41 58.692 681.255 57.5289 683.341 55.9652C686.92 53.281 688.847 53.1928 691.175 53.0861C691.789 53.058 692.43 53.0286 693.138 52.95C695.502 52.6876 697.498 52.9736 699.766 53.2987C700.754 53.4402 701.793 53.5891 702.937 53.7034C704.572 53.8669 706.208 53.8175 707.752 53.7708C709.763 53.7099 711.618 53.6538 713.109 54.0801C715.745 54.8334 719.892 55.5868 729.689 57.0935C735.244 57.9487 735.349 58.0763 735.702 58.5073C735.972 58.8365 736.387 59.3426 739.488 60.4853C743.053 61.7985 744.936 62.084 746.487 62.3191C748.05 62.556 749.275 62.7418 751.545 63.8772C754.966 65.5864 753.859 67.0802 752.79 68.5223C752.446 68.987 752.106 69.4463 751.922 69.9058C751.172 71.7908 746.272 72.5425 743.257 69.9058C741.117 68.0346 739.168 68.6295 736.196 69.5365C734.98 69.9076 733.593 70.331 731.951 70.6591C728.511 71.3478 732.467 74.2691 736.687 77.3845C739.401 79.3885 742.224 81.4727 743.257 83.0947C745.409 86.4803 748.82 83.5816 754.31 78.9157C755.542 77.8689 756.878 76.7331 758.329 75.5593C763.547 71.334 764.505 71.0428 766.39 70.47C767.363 70.1743 768.583 69.8035 770.764 68.7774C773.695 67.3979 776.231 66.7284 778.265 66.1916C780.677 65.555 782.382 65.1049 783.2 63.8788C784.705 61.6171 792.242 61.6171 794.127 63.8788C795.091 65.0333 796.94 64.416 798.82 63.7884C800.617 63.1884 802.442 62.5791 803.547 63.5005C804.803 64.547 805.943 63.5028 807.675 61.9151C809.063 60.6431 810.832 59.0222 813.346 57.8486C817.158 56.0693 817.712 56.6898 819.171 58.3227C819.876 59.1113 820.791 60.1359 822.387 61.2404C825.196 63.1843 826.147 63.1475 826.944 63.1167C827.538 63.0937 828.046 63.0741 829.172 63.8788C831.81 65.7623 842.738 67.269 846.883 62.7471C848.901 60.544 848.595 60.4877 847.401 60.2684C846.144 60.0376 843.904 59.6264 842.359 56.3418C840.964 53.3772 839.973 52.753 839.199 52.2655C838.3 51.6996 837.693 51.3177 837.087 47.6748C836.252 42.6582 838.3 43.0004 841.405 43.519C842.498 43.7017 843.723 43.9063 844.999 43.9063C847.842 43.9063 848.146 44.4142 848.491 44.9877C848.739 45.4026 849.009 45.8519 850.275 46.1681C852.225 46.6557 852.757 47.7747 853.297 48.9124C853.592 49.5324 853.889 50.1579 854.42 50.6899C855.926 52.1967 856.678 54.0817 857.056 57.0952C857.21 58.3261 857.113 59.9338 857.021 61.4566C856.888 63.6639 856.765 65.6931 857.433 66.1389C857.683 66.3059 857.841 66.5648 858.013 66.8466C858.618 67.8391 859.396 69.1143 864.972 67.6473C869.345 66.4966 868.233 64.501 865.933 60.3725C864.468 57.7438 862.522 54.2504 861.203 49.5599C859.209 42.4679 860.993 45.6726 863.646 50.4355L863.646 50.4361C865.504 53.7717 867.787 57.8713 869.495 59.7337C873.639 64.2555 877.031 56.7185 877.031 55.5885C877.031 55.1497 876.746 54.5402 876.31 53.6059L876.31 53.6052C875.623 52.1333 874.559 49.8552 873.639 46.1681C872.696 42.3983 874.111 42.3114 877.055 42.1309C878.819 42.0226 881.132 41.8808 883.814 40.8928C888.875 39.0285 890.546 39.0481 893.755 39.0859C895.084 39.1015 896.678 39.1203 898.885 39.0094C906.419 38.6328 911.697 35.996 915.466 31.4741C918.284 28.0921 920.049 28.9274 921.391 29.5626C921.842 29.7763 922.246 29.9674 922.626 29.9674C923.028 29.9674 923.563 29.8872 924.396 29.7625C926.69 29.4192 931.24 28.7382 941.467 28.4607C949.596 28.241 949.397 28.7899 949.164 29.435C948.997 29.8963 948.812 30.4067 951.639 30.7207C955.436 31.1426 956.989 30.7376 958.415 30.3656C959.536 30.0734 960.578 29.8017 962.568 29.9674C966.346 30.2836 968.283 31.1238 969.916 31.832C970.237 31.9711 970.546 32.1052 970.855 32.2292C972.74 32.9825 970.105 34.8659 968.973 35.2426C967.843 35.6193 965.583 38.6344 963.698 41.6479C961.814 44.663 967.466 44.663 977.263 43.5313C984.901 42.6518 987.042 44.0598 988.866 45.2588C989.381 45.598 989.872 45.9205 990.454 46.1697C993.092 47.2998 1000.63 48.0548 1004.02 47.6782C1005.34 47.5309 1007.13 46.9807 1009.13 46.365C1012.25 45.4052 1015.88 44.2863 1019.09 44.2863C1021.69 44.2863 1023.01 44.5615 1024.13 44.7951C1025.28 45.0352 1026.23 45.2315 1028.13 45.0397C1030.62 44.7915 1031.46 45.3611 1033.05 46.4257C1033.87 46.9767 1034.88 47.6602 1036.42 48.4315C1039.66 50.0461 1042.5 50.3147 1045.66 50.6119C1046.91 50.7305 1048.22 50.8535 1049.61 51.0683C1053.12 51.6079 1054.12 51.5686 1055.78 51.5029C1056.44 51.4768 1057.21 51.4466 1058.28 51.4466C1062.05 51.4466 1063.93 52.2 1065.06 52.9534C1065.98 53.5597 1070.06 53.434 1072.4 53.3619C1072.97 53.3444 1073.44 53.3301 1073.73 53.3301C1074.64 53.3301 1075.83 52.2243 1077.13 51.0172C1077.98 50.2315 1078.87 49.4029 1079.76 48.8082C1080.15 48.5479 1080.45 48.3663 1080.69 48.2227L1080.69 48.2219C1081.04 48.0127 1081.25 47.884 1081.42 47.7092C1081.68 47.4293 1081.82 47.0314 1082.17 45.9962C1082.33 45.5553 1082.52 44.9987 1082.78 44.2863C1083.57 42.099 1083.84 42.431 1084.59 43.343C1085.25 44.1586 1086.29 45.4383 1088.43 45.7947C1091.08 46.2361 1092.04 46.6768 1092.85 47.0423C1093.41 47.3007 1093.9 47.5214 1094.84 47.6782C1096.04 47.8773 1097.24 48.7145 1098.38 49.5125C1099.39 50.2169 1100.36 50.8909 1101.24 51.0683C1103.13 51.4466 1111.04 51.8217 1114.43 51.8217C1115.37 51.8217 1116.64 51.7925 1118.12 51.7586C1121.93 51.6709 1127.14 51.5512 1131.76 51.8217C1133.48 51.923 1135.14 51.9161 1136.7 51.9096C1140.98 51.8919 1144.53 51.8772 1146.46 54.0834C1148.22 56.0938 1151.65 56.0939 1156.53 56.094C1158.98 56.0941 1161.78 56.0941 1164.92 56.3452C1174.34 57.0969 1181.5 58.2286 1186.77 59.7353C1188.59 60.2544 1190.01 60.5948 1191.13 60.8643L1191.13 60.8646C1193.26 61.3772 1194.33 61.6331 1195.07 62.3738C1195.67 62.9777 1196.6 61.2141 1197.56 59.3836C1198.4 57.7891 1199.26 56.1439 1199.97 55.9685C1200.78 55.765 1210.83 57.5403 1220.31 59.2161L1220.32 59.2163C1228.39 60.6428 1236.06 61.9971 1237.27 61.9971C1238.91 61.9971 1241.44 63.1696 1243.93 64.3263C1245.43 65.0245 1246.92 65.7169 1248.2 66.1423C1250.68 66.969 1253.36 66.5861 1256.25 66.1741C1257.3 66.023 1258.39 65.8679 1259.5 65.7673C1263.65 65.3906 1276.84 68.4057 1277.21 69.9125C1277.59 71.4209 1283.62 75.941 1284.75 76.6961C1285.88 77.4494 1276.46 77.0728 1273.82 75.566C1271.18 74.0593 1258.37 71.0425 1256.49 71.4192C1255.6 71.598 1255.04 72.6187 1254.51 73.6054C1253.91 74.7061 1253.33 75.7647 1252.34 75.566C1250.11 75.1176 1250.07 78.3611 1252.05 79.4901L1255.7 81.576L1255.76 81.6093C1256.37 81.9644 1266.69 87.9904 1267.79 87.6232C1268.92 87.2449 1265.9 91.3917 1264.77 90.6367C1262.93 89.4074 1257.03 91.9659 1255.53 93.5921C1254.59 94.6088 1253.41 95.8675 1251.96 97.4186C1244.41 105.494 1245.14 102.765 1246.06 99.3154C1246.47 97.7742 1246.92 96.089 1246.68 95.1585C1246.19 93.1842 1244.57 94.4423 1242.87 95.7572C1241.98 96.4503 1241.06 97.1592 1240.28 97.4186L1240.15 97.4631L1240.04 97.4976C1237.47 98.346 1229.4 101.005 1230.86 106.839C1231.69 110.146 1232.97 110.166 1234.7 110.194C1236.13 110.216 1237.86 110.243 1239.9 112.114C1242.9 114.863 1243.08 115.623 1243.53 117.471C1243.53 117.471 1243.53 117.472 1243.53 117.472V117.472C1243.53 117.472 1243.53 117.472 1243.53 117.473C1243.75 118.412 1244.04 119.631 1244.8 121.535C1246.21 125.059 1245.43 127.412 1244.72 129.506C1244.3 130.771 1243.91 131.941 1244.05 133.217C1244.29 135.39 1244.22 136.943 1244.14 138.77V138.773V138.774V138.775V138.777V138.778V138.779V138.78V138.781V138.782C1244.1 139.804 1244.05 140.911 1244.05 142.261C1244.05 145.24 1243.11 144.45 1241.22 142.871L1241.22 142.87C1240.72 142.452 1240.16 141.979 1239.53 141.506C1237.88 140.273 1237.36 139.712 1236.55 138.846C1235.88 138.124 1235.01 137.19 1233.12 135.477C1232.08 134.529 1231.25 133.891 1230.58 133.377C1228.6 131.849 1228.03 131.416 1227.47 127.187C1227.07 124.22 1226.16 124.055 1224.78 123.807C1223.53 123.581 1221.9 123.288 1219.93 120.781C1219.31 119.989 1218.78 119.342 1218.33 118.791C1217.23 117.444 1216.61 116.679 1216.26 115.805C1215.79 114.656 1215.79 113.32 1215.79 110.228C1215.79 105.669 1217.12 104.546 1218.57 103.326C1219.16 102.832 1219.77 102.322 1220.31 101.56C1221.44 99.9824 1220.68 97.9989 1219.88 95.9331C1219.35 94.5472 1218.8 93.1242 1218.8 91.7617C1218.8 89.6541 1217.49 89.586 1216.5 89.8361C1215.83 90.0055 1215.07 89.9197 1214.58 89.4291C1214.17 89.013 1213.57 88.9044 1213.1 89.2594C1212.45 89.7518 1211.38 90.703 1209.76 92.5167C1206.75 95.9086 1202.97 93.2735 1201.09 90.6333C1199.49 88.3968 1197.36 91.0396 1195.36 93.5035C1195.01 93.9445 1194.65 94.3797 1194.31 94.7802C1193.27 95.9953 1193.35 97.1298 1193.44 98.479C1193.55 100.059 1193.67 101.935 1192.05 104.579C1190.16 107.641 1189.6 107.315 1187.98 106.365C1187 105.795 1185.64 105.002 1183.38 104.579C1180.99 104.13 1178.43 103.918 1175.9 103.709C1172.04 103.39 1168.25 103.077 1165.29 101.939C1160.39 100.054 1154.36 101.184 1152.86 103.822C1152.19 104.994 1150.63 106.388 1149.1 107.575C1146.7 109.44 1144.41 111.568 1143.59 114.493C1142.86 117.125 1142.32 120.848 1143.06 125.301C1143.96 130.709 1144.73 130.189 1145.68 129.541C1146.32 129.106 1147.05 128.613 1147.96 129.825C1149.18 131.454 1151.06 131.211 1154.08 130.823C1156.65 130.493 1160.04 130.057 1164.54 130.577C1173.55 131.618 1173.95 132.337 1176.01 135.964C1176.19 136.281 1176.39 136.62 1176.6 136.984C1179.23 141.504 1180.37 143.012 1184.51 146.027C1187 147.836 1186.23 150.865 1185.46 153.894C1184.95 155.914 1184.43 157.934 1184.89 159.593C1185.45 161.642 1185.18 163.323 1184.99 164.499C1184.8 165.701 1184.69 166.375 1185.64 166.375C1186.69 166.375 1184.94 169.628 1183.19 172.909L1183.19 172.91C1181.78 175.537 1180.37 178.182 1180.37 179.187C1180.37 180.633 1178.35 181.037 1176.9 181.131C1175.88 181.197 1174.45 181.204 1172.45 181.071C1166.8 180.694 1164.91 182.954 1165.67 185.971C1166.42 188.984 1165.29 190.114 1163.03 192.376C1160.77 194.64 1160.02 200.291 1162.28 202.175C1164.54 204.06 1168.31 206.697 1174.34 210.464C1176.24 211.656 1177.51 212.735 1178.35 213.654C1180 215.454 1179.4 217.974 1178.11 220.045C1176.84 222.079 1175.18 224.521 1173.96 225.538C1171.7 227.423 1169.06 228.174 1166.42 226.668C1163.78 225.161 1163.78 224.782 1163.78 218.377C1163.78 214.073 1161.74 213.342 1159.15 212.411C1157.88 211.956 1156.48 211.454 1155.12 210.464C1154.04 209.679 1152.35 206.643 1152.13 205.329C1151.86 203.798 1151.4 202.228 1150.59 201.42C1148.3 199.124 1144.74 200.351 1142.17 202.335C1140.27 203.805 1138.35 204.783 1138.16 202.927C1138 201.286 1137.47 200.646 1136.91 199.948C1136.17 199.043 1135.36 198.043 1135.15 194.638C1134.87 190.212 1131.75 192.488 1129.66 194.011C1128.91 194.563 1128.29 195.016 1127.98 195.016C1127.44 195.016 1126.73 196.131 1125.44 198.156L1125.44 198.157C1124.03 200.376 1121.92 203.689 1118.57 207.827C1113.63 213.919 1120.1 213.533 1125.56 213.205C1127.2 213.107 1128.74 213.015 1129.87 213.102C1131.86 213.255 1132.36 213.531 1132.63 213.68C1132.69 213.715 1132.74 213.743 1132.79 213.76C1133 213.831 1133.27 213.74 1134.62 213.282C1134.91 213.184 1135.24 213.071 1135.63 212.939C1135.83 212.872 1136.05 212.8 1136.28 212.724C1140.27 211.391 1139.94 212.131 1139.26 213.612C1138.98 214.225 1138.65 214.965 1138.54 215.737C1138.31 217.359 1137.79 217.842 1136.9 218.673C1136.34 219.194 1135.64 219.851 1134.77 221.012C1133.15 223.167 1133.66 223.974 1134.35 225.085C1134.63 225.528 1134.93 226.02 1135.15 226.664C1135.9 228.926 1139.29 232.694 1144.19 237.97C1145.44 239.318 1146.35 240.322 1147.02 241.063L1147.03 241.068C1148.46 242.659 1148.8 243.034 1149.11 243.008C1149.2 243 1149.29 242.954 1149.41 242.893L1149.46 242.867C1150.22 242.492 1153.99 255.3 1154.74 257.941C1155.3 259.899 1153.78 263.729 1152.5 266.96L1152.5 266.963C1152.05 268.081 1151.64 269.126 1151.35 269.998C1150.22 273.388 1143.81 280.925 1141.55 282.057C1139.29 283.187 1137.41 283.938 1131 285.448C1129.69 285.757 1128.63 286.143 1127.78 286.564C1124.67 288.095 1118.37 295.815 1120.82 293.362C1122.33 291.852 1119.69 297.127 1114.42 306.171C1110.17 313.456 1110.32 309.494 1110.54 303.739C1110.59 302.349 1110.65 300.855 1110.65 299.389C1110.65 293.653 1107.6 292.5 1104.81 291.448C1103.93 291.117 1103.08 290.796 1102.36 290.345C1099.86 288.78 1097.88 291.632 1094.47 296.531C1093.77 297.53 1093.02 298.614 1092.19 299.764C1088.21 305.274 1089.95 306.557 1094.17 309.672C1095.15 310.391 1096.26 311.209 1097.46 312.2C1101.64 315.638 1103.09 318.116 1105.27 321.824C1106.43 323.805 1107.8 326.138 1109.9 329.157C1114.33 335.524 1113.67 336.806 1112.86 338.384C1112.57 338.953 1112.26 339.56 1112.16 340.459C1111.78 343.851 1103.49 352.141 1100.48 354.403C1100 354.762 1099.54 355.13 1099.09 355.486C1096.74 357.378 1094.78 358.943 1092.56 357.04C1091.8 356.388 1091.11 355.893 1090.49 355.455C1088.97 354.375 1087.93 353.642 1087.66 351.765C1087.5 350.578 1086.79 350.154 1085.76 349.533C1084.5 348.773 1082.75 347.717 1080.88 344.606C1079.2 341.802 1078.17 341.316 1077.37 340.941C1076.56 340.559 1075.99 340.292 1075.23 337.824C1073.72 332.925 1071.84 334.807 1069.95 336.694C1068.07 338.577 1067.32 344.983 1068.07 349.503C1068.26 350.621 1068.26 351.854 1068.16 353.077C1068.11 353.647 1063.64 354.211 1063.55 353.646C1063.01 350.44 1063.05 349.318 1063.11 347.188V347.184V347.181V347.177V347.173V347.169V347.165V347.16V347.156V347.151C1063.14 346.286 1063.17 345.253 1063.17 343.849C1063.17 341.514 1063.34 341.578 1063.48 341.63C1063.63 341.687 1063.75 341.729 1063.55 338.576C1063.3 334.651 1062.74 333.281 1061.85 331.139C1061.38 329.991 1060.81 328.621 1060.16 326.517C1058.68 321.776 1058.13 321.696 1056.86 321.511C1056.52 321.461 1056.12 321.403 1055.64 321.242C1054.59 320.891 1053.53 322.088 1052.52 323.243C1051.36 324.571 1050.24 325.842 1049.23 324.632C1049.12 324.498 1049.02 324.374 1048.92 324.257L1048.92 324.257C1048.92 324.256 1048.92 324.256 1048.92 324.255V324.255C1048.42 323.661 1048.08 323.257 1047.84 322.797C1047.35 321.815 1047.35 320.582 1047.35 316.718C1047.35 313.253 1046.1 312.775 1044.26 312.065C1042.89 311.54 1041.2 310.889 1039.43 308.806C1035.97 304.713 1035.93 304.566 1035.35 302.651L1035.35 302.648C1035.23 302.272 1035.1 301.826 1034.91 301.269C1033.78 297.877 1028.51 291.472 1025.87 291.095C1024.65 290.921 1023.27 290.506 1021.95 290.11L1021.95 290.11C1020.42 289.647 1018.97 289.21 1017.96 289.21C1017.48 289.21 1017.15 289.234 1016.91 289.251C1016.61 289.273 1016.43 289.285 1016.27 289.239C1016.03 289.169 1015.83 288.966 1015.32 288.457C1014.18 287.327 1008.91 291.095 1005.9 294.109C1002.88 297.122 999.866 300.137 997.983 302.774C996.097 305.414 987.805 309.558 986.299 309.934C984.794 310.313 981.778 314.835 981.025 317.471C980.744 318.452 980.152 319.537 979.459 320.803C978.29 322.944 976.837 325.603 976.127 329.154C975.492 332.326 975.926 333.718 976.429 335.328C976.822 336.586 977.257 337.978 977.257 340.456C977.257 342.826 977.19 344.07 977.141 344.993C977.072 346.271 977.037 346.935 977.257 349.121C977.289 349.442 977.302 349.741 977.299 350.02C977.274 352.391 975.238 354.024 973.306 355.576L973.296 355.584L973.289 355.589L973.139 355.71L972.948 355.863C972.878 355.92 972.807 355.977 972.737 356.034C972.53 356.203 972.327 356.371 972.13 356.54C970.809 357.676 969.473 358.751 968.966 358.92C968.827 358.966 968.642 359.035 968.424 359.117C966.872 359.697 963.646 360.903 963.313 358.92C963.149 357.93 962.551 357.229 961.931 356.501C961.133 355.566 960.298 354.586 960.298 352.89C960.298 351.423 959.763 350.313 959.17 349.082C958.545 347.784 957.855 346.352 957.661 344.224C957.477 342.2 956.845 341.523 956.202 340.834C955.527 340.112 954.841 339.377 954.647 337.062C954.399 334.095 950.745 326.586 947.729 320.389C946.148 317.142 944.743 314.254 944.095 312.57C942.744 309.056 942.749 309.03 943.277 306.658L943.278 306.658L943.278 306.656C943.486 305.721 943.776 304.42 944.095 302.396C944.77 298.117 943.429 296.798 942.4 295.788C941.707 295.107 941.156 294.565 941.46 293.352C942.21 290.337 938.442 292.22 937.692 293.352C936.938 294.48 932.038 297.496 929.021 294.855C927.251 293.306 926.652 292.277 925.999 291.157C925.541 290.37 925.057 289.539 924.123 288.45C921.989 285.96 921.198 285.486 917.947 283.538C917.754 283.423 917.552 283.302 917.341 283.175C915.218 281.902 914.172 280.031 913.393 278.639C912.79 277.559 912.347 276.768 911.689 276.768C911.023 276.768 909.469 276.103 907.945 275.362C905.406 274.129 902.698 273.244 899.887 272.99L897.29 272.754C896.339 272.668 895.383 272.65 894.429 272.7L889.232 272.975C888.88 272.994 888.532 273.003 888.18 272.999C886.496 272.982 881.104 272.877 877.021 272.248C875.531 272.019 874.494 271.93 873.719 271.863C871.946 271.71 871.547 271.675 870.235 270.364C869.523 269.653 868.489 269.156 867.436 268.651C865.703 267.819 863.922 266.965 863.453 265.089C862.973 263.172 862.494 263.238 861.724 263.345C861.284 263.406 860.748 263.48 860.063 263.206C859.072 262.811 858.394 262.936 857.864 263.033C857.386 263.121 857.029 263.187 856.671 262.829C856.206 262.364 854.586 262.33 852.349 262.283H852.348C850.968 262.254 849.353 262.22 847.628 262.077C844.179 261.79 842.043 260.185 839.05 257.934C838.12 257.235 837.107 256.474 835.947 255.67C834.811 254.884 833.777 254.24 832.834 253.652C829.71 251.707 827.596 250.39 826.148 246.627C824.265 241.728 822.005 250.395 825.018 256.047C827.6 260.888 827.696 261.584 827.906 263.104L827.906 263.107C827.941 263.361 827.98 263.639 828.034 263.962C828.196 264.94 828.5 265.565 828.915 266.418C829.458 267.536 830.192 269.046 831.047 272.251C831.928 275.551 833.193 276.154 834.618 276.834C835.635 277.319 836.733 277.842 837.831 279.411C839.537 281.85 841.086 281.133 843.498 280.017C844.814 279.409 846.386 278.681 848.381 278.283C851.807 277.596 852.327 276.772 853.463 274.971C854.201 273.801 855.199 272.217 857.425 269.991C861.005 266.411 861.109 267.365 861.373 269.789C861.527 271.194 861.734 273.092 862.702 274.888C864.964 279.09 865.01 279.135 867.353 281.438C867.742 281.82 868.195 282.265 868.732 282.802C870.927 284.997 872.355 285.658 873.686 286.274C874.64 286.715 875.544 287.134 876.646 288.077C878.847 289.965 876.322 292.639 873.674 295.444C873.149 296 872.62 296.56 872.122 297.121C870.949 298.441 870.004 299.305 869.243 300C868.049 301.092 867.308 301.769 866.849 303.151C866.094 305.414 862.325 310.311 858.933 312.95C857.034 314.427 854.661 316.496 852.942 318.029C851.411 319.395 849.702 320.552 847.835 321.403C844.174 323.071 838.117 325.758 837.079 325.758C836.005 325.758 828.814 330.156 824.765 332.687C822.932 333.833 820.937 334.695 818.839 335.219L818.086 335.408C814.727 336.247 811.132 336.369 807.988 334.92C806.852 334.397 805.935 333.823 805.803 333.295C805.704 332.905 805.404 332.185 805.013 331.247C803.895 328.569 802.036 324.113 802.036 320.485C802.036 317.214 798.842 312.767 796.496 309.5L796.495 309.499L796.494 309.498C795.328 307.873 794.371 306.54 794.12 305.789C793.663 304.415 791.674 302.207 789.847 300.178L789.846 300.177L789.846 300.176L789.845 300.175L789.844 300.175L789.843 300.174L789.843 300.173L789.842 300.172L789.841 300.172L789.841 300.171C788.663 298.864 787.553 297.631 786.963 296.746C785.455 294.484 781.683 288.454 781.31 286.947C781.151 286.307 780.651 285.259 779.984 283.86L779.984 283.859L779.983 283.858C779.08 281.965 777.871 279.43 776.788 276.396C775.682 273.297 772.493 269.546 770.051 266.674L770.05 266.673L770.05 266.673C768.335 264.657 766.989 263.074 766.989 262.452C766.989 260.947 762.467 256.801 761.337 256.801L761.227 256.801L761.148 256.801L761.049 256.801L760.852 256.802C760.732 256.803 760.612 256.804 760.491 256.805C758.068 256.827 755.631 256.848 753.771 255.311C752.671 254.403 751.694 253.497 751.539 253.034C751.162 251.902 753.045 257.934 754.177 259.062C755.309 260.194 763.974 277.526 764.727 280.918C765.124 282.697 765.726 283.854 766.373 285.096C766.959 286.222 767.581 287.418 768.119 289.209C768.623 290.888 769.201 291.968 769.888 293.25C770.742 294.845 771.764 296.753 773.018 300.514C774.266 304.258 775.284 305.361 776.263 306.422C777.057 307.283 777.826 308.116 778.67 310.311C779.87 313.432 780.612 314.105 781.772 315.159C782.433 315.759 783.229 316.481 784.322 317.848C785.668 319.529 786.338 320.009 786.97 320.462C787.754 321.023 788.477 321.541 790.354 324.252C791.746 326.266 792.822 327.707 793.762 328.967C795.109 330.773 796.18 332.208 797.512 334.427C799.771 338.196 800.526 341.211 801.656 346.484C802.051 348.328 802.631 349.067 803.362 349.281C805.599 349.933 807.971 349.274 810.337 348.617C811.654 348.251 812.97 347.885 814.261 347.746C816.978 347.455 820.7 347.292 825.395 347.616C833.42 348.168 833.522 347.503 833.605 346.961C833.635 346.765 833.662 346.585 834.062 346.484C834.429 346.393 834.974 346.279 835.601 346.148C837.548 345.742 840.276 345.172 840.844 344.601C841.597 343.848 837.831 358.543 837.079 361.182C836.417 363.492 833.153 367.54 832.355 368.507C832.302 368.571 832.25 368.634 832.198 368.698C832.168 368.734 832.139 368.77 832.109 368.807C832.076 368.849 832.042 368.891 832.009 368.933C831.367 369.747 829.111 372.649 828.79 373.616C828.512 374.449 825.584 378.543 823.005 382.149L823.003 382.152L822.997 382.161C822.072 383.453 821.194 384.681 820.498 385.674C818.11 389.086 814.175 392.193 812.054 393.868C811.833 394.042 811.632 394.201 811.454 394.343C809.571 395.85 806.934 399.617 804.296 403.764C801.923 407.49 795.59 414.873 794.339 416.322C794.192 416.492 794.052 416.659 793.911 416.833C792.96 418.005 789.083 422.791 788.094 424.111C786.963 425.618 784.323 429.386 784.323 430.893C784.323 431.056 784.314 431.258 784.301 431.492C784.289 431.694 784.273 431.92 784.256 432.164C784.112 434.25 783.874 437.678 785.078 439.183C785.841 440.138 786.315 442.545 786.891 445.472C787.452 448.32 788.109 451.66 789.224 454.632C790.61 458.33 790.579 459.194 790.522 460.786C790.486 461.79 790.44 463.084 790.732 465.56C791.484 471.966 791.484 473.097 791.484 474.227C791.484 474.721 791.053 475.933 790.567 477.298L790.567 477.299L790.566 477.3C789.94 479.062 789.222 481.08 789.222 482.142C789.222 484.027 783.568 487.796 780.933 489.301C779.476 490.133 778.709 490.851 777.997 491.516C777.419 492.057 776.877 492.563 776.033 493.069C774.371 494.065 769.782 499.747 768.718 501.078C768.568 501.266 768.427 501.452 768.291 501.65C767.451 502.876 764.303 507.77 763.974 512.661C763.731 516.3 764.112 516.036 764.617 515.688C764.896 515.495 765.213 515.276 765.482 515.68C765.858 516.245 765.858 517.752 765.858 519.542C765.858 521.332 765.858 523.404 766.234 525.099C766.776 527.536 765.954 527.443 765.03 527.338C764.668 527.297 764.29 527.254 763.972 527.361C763.423 527.544 762.874 528.172 762.239 528.899C761.567 529.668 760.797 530.548 759.829 531.129C757.945 532.261 755.682 534.143 753.797 539.043L753.527 539.746C752.566 542.245 752.446 542.558 752.233 542.784C752.202 542.816 752.17 542.846 752.133 542.881C752.013 542.993 751.845 543.151 751.535 543.563C750.537 544.893 750.128 545.928 749.528 547.447L749.428 547.699C749.378 547.825 749.327 547.954 749.273 548.086C749.198 548.274 749.123 548.469 749.047 548.669C748.351 550.478 747.504 552.682 745.13 553.36C743.47 553.834 741.958 555.654 740.501 557.407C739.645 558.438 738.807 559.446 737.97 560.144C736.84 561.085 736.369 561.556 735.757 562.168C735.145 562.781 734.391 563.535 732.694 565.044C730.396 567.088 729.136 568.439 727.976 569.683L727.975 569.685L727.967 569.693C727.419 570.281 726.893 570.845 726.289 571.447C724.404 573.331 722.522 574.839 721.016 574.088C720.19 573.675 719.028 574.389 717.836 575.121C716.848 575.728 715.839 576.348 714.985 576.348C714.043 576.348 713.1 576.913 712.157 577.479C711.215 578.044 710.273 578.609 709.332 578.609C708.717 578.609 708.103 578.73 707.475 578.852C706.179 579.106 704.827 579.371 703.303 578.609C701.789 577.854 699.938 579.122 698.427 580.156C697.68 580.668 697.017 581.122 696.519 581.246C696.209 581.324 695.786 581.273 695.31 581.144C692.17 580.292 689.964 577.536 688.613 574.577C688.58 574.504 688.547 574.431 688.514 574.358C688.486 574.295 688.457 574.231 688.429 574.168C688.361 574.015 688.295 573.862 688.229 573.709C687.399 571.774 686.976 568.217 686.661 565.567C686.546 564.604 686.446 563.761 686.346 563.159C686.118 561.799 685.481 560.711 684.764 559.485C684.29 558.674 683.78 557.803 683.331 556.753C683.249 556.564 683.176 556.392 683.109 556.236C682.681 555.234 682.519 554.856 682.297 554.518C682.161 554.314 682.004 554.124 681.75 553.819C681.646 553.693 681.525 553.547 681.382 553.373C681.288 553.257 681.184 553.129 681.069 552.985C680.219 551.922 679.369 550.979 678.383 549.885C677.622 549.04 676.779 548.106 675.794 546.956C674.286 545.197 674.454 544.444 674.621 543.69C674.705 543.313 674.789 542.936 674.664 542.433C674.549 541.977 674.435 541.347 674.311 540.661L674.31 540.659C674.023 539.078 673.681 537.19 673.157 536.403C672.564 535.518 672.668 532.321 672.74 530.072L672.741 530.067C672.761 529.446 672.778 528.897 672.778 528.489C672.778 526.616 672.405 525.118 671.663 522.142L671.648 522.084C671.264 520.547 670.684 519.597 670.157 518.735C669.651 517.908 669.195 517.161 669.01 516.053C668.635 513.793 667.505 510.401 665.62 507.011C665.042 505.972 664.5 504.862 663.94 503.714C662.671 501.115 661.306 498.319 659.215 495.704C657.3 493.311 657.513 492.439 657.827 491.155C658.008 490.418 658.221 489.545 658.084 488.171C657.846 485.786 658.362 483.854 658.964 482.088C659.632 480.127 660.554 478.249 661.704 476.525L662.23 475.738L665.068 470.372C665.435 469.678 665.744 468.956 665.992 468.211C666.246 467.45 666.434 466.67 666.563 465.879C666.812 464.354 667.247 461.813 667.505 461.039C667.878 459.909 666.373 456.517 665.243 454.632C664.517 453.422 664.724 452.834 665.065 451.867C665.255 451.33 665.485 450.676 665.62 449.734C665.837 448.212 665.679 447.569 665.433 446.572C665.253 445.842 665.026 444.922 664.866 443.33C664.638 441.047 663.858 440.009 662.943 438.791C662.347 437.998 661.694 437.129 661.1 435.792C660.963 435.484 660.832 435.192 660.708 434.913C659.458 432.117 658.804 430.654 658.459 428.256C658.086 425.619 655.071 421.473 653.939 419.964C652.809 418.459 650.547 415.824 647.156 412.807C644.558 410.498 645.165 406.277 646.613 403.117C646.782 402.749 646.963 402.448 647.156 402.255C647.954 401.457 648.188 398.78 648.39 396.48C648.474 395.523 648.552 394.631 648.662 393.966C648.909 392.493 648.034 389.419 647.395 387.456C647.008 386.268 646.398 385.169 645.647 384.169L645.276 383.757C644.421 382.807 643.139 382.317 641.872 381.833C640.328 381.243 638.808 380.662 638.112 379.271C637.69 378.425 636.556 378.764 635.641 379.226C634.772 379.664 633.8 379.932 632.839 379.773C632.34 379.69 631.861 379.506 631.467 379.189C630.768 378.628 629.693 377.629 629.445 376.631C629.21 375.689 628.387 374.894 627.527 374.064C627.01 373.565 626.479 373.052 626.055 372.487C625.447 371.677 624.73 371.629 624.02 371.581C623.411 371.54 622.808 371.5 622.285 370.977C621.72 370.413 621.155 370.413 620.307 370.413C619.459 370.413 618.329 370.413 616.633 369.849C614.714 369.21 614.122 369.655 613.628 370.026C613.249 370.311 612.929 370.552 612.111 370.225C610.94 369.758 609.769 370.162 608.688 370.535C608.031 370.762 607.407 370.977 606.837 370.977C606.029 370.977 604.572 371.627 603.219 372.23C602.047 372.753 600.954 373.241 600.429 373.241C599.904 373.241 598.812 373.565 597.642 373.913C596.289 374.316 594.832 374.749 594.023 374.749C593.352 374.749 592.531 375.122 591.693 375.503C590.651 375.977 589.584 376.463 588.75 376.254C588.151 376.104 587.612 376.192 587.061 376.282C586.225 376.418 585.364 376.558 584.228 375.877C582.686 374.954 580.641 376.551 579.329 377.575L579.328 377.575C579.037 377.803 578.781 378.002 578.576 378.139C577.446 378.892 573.299 380.399 571.792 379.646C571.095 379.297 570.075 379.512 569.031 379.733C567.818 379.99 566.573 380.253 565.762 379.646C565.023 379.09 564.013 378.898 563.041 378.713C562.031 378.521 561.064 378.337 560.487 377.761C559.989 377.262 559.052 376.837 558.062 376.389C556.807 375.82 555.468 375.213 554.837 374.371C554.096 373.384 551.744 371.431 550.205 370.199C549.281 369.458 548.405 368.658 547.617 367.773C546.444 366.458 544.761 364.536 544.285 363.82C544.112 363.561 543.82 363.143 543.469 362.639L543.467 362.637L543.467 362.636C542.285 360.943 540.43 358.285 540.139 357.415C539.951 356.849 539.102 355.246 538.254 353.643L538.252 353.64C537.406 352.041 536.56 350.443 536.371 349.878C536.084 349.018 534.489 347.504 533.078 346.165C532.635 345.744 532.21 345.34 531.849 344.979C531.199 344.33 529.991 343.471 528.825 342.703C526.896 341.433 524.162 339.366 525.442 337.442C525.727 337.016 525.743 336.051 525.653 335.016C525.527 333.578 525.007 332.228 524.486 330.875C524.135 329.962 523.783 329.048 523.55 328.104C523.377 327.401 523.333 326.702 523.559 326.138C523.867 325.365 524.429 324.211 525.037 322.963C525.912 321.169 526.881 319.18 527.326 317.848C527.821 316.361 527.99 315.037 528.263 312.913V312.912C528.405 311.806 528.574 310.482 528.832 308.804C529.391 305.176 529.122 304.648 528.639 303.701C528.47 303.369 528.274 302.986 528.079 302.399C527.397 300.357 527.332 299.237 527.048 294.323L527.033 294.069C526.977 293.104 527.134 292.135 527.493 291.238C527.632 290.891 527.801 290.557 527.989 290.235C528.769 288.902 530.93 285.04 531.847 281.673C532.799 278.181 534.555 275.758 535.535 274.405C535.718 274.153 535.874 273.937 535.993 273.76C536.304 273.292 536.744 272.761 537.26 272.139L537.261 272.138L537.261 272.137L537.262 272.136L537.263 272.135C537.995 271.253 538.878 270.187 539.761 268.863C541.269 266.601 543.153 264.339 544.283 263.587C545.185 262.986 546.567 261.423 547.088 260.817L547.102 260.801C547.238 260.643 547.372 260.487 547.512 260.333C548.242 259.535 550.673 256.939 552.573 255.674C553.469 255.077 554.839 253.947 556.166 252.801C558.721 250.593 560.396 247.304 559.732 243.993C559.492 242.796 560.62 241.143 561.475 240.096C562.035 239.412 562.514 238.656 562.794 237.817C563.248 236.457 564.198 235.317 565.455 234.626L569.025 232.663C570.359 231.93 571.582 231.011 572.658 229.935L574.802 227.789L580.434 220.284ZM832.534 468.192C832.542 468.194 832.547 468.202 832.544 468.21L832.532 468.255L832.517 468.21C832.514 468.2 832.523 468.19 832.534 468.192V468.192ZM832.532 468.255L833.8 472.187C834.72 475.039 835.189 478.016 835.189 481.013V481.013C835.189 482.519 834.812 484.028 834.057 485.534C833.531 486.585 833.189 489.468 832.903 491.884L832.902 491.885L832.902 491.886L832.902 491.887L832.902 491.888L832.902 491.89L832.901 491.892L832.901 491.894V491.894C832.777 492.939 832.664 493.895 832.55 494.578C832.37 495.658 831.673 496.911 830.995 498.13C830.255 499.461 829.537 500.752 829.537 501.735C829.537 502.797 828.342 504.932 827.299 506.797L827.298 506.798L827.297 506.799L827.297 506.8L827.297 506.801L827.296 506.801L827.296 506.802L827.295 506.803L827.295 506.803L827.295 506.804C826.486 508.249 825.768 509.532 825.768 510.025C825.768 510.527 825.023 511.776 824.228 513.106C823.235 514.767 822.166 516.557 822.375 517.184C822.532 517.652 822.301 518.764 822.004 520.2C821.581 522.237 821.024 524.927 821.245 527.36V527.36C821.559 530.785 816.79 532.549 813.423 533.254C813.021 533.338 812.612 533.386 812.203 533.386V533.386C809.647 533.386 806.499 532.699 805.106 530.557L803.844 528.616C803.15 527.548 802.782 526.303 802.769 525.029C802.743 522.51 802.661 518.235 802.402 516.429C802.026 513.793 803.907 513.038 805.789 512.284L805.794 512.282C807.679 511.529 808.809 507.762 808.809 504.749C808.809 501.733 808.809 499.472 809.184 498.34C809.562 497.212 809.184 493.065 808.054 489.673V489.673C807.113 486.846 811.731 486.21 814.511 485.137C814.926 484.977 815.301 484.848 815.591 484.776C816.154 484.635 816.874 484.232 817.556 483.782C819.069 482.782 820.555 481.727 822.178 480.916V480.916C825.52 479.245 828.449 476.789 830.236 473.507C831.172 471.79 832.079 469.882 832.532 468.255ZM1125.97 530.516V530.515C1126.43 525.565 1126.95 520.068 1127.57 519.107C1127.59 519.082 1127.61 519.066 1127.64 519.056V519.056C1127.66 519.048 1127.68 519.036 1127.7 519.02C1127.89 518.828 1129.23 517.535 1130.62 517.185C1132.13 516.807 1134.01 516.055 1136.27 513.794C1138.54 511.532 1140.04 511.157 1142.3 510.78C1143.27 510.619 1143.96 510.322 1144.69 510.004C1145.69 509.577 1146.76 509.112 1148.71 508.895C1151.09 508.632 1151.24 508.553 1152.81 507.748C1153.48 507.406 1154.41 506.933 1155.87 506.258C1157.84 505.345 1159.15 504.8 1160.22 504.352C1161.8 503.689 1162.89 503.236 1164.91 502.113C1166.98 500.963 1167.36 500.375 1167.61 500.006C1167.76 499.769 1167.86 499.622 1168.3 499.475C1169.09 499.213 1169.51 497.86 1170.07 496.048L1170.07 496.046C1170.32 495.25 1170.59 494.365 1170.94 493.444C1171.58 491.739 1172.1 491.119 1172.56 490.562C1172.92 490.134 1173.25 489.743 1173.58 488.924C1173.97 487.943 1174.05 488.289 1174.21 488.9C1174.35 489.463 1174.54 490.25 1175.08 490.431C1175.57 490.595 1175.92 491.042 1176.25 491.464C1176.68 492.016 1177.08 492.527 1177.72 492.313C1178.51 492.048 1178.75 490.108 1178.95 488.455L1178.95 488.451C1179.03 487.754 1179.11 487.108 1179.23 486.661C1179.43 485.859 1180.37 485.484 1181.38 485.082C1182.27 484.727 1183.22 484.352 1183.75 483.646C1184.26 482.96 1184.54 482.275 1184.84 481.554C1185.19 480.69 1185.56 479.775 1186.39 478.749C1187.7 477.102 1189.31 476.318 1191.2 475.392L1191.22 475.386C1191.48 475.254 1191.76 475.12 1192.04 474.98C1193.99 474.003 1195.38 475.84 1196.7 477.574L1196.7 477.575C1196.7 477.576 1196.7 477.576 1196.7 477.577V477.577L1196.7 477.578C1196.9 477.848 1197.11 478.116 1197.31 478.37V478.37C1197.87 479.066 1198.81 481.403 1199.64 481.72C1202.05 482.637 1205.28 483.731 1205.98 483.269C1206.45 482.957 1206.33 482.581 1206.15 481.955C1205.88 481.066 1205.47 479.672 1206.36 477.24C1207.31 474.63 1207.51 474.709 1208.09 474.937C1208.43 475.072 1208.91 475.258 1209.75 474.979C1210.64 474.682 1210.83 474.619 1210.89 474.491C1210.91 474.456 1210.92 474.416 1210.93 474.366C1210.97 474.131 1211.07 473.66 1212.38 472.342C1212.95 471.771 1213.49 471.184 1214.02 470.601C1215.94 468.488 1217.8 466.445 1221.05 465.556C1221.71 465.376 1222.19 465.244 1222.53 465.149C1223.19 464.968 1223.36 464.921 1223.36 464.936C1223.37 464.941 1223.35 464.954 1223.33 464.97C1223.23 465.039 1223.04 465.18 1223.69 465.18C1224.45 465.18 1225.11 465.274 1226.1 465.416C1227.09 465.557 1228.41 465.745 1230.47 465.933C1234.62 466.311 1234.99 466.311 1236.88 466.311V466.311C1239.03 466.311 1238.08 469.503 1237.05 471.388C1236.63 472.163 1236.26 472.937 1236.12 473.472C1235.93 474.23 1235.74 475.464 1235.55 476.695C1235.37 477.913 1235.18 479.128 1234.99 479.877C1234.62 481.384 1236.5 484.024 1237.63 484.024C1238.19 484.024 1238.74 484.749 1239.34 485.533C1239.96 486.346 1240.63 487.221 1241.4 487.412C1242.91 487.791 1245.92 490.804 1247.05 491.936C1247.76 492.642 1248.91 492.611 1250.04 492.581C1250.71 492.563 1251.39 492.546 1251.95 492.688C1252.67 492.87 1253.31 492.445 1253.98 491.994C1254.71 491.505 1255.49 490.985 1256.47 491.181C1257.8 491.447 1258.75 489.107 1259.59 487.039C1259.94 486.163 1260.28 485.337 1260.62 484.777C1260.91 484.293 1261.32 483.511 1261.78 482.615C1263.83 478.581 1265.19 474.236 1266.03 469.787C1266.39 467.875 1266.76 465.911 1267.03 464.428C1267.63 461.091 1268.24 462.887 1268.65 464.106C1268.75 464.4 1268.84 464.66 1268.91 464.806C1269 464.985 1269.13 465.186 1269.29 465.428C1269.8 466.204 1270.6 467.409 1271.17 469.705C1271.6 471.408 1272.38 472.389 1273.19 473.397C1273.81 474.173 1274.45 474.963 1274.94 476.11C1275.44 477.28 1275.87 478.522 1276.29 479.741C1276.81 481.272 1277.32 482.765 1277.95 484.026C1278.72 485.553 1278.96 487.598 1279.16 489.228C1279.26 490.009 1279.34 490.695 1279.46 491.183C1279.84 492.689 1279.46 497.966 1278.33 498.721V498.721C1275.71 500.461 1283.64 501.525 1285.44 504.096C1286.27 505.265 1287 506.924 1287.37 509.272C1288.1 513.863 1289.6 515.354 1290.78 516.53C1291.44 517.187 1292 517.746 1292.27 518.692C1292.76 520.417 1293.9 520.692 1295.58 521.096C1296.46 521.31 1297.5 521.561 1298.68 522.082C1300.48 522.886 1300.37 523.687 1300.2 524.828C1300.06 525.833 1299.88 527.102 1300.94 528.868C1302.44 531.362 1302.12 533.856 1301.84 536.022C1301.7 537.128 1301.56 538.148 1301.69 539.04C1301.93 540.694 1301.57 542.199 1301.27 543.462L1301.27 543.464C1301.1 544.217 1300.94 544.883 1300.94 545.445C1300.94 546.031 1300.48 547.018 1299.9 548.271C1298.99 550.236 1297.78 552.857 1297.55 555.617C1297.26 559.127 1296.28 560.14 1295.51 560.946L1295.51 560.947C1295.42 561.037 1295.34 561.125 1295.26 561.213C1295.21 561.268 1295.16 561.323 1295.11 561.379C1295.07 561.436 1295.02 561.494 1294.98 561.555C1294.95 561.586 1294.93 561.617 1294.91 561.649C1294.69 561.976 1294.29 562.396 1293.72 562.984L1293.72 562.985C1292.32 564.432 1289.95 566.892 1287 571.446C1284.02 576.047 1283.18 576.567 1281.27 577.75L1281.27 577.75C1280.52 578.215 1279.6 578.781 1278.33 579.736C1275.18 582.103 1274.77 582.635 1274.3 583.252C1274.1 583.519 1273.89 583.803 1273.43 584.258L1273.34 584.347L1273.34 584.35C1271.84 585.857 1269.63 588.072 1267.78 590.287C1265.89 592.549 1264.39 594.055 1250.07 600.464C1240.96 604.538 1241 604.495 1241.94 603.536C1242.48 602.988 1243.32 602.141 1242.91 601.594C1242.29 600.765 1240.87 600.619 1239.41 600.469C1238.21 600.345 1236.97 600.218 1236.13 599.709C1235.02 599.046 1234.3 599.55 1233.44 600.156C1232.84 600.582 1232.16 601.059 1231.23 601.216C1228.97 601.595 1226.34 598.963 1224.83 597.453L1224.82 597.445C1224.34 596.962 1223.97 596.75 1223.71 596.598C1223.15 596.277 1223.06 596.224 1223.32 594.432C1223.47 593.328 1223.23 592.818 1223.01 592.35C1222.71 591.699 1222.44 591.128 1223.32 589.157C1223.64 588.432 1223.72 587.776 1223.65 587.192C1223.3 584.355 1219.24 582.391 1220.3 579.736V579.736C1220.51 579.221 1220.83 578.535 1221.18 577.772C1222.12 575.751 1223.32 573.19 1223.32 571.824C1223.32 570.738 1222.44 571.529 1221.48 572.393C1220.78 573.03 1220.03 573.706 1219.55 573.706C1218.62 573.706 1213.7 576.706 1211.91 577.819C1211.48 578.087 1210.99 578.25 1210.49 578.292V578.292C1208.53 578.456 1206.9 576.812 1207.02 574.851C1207.08 574.001 1207.11 573.174 1207.11 572.576C1207.11 571.705 1205.9 570.914 1204.42 569.942L1204.42 569.942C1202.69 568.813 1200.59 567.441 1199.58 565.416C1198.47 563.199 1196.58 563.984 1194.67 564.774C1193.33 565.327 1191.99 565.882 1190.91 565.416C1189.52 564.82 1187.28 565.171 1185.04 565.523C1183.03 565.836 1181.03 566.151 1179.61 565.796C1177.96 565.383 1176.88 566.43 1175.8 567.466C1174.91 568.33 1174.02 569.186 1172.82 569.186C1171.74 569.186 1170.15 569.819 1168.48 570.488C1166.06 571.452 1163.45 572.491 1161.89 571.824C1160.41 571.186 1159.04 572.584 1157.86 573.791C1156.95 574.724 1156.14 575.542 1155.49 575.214C1154.61 574.775 1152.3 575.237 1150.02 575.695C1148.4 576.021 1146.78 576.345 1145.69 576.345C1144.42 576.345 1143.32 576.873 1142.18 577.418C1140.97 578.002 1139.71 578.606 1138.15 578.606C1136.17 578.606 1133.86 579.422 1131.98 580.087C1131 580.433 1130.13 580.739 1129.49 580.868C1128.96 580.974 1128.23 581.05 1127.44 581.105C1124.63 581.301 1120.44 580.673 1120.44 577.855V577.855C1120.44 576.726 1121.2 575.97 1123.08 576.348C1124.24 576.58 1124.26 573.531 1124.27 570.537C1124.29 568.664 1124.3 566.812 1124.59 565.797C1125.34 563.159 1124.21 554.87 1123.46 552.607C1122.7 550.348 1124.21 540.55 1124.96 538.666C1125.29 537.851 1125.62 534.349 1125.97 530.518V530.516ZM1149.84 370.221C1149.83 370.224 1149.83 370.227 1149.83 370.231C1148.32 372.5 1143.43 379.27 1141.55 379.648C1140.75 379.806 1139.95 380.236 1139.18 380.649C1138.13 381.214 1137.14 381.749 1136.27 381.531C1134.76 381.153 1131.37 381.531 1130.24 386.43C1129.11 391.328 1127.23 393.967 1126.09 393.588C1125.76 393.477 1125.79 394.061 1125.83 394.859C1125.92 396.753 1126.08 399.854 1121.57 397.735C1116.82 395.497 1116.84 398.036 1116.86 400.11C1116.86 400.83 1116.87 401.493 1116.67 401.882C1116.11 403.004 1117.02 405.594 1117.67 407.464C1117.89 408.103 1118.08 408.657 1118.18 409.041C1118.56 410.547 1119.69 413.186 1121.2 415.444C1121.41 415.77 1121.62 416.104 1121.83 416.434C1123.06 418.396 1124.21 420.235 1126.47 419.593C1127.69 419.244 1130.1 419.217 1132.36 419.289C1135.71 419.396 1138.95 420.723 1142.3 420.723V420.723C1143.36 420.723 1143.94 420.483 1144.45 420.275C1144.84 420.113 1145.19 419.969 1145.69 419.969C1146.81 419.969 1149.08 416.199 1148.7 415.824L1148.7 415.822C1148.32 415.439 1147.2 414.311 1149.45 412.054C1150.21 411.298 1151.01 410.711 1151.75 410.165L1151.75 410.164L1151.75 410.163L1151.75 410.163C1153.23 409.077 1154.48 408.157 1154.73 406.402C1154.9 405.237 1154.77 404.587 1154.67 404.093C1154.55 403.47 1154.48 403.098 1155.11 402.255C1155.6 401.598 1156.38 401.3 1157.04 401.048C1157.89 400.721 1158.55 400.47 1158.12 399.618C1157.81 398.994 1157.89 398.693 1157.97 398.34C1158.1 397.841 1158.25 397.238 1157.37 395.472C1157.01 394.764 1156.64 394.16 1156.29 393.601L1156.29 393.598L1156.29 393.597C1155.16 391.779 1154.33 390.439 1155.48 387.558C1156.07 386.097 1156.65 385.089 1157.13 384.27C1157.88 382.979 1158.36 382.159 1158.12 380.776C1157.99 379.955 1158.2 379.333 1158.39 378.748C1158.74 377.719 1159.05 376.804 1157.37 375.122C1154.73 372.487 1153.6 371.732 1151.72 370.976L1149.88 370.215C1149.87 370.209 1149.85 370.212 1149.84 370.221V370.221ZM1224.75 407.49C1224.33 407.68 1223.96 407.841 1223.71 407.907C1223.7 407.908 1223.7 407.904 1223.7 407.899V407.899C1223.7 407.896 1223.7 407.893 1223.7 407.892C1223.56 407.867 1219.56 407.153 1219.93 407.909V407.909C1220.21 408.46 1220.14 409.474 1220.63 409.842L1225.59 413.561C1226.41 414.179 1227.01 414.698 1227.43 415.134C1229.32 417.101 1224.63 419.721 1226.34 421.852V421.852C1227.32 423.077 1228.62 423.186 1230.25 423.321C1231.11 423.393 1232.07 423.473 1233.12 423.737C1236.14 424.488 1236.14 424.488 1237.27 424.867V424.867C1238.24 425.191 1239.26 425.465 1240.2 425.869C1241.65 426.488 1243.9 427.408 1245.56 427.88C1246.88 428.258 1247.54 429.107 1248.2 429.954C1248.86 430.803 1249.52 431.651 1250.84 432.027V432.027C1254.18 432.982 1253.51 438.629 1251.99 441.765C1251.98 441.785 1251.97 441.805 1251.97 441.824C1250.84 444.084 1252.72 444.838 1255.73 443.708C1257.75 442.95 1258.25 443.715 1258.92 444.756C1259.25 445.268 1259.63 445.847 1260.25 446.344C1262.14 447.851 1265.9 449.361 1269.3 448.229C1270.95 447.681 1271.53 448.379 1271.99 448.937C1272.48 449.527 1272.84 449.96 1274.19 448.606C1274.59 448.214 1274.96 447.83 1275.32 447.461C1277.39 445.346 1279 443.708 1280.6 443.708C1282.48 443.708 1283.99 444.459 1285.12 446.723C1285.73 447.93 1287.41 449.032 1289.19 450.197C1290.73 451.213 1292.36 452.278 1293.41 453.505C1294.73 455.045 1296.44 455.943 1297.78 456.649C1298.74 457.152 1299.5 457.557 1299.82 458.027C1300.57 459.158 1307.73 459.158 1309.99 459.158C1312.25 459.158 1310.37 456.897 1307.73 455.011C1306.14 453.88 1305.1 453.02 1302.81 451.122L1302.8 451.115L1302.77 451.092L1302.77 451.09C1301.25 449.833 1299.18 448.124 1296.05 445.589L1295.49 445.14L1294.98 444.726L1294.98 444.723C1292.37 442.622 1291.65 442.038 1291.75 441.782C1291.79 441.683 1291.95 441.633 1292.18 441.563C1292.78 441.374 1293.85 441.04 1294.16 439.186C1294.6 436.544 1294.27 436.603 1293.54 436.734C1293.03 436.827 1292.31 436.955 1291.53 436.172C1290.74 435.383 1290.54 434.726 1290.31 433.924C1289.98 432.812 1289.57 431.422 1287.38 429.014C1284.95 426.338 1284.87 426.331 1284.01 426.257C1283.53 426.217 1282.82 426.156 1281.35 425.622C1280.08 425.161 1279.06 424.876 1278.17 424.627C1276.14 424.063 1274.78 423.682 1272.69 421.853C1271.08 420.45 1269.16 420.006 1266.97 419.502C1265.05 419.058 1262.92 418.567 1260.63 417.332C1257.95 415.891 1256.51 415.686 1255.57 415.552C1254.79 415.441 1254.36 415.379 1253.85 414.696C1252.92 413.465 1252.25 413.488 1250.81 413.539H1250.8L1250.8 413.539C1250.63 413.545 1250.46 413.551 1250.27 413.556C1250.09 413.56 1249.9 413.563 1249.69 413.563C1248.74 413.563 1248.19 413.563 1247.81 413.82C1247.3 414.171 1247.12 414.999 1246.68 416.955C1246.17 419.269 1244.6 420.003 1242.81 420.836C1241.98 421.223 1241.11 421.632 1240.27 422.23C1237.64 424.115 1236.13 422.982 1233.87 419.213C1233.26 418.186 1232.78 417.579 1232.4 417.102C1231.4 415.829 1231.13 415.482 1230.86 410.548C1230.54 404.92 1226.86 406.555 1224.75 407.49ZM1054.1 376.626C1054.11 376.622 1054.13 376.626 1054.14 376.637C1054.34 376.825 1056.17 378.485 1059.02 378.128C1061.12 377.864 1062.86 380.912 1064.36 383.543C1065.01 384.678 1065.61 385.736 1066.18 386.417C1068.06 388.678 1069.19 389.808 1073.34 392.447C1074.88 393.429 1075.8 393.366 1076.63 393.308C1078.04 393.212 1079.21 393.132 1082.76 398.099C1085.58 402.055 1086.34 402.809 1086.71 403.185L1086.72 403.191C1086.75 403.225 1086.79 403.256 1086.81 403.286C1086.84 403.309 1086.86 403.331 1086.88 403.354C1087.13 403.629 1087.31 403.965 1088.41 406.011C1091.05 410.914 1092.56 413.549 1094.06 414.683C1095.57 415.813 1096.7 418.825 1097.08 419.956C1097.23 420.417 1097.76 421.254 1098.33 422.161C1099.17 423.476 1100.09 424.938 1100.09 425.608C1100.09 425.795 1100.11 426.034 1100.14 426.314C1100.26 427.726 1100.47 430.19 1098.59 432.39V432.39C1096.39 434.947 1092.67 434.748 1090.07 432.61C1089.4 432.061 1088.8 431.472 1088.41 430.883C1087.89 430.109 1087.33 429.378 1086.71 428.57L1086.71 428.567C1085.52 427.019 1084.11 425.187 1082.38 422.218C1079.74 417.695 1076.73 412.796 1075.22 410.536C1074.62 409.628 1073.89 408.721 1073.17 407.814L1073.17 407.813L1073.16 407.812C1072.08 406.458 1071 405.104 1070.32 403.752C1070.13 403.373 1069.89 402.866 1069.61 402.283L1069.61 402.281C1068.22 399.383 1065.93 394.582 1064.67 393.954C1063.91 393.573 1063.44 392.81 1062.82 391.808C1062.21 390.824 1061.46 389.609 1060.15 388.302C1058.5 386.655 1058.03 385.156 1057.63 383.896C1057.39 383.136 1057.18 382.463 1056.76 381.896C1056 380.887 1054.57 379.03 1053.7 377.914C1053.36 377.464 1053.56 376.806 1054.1 376.626V376.626V376.626ZM317.718 668.693C319.042 669.377 320.287 670.019 321.189 670.533C321.203 670.541 321.22 670.533 321.225 670.518V670.518C321.228 670.506 321.239 670.498 321.251 670.5C321.623 670.572 326.939 671.58 328.748 670.546L328.748 670.546L328.75 670.545L328.751 670.544C329.362 670.177 329.576 670.049 329.559 669.966C329.555 669.943 329.534 669.924 329.499 669.904C329.479 669.892 329.455 669.88 329.426 669.868C329.406 669.859 329.384 669.849 329.361 669.839C329.031 669.698 328.371 669.416 327.994 668.285C327.817 667.752 327.639 667.323 327.477 666.931C326.949 665.657 326.576 664.758 326.863 661.878C327.096 659.549 327.76 658.516 328.679 657.088C329.247 656.206 329.911 655.172 330.631 653.589C331.761 651.103 331.671 650.65 331.418 649.384C331.249 648.539 331.008 647.333 331.008 644.922C331.008 639.996 329.247 640.351 326.754 640.852C326.195 640.964 325.599 641.084 324.978 641.153C321.96 641.49 323.416 637.648 324.04 636.001C324.083 635.89 324.121 635.788 324.154 635.699C324.182 635.625 324.205 635.558 324.224 635.502C324.601 634.371 325.356 632.863 327.239 630.98V630.98C328.935 629.284 329.651 626.767 329.418 624.38C329.321 623.381 329.031 622.353 328.368 621.558C327.669 620.718 327.281 620.087 326.974 619.586C326.453 618.738 326.162 618.265 324.978 617.791C323.676 617.27 323.814 614.949 324.023 613.565C324.122 612.911 324.616 612.404 325.253 612.222L325.615 612.118C326.323 611.916 327.069 612.282 327.342 612.966V612.966C327.513 613.394 327.879 613.714 328.331 613.802C329.683 614.067 332.602 614.499 334.021 613.647C335.545 612.733 335.345 610.589 335.013 607.016C334.934 606.167 334.847 605.238 334.775 604.225C334.536 600.877 335.056 601.02 335.661 601.186C336.009 601.281 336.385 601.385 336.66 600.835C337.268 599.621 339.833 601.098 341.594 602.112C342.018 602.356 342.396 602.574 342.688 602.72C343.588 603.17 344.219 602.68 344.823 602.212C345.23 601.896 345.625 601.59 346.08 601.59C346.569 601.59 347.128 600.674 347.819 599.542C348.726 598.057 349.859 596.201 351.355 595.56C352.333 595.141 352.586 595.032 352.575 594.985C352.571 594.968 352.535 594.959 352.486 594.947C352.298 594.9 351.921 594.806 352.487 594.051C352.92 593.474 353.187 593.118 353.437 592.75C353.838 592.158 354.194 591.535 355.121 589.912L355.123 589.909L355.124 589.906C356.089 588.217 354.122 587.301 351.692 586.169C350.324 585.532 348.81 584.826 347.589 583.876C344.197 581.239 343.067 579.729 343.82 577.092C344.202 575.756 344.584 576.066 345.604 576.891C346.597 577.695 348.192 578.986 350.979 579.729C354.319 580.62 355.554 580.591 356.316 580.573C356.844 580.56 357.145 580.553 357.762 580.861V580.861C358.905 581.432 359.836 579.446 360.96 578.838C362.092 578.226 363.415 577.283 364.169 575.962C364.874 574.729 364.92 574.649 364.923 574.567C364.923 574.561 364.923 574.555 364.923 574.549C364.923 574.455 364.923 574.267 365.676 572.572C366.472 570.782 366.953 570.357 367.894 569.523C368.736 568.777 369.947 567.705 372.083 565.035C374.861 561.56 374.508 561.646 373.911 561.789C373.537 561.88 373.067 561.993 373.213 561.267C373.349 560.582 373.635 559.799 373.943 558.953C374.484 557.468 375.096 555.788 375.096 554.108C375.096 552.79 375.944 551.66 377.075 550.152C378.205 548.645 379.618 546.761 380.748 543.936C383.01 538.282 383.01 537.529 380.748 533.005C378.487 528.485 386.024 526.224 387.907 525.849C389.79 525.474 395.821 523.963 400.718 522.457L401.065 522.35L401.516 522.211L401.518 522.211C403.37 521.642 403.923 521.472 404.431 521.213C404.647 521.102 404.855 520.976 405.152 520.795C405.608 520.517 406.274 520.112 407.501 519.442C409.356 518.429 410.079 518.474 410.413 518.495C410.51 518.501 410.575 518.505 410.625 518.48C410.721 518.432 410.762 518.274 410.883 517.811C410.964 517.504 411.079 517.061 411.27 516.426C411.847 514.5 412.228 513.657 412.914 512.138C413.571 510.683 414.508 508.608 416.167 504.368C418.168 499.255 418.07 499.258 417.809 499.268C417.627 499.275 417.366 499.284 417.675 497.586C418.001 495.793 418.115 494.776 418.232 493.741L418.232 493.74C418.384 492.382 418.54 490.995 419.182 487.789C419.741 484.989 419.839 482.837 419.932 480.782V480.782C420.027 478.687 420.118 476.694 420.688 474.221L420.692 474.207C421.226 471.892 421.252 471.778 421.294 471.772C421.296 471.771 421.298 471.771 421.301 471.771C421.348 471.771 421.442 471.771 422.195 469.323C422.849 467.197 423.148 465.852 423.432 464.579C423.801 462.92 424.143 461.382 425.209 458.396C426.354 455.19 426.664 455.325 427.07 455.5C427.331 455.614 427.633 455.744 428.224 455.004C428.799 454.285 429.155 453.567 429.5 452.87C430.06 451.738 430.593 450.662 431.992 449.729C434.251 448.224 436.891 442.195 437.643 438.423C438.044 436.416 437.697 435.907 437.399 435.47C437.138 435.086 436.915 434.758 437.268 433.525C437.678 432.092 436.531 431.66 435.156 431.142C433.999 430.707 432.681 430.21 431.992 429.006C431.182 427.587 430.588 427.693 429.979 427.803C429.456 427.897 428.92 427.993 428.224 427.121C427.586 426.322 426.676 426.064 425.753 425.804C424.5 425.449 423.223 425.088 422.572 423.352C421.97 421.747 420.193 421.317 417.866 420.754C415.823 420.259 413.357 419.662 410.891 418.077C407.708 416.032 407.268 416.317 406.676 416.699C406.286 416.951 405.83 417.245 404.484 416.947C403.003 416.617 401.523 416.575 400.23 416.539C398.563 416.491 397.208 416.453 396.571 415.817C396.106 415.353 395.514 415.779 394.847 416.259C393.891 416.947 392.781 417.746 391.671 416.194C390.748 414.901 390.278 414.604 389.417 414.061C388.521 413.495 387.203 412.662 384.512 410.164C381.292 407.172 381.02 407.271 380.269 407.546C379.79 407.721 379.115 407.967 377.353 407.527C374.905 406.914 374.003 408.179 373.691 409.05C373.677 409.089 373.585 409.075 373.585 409.033V409.033C373.585 407.844 373.585 407.727 373.619 407.715C373.62 407.715 373.621 407.715 373.622 407.715L373.624 407.715C373.627 407.714 373.629 407.714 373.632 407.714C373.679 407.714 373.774 407.714 373.963 406.395L373.963 406.395L373.963 406.393C374.089 405.516 374.13 405.223 374.047 405.181C374.005 405.16 373.932 405.202 373.822 405.265C373.492 405.453 372.832 405.83 371.701 405.265C370.355 404.592 369.543 404.853 368.789 405.096C368.276 405.26 367.789 405.417 367.179 405.265C366.317 405.048 364.343 405.697 362.318 406.362C360.805 406.859 359.263 407.365 358.136 407.527C357.013 407.687 357.462 407.301 358.58 406.339C360.087 405.042 362.811 402.698 364.541 399.236C366.471 395.377 365.622 394.143 364.267 392.174C363.505 391.066 362.582 389.725 361.904 387.553C360.461 382.932 358.355 381.632 355.584 379.921C354.738 379.399 353.83 378.838 352.861 378.134C350.378 376.327 350.328 376.414 350.121 376.775C349.982 377.016 349.773 377.38 348.715 377.38C346.079 377.38 343.44 377.38 341.557 375.117C340.635 374.012 339.714 373.808 338.881 373.623C338.01 373.43 337.236 373.259 336.658 372.102C335.926 370.638 335.193 369.964 333.537 368.44V368.44C333.537 368.44 333.537 368.44 333.537 368.44L333.537 368.44C332.638 367.613 331.467 366.535 329.876 364.945C326.208 361.278 323.779 360.832 321.385 360.393L321.384 360.393C320.826 360.291 320.27 360.189 319.701 360.046C316.952 359.358 316.082 358.672 311.945 355.408C311.548 355.094 311.12 354.757 310.657 354.393C310.204 354.037 309.806 353.742 309.459 353.498C309.041 353.204 308.627 351.113 308.774 350.624V350.624C309.442 348.396 306.551 348.673 302.752 349.037C300.129 349.289 297.071 349.582 294.455 349.119C291.006 348.51 289.523 349.103 288.712 349.427C288.017 349.705 287.816 349.785 287.294 348.741C286.455 347.059 285.615 346.837 283.845 346.369C283.235 346.208 282.514 346.017 281.644 345.727C278.252 344.597 277.499 344.221 275.616 342.336C274.523 341.242 274.444 341.544 273.982 343.315C273.647 344.596 273.112 346.646 271.847 349.493C270.02 353.603 270.13 354.255 270.166 354.465C270.171 354.493 270.174 354.513 270.172 354.532C270.165 354.583 270.118 354.629 269.947 354.794C269.895 354.845 269.831 354.906 269.754 354.982C269.728 355.008 269.7 355.035 269.671 355.064L269.587 355.148C268.08 356.655 265.442 357.783 266.573 352.131C267.208 348.958 267.13 348.873 266.339 348.008C265.722 347.333 264.669 346.181 263.182 342.711C260.794 337.139 259.153 341.468 257.996 344.518C257.51 345.801 257.109 346.857 256.775 346.857V346.857C253.047 346.857 249.95 349.664 247.581 352.542C245.67 354.865 243.368 357.429 241.702 358.54C238.311 360.801 237.556 362.308 238.687 364.568C239.083 365.358 239.11 366.194 239.138 367.076C239.192 368.719 239.25 370.521 241.702 372.484C243.941 374.275 242.589 375.8 241.123 377.453C240.121 378.583 239.066 379.773 239.066 381.149C239.066 382.328 238.518 383.69 237.805 384.965C236.002 388.185 233.585 391.035 231.687 394.199L229.282 398.207C229.021 398.642 228.768 399.078 228.511 399.516C227.564 401.13 225.042 405.27 223.238 406.775C220.976 408.657 220.6 412.802 223.238 415.065C224.981 416.556 225.08 417.556 225.163 418.389C225.206 418.818 225.244 419.203 225.5 419.587C225.884 420.163 224.603 421.328 223.255 422.33C221.636 423.534 220.455 425.278 220.205 427.28V427.28C219.978 429.102 220.521 430.932 221.703 432.336C224.193 435.295 228.368 440.278 228.892 441.065C229.168 441.479 229.748 442.5 230.482 443.794L230.483 443.795L230.483 443.796C231.754 446.035 233.489 449.091 234.922 451.239C236.128 453.047 236.905 455.497 237.596 457.676C238.201 459.585 238.74 461.285 239.444 462.164C240.088 462.97 240.801 464.602 241.554 466.325C242.562 468.631 243.641 471.1 244.719 471.963C246.603 473.47 252.633 478.37 254.516 480.252C256.15 481.887 261.188 485.791 264.709 488.52L264.71 488.521C265.248 488.937 265.749 489.326 266.198 489.675C269.59 492.31 272.229 494.195 275.996 494.195C277.835 494.195 277.968 495.003 278.149 496.093C278.338 497.236 278.579 498.69 280.894 499.849C283.515 501.159 282.718 504.241 281.805 507.775C281.143 510.338 280.419 513.14 280.894 515.675C281.486 518.833 281.251 522.093 281.056 524.808C280.878 527.275 280.733 529.292 281.271 530.369C281.756 531.338 281.617 533.139 281.449 535.325C281.225 538.238 280.948 541.836 282.024 545.064C283.167 548.491 282.924 552.194 282.724 555.25C282.594 557.237 282.482 558.95 282.779 560.137C283.443 562.802 284.11 573.993 284.256 576.565C284.277 576.922 284.299 577.272 284.326 577.629L286.226 603.278C286.438 606.134 286.785 609.934 289.563 610.632V610.632C290.344 610.827 291.023 612.237 291.707 613.655C292.342 614.973 292.981 616.299 293.708 616.661C294.702 617.156 295.04 618.638 295.479 620.562C295.706 621.555 295.96 622.667 296.345 623.821C296.431 624.079 296.51 624.319 296.584 624.543C297.487 627.274 297.62 627.674 299.36 628.72C300.667 629.502 299.981 631.192 299.438 632.532C299.197 633.124 298.985 633.648 298.985 633.995C298.985 634.58 298.379 635.265 297.638 636.104C296.947 636.886 296.138 637.802 295.593 638.893C295.152 639.776 295.63 641.235 296.377 642.684C298.024 645.879 300.2 648.786 301.868 651.969L302.058 652.33C303.023 654.172 304.088 655.958 305.291 657.654C307.114 660.224 309.843 663.937 311.042 664.896C312.28 665.886 315.145 667.365 317.713 668.691L317.716 668.692L317.718 668.693ZM223.877 363.817C223.929 363.815 223.959 363.756 223.929 363.714L221.463 360.192C221.395 360.095 221.335 359.993 221.276 359.89C220.981 359.371 219.93 357.722 218.346 357.407C217.135 357.166 214.991 355.057 213.612 353.58C213.418 353.372 213.219 353.167 213.019 352.962C212.31 352.234 211.597 351.502 211.112 350.617C210.743 349.944 210.432 349.059 210.432 347.989C210.432 347.142 210.277 346.14 210.103 345.02C209.736 342.651 209.287 339.755 210.054 336.685C211.186 332.165 211.563 326.511 211.186 325.003C211.045 324.443 211.269 324.039 211.471 323.675C211.812 323.06 212.09 322.559 210.432 321.611C207.794 320.104 202.519 319.727 199.127 319.727C195.737 319.727 191.59 320.859 190.837 321.234C190.198 321.554 193.624 313.201 195.139 309.507L195.143 309.497C195.413 308.84 195.621 308.332 195.735 308.047C195.81 307.859 195.912 307.607 196.033 307.305C197.131 304.58 199.88 297.759 199.88 296.743C199.88 296.44 199.962 296.191 200.037 295.959C200.243 295.328 200.405 294.831 198.75 293.73C196.49 292.221 192.722 291.468 190.46 292.598C189.65 293.004 189.178 292.925 188.82 292.865C188.179 292.758 187.901 292.711 186.693 295.611C186.564 295.921 186.436 296.232 186.307 296.543C184.55 300.785 182.77 305.085 180.663 305.787C180.137 305.963 179.488 306.22 178.802 306.511C175.531 307.902 172.005 308.726 168.472 308.342C167.614 308.249 166.846 308.149 166.344 308.048C164.46 307.672 156.547 303.527 155.04 300.89C153.533 298.251 152.78 292.598 152.78 289.963C152.78 288.669 153.776 286.109 154.746 283.612C155.756 281.016 156.739 278.488 156.547 277.527C156.343 276.509 157.571 273.84 158.682 271.423L158.683 271.423L158.683 271.422L158.683 271.422C159.628 269.367 160.489 267.495 160.315 266.975C159.937 265.845 161.069 262.077 162.199 260.57C162.794 259.777 164.642 258.878 166.48 257.986C168.132 257.183 169.776 256.385 170.489 255.671C171.996 254.163 174.634 252.281 177.271 251.526C177.644 251.419 178.01 251.312 178.369 251.208C180.541 250.573 182.438 250.019 184.055 250.019C184.625 250.019 185.471 249.639 186.396 249.225C188.524 248.269 191.065 247.129 191.59 250.019C192.158 253.137 194.22 253.056 196.008 252.985H196.008C196.596 252.962 197.154 252.94 197.62 253.033C198.025 253.114 198.361 253.265 198.668 253.403C199.788 253.908 200.53 254.241 202.895 250.396C205.911 245.496 208.924 243.989 208.924 245.119C208.924 245.679 210.121 245.593 211.423 245.5C212.754 245.405 214.195 245.303 214.576 245.874C214.884 246.336 215.318 246.294 215.904 246.238C216.751 246.156 217.916 246.044 219.475 247.381C220.756 248.479 222.303 249.133 223.512 249.644C224.794 250.186 225.697 250.567 225.503 251.148C225.305 251.741 225.73 252.023 226.178 252.32C226.584 252.589 227.01 252.872 227.01 253.409C227.01 253.737 227.137 253.653 227.317 253.534C227.758 253.241 228.518 252.737 228.518 257.553C228.518 263.761 230.095 267.759 230.363 268.393C230.389 268.454 230.414 268.509 230.443 268.568C230.781 269.276 233.121 274.052 234.168 273.004C234.44 272.733 234.776 272.353 235.13 271.933C235.473 271.526 235.837 271.123 236.203 270.719L236.203 270.718L236.203 270.718V270.718C236.203 270.718 236.203 270.718 236.204 270.718L236.204 270.718C237.616 269.155 239.06 267.558 239.461 265.543C239.772 263.976 239.714 261.756 238.69 258.685C236.979 253.554 237.171 250.799 237.311 248.777C237.387 247.681 237.448 246.8 237.184 245.872C236.429 243.234 236.429 241.726 240.95 238.335C245.472 234.945 256.399 227.408 259.038 225.902C260.958 224.804 264.679 222.307 266.558 221.031C266.6 221.002 266.643 220.974 266.686 220.945C266.741 220.909 266.795 220.873 266.85 220.837C266.945 220.775 267.04 220.714 267.135 220.653L267.136 220.653C267.722 220.275 268.31 219.897 268.794 219.399C269.43 218.745 270.144 217.683 270.342 216.105C270.569 214.284 273.271 211.638 275.459 209.496C276.893 208.092 278.106 206.904 278.255 206.307C278.521 205.251 281.008 203.084 282.471 201.883C283.13 201.342 283.839 200.874 284.551 200.404L284.686 200.315C286.215 199.306 288.691 197.445 288.429 196.135C288.052 194.252 295.213 190.862 296.343 190.862C296.563 190.862 296.969 190.933 297.481 191.023C299.594 191.395 303.503 192.082 303.503 189.352C303.503 185.962 303.503 185.207 307.272 182.193C308.1 181.531 308.983 180.795 309.876 180.051C313.047 177.409 316.351 174.656 317.822 174.656C318.932 174.656 321.611 173.48 324.164 172.359L324.165 172.359C325.946 171.578 327.666 170.823 328.749 170.513C329.475 170.305 330.63 169.869 331.764 169.44C334.752 168.311 337.604 167.234 332.141 170.513C327.515 173.287 327.574 173.365 327.961 173.883C328.204 174.209 328.578 174.709 327.996 176.164C326.491 179.931 325.357 184.832 332.518 179.178C335.488 176.833 337.161 175.266 338.291 174.209C339.883 172.717 340.394 172.239 341.938 172.019C342.9 171.882 343.261 171.995 343.604 172.103C344.204 172.29 344.752 172.462 348.343 171.264C349.297 170.947 350.1 170.661 350.777 170.406C353.271 169.466 357.626 166.923 355.539 165.265C355.528 165.255 355.516 165.246 355.504 165.237C354.981 164.845 355.002 164.408 355.017 164.098C355.046 163.514 355.052 163.382 351.359 164.859C350.427 165.232 349.66 165.553 349.011 165.825C345.718 167.204 345.463 167.311 342.315 166.366C341.42 166.097 340.418 165.914 339.467 165.739C336.415 165.18 333.879 164.715 337.04 161.842C338.57 160.451 340.255 159.419 341.601 158.595C343.899 157.188 345.207 156.387 343.068 155.437C339.678 153.93 331.011 155.815 329.881 156.19C329.342 156.37 328.461 156.293 327.442 156.204C326.322 156.106 325.035 155.993 323.851 156.19C321.591 156.567 322.344 153.178 323.851 152.423C325.359 151.668 330.258 149.407 336.286 147.9C342.315 146.393 357.012 146.016 360.402 146.016C361.135 146.016 361.92 146.052 362.727 146.088C365.658 146.22 368.884 146.364 370.953 144.886C371.716 144.341 372.702 143.701 373.734 143.029C376.267 141.383 379.085 139.552 379.62 138.479C380.073 137.575 381.339 136.4 382.279 135.605L382.428 135.479C383.103 134.909 383.781 134.337 384.31 133.63C385.151 132.504 386.097 130.775 384.895 129.814C384.261 129.307 383.628 128.587 383.008 127.883C381.786 126.495 380.62 125.169 379.62 125.669C379.088 125.935 378.885 126.67 378.712 127.295C378.395 128.441 378.181 129.217 376.23 126.046C374.898 123.883 374.228 122.528 373.765 121.592L373.765 121.591C373.18 120.409 372.926 119.895 372.084 119.264C371.777 119.033 371.469 118.88 371.183 118.739C370.072 118.189 369.301 117.808 370.201 113.612C370.482 112.298 370.67 111.172 370.794 110.22C370.874 109.604 370.972 108.983 371.07 108.358L371.07 108.357C371.07 108.357 371.07 108.357 371.07 108.357V108.357C371.07 108.357 371.07 108.357 371.07 108.356C371.405 106.223 371.745 104.056 371.412 101.961C371.348 101.556 371.208 101.262 370.954 101.178C370.672 101.083 370.413 100.942 370.154 100.801C369.376 100.377 368.6 99.9531 367.188 100.8C365.302 101.93 354.752 107.206 352.492 108.337C350.23 109.467 347.215 103.815 348.345 101.178C349.049 99.5361 349.023 99.4986 348.54 98.7991C348.247 98.3738 347.785 97.7037 347.215 96.2793C345.708 92.5108 339.68 91.7558 337.418 91.7558C336.627 91.7558 335.469 91.3414 334.232 90.8988C331.929 90.0754 329.355 89.1546 328.374 90.6258C326.867 92.8859 318.955 100.044 317.445 100.8C317.01 101.018 316.512 100.575 315.996 100.117C314.727 98.9899 313.352 97.7686 312.549 106.075C312.065 111.067 312.751 114.545 313.226 116.95C313.862 120.174 314.118 121.471 310.665 121.902C308.156 122.216 305.778 122.986 303.856 123.778C302.963 124.146 301.986 124.43 301.004 124.715C298.618 125.408 296.201 126.109 294.885 128.049C294.623 128.435 294.463 128.893 294.463 129.437C294.463 132.454 292.579 139.611 290.316 140.365C288.056 141.12 282.402 139.99 280.519 137.728C278.93 135.82 280.29 129.621 280.754 127.73C280.843 127.367 281.035 127.038 281.299 126.774C282.541 125.532 281.857 123.397 280.124 123.106C273.242 121.951 260.27 119.62 260.546 118.51C260.733 117.767 258.992 116.748 257.09 115.635C255.138 114.493 253.016 113.251 252.634 112.105C251.881 109.843 251.503 104.945 252.258 103.061C253.011 101.178 263.185 92.1342 268.46 90.2508C271.055 89.3235 274.561 87.8498 277.769 86.5017L277.771 86.501L277.771 86.5007C281.084 85.1086 284.077 83.8507 285.417 83.4671C286.316 83.2106 287.432 83.0851 288.574 82.9568C290.785 82.7083 293.09 82.4492 294.084 81.207C294.715 80.4187 295.147 79.3671 295.437 78.4104C295.836 77.0931 295.813 75.7111 295.79 74.3307V74.3304C295.785 74.0207 295.78 73.7111 295.779 73.4023C295.778 72.1716 295.965 71.0301 296.721 71.4083C296.825 71.4604 296.935 71.5144 297.049 71.5701C297.16 71.6244 297.275 71.6804 297.393 71.7378L297.395 71.7386C298.908 72.4728 300.918 73.4481 301.243 74.4234C301.302 74.5995 301.352 74.8124 301.404 75.0347C301.685 76.2386 302.032 77.7216 304.258 75.1751C306.376 72.7565 308.979 71.55 311.482 70.3899L311.483 70.3893L311.487 70.3874C312.101 70.1029 312.709 69.8211 313.302 69.5249C314.79 68.7805 316.644 68.4956 318.458 68.2169C320.32 67.9308 322.14 67.6513 323.477 66.8881C323.95 66.6178 324.484 66.3474 325.044 66.0639C327.603 64.7673 330.704 63.1968 331.013 60.1044C331.301 57.2186 330.484 57.2069 329.239 57.1892C328.859 57.1838 328.438 57.1778 327.998 57.0893C327.234 56.9373 327.213 56.9707 327.032 57.265C326.766 57.6967 326.154 58.6894 322.346 60.4811C318.925 62.0901 317.868 62.1957 316.937 62.2886C316.125 62.3697 315.409 62.4412 313.302 63.4946C312.931 63.6799 312.589 63.8526 312.271 64.0125L312.266 64.0149C308.718 65.8031 308.371 65.9779 308.027 64.2496C307.886 63.5499 307.954 62.6946 308.094 61.8957C308.396 60.1832 308.192 58.6975 306.52 58.221C305.853 58.0305 305.354 57.9604 304.975 57.9072C303.857 57.7501 303.786 57.7401 303.505 55.2076C303.385 54.128 303.532 52.8957 303.667 51.7659C303.956 49.3463 304.189 47.3968 301.621 48.4239C300.542 48.8556 299.493 48.9472 298.485 49.0353C295.972 49.2547 293.707 49.4526 291.824 54.8292C289.186 62.3645 280.142 70.2799 277.88 68.3948L277.624 68.1806C275.589 66.4824 275.17 66.133 273.358 66.133C272.49 66.133 271.462 65.6535 270.275 65.0993C268.884 64.4505 267.274 63.6994 265.445 63.4963C262.053 63.1196 251.878 63.1196 249.242 63.4963C248.309 63.6301 247.329 63.4808 246.352 63.332C244.566 63.0599 242.79 62.7894 241.327 64.2513C240.886 64.6926 240.401 65.1626 239.908 65.6418L239.906 65.643C237.872 67.6179 235.677 69.7477 235.677 70.6582C235.677 71.1676 234.988 70.3752 234.127 69.3857C233.079 68.1801 231.776 66.6819 231.155 66.8897C230.645 67.0597 229.751 66.7695 228.612 66.3999C227.227 65.9502 225.479 65.383 223.62 65.383C221.469 65.383 219.772 64.6248 218.531 64.0701C217.815 63.7502 217.25 63.4979 216.838 63.4979C216.288 63.4979 216.54 62.785 216.814 62.0092C217.103 61.1895 217.417 60.2996 216.838 60.1061C215.97 59.818 201.31 59.3056 194.563 59.0836C192.338 59.0104 190.156 58.5555 188.037 57.8759C185.486 57.0581 182.048 56.119 180.286 56.3393C179.326 56.4593 177.83 56.5791 176.031 56.7233L176.031 56.7233L176.03 56.7233C172.181 57.0317 166.941 57.4515 162.574 58.2227C159.011 58.8512 154.516 60.2956 150.709 61.5189C147.67 62.4953 145.07 63.3307 143.733 63.4979C140.718 63.8763 133.936 63.8763 132.806 61.9912C132.24 61.0495 132.334 60.6728 132.381 60.4845C132.395 60.431 132.404 60.3927 132.394 60.361C132.367 60.2809 132.214 60.2426 131.674 60.1078C130.992 59.938 130.851 59.6903 130.585 59.2252C130.265 58.6632 129.763 57.7838 127.907 56.341C126.494 55.2419 126.52 54.2085 126.541 53.3767C126.57 52.2118 126.59 51.4424 122.632 51.4424C120.23 51.4424 118.158 51.3949 116.216 51.3504C112.677 51.2693 109.569 51.1981 105.676 51.4424C102.566 51.6367 97.7524 52.5324 93.6131 53.3026L93.6131 53.3026C89.7268 54.0258 86.435 54.6383 85.7054 54.4559C85.1177 54.309 82.9247 54.5634 80.3562 54.8615C76.3396 55.3276 71.4046 55.9002 70.2548 55.2109C69.1937 54.5734 65.7402 55.9691 62.5901 57.2423C60.1485 58.2291 57.8892 59.1422 57.0675 58.9777C55.1841 58.6011 48.0238 59.3561 46.1404 60.4861C45.6259 60.795 44.578 61.1879 43.3876 61.6342C40.2167 62.8229 36.0346 64.3908 38.2267 65.7614C40.6178 67.2558 40.8745 68.7502 41.0667 69.8691C41.1167 70.1604 41.1624 70.4262 41.2402 70.6599C42.2646 73.7196 36.5088 74.0717 33.475 72.9733L33.3282 72.92C29.183 71.4116 24.6611 70.6599 22.776 71.79C20.8926 72.92 17.5008 75.1835 18.2542 76.6902C19.0092 78.1969 24.2828 81.5887 25.0378 80.457C25.7912 79.327 27.6763 77.0669 29.9363 77.4436C30.6219 77.5582 31.4113 77.465 32.0946 77.3842H32.0946H32.0947H32.0948C33.6657 77.1986 34.676 77.0792 32.5748 79.7053C29.5597 83.4721 26.9212 85.3572 25.0378 85.7356C23.4014 86.0614 19.7731 86.3885 16.1308 86.7169L16.1303 86.7169C15.5807 86.7665 15.0308 86.816 14.4874 86.8656C13.1869 86.9843 12.3313 86.8803 11.6533 86.798C10.1693 86.6177 9.5359 86.5407 6.95036 89.1274C5.32916 90.7486 4.12631 91.2534 3.22193 91.6329C2.025 92.1353 1.35089 92.4182 0.921768 94.7793C0.699375 96.0025 0.476981 96.8646 0.312728 97.5013C-0.0794312 99.0214 -0.140173 99.2569 0.921768 100.055C1.58706 100.554 1.07699 100.906 0.591799 101.241C-0.0218534 101.664 -0.595715 102.06 1.29845 102.691C1.78686 102.854 2.29093 103.017 2.7949 103.18L2.79496 103.18C5.78914 104.149 8.7795 105.116 8.45709 106.081C8.30783 106.528 8.86283 106.388 9.4508 106.24C10.3532 106.012 11.3333 105.765 9.96382 107.588C7.70205 110.605 6.19699 113.24 10.7172 110.227C13.2478 108.54 15.188 108.505 17.0666 108.471C18.5448 108.444 19.9848 108.418 21.6443 107.588C23.4776 106.672 25.3109 106.112 26.9705 105.606C28.7224 105.071 30.2808 104.595 31.4414 103.821C32.2507 103.282 32.9152 102.646 33.5902 102L33.5902 102C34.8015 100.841 36.047 99.649 38.225 98.9211C40.3697 98.2066 40.254 98.547 39.9742 99.37C39.8115 99.8486 39.5933 100.49 39.7318 101.183C39.7877 101.463 39.8271 101.709 39.8609 101.922C40.0548 103.137 40.0679 103.219 41.9935 101.935C43.0692 101.217 43.6329 101.098 44.2534 100.967C44.9366 100.822 45.6886 100.662 47.2688 99.6745C50.2822 97.7911 53.674 95.906 55.9358 97.0361C58.1959 98.1678 58.9493 98.1678 60.4577 98.1678C61.2109 98.1678 60.7403 98.0732 60.5048 98.0259L60.5047 98.0259L60.5046 98.0259C60.4405 98.013 60.3939 98.0036 60.3943 98.0006C60.3953 97.9927 60.7315 98.0302 61.9644 98.1678C63.0762 98.2907 63.2972 98.2114 63.4901 98.1423C63.8857 98.0004 64.163 97.9009 71.7615 99.6745C75.8003 100.616 78.7811 100.982 80.9786 101.251C84.9324 101.735 86.3506 101.909 86.8338 104.573C87.2364 106.783 87.8527 106.529 88.6258 106.21C89.3027 105.93 90.0998 105.602 90.979 106.833C91.7383 107.896 92.3755 108.164 92.9396 108.4C93.7747 108.751 94.4497 109.034 95.1242 111.732C96.2542 116.255 95.1242 128.689 94.3708 130.196C94.2614 130.415 94.16 130.602 94.0676 130.772L94.0675 130.772C93.5239 131.774 93.2955 132.195 93.6174 135.094C93.7384 136.183 94.2869 138.594 94.926 141.402L94.926 141.402L94.9261 141.402L94.9261 141.403C96.2769 147.339 98.032 155.053 97.0092 155.819C96.5913 156.132 96.1609 156.437 95.7299 156.743C93.583 158.267 91.4233 159.801 90.7272 162.307L90.4907 163.159C90.3156 163.789 90.074 164.397 89.7544 164.968C88.804 166.666 86.5813 170.482 84.5754 172.774C84.1924 173.212 83.7936 173.665 83.3858 174.129C80.9844 176.858 78.2731 179.94 76.6617 182.193C75.9262 183.223 75.2479 184.541 74.5372 185.922L74.5372 185.922C73.428 188.077 72.2402 190.385 70.6331 191.992C69.8657 192.759 69.1301 193.208 68.4914 193.597C66.9352 194.545 65.9538 195.143 66.4879 199.15C66.8646 201.976 66.8646 204.897 66.8646 207.629C66.8646 210.361 66.8646 212.904 67.2413 214.978C67.9963 219.123 69.8797 224.775 71.3865 227.037C72.3992 228.556 73.2425 229.054 74.4872 229.789C75.0944 230.148 75.7972 230.563 76.6617 231.18C76.8284 231.299 76.9982 231.42 77.1698 231.542C79.7138 233.348 82.6681 235.446 82.3136 237.21C82.1004 238.276 82.2492 242.481 82.4185 245.93C82.5544 248.7 83.3995 251.373 84.2381 254.026L84.2388 254.028C84.3651 254.427 84.4911 254.826 84.6146 255.225C84.9447 256.29 85.2171 257.474 85.3271 258.69C85.6171 261.869 87.2348 265.047 87.9738 266.356C88.2118 266.778 88.444 267.201 88.647 267.64L88.7782 267.925C89.3926 269.256 90.2541 270.534 91.1138 271.81L91.1144 271.811L91.1146 271.811C91.8851 272.955 92.6541 274.096 93.2424 275.27L93.2426 275.271L93.2427 275.271C94.2714 277.33 94.5977 277.982 94.8211 278.669C94.9248 278.988 95.0064 279.313 95.1258 279.791C95.315 280.546 95.4096 280.829 95.4569 280.97C95.4661 280.998 95.4736 281.02 95.4796 281.039C95.496 281.256 95.5042 281.356 95.5042 281.301C95.5042 281.195 95.5042 281.149 95.496 281.103C95.4946 281.096 95.493 281.088 95.4911 281.081C95.4881 281.068 95.4843 281.055 95.4796 281.039L95.4688 280.896C95.3587 279.432 94.9927 274.561 94.3725 273.009C93.98 272.028 93.792 270.944 93.5955 269.812C93.4147 268.77 93.2267 267.687 92.8657 266.603C92.5944 265.789 92.5674 264.925 92.5383 263.995C92.4866 262.344 92.4284 260.482 90.9823 258.313C88.9441 255.256 88.744 254.648 87.8955 252.07L87.8951 252.069C87.8029 251.789 87.703 251.485 87.5922 251.153C87.4665 250.776 87.3362 250.394 87.2058 250.012L87.2052 250.01C86.1635 246.96 85.1217 243.91 86.4621 243.239C86.8581 243.041 87.2281 242.558 87.6131 242.054C88.693 240.641 89.8913 239.074 92.114 243.239C93.1524 245.186 93.8779 246.284 94.3982 247.072C95.388 248.569 95.6356 248.944 95.8825 251.908C96.2271 256.062 97.2104 257.673 98.2443 259.367C98.3357 259.516 98.4275 259.667 98.5193 259.82C99.067 260.733 99.9685 262.708 100.924 264.802L100.924 264.802L100.924 264.803C101.94 267.029 103.017 269.389 103.795 270.747C104.413 271.83 104.524 271.77 104.674 271.688C104.89 271.569 105.187 271.407 107.185 274.515C110.19 279.19 110.83 280.61 112.247 283.757L112.248 283.759C112.43 284.163 112.624 284.595 112.838 285.066C113.797 287.176 114.561 288.212 115.229 289.118C115.873 289.992 116.429 290.745 116.983 292.225C117.756 294.288 117.648 294.587 117.261 295.655C117.082 296.148 116.844 296.805 116.605 297.876C116.547 298.139 116.502 298.403 116.469 298.668C116.184 300.961 117.861 302.401 119.621 303.912C121.003 305.099 122.437 306.329 123.01 308.05C123.191 308.591 124.494 309.305 125.886 310.067C127.402 310.898 129.024 311.786 129.417 312.572C129.862 313.463 131.752 314.483 133.225 315.17C134.435 315.734 135.634 316.325 136.769 317.029C138.093 317.851 139.848 318.918 140.719 319.354C141.835 319.911 144.6 320.469 145.964 320.722C146.489 320.819 147.01 320.927 147.527 321.06C148.499 321.31 150.129 321.738 150.895 321.992C152.211 322.431 153.661 321.847 155.083 321.274C156.689 320.627 158.259 319.994 159.562 320.862C160.026 321.171 160.744 320.972 161.507 320.761C162.604 320.457 163.794 320.127 164.46 321.237C165.073 322.259 166.017 322.727 166.933 323.181C167.709 323.565 168.464 323.94 168.982 324.631C169.568 325.412 170.154 325.788 170.846 326.232C171.487 326.644 172.22 327.114 173.128 328.021C174.156 329.048 175.183 329.403 176.211 329.758C177.067 330.054 177.923 330.35 178.779 331.034C180.663 332.541 182.17 332.541 184.431 332.541C185.767 332.541 186.313 332.541 186.848 332.619C187.218 332.673 187.583 332.765 188.199 332.919L188.2 332.92C188.752 333.058 189.203 332.942 189.627 332.834C190.36 332.647 191.012 332.48 191.967 333.675C192.4 334.216 192.802 334.696 193.182 335.148L193.183 335.15C194.124 336.271 194.929 337.23 195.733 338.571C196.174 339.306 196.844 339.754 197.519 340.206C198.577 340.913 199.649 341.63 199.879 343.47C200.055 344.881 200.314 345.549 200.539 346.131C200.796 346.793 201.009 347.344 201.009 348.745C201.009 351.384 202.515 352.514 203.647 353.269C204.187 353.629 205.42 354.68 206.557 355.678C208.115 357.045 209.994 358.002 212.027 358.409C213.703 358.745 215.282 359.451 216.649 360.477L217.154 360.855C218.438 361.819 219.877 362.558 221.408 363.041L223.855 363.814C223.862 363.816 223.87 363.817 223.877 363.817ZM328.933 42.0378L328.932 42.038C326.114 44.2471 323.247 46.4942 324.419 47.6644C324.948 48.193 325.421 49.1611 325.926 50.1918L325.926 50.1921C327.039 52.4679 328.302 55.0494 330.637 53.8821C331.647 53.3769 332.005 52.5205 332.353 51.6866C333.175 49.7216 333.944 47.8815 343.07 51.0562C348.677 53.0061 351.655 53.1694 353.456 53.2682C355.832 53.3985 356.159 53.4164 357.766 57.274C357.835 57.438 357.903 57.6011 357.97 57.7632C358.051 57.9573 358.132 58.1501 358.212 58.3413C360.821 64.5873 362.762 69.2322 361.156 70.8396C360.849 71.1474 360.578 71.4553 360.308 71.7631C359.089 73.1512 357.87 74.5392 353.243 75.9273C347.591 77.6232 345.329 79.8849 349.287 82.7092C352.072 84.6992 356.541 86.6892 360.124 88.2851L360.125 88.2853C361.63 88.9557 362.979 89.5566 363.982 90.0587C367.374 91.753 377.548 92.3205 372.46 86.6686V86.6686C368.464 82.2288 381.682 85.9226 380.42 80.0839C380.308 79.5654 380.109 78.9392 379.81 78.189C378.114 73.9501 376.7 71.8306 375.994 70.7709C375.628 70.2233 375.452 69.9587 375.523 69.8308C375.589 69.7112 375.871 69.7112 376.418 69.7112C377.363 69.7112 378.702 70.2044 379.941 70.7787C381.743 71.6143 383.968 71.0002 384.857 69.2231V69.2231C385.245 68.4479 385.319 67.553 385.064 66.7246L383.785 62.5689C383.401 61.3202 382.717 60.1845 381.793 59.2607V59.2607C378.558 56.0262 379.887 48.2797 375.514 46.9379C374.978 46.7737 374.342 46.6379 373.59 46.5377C365.772 45.4955 365.643 45.4145 362.124 43.1903C361.827 43.0027 361.506 42.7999 361.155 42.58C360.716 42.3062 360.315 42.0482 359.941 41.8073C356.449 39.5616 355.247 38.7883 347.589 40.3199C343.942 41.0495 341.341 41.6743 339.561 42.1495C337.553 42.6854 335.334 42.1885 333.87 40.7142L332.358 39.192C332.354 39.1874 332.347 39.1848 332.341 39.1848V39.1848C332.334 39.1848 332.328 39.1873 332.324 39.1919C331.448 40.0661 330.195 41.0481 328.933 42.0378ZM222.112 36.924C218.724 34.6664 209.696 42.5588 206.296 45.9567C206.292 45.961 206.295 45.9678 206.301 45.9678V45.9678C206.301 45.9678 206.301 45.9678 206.302 45.9677C206.311 45.9666 210.824 45.4053 213.065 47.0995C214.858 48.4439 217.006 48.3669 219.508 48.2773C220.162 48.2538 220.84 48.2295 221.543 48.2295C222.871 48.2295 223.419 48.143 223.561 48.3432C223.78 48.6543 223.018 49.6573 222.675 52.7514C222.285 56.2676 223.784 57.0842 225.12 57.8125C225.718 58.138 226.283 58.4458 226.632 58.9691C227.182 59.7934 227.731 59.6832 228.734 59.4819C229.795 59.269 231.364 58.9542 233.978 59.535C236.497 60.0945 237.215 60.377 237.846 60.2453C238.489 60.1111 239.043 59.5461 241.326 58.405C245.575 56.2798 247.828 57.6487 250.429 59.2286C250.597 59.3301 250.765 59.4326 250.936 59.535C252.524 60.4875 255.359 59.4787 258.641 58.3111C261.203 57.3996 264.037 56.3913 266.763 56.1432C270.319 55.8196 270.177 54.942 269.828 52.7699C269.566 51.1437 269.187 48.7918 270.155 45.4036C271.494 40.7142 267.872 42.3759 263.993 44.1556C261.326 45.3793 258.537 46.6587 257.155 45.9678C255.367 45.0734 253.421 45.7509 251.484 46.4253C249.748 47.0298 248.019 47.6319 246.416 47.0978C243.162 46.0136 238.867 42.3284 235.031 39.0357C234.868 38.8963 234.707 38.7577 234.546 38.6199C232.386 36.7685 229.889 37.1064 227.516 37.4275C225.541 37.6948 223.652 37.9505 222.112 36.924Z" fill="white"/></svg>